<?xml version="1.0" encoding="utf-8"?>
<!-- Generator: Adobe Illustrator 19.1.0, SVG Export Plug-In . SVG Version: 6.00 Build 0)  -->
<svg version="1.1" id="Layer_1" xmlns="http://www.w3.org/2000/svg" xmlns:xlink="http://www.w3.org/1999/xlink" x="0px" y="0px"
	 viewBox="0 0 153.7 347.1" style="enable-background:new 0 0 153.7 347.1;" xml:space="preserve">
<style type="text/css">
	.st0{fill:none;stroke:#FFFFFF;stroke-width:2;stroke-linecap:round;stroke-linejoin:round;stroke-miterlimit:10;}
</style>
<g>
	<path class="st0" d="M16.1,115.6c0,9.7,0.1,19.3,0,29c-0.1,6.2-1,12.3-0.9,18.5c0.2,18.8,0.7,37.7,0.9,56.5c0,4.3-1.3,8.7-1.4,13
		c-0.2,14.5-0.2,29,0,43.5c0.2,16.8,2.1,33.5,5.5,50c0.8,3.9,1.5,7.9,3.1,11.4c0.9,1.9,3.3,4.1,5.4,4.4c8.1,1.4,16.3,2.5,24.5,3.1
		c9.1,0.7,18.4,1.4,27.5,0.9c14.9-0.8,29.7-2.2,44.5-4c5.7-0.7,7.2-6.3,7.9-10.9c3.2-21.7,6.7-43.4,6.1-65.5
		c-0.2-7.8-0.8-15.7-0.9-23.5c-0.1-4,1.4-8.1,0.8-12c-2.8-17.3-1.6-34.7-1.8-52c-0.1-5.5,1.3-11,1.3-16.5c0-5.5-1.2-11-1.3-16.5
		c-0.2-8.3-0.1-16.7-0.1-25c0-1.5,0-3,0-5.6c-1-0.4-2.8-1.1-5.2-2.1c-5.6,21-5.9,41.3-5.8,62.5c2.3-0.8,3.9-1.3,6-2
		c0-9.5,0.1-19.2,0-28.8c-0.1-9-0.3-18-0.5-27"/>
	<path class="st0" d="M25.6,93.6c8.5-4.4,17.4-7,27-7.5c8.8-0.5,17.7-2.3,26.5-1.7c12.6,0.8,25.4,0,37.5,4.8c1.5,0.6,3,0.9,4.5,1.5
		c10,4.3,9.8,4.3,7.6,15c-1.5,7.1-2.4,14.3-3.6,21.5c-0.1,0.4-0.6,0.7-1,1"/>
	<path class="st0" d="M24.1,313.6c4.1-8,5.1-16.3,3.1-25c-0.5-2.2-0.1-4.6-0.1-7c0-9.2,0-18.3,0-27.6c-5,0-5.9,3.3-5.9,6.6
		c0.1,15.2,0.5,30.3,1,45.5c0.1,2.5,0.9,5,1.4,7.5"/>
	<path class="st0" d="M129.6,313.6c0.5-0.8,1.4-1.7,1.4-2.5c0.4-17,0.7-34,1.1-51c0.1-3.7-1.2-6.3-6-6c0,13.6,0,27.3,0,41
		c0,5.9-0.6,12,2.5,17.5"/>
	<path class="st0" d="M16.6,105.1c-0.5-20.7-3.4-41.4-0.3-62c1.4-9.2,4.4-18.2,7.6-26.9c1.1-3.1,4.7-6.1,7.8-7.4
		C43.6,4,56,0.6,69.1,1c11.7,0.4,23.5-0.9,35,2.1c6.4,1.7,12.8,3.7,19,6c3.8,1.5,6.3,4.2,7.2,8.9c1.8,8.8,5.5,17.3,7.1,26.1
		c1.2,6.8,0.8,14,0.7,21c-0.2,13.3-0.6,26.7-1,40"/>
	<path class="st0" d="M29.1,335.6c1-2.6,2-5.1,3-7.5c29.7,4.9,58.8,4.9,88.7,0.1c1.2,2,2.6,4.3,4.8,7.9c-9.3,1.3-17.6,2.9-26,3.4
		c-11.6,0.7-23.3,0.8-35,0.5c-9.2-0.3-18.3-1.6-27.5-2.3c-1.6-0.1-3.3,0.3-5,0.5"/>
	<path class="st0" d="M26.6,228.1c0-14.5,0-29,0-43.3c-2-0.7-3.5-1.2-5.5-1.8c0,12.8,0,25.5,0,38.2c0,3.5,3.1,4,5.5,5"/>
	<path class="st0" d="M113.1,250.6c1.8,0,3.7,0,5.4,0c4.1-5.8,3.5-11.9,3.5-18c0-0.5-0.5-1.2-1-1.5c-3.1-2.2-2.3-4.4-1.2-7.6
		c2.6-7.1,3.4-14.5,0.3-22c-1.7-4.2-4-6.3-8.6-6c-6.8,0.4-13.7,0.5-20.5,0.5c-3.8,0-4.5,1.9-4.5,5.1c0,7,0,14,0,21"/>
	<path class="st0" d="M119.1,161.6c3.4-9,4.7-18-0.6-28c-8.3,0-17.1-0.2-25.9,0.2c-1.6,0.1-3.7,2.2-4.4,3.9
		c-3,7.1-2.3,14.4,0.5,21.4c1.6,4,4.8,6.2,9.4,6.1c3.3-0.1,6.7,0,10,0c3.2,0,6.4,0.3,9.1-2.4c0.8-0.8,2.9-0.5,4.8-0.7
		c1.9,8.6,1.4,16.6-0.1,25.1c-2.5,0-4.6,0-6.8,0"/>
	<path class="st0" d="M21.6,117.1c-0.2,6.5-0.4,13-0.5,19.5c-0.1,10.5,0.2,21-0.1,31.5c-0.1,4,1.4,5.9,5.8,6.8
		c0.9-19.6,0.7-38.8-4.2-57.7"/>
	<path class="st0" d="M126.6,227.6c0-14.3,0-28.7,0-42.8c2-0.7,3.5-1.2,5.5-1.8c0,0.9,0,1.5,0,2.2c0,10.8-0.2,21.7,0.1,32.5
		c0.1,4.2-0.7,7.3-5.1,8.5"/>
	<path class="st0" d="M94.6,250.6c-7.3,1.4-8.6,0.2-8.5-7c0.1-5,0-10,0-15.5c-5,0-10,0-15,0c-8.8,0-17.7,0-26.5,0
		c-9.8,0-12.3-1.9-13.4-11.5c-0.7-5.4-0.5-10.8,1.9-16c1.3-2.9,3.2-5,6.5-5c15.2,0.1,30.3,0.3,45.5,0.5c0.5,0,1,0.6,1.5,1"/>
	<path class="st0" d="M20.1,103.1c-0.5,1-1.1,2.9-1.5,2.9c-7.2-0.5-11.3,5.5-17.2,7.6c-0.1,2.5-0.2,4.5-0.4,7.5
		c6.1-2.6,11.5-4.5,16.5-7.1c3-1.5,4.2-1.1,4.6,2.1"/>
	<path class="st0" d="M87.1,233.6c1.2-0.2,2.3-0.5,3.8-0.8c0.1-1.5,0.3-3.4,0.3-4.1c9.2-0.7,18-1.4,26.8-2.1"/>
	<path class="st0" d="M133.1,103.1c0.4,0.8,0.8,1.6,1.4,2.8c6.1-0.6,10.7,3.6,15.5,6.9c1.7,1.2,1.9,4.6,2.8,7
		c-0.4,0.2-0.9,0.5-1.3,0.7c-4.5-1.6-8.9-3.2-13.4-4.9"/>
	<path class="st0" d="M89.6,161.6c-2.5,0.5-3.4,1.7-3.6,4.5c-1,11.6-0.7,15.4,2.4,21c1.9,0.2,4,0.3,6.2,0.5"/>
	<path class="st0" d="M131.1,226.6c-1.5,0.8-3.1,1.5-4.5,2.2c-1.2,8.8-0.7,10,5.7,12.5c-0.2-5.1-0.5-9.9-0.7-14.8"/>
	<path class="st0" d="M112.6,250.1c0.4-2.4,0.8-4.9,1.3-7.8c-7.3,0-13.3,0-19.8,0c0,2.1-0.4,4,0.1,5.7c0.4,1.5,1.9,3.9,2.9,3.8
		c5.2-0.3,10.6,1.7,15.5-1.3"/>
	<path class="st0" d="M58.6,250.1c0.2-2.3,0.4-4.7,0.7-7.5c-6.6,0-12.6,0-18.7,0c-2.5,6.4-0.5,9.7,6,9.4c4-0.1,8-0.9,12-1.4"/>
	<path class="st0" d="M62.1,133.6c6.4,3,5.3,9.3,5.8,14.5c0.3,3.1-1,6.4-1.9,9.5c-1.3,4.9-4.9,7.5-10,7.5c-2.7,0-5.3-0.1-8,0
		c-4.7,0.2-9.4,0.2-13.3-4.4c-1.3,1.6-3.1,2.7-3.1,3.9c-0.1,6.2-0.1,12.4,0.6,18.5c0.2,1.6,2.6,4.1,4.3,4.3c6.3,1,12.6,1.6,19,1.5
		c3.8,0,7.6-1.6,11.9-2.7c2.4-6.7,1.9-14,0.5-21.2c-0.3-1.3-1.9-2.4-2.9-3.5"/>
	<path class="st0" d="M34.6,226.6c-1.1,2-2.1,3.9-3.2,5.9c-0.3-0.1-0.7-0.2-1-0.4c0.4,4,0.6,8,1.3,12c0.9,5.8,2.6,6.9,9,6.5"/>
	<path class="st0" d="M48.1,135.1c-4.1-0.5-8.3-1-12.2-1.5c-5.7,9.3-3.8,18.3-1.3,27.5"/>
	<path class="st0" d="M21.6,226.6c-0.7,4.9-1.1,9.8,0.4,15.1c6.2-3.2,5.2-7.9,5-11.7c-2.2-2.2-3.8-3.8-5.4-5.4"/>
	<path class="st0" d="M60.1,186.6c0.2-1.2,0.6-2.4,0.4-3.5c-0.4-2.4-0.3-4.9-4.5-4.2c-4.6,0.7-9.3,0.2-15.1,0.2
		c-2.8,1.6-2.3,4.7-0.9,8"/>
	<path class="st0" d="M24.6,94.6c0.2,5.3-0.1,10.7,0.6,16c0.7,5.6,2.3,11,3.7,17.5c1.5,0,3.4,0,5.2,0"/>
	<path class="st0" d="M66.6,229.1c0,6.8,0,13.7,0,21.7c7-0.8,13.5,1,20-1.2"/>
	<path class="st0" d="M95.1,188.1c6.4,2.4,12.7,1.6,19.5-0.1c0-2.2,0.4-4.2-0.1-5.9c-0.4-1.3-1.8-3.3-2.9-3.4
		c-5.2-0.2-10.3,0.1-15.5,0.4c-0.7,0-1.4,0.5-2.8,0.9c0.4,2.4,0.9,4.7,1.3,7"/>
	<path class="st0" d="M65.6,197.1c0.2,4.7,0.3,9.3,0.5,14"/>
	<path class="st0" d="M41.6,124.6c5.7,0,11.3,0,17,0"/>
	<path class="st0" d="M44.1,117.1c3.3,0,6.7,0,10,0"/>
	<path class="st0" d="M72.1,150.1c0.7,0.7,1.3,1.8,2,1.9c2.5,0.2,5,0.1,8,0.1c0-1.7,0-3.3,0-5"/>
	<path class="st0" d="M52.1,121.1c2.7,0.7,5.3,1.3,8,2"/>
	<path class="st0" d="M69.1,116.1c0.4,2.8,0.8,5.6,1.2,8.4c-2.5,0.6-4.9,1.1-7.2,1.6"/>
	<path class="st0" d="M83.1,125.1c4,0,8,0,12,0"/>
	<path class="st0" d="M59.1,250.6c2.5-0.3,5-0.7,7.5-1"/>
	<path class="st0" d="M96.1,116.1c2.3,0,4.7,0,7,0"/>
	<path class="st0" d="M41.1,129.1c-0.7,0.1-1.4,0.1-2,0.2c1.4,1.3,2.4,3.7,4.5,1.3"/>
	<path class="st0" d="M52.1,135.1c4.4,0,8.7-0.3,11-5"/>
	<path class="st0" d="M83.1,133.1c0,2,0,4,0,6"/>
	<path class="st0" d="M74.1,121.1c2,0,4,0,6,0"/>
	<path class="st0" d="M42.1,122.1c2-0.3,4-0.7,6-1"/>
	<path class="st0" d="M102.1,126.1c1.7,0,3.3,0,5,0"/>
	<path class="st0" d="M108.1,117.1c1.7,0,3.3,0,5,0"/>
	<path class="st0" d="M55.1,129.1c1.9,0.8,3.7,4.2,6,0.5c0,0-0.3-0.4-0.5-0.5c-0.1-0.1-0.3,0-0.5,0"/>
	<path class="st0" d="M71.1,128.1c0,1.7,0,3.3,0,5"/>
	<path class="st0" d="M42.1,183.1c-0.2,1.7-0.3,3.3-0.5,5"/>
	<path class="st0" d="M120.1,119.1c1.7,0.7,3.3,1.3,5,2"/>
	<path class="st0" d="M106.1,8.1c1.3,0.3,2.7,0.7,4,1"/>
	<path class="st0" d="M28.1,337.1c1.8,0,3.7,0,5.5,0"/>
	<path class="st0" d="M52.1,123.1c1.2,0.2,2.3,0.3,3.5,0.5"/>
	<path class="st0" d="M89.1,116.1c-0.3,1-0.7,2-1,3"/>
	<path class="st0" d="M126.1,15.1c1.2,1,2.3,2,3.5,3"/>
	<path class="st0" d="M84.6,126.6c-0.2,1.2-0.3,2.3-0.5,3.5"/>
	<path class="st0" d="M44.6,124.1c1.2-0.3,2.3-0.7,3.5-1"/>
	<path class="st0" d="M127.1,22.1c1,1,2,2,3,3"/>
	<path class="st0" d="M109.1,13.1c1,0.7,2,1.3,3,2"/>
	<path class="st0" d="M39.1,124.1c-1,1.3-2,2.7-3,4"/>
	<path class="st0" d="M37.1,130.1c0.5,1,1,2,1.5,3"/>
	<path class="st0" d="M39.1,127.1c1.5-0.5,3-1,4.5-1.5"/>
	<path class="st0" d="M28.1,119.1c0.7-0.7,1.3-1.3,2-2"/>
	<path class="st0" d="M24.1,24.1c0.7-0.7,1.3-1.3,2-2"/>
	<path class="st0" d="M43.6,133.6c0.7-0.3,1.3-0.7,2-1"/>
	<path class="st0" d="M42.1,15.1c0.7-0.7,1.3-1.3,2-2"/>
	<path class="st0" d="M46.6,131.6c0.5-0.2,1-0.3,1.5-0.5"/>
	<path class="st0" d="M23.6,18.1c1.2-1,2.3-2,3.5-3"/>
	<path class="st0" d="M81.1,175.1c0.3-0.3,0.7-0.7,1-1"/>
	<path class="st0" d="M58.1,126.1c0.5-0.2,1-0.3,1.9-0.6c0.3,0.5,0.7,1.1,1.1,1.6"/>
	<path class="st0" d="M87.1,124.1c-0.7-0.7-1.3-1.3-2-2"/>
	<path class="st0" d="M58.6,180.6c-0.2,0.5-0.3,1-0.5,1.5"/>
	<path class="st0" d="M129.1,335.1c0.5-0.2,1-0.3,1.5-0.5"/>
	<path class="st0" d="M72.1,174.1c0.3,0.3,0.7,0.7,1,1"/>
	<path class="st0" d="M53.1,131.1c0.5,0.2,1,0.3,1.5,0.5"/>
</g>
</svg>
