<?xml version="1.0" encoding="utf-8" ?>
<svg baseProfile="full" height="100%" version="1.1" viewBox="0,0,10000,10000" width="100%" xmlns="http://www.w3.org/2000/svg" xmlns:ev="http://www.w3.org/2001/xml-events" xmlns:xlink="http://www.w3.org/1999/xlink"><defs /><polyline fill="blue" points="-30291.779,-29890.811 -30240.539,-29891.322 -30170.58,-29895.859 -30170.58,-29924.141 -30240.664,-29927.176 -30291.779,-29929.189 -30291.779,-29890.811" stroke="black" /><polyline fill="blue" points="-30891.76,-29895.859 -30847.52,-29894.736 -30770.58,-29890.811 -30770.58,-29929.189 -30832.133,-29929.018 -30891.76,-29924.141 -30891.76,-29895.859" stroke="black" /><polyline fill="blue" points="-31751.41,-30105.428 -31723.131,-30105.428 -31719.068,-30138.375 -31703.902,-30172.439 -31687.406,-30192.613 -31700.207,-30205.521 -31723.131,-30197.342 -31751.41,-30197.342 -31751.41,-30105.428" stroke="black" /><polyline fill="blue" points="-31751.479,-30528.027 -31723.199,-30528.027 -31698.527,-30515.961 -31687.578,-30530.475 -31702.914,-30545.531 -31717.643,-30568.971 -31723.199,-30660.824 -31687.076,-30689.0 -31687.076,-30729.32 -31751.479,-30729.32 -31751.479,-30528.027" stroke="black" /><polyline fill="blue" points="-31222.795,-30619.082 -31222.795,-30600.9 -31178.637,-30600.9 -31177.432,-30584.828 -31202.805,-30560.086 -31190.066,-30547.115 -31150.93,-30582.32 -31123.793,-30595.264 -31088.203,-30600.9 -31051.76,-30596.977 -31018.842,-30582.32 -30990.336,-30559.475 -30978.627,-30573.381 -31003.186,-30593.613 -30956.156,-30600.9 -30956.156,-30619.082 -31222.795,-30619.082" stroke="black" /><polyline fill="blue" points="-30884.209,-30000.842 -30812.855,-30000.842 -30812.855,-30019.021 -30835.695,-30020.881 -30876.559,-30037.002 -30884.318,-30020.561 -30884.209,-30019.021 -30884.209,-30000.842" stroke="black" /><polyline fill="blue" points="-31630.381,-30274.078 -31617.58,-30261.17 -31603.918,-30277.029 -31596.303,-30279.08 -31578.123,-30279.08 -31578.123,-30460.881 -31596.303,-30460.881 -31604.324,-30466.357 -31618.701,-30479.535 -31629.648,-30465.021 -31612.313,-30447.373 -31600.406,-30424.004 -31596.303,-30396.195 -31596.303,-30358.992 -31600.354,-30325.578 -31609.074,-30303.143 -31630.381,-30274.078" stroke="black" /><polyline fill="blue" points="-29991.609,-30688.871 -29964.648,-30682.055 -29955.154,-30659.555 -29926.875,-30659.607 -29928.52,-30688.863 -29939.205,-30708.852 -29960.279,-30726.514 -29991.609,-30729.271 -29991.609,-30688.871" stroke="black" /><polyline fill="blue" points="11698.826,-17462.0 11698.688,-17413.98 11703.088,-17387.191 11893.804,-17410.688 12082.526,-17413.76 12082.526,-17462.24 11698.826,-17462.0" stroke="black" /><polyline fill="blue" points="12337.999,-17462.24 12337.999,-17413.76 12516.96,-17412.016 12717.164,-17387.164 12721.212,-17413.76 12721.212,-17462.24 12337.999,-17462.24" stroke="black" /><polyline fill="blue" points="12184.909,-17329.807 12123.482,-17329.807 12112.754,-17083.85 12098.205,-17000.865 12131.876,-16996.074 12133.521,-16981.434 12184.909,-16981.434 12184.909,-17329.807" stroke="black" /><polyline fill="blue" points="12235.5,-16981.434 12286.404,-16981.434 12288.022,-16996.813 12321.942,-17001.977 12298.76,-17258.824 12299.479,-17329.807 12235.5,-17329.807 12235.5,-16981.434" stroke="black" /><polyline fill="blue" points="12083.699,-17513.85 12083.699,-17567.178 11904.689,-17567.178 11701.354,-17596.939 11697.19,-17567.178 11697.19,-17513.85 12083.699,-17513.85" stroke="black" /><polyline fill="blue" points="12721.854,-17517.625 12721.854,-17566.105 12717.71,-17593.162 12526.222,-17568.992 12337.257,-17566.105 12337.257,-17517.625 12721.854,-17517.625" stroke="black" /><polyline fill="blue" points="12184.717,-17999.43 12133.562,-17999.43 12131.995,-17984.213 12097.466,-17979.479 12118.807,-17821.662 12118.562,-17649.332 12184.717,-17649.332 12184.717,-17999.43" stroke="black" /><polyline fill="blue" points="12235.507,-17650.193 12298.605,-17650.193 12302.746,-17810.85 12316.929,-17991.807 12289.673,-17995.217 12286.411,-17998.566 12235.507,-17998.566 12235.507,-17650.193" stroke="black" /><polyline fill="blue" points="-9430.655,-6244.424 -9192.896,-6245.0 -9430.655,-6244.424" stroke="black" /><polyline fill="blue" points="-9923.742,-6295.573 -9923.742,-6244.063 -9848.628,-6244.063 -9848.628,-6295.573 -9858.973,-6331.895 -9888.39,-6332.383 -9923.742,-6295.573" stroke="black" /><polyline fill="blue" points="-14050.655,19495.576 -13812.896,19495.0 -14050.655,19495.576" stroke="black" /><polyline fill="blue" points="-14543.742,19444.428 -14543.742,19495.938 -14468.628,19495.938 -14468.628,19444.428 -14478.973,19408.105 -14508.39,19407.617 -14543.742,19444.428" stroke="black" /><polyline fill="blue" points="38584.426,28189.344 38585.0,28427.105 38584.426,28189.344" stroke="black" /><polyline fill="blue" points="38635.574,27696.258 38584.063,27696.258 38584.063,27771.371 38635.574,27771.371 38671.895,27761.027 38672.383,27731.611 38635.574,27696.258" stroke="black" /><polyline fill="blue" points="52609.344,2995.576 52847.105,2995.0 52609.344,2995.576" stroke="black" /><polyline fill="blue" points="52116.258,2944.427 52116.258,2995.937 52191.371,2995.937 52191.371,2944.427 52181.027,2908.105 52151.609,2907.617 52116.258,2944.427" stroke="black" /><polyline fill="blue" points="51657.629,-18003.533 51500.578,-17900.016 51528.746,-17858.098 51690.367,-17961.965 51657.629,-18003.533" stroke="black" /><polyline fill="blue" points="12723.533,27237.627 12620.016,27080.58 12578.098,27108.746 12681.965,27270.367 12723.533,27237.627" stroke="black" /><polyline fill="blue" points="40608.777,-6596.996 40608.777,-6661.166 40566.004,-6661.166 40566.004,-6596.996 40608.777,-6596.996" stroke="black" /><polyline fill="blue" points="40551.402,-6596.996 40551.402,-6661.166 40504.008,-6661.166 40504.008,-6596.996 40551.402,-6596.996" stroke="black" /><polyline fill="blue" points="40489.406,-6596.996 40489.406,-6661.166 40442.012,-6661.166 40442.012,-6596.996 40489.406,-6596.996" stroke="black" /><polyline fill="blue" points="40427.414,-6596.996 40427.414,-6661.166 40380.02,-6661.166 40380.02,-6596.996 40427.414,-6596.996" stroke="black" /><polyline fill="blue" points="40365.418,-6596.996 40365.418,-6661.166 40318.027,-6661.166 40318.027,-6596.996 40365.418,-6596.996" stroke="black" /><polyline fill="blue" points="40303.426,-6596.996 40303.426,-6661.166 40256.031,-6661.166 40256.031,-6596.996 40303.426,-6596.996" stroke="black" /><polyline fill="blue" points="40241.43,-6596.996 40241.43,-6661.166 40194.039,-6661.166 40194.039,-6596.996 40241.43,-6596.996" stroke="black" /><polyline fill="blue" points="40179.438,-6596.996 40179.438,-6661.166 40132.043,-6661.166 40132.043,-6596.996 40179.438,-6596.996" stroke="black" /><polyline fill="blue" points="40117.445,-6596.996 40117.445,-6661.166 40070.051,-6661.166 40070.051,-6596.996 40117.445,-6596.996" stroke="black" /><polyline fill="blue" points="40055.449,-6596.996 40055.449,-6661.166 40008.055,-6661.166 40008.055,-6596.996 40055.449,-6596.996" stroke="black" /><polyline fill="blue" points="39985.719,-6596.996 39985.719,-6661.166 39938.324,-6661.166 39938.324,-6596.996 39985.719,-6596.996" stroke="black" /><polyline fill="blue" points="40303.418,-6047.063 40303.418,-6111.232 40256.023,-6111.232 40256.023,-6047.063 40303.418,-6047.063" stroke="black" /><polyline fill="blue" points="40241.422,-6047.063 40241.422,-6111.232 40194.027,-6111.232 40194.027,-6047.063 40241.422,-6047.063" stroke="black" /><polyline fill="blue" points="40179.426,-6047.063 40179.426,-6111.232 40132.031,-6111.232 40132.031,-6047.063 40179.426,-6047.063" stroke="black" /><polyline fill="blue" points="40117.43,-6047.063 40117.43,-6111.232 40070.035,-6111.232 40070.035,-6047.063 40117.43,-6047.063" stroke="black" /><polyline fill="blue" points="40051.348,-6047.063 40051.348,-6111.232 40008.039,-6111.232 40008.039,-6047.063 40051.348,-6047.063" stroke="black" /><polyline fill="blue" points="40489.5,-6158.64 40489.5,-6222.825 40442.012,-6222.825 40442.012,-6158.64 40489.5,-6158.64" stroke="black" /><polyline fill="blue" points="40427.508,-6158.64 40427.508,-6222.825 40380.02,-6222.825 40380.02,-6158.64 40427.508,-6158.64" stroke="black" /><polyline fill="blue" points="40365.512,-6158.64 40365.512,-6222.825 40318.027,-6222.825 40318.027,-6158.64 40365.512,-6158.64" stroke="black" /><polyline fill="blue" points="40303.52,-6158.64 40303.52,-6222.825 40256.031,-6222.825 40256.031,-6158.64 40303.52,-6158.64" stroke="black" /><polyline fill="blue" points="40241.527,-6158.64 40241.527,-6222.825 40194.039,-6222.825 40194.039,-6158.64 40241.527,-6158.64" stroke="black" /><polyline fill="blue" points="40179.531,-6158.64 40179.531,-6222.825 40132.043,-6222.825 40132.043,-6158.64 40179.531,-6158.64" stroke="black" /><polyline fill="blue" points="40117.539,-6158.64 40117.539,-6222.825 40070.051,-6222.825 40070.051,-6158.64 40117.539,-6158.64" stroke="black" /><polyline fill="blue" points="40608.777,-6158.655 40608.777,-6222.825 40566.004,-6222.825 40566.004,-6158.655 40608.777,-6158.655" stroke="black" /><polyline fill="blue" points="40551.496,-6158.64 40551.496,-6222.825 40504.008,-6222.825 40504.008,-6158.64 40551.496,-6158.64" stroke="black" /><polyline fill="blue" points="39993.551,-6158.64 39993.551,-6222.825 39946.063,-6222.825 39946.063,-6158.64 39993.551,-6158.64" stroke="black" /><polyline fill="blue" points="40055.543,-6158.64 40055.543,-6222.825 40008.055,-6222.825 40008.055,-6158.64 40055.543,-6158.64" stroke="black" /><polyline fill="blue" points="31447.625,28206.332 31454.354,28183.311 31454.299,28159.266 31382.855,28159.209 31358.713,28154.148 31351.566,28178.238 31447.625,28206.332" stroke="black" /><polyline fill="blue" points="32233.389,28267.008 32368.494,28226.129 32361.402,28202.688 32330.572,28210.787 32296.621,28215.021 32222.693,28218.875 32223.959,28243.133 32233.389,28267.008" stroke="black" /><polyline fill="blue" points="32572.375,27893.668 32565.646,27916.689 32565.701,27940.734 32637.145,27940.791 32661.287,27945.852 32668.434,27921.762 32572.375,27893.668" stroke="black" /><polyline fill="blue" points="31786.611,27832.992 31651.506,27873.871 31658.598,27897.313 31689.428,27889.215 31723.379,27884.979 31797.307,27881.125 31796.041,27856.867 31786.611,27832.992" stroke="black" /><polyline fill="blue" points="5707.625,-17333.668 5714.353,-17356.689 5714.298,-17380.734 5642.856,-17380.791 5618.712,-17385.852 5611.567,-17361.762 5707.625,-17333.668" stroke="black" /><polyline fill="blue" points="6493.388,-17272.992 6628.495,-17313.871 6621.401,-17337.313 6590.572,-17329.213 6556.621,-17324.979 6482.693,-17321.125 6483.958,-17296.867 6493.388,-17272.992" stroke="black" /><polyline fill="blue" points="6832.374,-17646.332 6825.647,-17623.311 6825.701,-17599.266 6897.144,-17599.209 6921.287,-17594.148 6928.433,-17618.238 6832.374,-17646.332" stroke="black" /><polyline fill="blue" points="6046.611,-17707.008 5911.505,-17666.129 5918.598,-17642.688 5949.427,-17650.785 5983.379,-17655.021 6057.306,-17658.875 6056.041,-17683.133 6046.611,-17707.008" stroke="black" /><polyline fill="blue" points="-23870.213,19791.188 -23873.414,19740.289 -24002.975,19735.984 -24363.658,19757.457 -24400.006,19710.977 -24450.918,19713.98 -24497.506,19761.26 -24849.887,19788.588 -24964.559,19807.441 -24983.27,19809.664 -24979.359,19860.51 -23870.213,19791.188" stroke="black" /><polyline fill="blue" points="-1430.213,10551.188 -1433.413,10500.289 -1562.974,10495.985 -1923.658,10517.456 -1960.006,10470.977 -2010.917,10473.979 -2057.505,10521.26 -2409.887,10548.588 -2524.558,10567.44 -2543.269,10569.665 -2539.359,10620.51 -1430.213,10551.188" stroke="black" /><polyline fill="blue" points="37070.215,19148.813 37073.414,19199.711 37202.973,19204.016 37563.656,19182.543 37600.008,19229.023 37650.918,19226.02 37697.504,19178.74 38049.887,19151.412 38164.559,19132.559 38183.27,19130.336 38179.359,19079.49 37070.215,19148.813" stroke="black" /><polyline fill="blue" points="-16833.055,-9742.286 -16885.465,-9737.841 -16882.826,-9704.881 -16885.6,-9688.178 -16896.326,-9671.539 -16911.83,-9661.197 -16929.215,-9657.672 -16985.59,-9652.963 -16980.994,-9599.996 -16920.111,-9605.159 -16899.35,-9606.291 -16888.334,-9602.049 -16879.469,-9594.395 -16872.174,-9575.601 -16865.928,-9502.859 -16813.133,-9507.337 -16833.055,-9742.286" stroke="black" /><polyline fill="blue" points="-9082.286,10893.055 -9077.841,10945.465 -9044.881,10942.825 -9028.178,10945.601 -9011.539,10956.325 -9001.197,10971.83 -8997.672,10989.216 -8992.963,11045.589 -8939.996,11040.993 -8945.159,10980.112 -8946.291,10959.35 -8942.049,10948.334 -8934.395,10939.469 -8915.601,10932.173 -8842.859,10925.927 -8847.337,10873.132 -9082.286,10893.055" stroke="black" /><polyline fill="blue" points="47366.434,2739.284 47350.734,2731.05 47338.461,2715.518 47333.695,2697.5 47335.691,2682.184 47283.926,2669.242 47283.352,2671.528 47277.703,2691.54 47270.125,2700.589 47260.016,2706.5 47239.871,2707.321 47227.0,2758.799 47353.641,2790.458 47366.434,2739.284" stroke="black" /><polyline fill="blue" points="11340.0,10204.5 11340.0,10255.5 11532.695,10255.5 11656.258,10258.986 11790.139,10262.763 11823.59,10263.526 11877.869,10264.0 12240.0,10264.0 12240.0,10196.0 11877.869,10196.0 11823.59,10196.474 11790.139,10197.237 11532.695,10204.5 11340.0,10204.5" stroke="black" /><polyline fill="blue" points="47827.422,-1582.798 47872.57,-1582.798 47875.008,-1600.824 47884.41,-1615.583 47899.172,-1624.985 47917.195,-1627.423 47917.195,-1672.573 47899.184,-1675.011 47884.422,-1684.413 47875.02,-1699.172 47872.57,-1717.294 47827.422,-1717.294 47824.984,-1699.172 47815.582,-1684.413 47800.824,-1675.011 47782.938,-1672.573 47782.938,-1627.423 47800.824,-1624.985 47815.582,-1615.583 47824.984,-1600.824 47827.422,-1582.798" stroke="black" /><polyline fill="blue" points="47827.422,-2242.798 47872.57,-2242.798 47875.008,-2260.824 47884.41,-2275.583 47899.172,-2284.985 47917.195,-2287.423 47917.195,-2332.573 47899.184,-2335.011 47884.422,-2344.413 47875.02,-2359.171 47872.57,-2377.294 47827.422,-2377.294 47824.984,-2359.171 47815.582,-2344.413 47800.824,-2335.011 47782.938,-2332.573 47782.938,-2287.423 47800.824,-2284.985 47815.582,-2275.583 47824.984,-2260.824 47827.422,-2242.798" stroke="black" /><polyline fill="blue" points="46507.355,-2902.752 46552.504,-2902.752 46554.941,-2920.778 46564.344,-2935.537 46579.105,-2944.939 46597.129,-2947.377 46597.129,-2992.527 46462.871,-2992.527 46462.871,-2947.377 46480.758,-2944.939 46495.516,-2935.537 46504.918,-2920.778 46507.355,-2902.752" stroke="black" /><polyline fill="blue" points="46507.422,-1582.798 46552.57,-1582.798 46555.008,-1600.824 46564.41,-1615.583 46579.172,-1624.985 46597.195,-1627.423 46597.195,-1672.573 46579.184,-1675.011 46564.422,-1684.413 46555.02,-1699.172 46552.57,-1717.294 46507.422,-1717.294 46504.984,-1699.172 46495.582,-1684.413 46480.824,-1675.011 46462.938,-1672.573 46462.938,-1627.423 46480.824,-1624.985 46495.582,-1615.583 46504.984,-1600.824 46507.422,-1582.798" stroke="black" /><polyline fill="blue" points="46462.797,307.422 46462.797,352.572 46480.824,355.01 46495.582,364.412 46504.984,379.171 46507.422,397.197 46552.574,397.197 46555.012,379.182 46564.414,364.423 46579.172,355.021 46597.293,352.572 46597.293,307.422 46579.172,304.984 46564.414,295.581 46555.012,280.823 46552.574,262.937 46507.422,262.937 46504.984,280.823 46495.582,295.581 46480.824,304.984 46462.797,307.422" stroke="black" /><polyline fill="blue" points="47122.797,307.422 47122.797,352.572 47140.824,355.01 47155.582,364.412 47164.984,379.171 47167.422,397.197 47212.574,397.197 47215.012,379.182 47224.414,364.423 47239.172,355.021 47257.293,352.572 47257.293,307.422 47239.172,304.984 47224.414,295.581 47215.012,280.823 47212.574,262.937 47167.422,262.937 47164.984,280.823 47155.582,295.581 47140.824,304.984 47122.797,307.422" stroke="black" /><polyline fill="blue" points="47782.75,-1012.645 47782.75,-967.495 47800.777,-965.057 47815.535,-955.655 47824.938,-940.896 47827.375,-922.87 47872.527,-922.87 47872.527,-1057.13 47827.375,-1057.13 47824.938,-1039.244 47815.535,-1024.485 47800.777,-1015.083 47782.75,-1012.645" stroke="black" /><polyline fill="blue" points="46462.797,-1012.578 46462.797,-967.428 46480.824,-964.99 46495.582,-955.588 46504.984,-940.829 46507.422,-922.803 46552.574,-922.803 46555.012,-940.818 46564.414,-955.577 46579.172,-964.979 46597.293,-967.428 46597.293,-1012.578 46579.172,-1015.016 46564.414,-1024.419 46555.012,-1039.177 46552.574,-1057.063 46507.422,-1057.063 46504.984,-1039.177 46495.582,-1024.419 46480.824,-1015.016 46462.797,-1012.578" stroke="black" /><polyline fill="blue" points="-17339.863,-13198.036 -17424.217,-13358.475 -17494.047,-13512.432 -17612.162,-13802.403 -17659.826,-13783.801 -17704.23,-13758.703 -17385.078,-13173.36 -17339.863,-13198.036" stroke="black" /><polyline fill="blue" points="-13184.9,-21008.527 -13227.57,-21036.461 -13197.184,-21100.252 -13172.46,-21159.328 -13147.048,-21233.27 -13096.012,-21224.598 -13098.767,-21212.855 -13089.77,-21208.297 -13082.132,-21211.209 -13072.868,-21219.57 -13060.04,-21209.359 -13107.213,-21127.664 -13184.9,-21008.527" stroke="black" /><polyline fill="blue" points="-13743.018,-20808.348 -13777.276,-20808.0 -13813.276,-20820.0 -13829.365,-20841.453 -13850.565,-20822.371 -13849.276,-20808.0 -13873.276,-20808.0 -13873.276,-20772.0 -13742.74,-20772.0 -13743.018,-20808.348" stroke="black" /><polyline fill="blue" points="-10300.211,10916.509 -10169.676,10916.821 -10169.676,10863.759 -10300.211,10863.759 -10300.211,10916.509" stroke="black" /><polyline fill="blue" points="-26140.211,-8223.491 -26009.676,-8223.179 -26009.676,-8276.241 -26140.211,-8276.241 -26140.211,-8223.491" stroke="black" /><polyline fill="blue" points="-27460.211,-8223.491 -27329.676,-8223.179 -27329.676,-8276.241 -27460.211,-8276.241 -27460.211,-8223.491" stroke="black" /><polyline fill="blue" points="-8883.491,12280.211 -8883.179,12149.676 -8936.241,12149.676 -8936.241,12280.211 -8883.491,12280.211" stroke="black" /><polyline fill="blue" points="-8936.509,14119.789 -8936.821,14250.324 -8883.759,14250.324 -8883.759,14119.789 -8936.509,14119.789" stroke="black" /><polyline fill="blue" points="-8936.509,15439.789 -8936.821,15570.324 -8883.759,15570.324 -8883.759,15439.789 -8936.509,15439.789" stroke="black" /><polyline fill="blue" points="38029.199,752.105 37870.801,752.105 37870.801,897.6 37851.145,941.743 37811.398,957.0 37710.887,957.0 37710.887,1023.0 37811.398,1023.0 37852.664,1039.671 37870.801,1082.4 37870.801,1227.247 38029.199,1227.247 38029.199,752.105" stroke="black" /><polyline fill="blue" points="33492.016,-1994.387 34490.996,-1994.387 34490.996,-2498.921 33492.016,-2498.921 33492.016,-1994.387" stroke="black" /><polyline fill="blue" points="31580.0,3004.0 31580.0,2936.0 31435.5,2936.0 31410.219,2929.838 31393.451,2907.605 31390.5,2884.5 31390.5,2740.0 31309.5,2740.0 31309.5,2884.5 31309.5,3055.5 31309.5,3200.0 31390.5,3200.0 31390.5,3055.5 31391.748,3036.612 31410.199,3009.895 31435.5,3004.0 31580.0,3004.0" stroke="black" /><polyline fill="blue" points="31435.5,-364.0 31414.844,-367.349 31395.703,-386.0 31390.5,-415.5 31390.5,-560.0 31303.5,-560.0 31303.5,-100.0 31396.5,-100.0 31396.5,-244.5 31399.104,-268.842 31413.279,-290.107 31435.5,-296.0 31580.0,-296.0 31580.0,-364.0 31435.5,-364.0" stroke="black" /><polyline fill="blue" points="40624.0,2740.0 40556.0,2740.0 40556.0,2884.5 40536.066,2919.241 40504.5,2944.5 40360.0,2944.5 40360.0,2989.5 40504.5,2989.5 40504.5,2989.5 40564.5,3004.0 40820.0,3004.0 40820.0,2936.0 40675.5,2936.0 40644.996,2921.643 40624.0,2884.5 40624.0,2740.0" stroke="black" /><polyline fill="blue" points="34221.0,-956.0 34221.0,-1024.0 34075.582,-1023.999 34024.0,-1075.5 34024.0,-1221.0 33956.0,-1221.0 33956.0,-759.0 34024.0,-759.0 34024.0,-904.5 34075.5,-956.0 34221.0,-956.0" stroke="black" /><polyline fill="blue" points="33364.0,2740.0 33296.0,2740.0 33296.0,2884.419 33244.5,2936.0 33100.0,2936.0 33100.0,3004.0 33560.0,3004.0 33560.0,2936.0 33415.5,2936.0 33364.0,2884.5 33364.0,2740.0" stroke="black" /><polyline fill="blue" points="41944.0,2740.0 41876.0,2740.0 41876.0,2884.419 41824.5,2936.0 41680.0,2936.0 41680.0,3004.0 42140.0,3004.0 42140.0,2936.0 41995.5,2936.0 41944.0,2884.5 41944.0,2740.0" stroke="black" /><polyline fill="blue" points="33099.0,1616.0 33099.0,1684.0 33244.418,1683.999 33296.0,1735.5 33296.0,1881.0 33364.0,1881.0 33364.0,1419.0 33296.0,1419.0 33296.0,1564.5 33244.5,1616.0 33099.0,1616.0" stroke="black" /><polyline fill="blue" points="35078.0,2738.0 35078.0,3004.0 35542.0,3004.0 35542.0,2738.0 35078.0,2738.0" stroke="black" /><polyline fill="blue" points="35740.0,-1024.0 35740.0,-956.0 35884.5,-956.0 35925.816,-946.976 35936.0,-904.5 35936.0,-760.0 36004.0,-760.0 36004.0,-904.5 36013.582,-946.376 36055.5,-956.0 36200.0,-956.0 36200.0,-1024.0 36055.5,-1024.0 36013.977,-1033.231 36004.0,-1075.5 36004.0,-1220.0 35936.0,-1220.0 35936.0,-1075.5 35926.266,-1033.472 35884.5,-1024.0 35740.0,-1024.0" stroke="black" /><polyline fill="blue" points="35936.0,560.0 36004.0,560.0 36004.0,415.5 36055.5,364.0 36200.0,364.0 36200.0,296.0 36055.5,296.0 36004.0,244.5 36004.0,100.0 35936.0,100.0 35936.0,244.5 35884.5,296.0 35740.0,296.0 35740.0,364.0 35884.5,364.0 35936.0,415.5 35936.0,560.0" stroke="black" /><polyline fill="blue" points="42511.5,348.3 42541.5,348.3 42544.5,415.5 42544.5,560.0 42595.5,560.0 42595.5,415.5 42595.5,244.5 42595.5,100.0 42544.5,100.0 42544.5,244.5 42541.5,312.068 42511.5,312.068 42511.5,348.3" stroke="black" /><polyline fill="blue" points="39988.5,306.0 39965.449,303.816 39964.0,244.5 39964.0,100.0 39896.0,100.0 39896.0,244.5 39844.5,296.0 39700.0,296.0 39700.0,364.0 39844.5,364.0 39896.0,415.5 39896.0,560.0 39964.0,560.0 39964.0,415.5 39966.633,354.719 39988.5,354.0 39988.5,306.0" stroke="black" /><polyline fill="blue" points="33780.172,171.602 33856.523,244.01 33904.754,195.778 33831.918,120.865 33780.172,171.602" stroke="black" /><polyline fill="blue" points="33746.797,95.798 33717.738,63.523 33695.609,77.894 33672.883,84.387 33679.25,127.348 33710.68,122.218 33730.773,126.699 33746.797,95.798" stroke="black" /><polyline fill="blue" points="33723.52,57.722 33755.797,86.782 33787.914,70.379 33783.055,51.617 33786.801,22.639 33743.902,15.935 33736.648,38.261 33723.52,57.722" stroke="black" /><polyline fill="blue" points="33831.602,-120.171 33904.012,-196.524 33855.777,-244.756 33780.863,-171.919 33831.602,-120.171" stroke="black" /><polyline fill="blue" points="33755.797,-86.797 33723.523,-57.737 33737.895,-35.608 33744.387,-12.882 33787.348,-19.248 33782.219,-50.681 33786.699,-70.774 33755.797,-86.797" stroke="black" /><polyline fill="blue" points="33717.723,-63.52 33746.781,-95.795 33730.379,-127.915 33711.617,-123.055 33682.641,-126.802 33675.934,-83.901 33698.262,-76.647 33717.723,-63.52" stroke="black" /><polyline fill="blue" points="33539.828,-171.602 33463.477,-244.01 33415.246,-195.778 33488.082,-120.865 33539.828,-171.602" stroke="black" /><polyline fill="blue" points="33573.203,-95.798 33602.262,-63.523 33624.391,-77.894 33647.117,-84.387 33640.75,-127.348 33609.32,-122.218 33589.227,-126.699 33573.203,-95.798" stroke="black" /><polyline fill="blue" points="33596.48,-57.722 33564.203,-86.782 33532.086,-70.379 33536.945,-51.617 33533.199,-22.639 33576.098,-15.935 33583.352,-38.261 33596.48,-57.722" stroke="black" /><polyline fill="blue" points="33488.398,120.171 33415.988,196.524 33464.223,244.756 33539.137,171.919 33488.398,120.171" stroke="black" /><polyline fill="blue" points="33564.203,86.797 33596.477,57.737 33582.105,35.608 33575.613,12.882 33532.652,19.248 33537.781,50.681 33533.301,70.774 33564.203,86.797" stroke="black" /><polyline fill="blue" points="33602.277,63.52 33573.219,95.795 33589.621,127.915 33608.383,123.055 33637.359,126.802 33644.066,83.901 33621.738,76.647 33602.277,63.52" stroke="black" /><polyline fill="blue" points="31309.5,6213.0 31309.5,6327.922 31390.5,6327.922 31390.5,6213.0 31309.5,6213.0" stroke="black" /><polyline fill="blue" points="35929.199,-2932.8 36010.801,-2932.8 36010.801,-3007.2 35929.199,-3007.2 35929.199,-2932.8" stroke="black" /><polyline fill="blue" points="38288.293,-531.725 38811.578,-8.44 38931.559,-128.422 38408.273,-651.707 38288.293,-531.725" stroke="black" /><polyline fill="blue" points="38687.324,-541.707 38813.121,-415.909 38902.395,-505.182 38776.594,-630.979 38687.324,-541.707" stroke="black" /><polyline fill="blue" points="38317.508,-154.919 38443.305,-29.122 38532.574,-118.394 38406.777,-244.192 38317.508,-154.919" stroke="black" /><polyline fill="blue" points="39031.086,-2547.247 39031.086,-2072.105 39509.113,-2072.105 39509.113,-2547.247 39031.086,-2547.247" stroke="black" /><polyline fill="blue" points="42340.0,-2356.5 42340.0,-2263.5 42491.977,-2263.5 42526.887,-2250.358 42536.0,-2224.5 42536.0,-2080.0 42604.0,-2080.0 42604.0,-2224.5 42616.883,-2253.647 42648.0,-2263.5 42800.0,-2263.5 42800.0,-2356.5 42340.0,-2356.5" stroke="black" /><polyline fill="blue" points="43976.355,2353.781 43976.355,2276.0 43949.434,2261.821 43936.965,2224.5 43936.965,2079.616 43843.035,2079.616 43843.035,2224.5 43830.566,2261.821 43803.645,2276.0 43803.645,2353.781 43976.355,2353.781" stroke="black" /><polyline fill="blue" points="31580.0,1684.0 31580.0,1616.0 31435.5,1616.0 31413.279,1610.107 31399.104,1588.842 31396.5,1564.5 31396.5,1420.0 31303.5,1420.0 31303.5,1564.5 31303.5,1735.5 31303.5,1880.0 31391.664,1880.0 31391.664,1735.5 31394.664,1708.5 31414.844,1687.349 31435.5,1684.0 31580.0,1684.0" stroke="black" /><polyline fill="blue" points="35733.195,-2350.5 35733.195,-2269.5 35884.5,-2269.5 35920.918,-2256.182 35936.0,-2224.5 35936.0,-2076.701 36004.0,-2076.701 36004.0,-2224.5 36005.5,-2238.656 36036.609,-2262.304 36205.348,-2263.5 36205.348,-2356.5 36042.254,-2356.843 36004.199,-2385.634 36004.0,-2395.5 36004.0,-2543.888 35936.0,-2543.888 35934.246,-2383.903 35914.621,-2359.616 35884.5,-2350.5 35733.195,-2350.5" stroke="black" /><polyline fill="blue" points="40360.0,-2356.5 40360.0,-2263.5 40511.977,-2263.5 40538.766,-2256.532 40556.305,-2224.5 40556.305,-2080.0 40624.0,-2079.982 40624.0,-2224.482 40636.883,-2253.647 40668.0,-2263.5 40820.0,-2263.5 40820.0,-2356.5 40668.0,-2356.5 40636.883,-2366.353 40624.0,-2395.482 40624.0,-2539.982 40556.305,-2540.0 40556.305,-2395.5 40538.766,-2363.468 40511.977,-2356.5 40360.0,-2356.5" stroke="black" /><polyline fill="blue" points="41206.0,308.0 41206.0,352.0 41294.0,352.0 41294.0,308.0 41206.0,308.0" stroke="black" /><polyline fill="blue" points="37867.078,2030.102 37870.109,2094.802 37880.754,2159.503 38019.246,2159.503 38029.891,2094.802 38032.922,2030.102 37867.078,2030.102" stroke="black" /><polyline fill="blue" points="38250.227,2290.308 38204.773,2288.363 38204.773,2331.137 38250.227,2329.192 38250.227,2290.308" stroke="black" /><polyline fill="blue" points="37858.594,2344.605 38041.406,2344.804 38041.406,2253.56 37858.594,2253.56 37858.594,2344.605" stroke="black" /><polyline fill="blue" points="-33600.879,-29913.998 -33637.242,-29913.998 -33637.242,-29839.006 -33600.879,-29839.006 -33600.879,-29913.998" stroke="black" /><polyline fill="blue" points="-31439.359,-30000.906 -31304.775,-30000.906 -31304.775,-30019.086 -31300.637,-30033.543 -31313.492,-30046.398 -31331.932,-30031.129 -31355.385,-30021.414 -31387.598,-30019.086 -31439.359,-30019.086 -31439.359,-30000.906" stroke="black" /><polyline fill="blue" points="-29957.588,-30311.0 -29927.043,-30311.0 -29926.367,-30358.102 -29956.912,-30358.049 -29957.588,-30343.715 -29957.588,-30325.535 -29957.588,-30311.0" stroke="black" /><polyline fill="blue" points="9974.673,-17462.24 9974.673,-17413.76 10165.606,-17408.977 10406.516,-17392.936 10409.24,-17419.461 10409.273,-17462.209 9974.673,-17462.24" stroke="black" /><polyline fill="blue" points="14010.727,-17462.0 14010.76,-17419.461 14013.477,-17393.01 14247.322,-17410.75 14444.986,-17413.76 14444.986,-17462.24 14010.727,-17462.0" stroke="black" /><polyline fill="blue" points="14445.668,-17517.76 14445.668,-17566.24 14200.672,-17573.643 14013.469,-17586.908 14010.76,-17560.539 14010.727,-17518.0 14445.668,-17517.76" stroke="black" /><polyline fill="blue" points="10411.444,-17514.289 10411.411,-17561.553 10408.89,-17588.557 10172.646,-17569.736 9972.828,-17567.617 9972.828,-17514.289 10411.444,-17514.289" stroke="black" /><polyline fill="blue" points="12183.733,-19727.172 12133.3,-19727.172 12133.3,-19497.268 12111.892,-19291.641 12145.908,-19288.537 12183.733,-19288.537 12183.733,-19727.172" stroke="black" /><polyline fill="blue" points="12184.068,-15691.463 12145.891,-15691.463 12111.557,-15688.358 12128.6,-15483.391 12133.164,-15252.828 12184.068,-15252.828 12184.068,-15691.463" stroke="black" /><polyline fill="blue" points="12235.932,-15252.828 12286.836,-15252.828 12286.836,-15482.732 12308.443,-15688.358 12274.109,-15691.463 12235.932,-15691.463 12235.932,-15252.828" stroke="black" /><polyline fill="blue" points="12236.622,-19288.537 12274.073,-19288.537 12307.753,-19291.641 12286.557,-19497.268 12286.557,-19727.172 12236.622,-19727.172 12236.622,-19288.537" stroke="black" /><polyline fill="blue" points="-14114.0,13200.0 -14086.025,12673.691 -14113.828,12670.368 -14114.0,12670.368 -14162.0,12670.368 -14162.0,13200.0" stroke="black" /><polyline fill="blue" points="-13836.258,10915.5 -13836.258,10864.5 -13871.746,10829.07 -13901.742,10829.42 -13911.372,10864.5 -13911.372,10915.5 -13900.758,10951.945 -13871.633,10951.945 -13836.258,10915.5" stroke="black" /><polyline fill="blue" points="-14114.0,9087.375 -14113.273,9087.26 -14085.592,9083.053 -14114.0,8580.029 -14162.0,8580.029 -14162.0,9087.375" stroke="black" /><polyline fill="blue" points="-14218.0,9109.632 -14218.0,8580.0 -14266.0,8580.0 -14293.975,9106.309 -14266.172,9109.632 -14266.0,9109.632" stroke="black" /><polyline fill="blue" points="-14469.0,10915.5 -14469.0,10864.5 -14478.272,10833.835 -14508.433,10833.835 -14543.37,10864.5 -14543.37,10915.5 -14508.261,10946.198 -14479.134,10946.198 -14469.0,10915.5" stroke="black" /><polyline fill="blue" points="-14218.0,13199.971 -14218.0,12692.625 -14266.0,12692.625 -14266.729,12692.727 -14294.408,12696.947 -14266.0,13199.971" stroke="black" /><polyline fill="blue" points="46860.0,-38026.0 46333.691,-38053.973 46330.367,-38026.172 46330.367,-38026.0 46330.367,-37978.0 46860.0,-37978.0" stroke="black" /><polyline fill="blue" points="44575.5,-38303.742 44524.5,-38303.742 44489.07,-38268.254 44489.422,-38238.258 44524.5,-38228.629 44575.5,-38228.629 44611.945,-38239.242 44611.945,-38268.367 44575.5,-38303.742" stroke="black" /><polyline fill="blue" points="42747.375,-38026.0 42747.258,-38026.727 42743.055,-38054.406 42240.027,-38026.0 42240.027,-37978.0 42747.375,-37978.0" stroke="black" /><polyline fill="blue" points="42769.633,-37922.0 42240.0,-37922.0 42240.0,-37874.0 42766.309,-37846.027 42769.633,-37873.828 42769.633,-37874.0" stroke="black" /><polyline fill="blue" points="44575.5,-37671.0 44524.5,-37671.0 44493.836,-37661.727 44493.836,-37631.566 44524.5,-37596.629 44575.5,-37596.629 44606.199,-37631.738 44606.199,-37660.867 44575.5,-37671.0" stroke="black" /><polyline fill="blue" points="46859.969,-37922.0 46352.625,-37922.0 46352.625,-37874.0 46352.727,-37873.273 46356.945,-37845.594 46859.969,-37874.0" stroke="black" /><polyline fill="blue" points="7666.0,12540.0 7693.974,12013.691 7666.172,12010.368 7666.0,12010.368 7618.0,12010.368 7618.0,12540.0" stroke="black" /><polyline fill="blue" points="7943.742,10255.5 7943.742,10204.5 7908.254,10169.07 7878.257,10169.42 7868.628,10204.5 7868.628,10255.5 7879.242,10291.945 7908.368,10291.945 7943.742,10255.5" stroke="black" /><polyline fill="blue" points="7666.0,8427.375 7666.726,8427.26 7694.408,8423.053 7666.0,7920.029 7618.0,7920.029 7618.0,8427.375" stroke="black" /><polyline fill="blue" points="7562.0,8449.632 7562.0,7920.0 7514.0,7920.0 7486.026,8446.309 7513.828,8449.632 7514.0,8449.632" stroke="black" /><polyline fill="blue" points="7311.0,10255.5 7311.0,10204.5 7301.728,10173.835 7271.567,10173.835 7236.63,10204.5 7236.63,10255.5 7271.739,10286.198 7300.866,10286.198 7311.0,10255.5" stroke="black" /><polyline fill="blue" points="7562.0,12539.971 7562.0,12032.625 7514.0,12032.625 7513.272,12032.727 7485.592,12036.947 7514.0,12539.971" stroke="black" /><polyline fill="blue" points="-9494.0,-2989.284 -9466.025,-3515.593 -9493.828,-3518.916 -9494.0,-3518.916 -9542.0,-3518.916 -9542.0,-2989.284 -9494.0,-2989.284" stroke="black" /><polyline fill="blue" points="-9542.0,-6707.889 -9542.0,-6178.257 -9494.0,-6178.257 -9466.025,-6181.58 -9494.0,-6707.889 -9542.0,-6707.889" stroke="black" /><polyline fill="blue" points="-9646.0,-8584.658 -9673.98,-8058.241 -9646.172,-8055.026 -9646.0,-8055.026 -9598.0,-8055.026 -9598.0,-8584.658 -9646.0,-8584.658" stroke="black" /><polyline fill="blue" points="-9598.0,-4114.8 -9598.0,-4644.432 -9646.0,-4644.432 -9673.975,-4641.108 -9646.0,-4114.8 -9598.0,-4114.8" stroke="black" /><polyline fill="blue" points="-11615.256,-6218.504 -11613.781,-6243.46 -11614.1,-6301.022 -11614.432,-6306.011 -11615.763,-6325.963 -11928.189,-6304.384 -12172.55,-6295.5 -12172.55,-6244.5 -11928.189,-6236.822 -11615.256,-6218.504" stroke="black" /><polyline fill="blue" points="-14114.0,22750.717 -14086.025,22224.408 -14113.828,22221.084 -14114.0,22221.084 -14162.0,22221.084 -14162.0,22750.717 -14114.0,22750.717" stroke="black" /><polyline fill="blue" points="-14162.0,19032.111 -14162.0,19561.742 -14114.0,19561.742 -14086.025,19558.42 -14114.0,19032.111 -14162.0,19032.111" stroke="black" /><polyline fill="blue" points="-14266.0,17155.342 -14293.98,17681.758 -14266.172,17684.975 -14266.0,17684.975 -14218.0,17684.975 -14218.0,17155.342 -14266.0,17155.342" stroke="black" /><polyline fill="blue" points="-14218.0,21625.201 -14218.0,21095.568 -14266.0,21095.568 -14293.975,21098.893 -14266.0,21625.201 -14218.0,21625.201" stroke="black" /><polyline fill="blue" points="-16235.256,19521.496 -16233.781,19496.539 -16234.1,19438.979 -16234.432,19433.988 -16235.763,19414.037 -16548.189,19435.615 -16792.551,19444.5 -16792.551,19495.5 -16548.189,19503.178 -16235.256,19521.496" stroke="black" /><polyline fill="blue" points="35329.285,28126.0 35855.594,28153.975 35858.914,28126.172 35858.914,28126.0 35858.914,28078.0 35329.285,28078.0 35329.285,28126.0" stroke="black" /><polyline fill="blue" points="39047.891,28078.0 38518.258,28078.0 38518.258,28126.0 38521.578,28153.975 39047.891,28126.0 39047.891,28078.0" stroke="black" /><polyline fill="blue" points="40924.656,27974.0 40398.242,27946.02 40395.027,27973.828 40395.027,27974.0 40395.027,28022.0 40924.656,28022.0 40924.656,27974.0" stroke="black" /><polyline fill="blue" points="36454.801,28022.0 36984.43,28022.0 36984.43,27974.0 36981.109,27946.025 36454.801,27974.0 36454.801,28022.0" stroke="black" /><polyline fill="blue" points="38558.504,26004.744 38583.461,26006.219 38641.023,26005.9 38646.012,26005.568 38665.965,26004.238 38644.383,25691.811 38635.5,25447.449 38584.5,25447.449 38576.82,25691.811 38558.504,26004.744" stroke="black" /><polyline fill="blue" points="52546.0,6250.716 52573.973,5724.407 52546.172,5721.084 52546.0,5721.084 52498.0,5721.084 52498.0,6250.716 52546.0,6250.716" stroke="black" /><polyline fill="blue" points="52498.0,2532.111 52498.0,3061.743 52546.0,3061.743 52573.973,3058.42 52546.0,2532.111 52498.0,2532.111" stroke="black" /><polyline fill="blue" points="52394.0,655.342 52366.02,1181.759 52393.828,1184.974 52394.0,1184.974 52442.0,1184.974 52442.0,655.342 52394.0,655.342" stroke="black" /><polyline fill="blue" points="52442.0,5125.2 52442.0,4595.568 52394.0,4595.568 52366.027,4598.892 52394.0,5125.2 52442.0,5125.2" stroke="black" /><polyline fill="blue" points="50424.742,3021.496 50426.219,2996.54 50425.902,2938.978 50425.57,2933.989 50424.238,2914.037 50111.809,2935.616 49867.449,2944.5 49867.449,2995.5 50111.809,3003.178 50424.742,3021.496" stroke="black" /><polyline fill="blue" points="52447.473,-19548.137 52380.762,-19548.137 52363.305,-19289.98 52297.547,-19005.383 52339.414,-18993.172 52406.0,-18991.807 52447.473,-18991.807 52447.473,-19548.137" stroke="black" /><polyline fill="blue" points="52393.613,-16281.441 52336.031,-16269.318 52382.559,-15831.24 52452.184,-15831.24 52452.184,-16494.83 52395.965,-16494.83 52393.613,-16281.441" stroke="black" /><polyline fill="blue" points="52604.805,-16143.313 52545.875,-16160.486 52548.387,-16534.32 52483.902,-16534.32 52485.238,-15836.379 52558.914,-15836.379 52570.992,-15990.638 52604.805,-16143.313" stroke="black" /><polyline fill="blue" points="52568.766,-19711.055 52561.105,-19867.154 52561.105,-20009.834 52494.77,-20009.834 52494.77,-19351.527 52546.355,-19351.527 52542.043,-19575.547 52590.859,-19584.58 52568.766,-19711.055" stroke="black" /><polyline fill="blue" points="50804.762,-17626.549 50799.289,-17653.617 50678.414,-17628.906 50513.543,-17602.934 50254.652,-17578.27 50257.121,-17546.539 50625.883,-17575.379 50709.527,-17584.838 50809.191,-17603.848 50804.762,-17626.549" stroke="black" /><polyline fill="blue" points="51406.297,-17191.494 51415.172,-17220.154 51388.934,-17251.754 51393.563,-17285.426 50961.719,-17349.563 50956.996,-17317.77 51106.445,-17284.23 51263.41,-17240.15 51406.297,-17191.494" stroke="black" /><polyline fill="blue" points="14268.137,28027.473 14268.137,27960.762 14009.98,27943.303 13725.383,27877.547 13713.172,27919.414 13711.807,27986.0 13711.807,28027.473 14268.137,28027.473" stroke="black" /><polyline fill="blue" points="11001.441,27973.611 10989.318,27916.031 10551.24,27962.559 10551.24,28032.186 11214.83,28032.186 11214.83,27975.965 11001.441,27973.611" stroke="black" /><polyline fill="blue" points="10863.313,28184.807 10880.486,28125.877 11254.321,28128.387 11254.321,28063.902 10556.379,28065.236 10556.379,28138.914 10710.638,28150.994 10863.313,28184.807" stroke="black" /><polyline fill="blue" points="14431.055,28148.766 14587.154,28141.104 14729.834,28141.104 14729.834,28074.77 14071.527,28074.77 14071.527,28126.355 14295.546,28122.041 14304.58,28170.857 14431.055,28148.766" stroke="black" /><polyline fill="blue" points="12346.549,26384.762 12373.617,26379.289 12348.906,26258.414 12322.934,26093.543 12298.269,25834.65 12266.54,25837.121 12295.379,26205.883 12304.838,26289.527 12323.848,26389.189 12346.549,26384.762" stroke="black" /><polyline fill="blue" points="11911.494,26986.297 11940.154,26995.174 11971.754,26968.936 12005.426,26973.563 12069.563,26541.719 12037.771,26536.996 12004.229,26686.447 11960.15,26843.412 11911.494,26986.297" stroke="black" /><polyline fill="blue" points="-1453.545,28028.369 -1453.545,27967.648 -2323.104,27967.648 -2323.104,28016.369 -1890.171,28022.365 -1630.01,28028.369 -1453.545,28028.369" stroke="black" /><polyline fill="blue" points="-3617.099,28016.789 -3617.099,27965.617 -3790.01,27965.617 -3890.141,27967.047 -4475.501,27977.617 -4475.501,28016.789 -3617.099,28016.789" stroke="black" /><polyline fill="blue" points="-3617.853,28119.234 -3617.853,28072.109 -3790.01,28072.109 -3890.141,28073.539 -4481.41,28084.109 -4481.41,28119.234 -3617.853,28119.234" stroke="black" /><polyline fill="blue" points="-1935.218,28137.465 -1697.297,28143.469 -1454.949,28143.469 -1454.949,28067.355 -2321.238,28067.355 -2321.238,28131.469 -1935.218,28137.465" stroke="black" /><polyline fill="blue" points="26533.545,28071.631 26533.545,28132.352 27403.104,28132.352 27403.104,28083.631 26970.172,28077.635 26710.01,28071.631 26533.545,28071.631" stroke="black" /><polyline fill="blue" points="28697.098,28083.211 28697.098,28134.383 28870.01,28134.383 28970.141,28132.953 29555.5,28122.383 29555.5,28083.211 28697.098,28083.211" stroke="black" /><polyline fill="blue" points="28697.852,27980.766 28697.852,28027.891 28870.01,28027.891 28970.141,28026.461 29561.41,28015.891 29561.41,27980.766 28697.852,27980.766" stroke="black" /><polyline fill="blue" points="27015.219,27962.535 26777.297,27956.531 26534.949,27956.531 26534.949,28032.645 27401.238,28032.645 27401.238,27968.531 27015.219,27962.535" stroke="black" /><polyline fill="blue" points="52491.633,-31813.545 52552.352,-31813.545 52552.352,-32683.104 52503.633,-32683.104 52497.633,-32250.172 52491.633,-31990.01 52491.633,-31813.545" stroke="black" /><polyline fill="blue" points="52503.211,-33977.098 52554.383,-33977.098 52554.383,-34150.012 52552.953,-34250.141 52542.383,-34835.5 52503.211,-34835.5 52503.211,-33977.098" stroke="black" /><polyline fill="blue" points="52400.766,-33977.852 52447.891,-33977.852 52447.891,-34150.012 52446.461,-34250.141 52435.891,-34841.41 52400.766,-34841.41 52400.766,-33977.852" stroke="black" /><polyline fill="blue" points="52382.535,-32295.219 52376.531,-32057.297 52376.531,-31814.949 52452.645,-31814.949 52452.645,-32681.238 52388.531,-32681.238 52382.535,-32295.219" stroke="black" /><polyline fill="blue" points="52448.367,-3826.455 52387.648,-3826.455 52387.648,-2956.896 52436.367,-2956.896 52442.367,-3389.829 52448.367,-3649.99 52448.367,-3826.455" stroke="black" /><polyline fill="blue" points="52436.789,-1662.901 52385.617,-1662.901 52385.617,-1489.99 52387.047,-1389.859 52397.617,-804.499 52436.789,-804.499 52436.789,-1662.901" stroke="black" /><polyline fill="blue" points="52539.234,-1662.147 52492.109,-1662.147 52492.109,-1489.99 52493.539,-1389.859 52504.109,-798.59 52539.234,-798.59 52539.234,-1662.147" stroke="black" /><polyline fill="blue" points="52557.465,-3344.782 52563.469,-3582.703 52563.469,-3825.051 52487.355,-3825.051 52487.355,-2958.762 52551.469,-2958.762 52557.465,-3344.782" stroke="black" /><polyline fill="blue" points="40623.715,-6047.08 40623.715,-6111.249 40550.266,-6111.249 40550.266,-6047.08 40623.715,-6047.08" stroke="black" /><polyline fill="blue" points="45188.5,-1581.25 45188.5,-1718.578 45278.02,-1718.578 45278.02,-1581.25 45188.5,-1581.25" stroke="black" /><polyline fill="blue" points="45848.5,398.75 45848.5,261.422 45938.02,261.422 45938.02,398.75 45848.5,398.75" stroke="black" /><polyline fill="blue" points="45938.75,1011.5 45801.422,1011.5 45801.422,921.979 45938.75,921.979 45938.75,1011.5" stroke="black" /><polyline fill="blue" points="46598.75,1011.5 46461.422,1011.5 46461.422,921.979 46598.75,921.979 46598.75,1011.5" stroke="black" /><polyline fill="blue" points="47258.75,1011.5 47121.422,1011.5 47121.422,921.979 47258.75,921.979 47258.75,1011.5" stroke="black" /><polyline fill="blue" points="48531.5,921.25 48531.5,1058.578 48441.98,1058.578 48441.98,921.25 48531.5,921.25" stroke="black" /><polyline fill="blue" points="48531.5,261.25 48531.5,398.578 48441.98,398.578 48441.98,261.25 48531.5,261.25" stroke="black" /><polyline fill="blue" points="48531.5,-1718.75 48531.5,-1581.422 48441.98,-1581.422 48441.98,-1718.75 48531.5,-1718.75" stroke="black" /><polyline fill="blue" points="48531.5,-2378.75 48531.5,-2241.422 48441.98,-2241.422 48441.98,-2378.75 48531.5,-2378.75" stroke="black" /><polyline fill="blue" points="30657.5,28126.5 30820.5,28126.5 31244.076,28156.566 31246.377,28135.238 31309.5,28126.5 31309.5,28077.5 30657.5,28077.5 30657.5,28126.5" stroke="black" /><polyline fill="blue" points="32698.355,28157.531 32937.543,28133.547 33117.742,28131.125 33362.5,28126.5 33362.5,28077.5 32586.5,28077.5 32586.967,28129.752 32696.209,28132.996 32698.355,28157.531" stroke="black" /><polyline fill="blue" points="33362.5,27973.5 33199.5,27973.5 32775.922,27943.436 32773.625,27964.764 32710.5,27973.5 32710.5,28022.5 33362.5,28022.5 33362.5,27973.5" stroke="black" /><polyline fill="blue" points="31321.643,27942.469 31082.455,27966.453 30902.258,27968.875 30657.5,27973.5 30657.5,28022.5 31433.5,28022.5 31433.033,27970.25 31323.789,27967.004 31321.643,27942.469" stroke="black" /><polyline fill="blue" points="4917.5,-17413.5 5080.5,-17413.5 5504.077,-17383.434 5506.377,-17404.762 5569.5,-17413.5 5569.5,-17462.5 4917.5,-17462.5 4917.5,-17413.5" stroke="black" /><polyline fill="blue" points="6958.356,-17382.469 7197.545,-17406.453 7377.743,-17408.875 7622.5,-17413.5 7622.5,-17462.5 6846.5,-17462.5 6846.966,-17410.248 6956.21,-17407.004 6958.356,-17382.469" stroke="black" /><polyline fill="blue" points="7622.5,-17566.5 7459.5,-17566.5 7035.923,-17596.564 7033.623,-17575.236 6970.5,-17566.5 6970.5,-17517.5 7622.5,-17517.5 7622.5,-17566.5" stroke="black" /><polyline fill="blue" points="5581.643,-17597.531 5342.455,-17573.547 5162.257,-17571.125 4917.5,-17566.5 4917.5,-17517.5 5693.5,-17517.5 5693.034,-17569.75 5583.79,-17572.996 5581.643,-17597.531" stroke="black" /><polyline fill="blue" points="44477.5,2276.0 44477.5,2344.0 44622.5,2331.5 44622.5,2288.5 44477.5,2276.0" stroke="black" /><polyline fill="blue" points="40325.0,-4986.5 40325.0,-4903.5 40492.0,-4903.5 40543.5,-4852.0 40543.5,-4685.0 40636.5,-4685.0 40636.5,-5124.0 40543.5,-5124.0 40543.5,-5048.0 40492.0,-4996.5 40325.0,-4996.5" stroke="black" /><polyline fill="blue" points="39666.0,-4983.5 39666.0,-4915.5 40068.0,-4903.5 40068.0,-4996.0 39666.0,-4983.5" stroke="black" /><polyline fill="blue" points="40556.5,-4026.0 40624.5,-4026.0 40636.5,-4428.0 40544.0,-4428.0 40556.5,-4026.0" stroke="black" /><polyline fill="blue" points="40623.5,-5874.0 40555.5,-5874.0 40543.5,-5472.0 40636.0,-5472.0 40623.5,-5874.0" stroke="black" /><polyline fill="blue" points="36007.0,-3705.5 35932.0,-3705.5 35932.0,-3552.0 36007.0,-3552.0 36007.0,-3705.0" stroke="black" /></svg>