<?xml version="1.0" encoding="utf-8" ?>
<svg baseProfile="full" height="100%" version="1.1" width="100%" xmlns="http://www.w3.org/2000/svg" xmlns:ev="http://www.w3.org/2001/xml-events" xmlns:xlink="http://www.w3.org/1999/xlink"><defs><g id="g001"><rect height="40" width="40" x="0" y="0" /></g></defs><rect fill="lightgray" height="100%" stroke="black" width="100%" x="0" y="0" /><use fill="rgb(0,0,0)" transform="rotate(0,100,100)" x="80" xlink:href="#g001" y="80" /><use fill="rgb(2,2,2)" transform="rotate(1,180,100)" x="160" xlink:href="#g001" y="80" /><use fill="rgb(4,4,4)" transform="rotate(2,260,100)" x="240" xlink:href="#g001" y="80" /><use fill="rgb(6,6,6)" transform="rotate(3,340,100)" x="320" xlink:href="#g001" y="80" /><use fill="rgb(8,8,8)" transform="rotate(4,420,100)" x="400" xlink:href="#g001" y="80" /><use fill="rgb(10,10,10)" transform="rotate(5,100,180)" x="80" xlink:href="#g001" y="160" /><use fill="rgb(12,12,12)" transform="rotate(6,180,180)" x="160" xlink:href="#g001" y="160" /><use fill="rgb(14,14,14)" transform="rotate(7,260,180)" x="240" xlink:href="#g001" y="160" /><use fill="rgb(16,16,16)" transform="rotate(8,340,180)" x="320" xlink:href="#g001" y="160" /><use fill="rgb(18,18,18)" transform="rotate(9,420,180)" x="400" xlink:href="#g001" y="160" /><use fill="rgb(20,20,20)" transform="rotate(10,100,260)" x="80" xlink:href="#g001" y="240" /><use fill="rgb(22,22,22)" transform="rotate(11,180,260)" x="160" xlink:href="#g001" y="240" /><use fill="rgb(24,24,24)" transform="rotate(12,260,260)" x="240" xlink:href="#g001" y="240" /><use fill="rgb(26,26,26)" transform="rotate(13,340,260)" x="320" xlink:href="#g001" y="240" /><use fill="rgb(28,28,28)" transform="rotate(14,420,260)" x="400" xlink:href="#g001" y="240" /><use fill="rgb(30,30,30)" transform="rotate(15,100,340)" x="80" xlink:href="#g001" y="320" /><use fill="rgb(32,32,32)" transform="rotate(16,180,340)" x="160" xlink:href="#g001" y="320" /><use fill="rgb(34,34,34)" transform="rotate(17,260,340)" x="240" xlink:href="#g001" y="320" /><use fill="rgb(36,36,36)" transform="rotate(18,340,340)" x="320" xlink:href="#g001" y="320" /><use fill="rgb(38,38,38)" transform="rotate(19,420,340)" x="400" xlink:href="#g001" y="320" /><use fill="rgb(40,40,40)" transform="rotate(20,100,420)" x="80" xlink:href="#g001" y="400" /><use fill="rgb(42,42,42)" transform="rotate(21,180,420)" x="160" xlink:href="#g001" y="400" /><use fill="rgb(44,44,44)" transform="rotate(22,260,420)" x="240" xlink:href="#g001" y="400" /><use fill="rgb(46,46,46)" transform="rotate(23,340,420)" x="320" xlink:href="#g001" y="400" /><use fill="rgb(48,48,48)" transform="rotate(24,420,420)" x="400" xlink:href="#g001" y="400" /><use fill="rgb(50,50,50)" transform="rotate(25,100,500)" x="80" xlink:href="#g001" y="480" /><use fill="rgb(52,52,52)" transform="rotate(26,180,500)" x="160" xlink:href="#g001" y="480" /><use fill="rgb(54,54,54)" transform="rotate(27,260,500)" x="240" xlink:href="#g001" y="480" /><use fill="rgb(56,56,56)" transform="rotate(28,340,500)" x="320" xlink:href="#g001" y="480" /><use fill="rgb(58,58,58)" transform="rotate(29,420,500)" x="400" xlink:href="#g001" y="480" /><use fill="rgb(60,60,60)" transform="rotate(30,100,580)" x="80" xlink:href="#g001" y="560" /><use fill="rgb(62,62,62)" transform="rotate(31,180,580)" x="160" xlink:href="#g001" y="560" /><use fill="rgb(64,64,64)" transform="rotate(32,260,580)" x="240" xlink:href="#g001" y="560" /><use fill="rgb(66,66,66)" transform="rotate(33,340,580)" x="320" xlink:href="#g001" y="560" /><use fill="rgb(68,68,68)" transform="rotate(34,420,580)" x="400" xlink:href="#g001" y="560" /><use fill="rgb(70,70,70)" transform="rotate(35,100,660)" x="80" xlink:href="#g001" y="640" /><use fill="rgb(72,72,72)" transform="rotate(36,180,660)" x="160" xlink:href="#g001" y="640" /><use fill="rgb(74,74,74)" transform="rotate(37,260,660)" x="240" xlink:href="#g001" y="640" /><use fill="rgb(76,76,76)" transform="rotate(38,340,660)" x="320" xlink:href="#g001" y="640" /><use fill="rgb(78,78,78)" transform="rotate(39,420,660)" x="400" xlink:href="#g001" y="640" /><use fill="rgb(80,80,80)" transform="rotate(40,100,740)" x="80" xlink:href="#g001" y="720" /><use fill="rgb(82,82,82)" transform="rotate(41,180,740)" x="160" xlink:href="#g001" y="720" /><use fill="rgb(84,84,84)" transform="rotate(42,260,740)" x="240" xlink:href="#g001" y="720" /><use fill="rgb(86,86,86)" transform="rotate(43,340,740)" x="320" xlink:href="#g001" y="720" /><use fill="rgb(88,88,88)" transform="rotate(44,420,740)" x="400" xlink:href="#g001" y="720" /><use fill="rgb(90,90,90)" transform="rotate(45,100,820)" x="80" xlink:href="#g001" y="800" /><use fill="rgb(92,92,92)" transform="rotate(46,180,820)" x="160" xlink:href="#g001" y="800" /><use fill="rgb(94,94,94)" transform="rotate(47,260,820)" x="240" xlink:href="#g001" y="800" /><use fill="rgb(96,96,96)" transform="rotate(48,340,820)" x="320" xlink:href="#g001" y="800" /><use fill="rgb(98,98,98)" transform="rotate(49,420,820)" x="400" xlink:href="#g001" y="800" /></svg>