<?xml version="1.0" encoding="utf-8"?>
<!-- Generator: Adobe Illustrator 19.1.0, SVG Export Plug-In . SVG Version: 6.00 Build 0)  -->
<svg version="1.1" xmlns="http://www.w3.org/2000/svg" xmlns:xlink="http://www.w3.org/1999/xlink" x="0px" y="0px"
	 viewBox="0 0 80 80" style="enable-background:new 0 0 80 80;" xml:space="preserve">
<style type="text/css">
	.st0{display:none;}
	.st1{display:inline;}
	.st2{fill:#292929;}
	.st3{fill:#313131;}
	.st4{fill:#181819;}
	.st5{fill:#424242;}
	.st6{fill:#0F0F10;}
	.st7{fill:#211C2A;}
	.st8{fill:#2B2347;}
	.st9{fill:#322D66;}
	.st10{fill:#282828;}
	.st11{fill:#45376B;}
	.st12{fill:#5B4A81;}
	.st13{fill:#58515D;}
	.st14{fill:#372D4F;}
	.st15{fill:#0C2156;}
	.st16{fill:#0B2762;}
	.st17{fill:#0F2F74;}
	.st18{fill:#113175;}
	.st19{fill:#072F78;}
	.st20{fill:#264581;}
	.st21{fill:#1F4CA0;}
	.st22{fill:#204EA3;}
	.st23{fill:#376AC1;}
	.st24{fill:#24447E;}
	.st25{fill:#1C4FA9;}
	.st26{fill:#4569B4;}
	.st27{fill:#04225D;}
	.st28{fill:#1E4181;}
	.st29{fill:#1E458C;}
	.st30{fill:#1E3F7A;}
	.st31{fill:#2F589D;}
	.st32{fill:#63779E;}
	.st33{fill:#0C3D92;}
	.st34{fill:#0C59CF;}
	.st35{fill:#426FC7;}
	.st36{fill:#063284;}
	.st37{fill:#033C9C;}
	.st38{fill:#034BC0;}
	.st39{fill:#0546B7;}
	.st40{fill:#2A68CB;}
	.st41{fill:#3065C5;}
	.st42{fill:#607DB1;}
	.st43{fill:#387EE7;}
	.st44{fill:#0957CD;}
	.st45{fill:#186CDD;}
	.st46{fill:#155ECF;}
	.st47{fill:#4C89EF;}
	.st48{fill:#022261;}
	.st49{fill:#4269BA;}
	.st50{fill:#9AAACB;}
	.st51{fill:#D3E2F5;}
	.st52{fill:#1F6FE3;}
	.st53{fill:#3D79E2;}
	.st54{fill:#6C8FD7;}
	.st55{fill:#084DBB;}
	.st56{fill:#075CD6;}
	.st57{fill:#AAC0E7;}
	.st58{fill:#8CB7F5;}
	.st59{fill:#D6EBFD;}
	.st60{fill:#98B7ED;}
	.st61{fill:#DEF1FC;}
	.st62{fill:#C4E7FD;}
	.st63{fill:#480F08;}
	.st64{fill:#4C241A;}
	.st65{fill:#532217;}
	.st66{fill:#340D09;}
	.st67{fill:#572D1A;}
	.st68{fill:#370300;}
	.st69{fill:#5A160C;}
	.st70{fill:#56221B;}
	.st71{fill:#481E19;}
	.st72{fill:#842416;}
	.st73{fill:#813126;}
	.st74{fill:#902D13;}
	.st75{fill:#93311E;}
	.st76{fill:#672F2A;}
	.st77{fill:#9A412D;}
	.st78{fill:#98492F;}
	.st79{fill:#6B2D1F;}
	.st80{fill:#AE512F;}
	.st81{fill:#691506;}
	.st82{fill:#A83624;}
	.st83{fill:#A13518;}
	.st84{fill:#C54A1C;}
	.st85{fill:#BE3A17;}
	.st86{fill:#B23421;}
	.st87{fill:#BA4428;}
	.st88{fill:#AC412A;}
	.st89{fill:#C0522C;}
	.st90{fill:#8E240F;}
	.st91{fill:#CE3A1B;}
	.st92{fill:#CD3F17;}
	.st93{fill:#C2371E;}
	.st94{fill:#DD4A15;}
	.st95{fill:#E8622A;}
	.st96{fill:#D65221;}
	.st97{fill:#C5321A;}
	.st98{fill:#2862CD;}
	.st99{fill:#1842AA;}
	.st100{fill:#3778D0;}
	.st101{fill:#133EB3;}
	.st102{fill:#2459CC;}
	.st103{fill:#1549C2;}
	.st104{fill:#4374D7;}
	.st105{fill:#4471B2;}
	.st106{fill:#3A5994;}
	.st107{fill:#385A94;}
	.st108{fill:#5A98E2;}
	.st109{fill:#4472D6;}
	.st110{fill:#235FBF;}
	.st111{fill:#C2C2C2;}
	.st112{fill:#868686;}
	.st113{fill:#8F8F8F;}
	.st114{fill:#F8F8F8;}
	.st115{fill:#B6B6B6;}
	.st116{fill:#BFBFBF;}
	.st117{fill:#B7B7B7;}
	.st118{fill:#DDDDDD;}
	.st119{fill:#E7E7E7;}
	.st120{fill:#DBDBDB;}
	.st121{fill:#CFCFCF;}
	.st122{fill:#9E9E9E;}
	.st123{fill:#F1F1F1;}
	.st124{fill:#C6C6C6;}
	.st125{fill:#727272;}
	.st126{fill:#A1A1A1;}
	.st127{fill:#6D6D6D;}
	.st128{fill:#606060;}
	.st129{fill:#ABABAB;}
	.st130{fill:#A7A7A7;}
	.st131{fill:#ADADAD;}
	.st132{fill:#B3B3B3;}
	.st133{fill:#646464;}
	.st134{fill:#656565;}
	.st135{fill:#6B6B6B;}
	.st136{fill:#717171;}
	.st137{fill:#888888;}
	.st138{fill:#9C9C9C;}
	.st139{fill:#4D4D4D;}
	.st140{fill:#6E6E6E;}
	.st141{fill:#7E7E7E;}
	.st142{fill:#797979;}
	.st143{fill:#CDCDCD;}
	.st144{fill:#848484;}
	.st145{fill:#B1B1B1;}
	.st146{fill:#C4C4C4;}
	.st147{fill:#CBCBCB;}
	.st148{fill:#C3C3C3;}
	.st149{fill:#D6D6D6;}
	.st150{fill:#C0C0C0;}
	.st151{fill:#9D9D9D;}
	.st152{fill:#676767;}
	.st153{fill:#020202;}
	.st154{fill:#4C4C4C;}
	.st155{fill:#040404;}
	.st156{fill:#101010;}
	.st157{fill:#929292;}
	.st158{fill:#1C1C1C;}
	.st159{fill:#252525;}
	.st160{fill:#8D8D8D;}
	.st161{fill:#C8C8C8;}
	.st162{fill:#BDBDBD;}
	.st163{fill:#454545;}
	.st164{fill:#2F2F2F;}
	.st165{fill:#CECECE;}
	.st166{fill:#232323;}
	.st167{fill:#1D1D1D;}
	.st168{fill:#212121;}
	.st169{fill:#050505;}
	.st170{fill:#202020;}
	.st171{fill:#090909;}
	.st172{fill:#030303;}
	.st173{fill:#191919;}
	.st174{fill:#2C2C2C;}
	.st175{fill:#3A3A3A;}
	.st176{fill:#434343;}
	.st177{fill:#4E4E4E;}
	.st178{fill:#505050;}
	.st179{fill:#575757;}
	.st180{fill:#3D3D3D;}
	.st181{fill:#171717;}
	.st182{fill:#414141;}
	.st183{fill:#616161;}
	.st184{fill:#1F1F1F;}
	.st185{fill:#323232;}
	.st186{fill:#111111;}
	.st187{fill:#080808;}
	.st188{fill:#2B2B2B;}
	.st189{fill:#0F0F0F;}
	.st190{fill:#2E2E2E;}
	.st191{fill:#262626;}
	.st192{fill:#272727;}
	.st193{fill:#303030;}
	.st194{fill:#0E0E0E;}
	.st195{fill:#363636;}
	.st196{fill:#535353;}
	.st197{fill:#5D5D5D;}
	.st198{fill:#545454;}
	.st199{fill:#404040;}
	.st200{fill:#686868;}
	.st201{fill:#393939;}
	.st202{fill:#353535;}
	.st203{fill:#636363;}
	.st204{fill:#181818;}
	.st205{fill:#494949;}
	.st206{fill:#333333;}
	.st207{fill:#515151;}
	.st208{fill:#0B0B0B;}
	.st209{fill:#3F3F3F;}
	.st210{fill:#4F4F4F;}
	.st211{fill:#565656;}
	.st212{fill:#343434;}
	.st213{fill:#525252;}
	.st214{fill:#2A2A2A;}
</style>
<g id="Layer_1" class="st0">
	<g class="st1">
		<path class="st2" d="M11.9,33c3.8-20.2,23.6-27.2,40.2-22.2c0,0.5-0.1,0.9-0.3,1.3c-2.4,1.8-4.2-1.2-6.2,2.3
			c-10.1-0.9-17.8,4.9-23.5,12c-4.7,5.8-3.5,12.2-2.9,18.6c0.1,0.5,0.3,1,0.4,1.5c0.2,0.4,0.4,0.8,0.3,1.4c-1,6,3.6,8.9,7.4,11.9
			c3.8,3,8.2,4.9,13.3,5.2c2,0.1,4.5-0.9,5.9,1.6c0.9,3.4-1.7,2.5-3.4,3.1c-2.9,1.1-5.6-0.6-8.3,1.6C22.8,69,14.8,59.1,12.1,45.4
			C11.2,41.2,11.5,37.6,11.9,33z"/>
		<path class="st2" d="M52.2,10.8c8.2,2.8,10.6,6.8,14.2,12.5c2.7,4.4,4.2,9.8,4.2,17c0,2.6-5.7,3.5-6.4,5.3
			c-0.5,1.5,0.3,3.7-2.4,3.7c-2.7-0.7-2.2-3.1-2.2-4.9c0.2-9.1-2.6-16.8-9.2-23.2c-1.9-1.9-3.3-4.4-4.7-6.8c0.6-3.6,3.3-1.7,5-1.5
			c1.2,0.1,2.6,1.3,3.6,1.9c-0.1-1.4-4-0.4-2.4-3.5C51.9,11.1,52,11,52.2,10.8z"/>
		<path class="st3" d="M63.3,44.2c1.9-2.4,2.3-3.4,7.2-4.3c-0.4,8.9-2.7,18.3-9.6,25c-6.7,6.5-17.4,8.6-26.6,6.3
			c-1.9-2,2.1-2.2,4.3-2.3c3.3-0.2,3.5-0.6,6.6-1.9c-0.3-1.2,2.9-1.5,4.3-1.9c6.1-1.9,9-7,11.7-12.1C62.2,51.1,60.2,43.9,63.3,44.2z
			"/>
		<path class="st4" d="M63.2,47.9C60.8,57.2,56,65.8,45,67c-9.8,0.5-18.5-1.5-24.5-10.1c-2.3-3.3-4.2-6.7-4.5-10.9
			c1.2-1.3,2.9-1.2,4.4-2c3.7-2.1,5.8-1.1,7.3,3.1c0.2,0.6,0.6-0.3,0,0c-0.3,0.1-0.5,0-0.4-0.2c0.2-0.9-0.7-2,0.4-2.8
			c6.5-1,9.8,1.5,10.8,8c0.2,1.1,1,1.6,1.7,2.2c2.1,0.7,3.8-0.2,5.6-1.1c3-1.8,4.8-4.3,5.7-7.6c0.3-0.6,0.3-1.4,0.7-1.9
			c1.3-3.9,0-7-3.5-8.7c-3.9-1.9-5.2-6.4-9-8.3c-1.1-0.6-1.4-1.8-2.3-2.5c-1.1-1-3.3-1.5-2.3-3.7c0.9-2.1,2.7-2.9,4.9-2.7
			c-12.5,0-20.7,8.3-21.6,21.9c-0.2,2.4,1.6,10-1.5,11.2c-7.2-17.9,5-40,26-38c2.5,0.1,3.6,0.6,4.9,1c0,0,2.6,1.2,3.4,1.9
			C61.8,23.8,65.6,35.5,63.2,47.9z"/>
		<path class="st5" d="M43.1,12.2c2.2-4.2,12.1,0.6,13.6,1.7c1.5,1.1,4.3,2.6,2.7,3.8c-1.3,1.9-1.8,1.5-4.7-1
			C48.9,11.6,44.4,12.6,43.1,12.2z"/>
		<path class="st6" d="M28,45c1.3,1.5,2.8,2.8,4,4.4c0.7,1,0.7,2.3-0.4,3.1c-1.2,0.9-2.2,0.2-3-0.8c-0.6-0.8-1.2-1.6-1.6-2.5
			c-1.6-3-3.1-5.8-5.1-0.3c-0.7,1.9-1.8,1.7-3,0.4c-1-1.1-1.9-2.3-2.8-3.5l0,0c-0.2-7.4,0.1-14.5,4.4-21c4.8-7.2,13.7-11.3,21.4-9.2
			c1.4,0.4,3.4,0.4,3.5,2.2c0.2,2.1-2,1.7-3.3,2.1c-1.1,0.3-2.4,0.1-3.1,1.4c0.5,2.2,3.9,1.1,4.1,3.6c-0.5,1.7-2,2.3-3.3,2
			c-2.1-0.5-3.2,1-4.7,1.7c-1.7,1.2-3,2.8-4.2,4.5c-0.3,0.6-0.7,1.2-1,1.9c-0.5,0.7-0.5,1.6-1,2.3c-1.1,2.2-0.5,4.7-0.8,7
			C28.1,44.6,28,44.8,28,45z"/>
		<path class="st7" d="M33,26.9c3-2.3,6.6-1.9,10-1.9c2.2,3.6,4.9,6.5,8.7,8.7c4.9,2.8,4.9,7.5,3.4,12.3c-1.6-0.4-3.3-0.7-2.7-3.2
			c0.3-1,0.8-2.4-0.9-2.7c-1.2-0.2-1.7,1-2.2,1.7c-3.5,4.8-7.5,9.2-9.2,15.1c-1.9-0.6-3.1-1.7-3.4-3.8c-0.7-5-3.8-7.5-8.6-8l0,0
			c-0.3-0.4-0.5-0.8-0.5-1.2c0-0.5,0.3-1.1,0.7-1.2c3.4-0.6,4.3-3,4.7-5.9c0.6-0.9,1.2-1.8,2-2.6c2.2-2.3,2.9-4.2-0.9-5.6
			C33.3,28.2,33.1,27.6,33,26.9z"/>
		<path class="st8" d="M40.1,56.9c-0.8-3.5,0.4-6.7,2.6-9.2c2.1-2.4,3.9-4.9,5.5-7.6c0.9-1.6,2-3.4,4.2-2.9c2.4,0.6,2.5,2.8,2.7,4.8
			c0.1,1.3,0.1,2.6,0.1,4c-0.3,0.4-0.6,0.7-0.9,1.1c-5.4,0.8-7.4,3.3-7.1,8.9C44.8,57.1,42.4,57,40.1,56.9z"/>
		<path class="st9" d="M47,56c-4.1-0.3-5.1-2-2.5-5.4c1.3-1.7,2.5-3.6,3.8-5.2c0.9-1.2,2-2.5,3.6-2.3c2.2,0.3,1.8,2.5,2.2,4
			C53,51.1,50.3,53.8,47,56z"/>
		<path class="st10" d="M38.8,61.7c3.4-2.1,6-2.1,9.8-1.8C45.3,63,42.8,63.3,38.8,61.7z"/>
		<path class="st11" d="M28,32.7c1.4-3.3,2.8-4.6,4.9-5.7c2.6-0.3,5.1-0.1,6.4,2.5c1.3,2.6-1.6,3.5-2.7,5.2
			c-0.5,0.8-1.2,1.6-1.8,2.4c-2.1,2.7-3.5,6.3-7.8,6.3c-1-2.4-0.7-4.8-0.2-7.3C27.3,35.4,27.7,33.3,28,32.7"/>
		<path class="st12" d="M28.9,32c1.8-0.9,2.8-3.4,5.7-3c-0.8,3.8-2.8,6.6-5.2,9.2c-2-1-1-2.8-1.4-4.1C28.3,33.4,28.6,32.7,28.9,32z"
			/>
		<path class="st4" d="M26.9,36c0.2,2.4-0.5,4.9,1,7.1c0.8,0.2,0.8,0.4,0.1,0.8c0,0.3,0,0.7,0,1C25.6,42.3,25.7,39.2,26.9,36z"/>
		<path class="st13" d="M42.2,37.4c-0.8,1.4-0.9,3.6-3.2,3.7c-1.2,0.1-1.5-1.1-1.4-2.1c0.1-1.8,1-3.2,2.8-3.5
			C41.7,35.3,42.2,36.2,42.2,37.4z"/>
		<path class="st14" d="M28,44c-0.1-0.3-0.1-0.5-0.1-0.8c2.3-2,4.7-4.1,7-6.1C34.5,41.2,32.2,43.5,28,44z"/>
	</g>
</g>
<g id="Layer_2" class="st0">
	<g class="st1">
		<path class="st15" d="M41.7,72.5c6.8-1.3,9.4-3.6,10.4-4c3.2-1.4,4.7-3.1,6.7-6c1-2.3,2.8-4.3,4.3-6.2c3.2-7,3.6-12.5,4.3-20.4
			c-0.3-1.3-1.2-2.3-1.4-3.6c-0.4-0.9-0.2-1.9-0.6-2.7c-0.4-1.6-2.8-2.4-2.9-4.2c0-0.4-0.2-1.4,0.1-1.7c0-0.4-7.3-11.2-22.9-14.4
			c17.3,0.1,26.7,12.9,29,20.9c0.7,1.9,1.8,6.8,1.8,10.1c0,7-1,8.8-1.8,11.7c-1.5,5.7-3.9,9.4-7.7,13.5C58.7,68,50.3,72.5,41.7,72.5
			z"/>
		<path class="st16" d="M12.9,29.3c0.2-0.7,0.5-1.3,0.7-2c0.7,0.1,0.7,0.6,0.9,1.1c0.2,1.6-0.1,3.2-0.9,4.6
			c-0.9,1.6-1.1,3.1-0.5,4.8c0,5.6,1.6,10.7,5.2,15.1c0.3,0.3,0.4,0.7,0.4,1.1c0,0.6-0.3,1.1-0.6,1.6c-0.4,0.7-0.7,1.3,0,1.9
			c0.7,0.6,1.4,0.1,2-0.3c4.3-2.4,6.9-1.6,9.3,2.7c0.6,1.1,1.5,2.1,1.6,3.5c0.2,1.4,0.2,2.7-1.1,3.7c1.4,1.2,2.8,2.2,4.5,2.8
			c0.4,0.2,0.8,0.5,1,1c-0.2,0.7,2.2,1.7,1.6,1.4c-5.9-1-13.4-4.9-17.3-9.4c-4.7-5.3-7.6-11.5-8.2-18.5
			C10.7,36.9,11.3,33.5,12.9,29.3z"/>
		<path class="st17" d="M13.9,28.3c-0.1-0.3-0.2-0.6-0.4-0.9c2.8-6.9,7.6-12,14-15.5c3.2-1.8,7.6-2.5,10.1-2.5c7-0.1,7.5,0.6,9.2,1
			c6.3,1.4,11.1,5.1,15,10.1c0.6,0.7,1.6,1.1,1.8,2.1c-0.3,0.4-0.1,1-0.7,1.2c-0.5,0.1-1.1,0-1.7,0.2c-3.3,1.5-5.5,0.2-7.3-2.5
			c-2.3-2.6-4.9-4.9-7.7-6.9C42,11.3,37.1,11,32,11.7c-1,0.2-1.9,0.7-2.9,1.1c-4.3,3.4-9,6.5-11.5,11.6c-0.7,1-1.7,1.7-2.4,2.7
			C14.8,27.5,14.8,28.4,13.9,28.3z"/>
		<path class="st18" d="M41.3,72.6c-1.6,0-2.7-0.1-4.7-0.3c-0.8-0.4-1.8-0.3-2.4-1c0.3-0.2,0.7-0.3,1-0.5c0.8-0.5,1.7-0.2,2.6-0.1
			c3.7,0.3,6.6-0.5,7.4-4.5c-1.5,1.1-2.9,2.8-5.1,3.5c-2.5,0.8-4.2-0.7-6.1-2c-0.6,1,0.7,1.7,0.2,2.6c-2.5-0.1-3.7-2.7-6.3-3.1
			c0.8-1.1,2.8-0.5,2.5-2.5c-0.2-1.3-0.5-2.4-1.2-3.6c-1.2-2.1-2-4.4-5-4.6c-1.2-0.1-2.4,0.1-3.4,0.7c-1.1,0.7-2.1,2.2-3.5,0.7
			c-1.4-1.5,0-2.6,0.9-3.7c0.3-0.3,0.6-0.3,1-0.1c0.5,0.8-0.6,1.4-0.3,2.4c1.3-0.2,2.1-1.1,3-1.8c3.5-2.2,4.3-2.1,6.5,1.3
			c0.2,0.3,0.4,0.7,0.8,0.8c1.5-3.6,1.5-3.6,6.6-1.7c1,0.4,2,0.5,3,1c0.8,0.7,2.5,0.3,2.7,2c-1.6,0.9-3.3-0.1-5,0
			c-3.4,0.2-4.3,1.5-3,4.6c1.6,4,5.6,5,9,2.4c1.8-1.3,3.2-2.9,4.5-4.7c1.4-0.5,2.7,1,4.1,0c0.4-0.4,0.8-0.7,1.3-1
			c1.1-0.8,2.4-0.8,3.7-0.6c1.7,0.3,3.1,0.6,2.3,2.9c-0.3,0.9,0.5,0.8,0.9,1.1c-0.4,2.8-2.7,3.7-4.7,4.9c-1.3,0.8-2.9,1.2-3.9,2.5
			C47.8,71.8,47.1,72,41.3,72.6z"/>
		<path class="st19" d="M19.2,54.3c-0.3,0-0.7,0-1,0c-1.9-2.7-3.7-5.4-4.7-8.7c-0.8-2.6-1.4-5.1-1.1-7.7c0.3-0.1,0.5,0,0.7,0.1
			c1.3,2.6,1.5,5.7,3.4,8.1c1.1,1.3,2,2.7,3.5,3.6c1.2,0.7,1.8,1.8,1.5,3.2C21.1,53.9,20.6,55,19.2,54.3z"/>
		<path class="st20" d="M34.2,70.3c-0.2-0.3-0.5-0.6-0.7-1c-0.4-0.8-1.3-1.7-0.2-2.5c0.9-0.7,1.4,0.5,1.9,1c2.3,2.1,4.6,2.1,7,0.1
			c1.2-1,2.5-2,3.8-3.1c-1,5.8-3.3,7.6-10.9,6.1C34.7,70.8,34.4,70.7,34.2,70.3z"/>
		<path class="st21" d="M12.9,38c-0.1,0-0.3-0.1-0.4-0.1c-0.7-1.8-0.7-3.4,0.5-5.1c0.9-1.3,1-3,0.9-4.6c0.3-0.5,0.6-0.9,0.9-1.4
			c0.7,0.9,2.1,0.3,2.8,1.3c-0.6,2.9-0.2,6-1.8,8.6c-0.5,0.5-1,0.3-1.4,0c-1-0.6-1,0.2-1.1,0.8C13.2,37.7,13.1,37.9,12.9,38z"/>
		<path class="st22" d="M31.8,11.3c5.7-1.2,11.2-0.4,15.8,3.2c2.5,1.9,5.1,3.8,6.9,6.5c0.3,1.3,1.1,2.4,2,3.3
			c0.1,0.5-0.1,0.9-0.3,1.4c-0.7,2.3-0.4,2.9,2,3.5c0.4,0.1,0.8,0.2,1.1,0.4c0.1,0.2,0.1,0.4,0,0.7c-0.3,0.2-0.6,0.4-0.9,0.4
			c-1.2,0.1-2.5,0-3.6,0.8c-0.6,0.3-1.1,0.9-1.8,0.7c-0.2-0.9-0.6-1.6-1.2-2.1c-0.4-1.3-0.5-2.7-0.8-4c1.2-0.9,0.3-1.8,0-2.6
			c0.4-1-0.2-1.6-0.8-2.3c-0.9-1.2-2.3-2-2.8-3.5c-1.8-3-4.9-3.9-7.9-4.9c-1.6-0.5-3.3-0.7-5-0.7C33.5,12,32.5,12.1,31.8,11.3z"/>
		<path class="st23" d="M31.8,11.3c5.3-0.3,10.3,0.8,14.7,4c0.7,0.5,2.1,0.8,1.3,2.3c-1.7,0.8-3.1-0.5-4.6-0.9
			c-2.4-1.8-5.3-1.9-8.1-2.3c-0.8-0.1-1.6,0.2-2.1,0.8c-0.5,0.4-0.6,1.1-1.2,1.5c-0.9,0-1.6-0.3-2.4-0.6c-0.1-0.2-0.3-0.3-0.4-0.5
			c-0.6-1.1-2.2-2.2,0-3.3C29.8,11.9,30.7,11.3,31.8,11.3z"/>
		<path class="st24" d="M56.4,24.4c-1.9-0.4-1.9-1.9-1.9-3.4c2.3,2.6,2.5,3.9,6.6,2c0.7-0.3,1.4,0,2,0.4c0,0.3,0,0.7,0,1
			c-0.9,1.4-1.6,2.6,0.8,3.2c0.5,0.1,0.9,0.6,1.2,1.1c0.5,0.6,1,1.3,1.5,1.9c-0.2,1.8-0.8,2.2-2.3,1.3c-1.6-1-3.2-1.5-5-1.8
			c0-0.2,0-0.3,0-0.5c-0.1-0.3,0-0.6,0.1-0.9c1.1-2.4,0.7-3.2-1.7-3.8C57.2,24.9,56.8,24.8,56.4,24.4z"/>
		<path class="st25" d="M28.8,12.4c-1.8,1.4,0.6,2.2,0.5,3.3c-1,1.3-2.6,1.5-3.9,2.2c-2.4,1.4-3.7,3.9-5.6,5.8
			c-0.8,0.4-1.6,1.1-2.6,0.7C19.4,18.7,24.5,15.9,28.8,12.4z"/>
		<path class="st26" d="M17.3,24.4c0.8-0.3,1.6-0.6,2.4-1c0.2-0.2,0.4-0.2,0.6,0c0.2,0.9-0.6,1.2-1.2,1.6c-1.2,0.8,0,1.1,0.3,1.5
			c-0.3,1.1-1,1.6-2.1,1.3c-1.1,0.4-2.3,1.2-2.4-1C15.5,25.9,16.3,25,17.3,24.4z"/>
		<path class="st27" d="M47.2,60.6c-1.7,4.8-6.8,7.7-11,6.3c-2.3-0.8-4.5-4.5-4-7c0.3-1.5,1.3-2.1,2.7-2.2c2.2-0.2,4.3,0.3,6.4,0.5
			C44.6,57.5,46.6,58.4,47.2,60.6z"/>
		<path class="st28" d="M63.7,57.7c-1.6,1.6-2.5,3.9-4.4,5.3c-0.7-0.1-1.3,0.6-2,0.4c-0.4-1.3,1.9-2.5,0.3-3.4
			c-1.5-0.8-3.4-1.1-5.1,0.1c-0.8-1.6-0.8-3.7-3.2-4.1c-0.2-0.2-0.3-0.4-0.3-0.6c0.3-0.5,0.7-0.6,1.3-0.7c0.8,0,1.4,0.3,2,0.7
			c3.2,2.2,6.4,1.8,8.8-1c0.8-0.9,1.5-2.4,2.8-1.6c1.3,0.8,0.6,2.3,0.3,3.6C64.2,56.9,63.9,57.3,63.7,57.7z"/>
		<path class="st29" d="M19.2,54.3c1-0.1,1.5-0.7,1.9-1.5c0.3-0.5,0.7-0.9,1.4-0.6c1.6,1.2,3.5,0.3,5.1,0.2c2.5-0.1,4.5,0.5,6.6,1.5
			c0.7,0.5,1.6,0.7,1.4,1.8c-0.2,0-0.3,0-0.5-0.1c-4.2-1.6-4.2-1.6-5.7,2.7c-1.1-0.8-1.7-1.9-2.2-3.1c-0.8-1.7-1.9-1.8-3.3-1
			c-1.2,0.7-2.3,1.5-3.4,2.2c-0.8,0.5-1.6,1.6-2.5,0.7c-0.9-0.9,0.1-1.7,0.8-2.4C19,54.8,19.1,54.5,19.2,54.3z"/>
		<path class="st30" d="M47.2,60.6c-1.3-2.4-3.9-1.6-5.8-2.4c-1-0.5-1.9-1-2.9-1.4c0.7-0.6,2-0.8,2-2.1c0.6-0.3,1.1-0.1,1.6,0.1
			c1.8,0.6,3.4,2.1,5.4,1.1c0.5-0.2,1-0.6,1.6-0.2l0.1,0.1c0.2,0.7-0.3,1.2-0.6,1.6c-0.7,0.8-0.6,1.5-0.1,2.3
			c0.2,0.2,0.4,0.4,0.7,0.6c0.8,0.4,1.7,0.1,2.4,0.8C50,62.2,48.6,61.6,47.2,60.6z"/>
		<path class="st31" d="M40.5,54.8c1.8,3.1-1.1,1.5-1.9,1.9c-1-0.3-1.9-0.7-2.9-1c-0.5-0.5-1-1-1.5-1.4c0.4-0.6,1-0.9,1.6-1.2
			c0.9-0.2,1.8,0.1,2.7,0.4C39.2,53.8,40,54.1,40.5,54.8z"/>
		<path class="st32" d="M51.6,61.1c-1,0-2.1,0.5-2.9-0.4c0.4-0.7,1.3-0.5,1.8-1c0.3-0.4,0.5-0.9,0.2-1.3c-0.5-0.6-1-0.3-1.5,0
			c-0.5,0.5-0.3,1.4-1,1.8c-2-2,0.1-3.1,1.1-4.4c2.9,0.1,3.4,0.9,3.4,4.3C52.2,60.4,51.9,60.8,51.6,61.1z"/>
		<path class="st17" d="M47.7,56.3c-2.3,1.6-3.9-0.4-5.8-1c-0.1-1.9,1.5-2.3,2.7-3c4.6-2.8,8.2-6.4,10.6-11.2c1-2.1,1.7-4.2,1.6-6.5
			c0-1.6,0.1-3.2,1.6-4.4c0.3,0,0.6,0,1,0c1.9-0.9,3.3,0,4.7,1c0.9,0.7,2.1,1.6,2.6-0.5c1.4,7.1,2.6,14.2-0.5,21.2
			c-0.8,1.9-0.5,4.4-2.5,5.8c0.2-1,0.7-2,0.5-3.1c-0.1-0.5,0.3-1.3-0.4-1.5c-0.7-0.2-1.2,0.5-1.5,1c-1.2,2.2-3,3-5.5,3.3
			c-1.9,0.2-3.3,0.3-4.5-1.3c-0.5-0.7-1.2-1-2.1-0.9c-0.2-1.5,1.4-2.7,0.7-4.5c-1.4,1-2.7,2.2-4,3.2C45.3,55.1,47.3,55.5,47.7,56.3z
			"/>
		<path class="st17" d="M65.1,28.7c-0.5-0.2-1-0.5-1.5-0.7c-0.8-0.4-2.2,0-2.3-1.3c-0.1-1.2,1-1.7,1.8-2.3
			C63.3,26.1,65,27,65.1,28.7z"/>
		<path class="st33" d="M22.6,52.4c-0.5,0.2-1,0.3-1.4,0.5c0-0.8,0.2-1.7-0.6-2.2c-5-2.8-6.7-7.5-7.6-12.7c0,0,0.1-0.1,0.1-0.1
			c0.8-0.1,1.1,0.5,1.5,1c2.5,3.4,5.1,6.5,8.7,8.7c0.7,0.5,1.4,1.1,1.7,2C25.1,51.3,24.2,52.2,22.6,52.4z"/>
		<path class="st34" d="M17.3,27.8c0.7-0.4,1.6-0.6,2-1.4c0.4-0.5,0.9-0.5,1.5-0.4c1.2,0.5,1.4,1.4,1.2,2.5c-0.5,2.9,0.3,5.4,1.6,8
			c1.6,3,2.8,6.2,2.8,9.8c-0.3,1-1,1.3-1.8,0.8c-3.8-2.4-7.1-5.2-9.3-9.2c-0.2-0.3-0.1-0.6,0-0.9C16.7,34.1,16.2,30.8,17.3,27.8z"/>
		<path class="st35" d="M15.3,37c2.2,4.3,5.8,7.1,9.6,9.8c0.4,0.3,0.7,0.2,1-0.2c1.5-1.3,2.7-0.1,3.9,0.5c0.1,0.2,0.1,0.5-0.1,0.7
			c-0.7,0.5-1.5,0.5-2.3,0.5c-1.1-0.1-1.8,0.5-2.3,1.4c-0.2,0.2-0.4,0.2-0.7,0c-4.6-3.1-8.5-7-11.5-11.6c0.3-0.8-1-1.8,0.2-2.3
			C14.3,35.1,14.7,36.4,15.3,37z"/>
		<path class="st36" d="M58.3,30.2c-0.7,1.8-0.9,3.7-1,5.6c-0.2,3.8-2,7.1-4.4,10c-2.4,2.9-5,5.6-8.6,7.3c-1,0.5-1.9,1.2-2.5,2.2
			c-0.5-0.2-1-0.3-1.5-0.5c-0.8-0.1-1.4-0.3-1.9-1c-0.5-0.6-0.1-1,0.4-1.4c0.5-0.4,1.1-0.6,1.7-0.9c7.2-3.4,11-9.3,12.3-17
			c0.2-1.4,0.9-2.4,1.6-3.4C55.5,29.9,57,30.2,58.3,30.2z"/>
		<path class="st37" d="M54.5,31.2c-0.7,1.7-0.8,3.6-1.2,5.3c-2,7.4-5.9,13.3-13.5,16.1c-0.6,0.2-1.2,0.5-1.2,1.3
			c-1-0.2-1.9-0.3-2.9-0.5c-2.2,0-3.8-1-4.7-3C31,49,32,49,33,49.1c8,1,14-5.1,15.8-11c0.3-1.2,0.6-2.3,0.8-3.5
			c0.8-1.2,1.5-2.7,3.3-2.4C53.5,31.8,54,31.5,54.5,31.2z"/>
		<path class="st38" d="M51.1,25.8c1.2,1.2,1,2.8,1,4.3c-0.5,2-2.1,2.6-3.9,2.9c-0.9-0.1-1.6-0.5-1.8-1.3c-0.4-2.2-1-4.5,0.6-6.6
			C48.5,24.5,49.9,24.7,51.1,25.8z"/>
		<path class="st39" d="M43.4,16.2c1.5,0.5,2.9,1,4.4,1.5c1.2,1.3,2.5,2.6,3.7,3.9c0.6,0.7,1.2,1.5-0.3,1.8c-1.3,0.9-2.4,0-3.5-0.5
			c-2-1.4-3.8-3-5.3-4.9C41.4,16.9,41.4,15.9,43.4,16.2z"/>
		<path class="st40" d="M47.7,22.4c1.1,0.4,2.1,1,3.4,1c0.2,0.2,0.5,0.4,0.7,0.6c0.5,0.4,1.2,0.7,1,1.4c-0.3,0.7-1.1,0.3-1.7,0.4
			c-1.3,0-2.5-0.7-3.9-0.5c-0.9,0.6-1.7,0.2-2.4-0.3c-0.3-1.1-0.4-2.1,0.1-3.2C46,21.5,46.8,22.1,47.7,22.4z"/>
		<path class="st41" d="M48.7,32.6c1.3-0.6,2.4-1.4,3.4-2.4c1.5,0,1.2,1,1,1.9c-1.2,0.6-2,1.6-2.9,2.4c-0.5,0.6-1,1.3-1.9,1.1
			c-0.5-0.4-0.8-1-1.1-1.6C47.1,33,48.2,33.1,48.7,32.6z"/>
		<path class="st42" d="M56.4,24.4c1,0.1,2.1-0.2,3,0.4c1.8,1.1,1.7,3-0.1,4.9c-1.4,0-3,0.4-3.8-1.3C54.8,26.8,55.5,25.6,56.4,24.4z
			"/>
		<path class="st43" d="M29.3,16.2c0.8-0.4,1.4-0.2,2,0.5c0.2,0.5,0.1,0.9,0,1.4c-0.4,1.6,0.5,2.3,1.9,2.2c3.3-0.1,6.4,1,9.7,1.2
			c0.5,0.2,1.1,0.4,1.5,0.8c0.9,0.9,0.9,1.7-0.5,2.1c-1.5,0.4-3.6-0.3-4.5,1.2c-0.8,1.3,0.3,2.9,0.3,4.5c0,2.3-0.9,4.2-1.8,6.2
			c-0.4,0.9-1.3,1.4-2.3,1.7c-1.3,0.4-2.6,0.8-4,1c-1.8,0.2-3,0.9-3.4,2.8c-0.1,0.5-0.3,1.1-0.7,1.5C27,43.9,26.4,44,26,43
			c-0.4-1-0.8-2.1-1-3.2c-0.6-3.8-1.5-7.6-0.9-11.5c0.2-1.5-0.5-2.2-1.8-2.7c-0.6-1.4,0.6-1.4,1.3-1.5c1.2-0.2,2.2,0.4,2.7,1.6
			c0.5,1.3,0.3,2.7,0.1,4.1c-0.3,2.2-0.5,4.4,0.3,7c1.3-2.3,2.9-2.6,5.2-2.3c2.8,0.4,4.5-3,3.2-5.7c-0.3-0.6-0.7-1.1-1.1-1.5
			c-1.3-1.4-2.2-2.7,0.4-4.3c-2.9-0.4-5.1-1.5-7.3-2.2C26.9,18.7,27.4,17.1,29.3,16.2z"/>
		<path class="st44" d="M47.7,22.4c-1,0.2-1.9-0.3-2.9-0.5c-0.4,0.4-0.9,0.2-1.4,0.1c-3.6-0.5-6.6-2.2-9.6-4.1
			c-1.1-0.7-2-1.4-1.5-2.8c0.5-1,1.3-1.7,2.5-1.4c2.9,0.6,6.1,0.4,8.6,2.4c-1.3,0.1-1.6,0.6-0.6,1.6C44.4,19.3,46.1,20.9,47.7,22.4z
			"/>
		<path class="st45" d="M32.2,15.2c0.4,2.8,3.3,2.7,4.9,4c1.7,1.5,4.1,1.9,6.3,2.7c-0.2,0.2-0.3,0.2-0.5,0
			c-3.7,0.1-7.2-1.2-10.8-1.1c-2,0.1-2.2-1.3-0.7-4.2C31.6,16.2,31.9,15.7,32.2,15.2z"/>
		<path class="st46" d="M29.3,16.2c-1.3,1.2-1.2,3.1-2.4,4.4c0,0.4-0.1,0.7-0.3,1c-0.1,0.2-0.3,0.3-0.5,0.5c-1.9,0.8-3.8,2-6,1.4
			c-0.2,0-0.4,0-0.5,0c2.2-3.8,5.2-6.7,9.7-7.7C29.3,15.8,29.3,16,29.3,16.2z"/>
		<path class="st47" d="M20.2,23.4c2.1-0.7,4.2-1.3,6.2-2c0.4,0.6-0.3,1.2-0.1,1.8c0.2,0.9,0.6,1.7,1.7,1.8c0.8,0.1,1.4-0.3,1.6-1.1
			c0.3-1-0.2-1.7-1.1-2.2c-0.6-0.3-1.4-0.3-2-0.8c0.1-0.2,0.3-0.4,0.4-0.6c3,0,5.5,1.9,8.5,2c-0.1,0.4,0,0.7-0.1,0.7
			c-2.6,1.6-2.7,1.6-0.6,3.9c1.6,1.7,2,4.4,0.8,6.2c-1.3,1.9-3,2.6-5.2,1.7c-2-0.9-2,1-2.8,1.8c-0.3,0.3-0.2,1-0.8,1
			c-0.8,0-0.8-0.7-0.9-1.2c-0.6-2.2-0.4-4.4-0.2-6.7c0.1-0.8,0.3-1.6,0.3-2.4c0-3-1-3.6-3.9-2.2c-0.3,0.6-0.8,0.9-1.4,0.9
			c-0.5,0-0.9,0.1-1.4,0.1c-0.6-0.2-1.3,0.6-1.7-0.2c-0.4-0.8,0.5-1,1-1.4C19.1,24.3,19.6,23.9,20.2,23.4z"/>
		<path class="st48" d="M47.7,56.3c-1.1,0.1-2-0.3-2.3-1.4c-0.3-1.2,0.9-1.5,1.6-1.8c1.5-0.6,2.2-1.8,3.1-2.9
			c0.3-0.3,0.7-0.8,1.2-0.4c0.3,0.2,0.5,0.7,0.4,1.1c-0.1,1.6-0.5,3.2-1.6,4.4c-0.3,0.1-0.7,0.3-1,0.4
			C48.6,55.9,48.2,56.1,47.7,56.3z"/>
		<path class="st49" d="M31.3,50.5c1.1,1.5,2.8,2.1,4.3,2.9c0,1-0.8,0.9-1.4,1c-2.6-1.5-5.5-1.2-8.3-1.5c-0.9-0.1-1.6,0.5-2.5,0.8
			c-1.5,0.4-1.1-0.5-0.8-1.3c0.9-0.8,2.2-1.3,1.9-2.9c0.2,0,0.3,0,0.5,0c0.8,1.2,1.3,2.9,3.4,2.2c0.2-0.1,0.4-0.2,0.6-0.3
			c1.1-0.7,0.7-2.1,1.3-3c0.4-0.5,0.9-0.7,1.5-0.5C32.6,48.9,30.3,49.4,31.3,50.5z"/>
		<path class="st50" d="M48.1,60.2c0.3-0.8-0.4-1.8,0.6-2.4c0.5,1,1.3,1.8,2.3,2.3c-0.6,1-1.6,0.3-2.4,0.6
			C48.4,60.5,48.3,60.4,48.1,60.2z"/>
		<path class="st51" d="M51.1,60.1c-1.9,0.3-2.6-0.6-2.3-2.3c0.7-0.6,1.6-0.9,2.3-0.2C51.9,58.3,51.6,59.3,51.1,60.1z"/>
		<path class="st48" d="M62.6,45.2c-0.8,2.5-0.2,6.1-2.3,9.2c-1.5,2.2-3.6,2.6-5.9,2.3c-1.5-0.2-1.5-1.2-1.1-2.3
			c2.3-5.7,3.9-11.5,5.2-17.5c0.1-0.6,0.1-1.5,0.8-1.6c0.9-0.1,1.1,0.8,1.3,1.5C61.4,39.2,62.9,41.5,62.6,45.2z"/>
		<path class="st52" d="M20.7,26.3c0.3-0.6,0.8-0.9,1.4-0.9c3,0.1,3.1,0.2,2.6,3.2c-0.6,3.1,0.3,6.2,0.6,9.3c0.2,1.9,0,3.9,1.4,5.5
			c0.2-0.1,0.5-0.2,0.5-0.4c0.3-3.6,2.4-4.9,5.8-5.2c1.6-0.1,3.6-0.1,4.4-1.8c1.2-2.8,2.5-5.7,1.2-8.8c-0.8-2-0.5-2.8,1.6-3
			c0.7-0.1,1.4-0.2,2.1-0.3c0.7-0.1,1.9,0.5,2.1-0.5c0.3-1-1.3-0.7-1.7-1.4c0.2,0,0.3,0,0.5,0c0.5,0,1,0,1.4,0c0.6,1,0.6,1.9,0,2.9
			c-1.3,0.9-1.9,1.9-1.5,3.6c0.4,1.6,0.4,3.3-0.1,4.9c-0.5,1.5,0.3,1.8,1.4,1.9c0.7,0.8,0,1.2-0.5,1.5c-4.7,3-8.7,7-13.5,10
			c-0.3,0.2-0.6,0.2-0.9,0.3c-1.4,0.4-2.5-1.1-3.9-0.5c-0.4-4-1.6-7.8-3.8-11.3c-1.3-2.2-1.4-4.5-0.9-6.7
			C21.6,27.5,21.3,26.9,20.7,26.3z"/>
		<path class="st53" d="M29.8,47.1c4.7-3.5,9.1-7.4,14-10.6c0.4-0.2,0.7-0.6,1-1c0.5-1,1.2-1.7,2.4-1.5c1,0,1,0.7,0.9,1.4
			c-1.5,2.9-4.2,4.5-6.6,6.4c-2.6,2.1-5.5,3.8-8.3,5.7c-0.4,0.3-0.9,0.7-1.5,0.4c-0.5,0.2-1,0.3-1.5,0.5c-0.4-0.2-0.7-0.4-0.5-1
			C29.8,47.4,29.8,47.2,29.8,47.1z"/>
		<path class="st54" d="M29.8,47.6c0.2,0.3,0.3,0.6,0.5,1c-0.2,1.3,0.4,2.8-1.5,3.4c-0.3-0.5-0.2-1.1-0.1-1.6c0-0.9-0.2-1.6-1.3-1.6
			c-1.2,0-1.5,0.7-1.1,1.7c0.2,0.3,0.3,0.5,0.6,0.6c0.6,0.4,1.4,0.2,1.9,0.8c-2.6,1-3.6,0.5-3.9-2.4c-0.1-1.4,0.7-2,2-1.9
			C27.9,47.6,28.9,47.6,29.8,47.6z"/>
		<path class="st55" d="M31.8,48.1c5.6-4,11.5-7.6,16.4-12.6c0.7-0.2,1.1-1,1.9-1c-0.7,8-6.1,14-13.9,15.4c-1,0.2-2.1,0.2-3.1-0.2
			c-0.8-0.3-1.6-0.5-1.8,0.7C30.1,49.4,31.6,48.8,31.8,48.1z"/>
		<path class="st56" d="M47.2,34.1c-0.8,0.5-1.6,1-2.4,1.5c-0.9,0-1.7,0.9-2.5,0.3c-0.9-0.8,0.2-1.6,0.4-2.4c0.3-1.8,0.5-3.7,0-5.4
			c-0.6-2.1,0-3.1,2.2-3.1c0.8,0.2,1.6,0.3,2.4,0.5c-0.9,1.9-0.4,3.9-0.4,5.9c0,1.2,0.9,1.4,1.9,1.3C48.2,33.1,47.7,33.6,47.2,34.1z
			"/>
		<path class="st57" d="M59.8,27.3c-0.1,1-0.7,1.8-1.9,1.8c-1.2,0-1.9-0.7-2-1.9c-0.1-1.5,0.9-1.9,2.2-1.9
			C59.3,25.3,59.8,26,59.8,27.3z"/>
		<path class="st58" d="M26.5,21.1c1.5-0.2,3,0.1,3.7,1.6c0.4,1,0.2,2.1-0.8,2.8c-0.8,0.6-1.7,0.7-2.5,0.1c-0.9-0.7-1.7-1.6-1.3-2.8
			c0.1-0.4,0.5-0.8,0.7-1.2C26.5,21.3,26.5,21.2,26.5,21.1z"/>
		<path class="st59" d="M26.4,51.5c-0.2-0.2-0.3-0.3-0.5-0.5c-0.3-1-0.5-1.9,0.6-2.5c0.7-0.3,1.4-0.3,2,0.2c0.7,0.5,0.7,1.3,0.4,2
			C28.6,51.9,27.5,51.8,26.4,51.5z"/>
		<path class="st60" d="M26.4,51.5c0.5,0,1,0,1.4-0.1c0.8-0.2,1.1-0.8,1-1.6c-0.1-0.6-0.5-1-1.1-1.1c-0.8-0.1-1.4,0.1-1.7,0.9
			C26,50,26,50.5,25.9,51c-0.7-0.9-0.7-1.8,0.1-2.6c0.7-0.6,1.7-0.5,2.5-0.2c1,0.4,0.9,1.4,0.8,2.3c0,0.5-0.3,0.9-0.5,1.3
			c0,0,0,0,0,0C28,51.8,27.1,52.2,26.4,51.5z"/>
		<path class="st61" d="M59.3,27.1c-0.1,0.9-0.7,1.2-1.5,1.2c-0.6,0-1.2-0.3-1.1-1c0.1-0.8,0.6-1.3,1.4-1.3
			C58.8,25.9,59.2,26.4,59.3,27.1z"/>
		<path class="st62" d="M29.3,23.3c0,1-0.5,1.5-1.5,1.5c-0.7,0-1.3-0.3-1.3-1.1c-0.1-0.9,0.5-1.5,1.4-1.7
			C28.8,21.9,29.2,22.5,29.3,23.3z"/>
	</g>
</g>
<g id="Layer_3" class="st0">
	<g class="st1">
		<path class="st63" d="M45.7,4c3.4,0.5,5.3,2.8,6.7,5.6c2.6,5.1,7.1,8.9,10,13.9c4.4,7.7,5.4,15.6,1.1,23.7
			c-0.7,1.3-1.8,2.2-2.8,3.2c-1.5-0.6-0.3-1.8-0.6-2.7c0-0.5,0.1-1.1,0.1-1.6c0-0.3,0.1-0.5,0.2-0.8c0.2-0.6,0.3-1.2,0.7-1.7
			c4.1-6.4,2.8-12.6-0.6-18.7c-2.8-4.4-6.4-8.2-9.3-12.5c-0.8-1.3-1.6-2.6-2.5-3.8c-0.7-1.1-1.4-2.1-2.6-2.6c-1-0.4-2.1-0.1-3.1-0.3
			c-0.8-0.1-1.8,0.1-2.1-1.1C41.7,4.2,43,4.2,43.6,4C44.3,4,45,4,45.7,4z"/>
		<path class="st64" d="M19.9,68.3c-0.7-0.5-1.2-6.1-0.7-8.9c0.7-3.6,6.3-8.5,10.5-8.9c0.1,0.1-3.4,2.3-3.3,2.4
			c0,0.6-0.3,1.1-0.7,1.3c-2.6,1.6-3.8,4.1-4.9,6.7c-0.6,1.7-0.3,3.5-0.2,5.2C20.7,66.9,21.2,67.9,19.9,68.3z"/>
		<path class="st65" d="M40.9,4.7c1.7,1.1,4-0.4,5.9,1c-0.5,0.6-1.3,0.6-2,0.7c-2.2-0.1-4.3-0.2-5.2,2.4c-0.3,11.9,0,23.7-0.2,35.6
			c0,1.9,0.5,4-0.5,5.8c-0.3,0.3-0.6,0.3-0.9,0.1c-0.7-1.1-0.1-2.3-0.1-3.4c0-12.3,0-24.6,0-36.9c0-0.4,0-0.7-0.2-1.1
			C37.8,6.7,38.8,5.3,40.9,4.7z"/>
		<path class="st66" d="M37.7,8.9c0.6,0.7,0.4,1.5,0.4,2.3c0,13.1,0,26.1,0,39.2c-0.2,0.3-0.5,0.4-0.8,0.6c-1.6,0-3.5,1.1-4.6-1
			c4.8,0.5,5-0.4,4.8-5.9c-0.3-10.8,0-21.6,0-32.5C37.6,10.7,37.7,9.8,37.7,8.9z"/>
		<path class="st67" d="M32.8,50c1.7,0,3.2,0.2,4.8,0.5c-0.3,1.5-1.6,1.1-2.5,1.2c-1.3,0.1-2.6-0.2-3.9,0.4
			c-1.2,0.6-2.4,1.1-3.8,1.1c-0.5-0.1-0.8-0.2-1.2-0.6l-0.1-0.1C28,50.7,30.3,50.1,32.8,50z"/>
		<path class="st68" d="M50,33.7c-1.3-0.1-2.1,0.2-2.1,1.9c0.1,5,0.5,9.3,0.3,14.7c-0.2,7.3,2.1,9.4,0.3,14.1
			c-1.3,3.4-3.6,5.6-6.3,7.7c-1.3,0.4-1.2-0.4-0.8-1.1c0.6-1.2,1.7-2.1,2.7-3c2.1-2,2.3-5.1,2.3-7.1c-0.1-4.7,0-9.5-1.4-14.1
			C44.8,41.9,45,37,45,32.1c0-2.5,0.7-2.9,3.4-2.7c1.2,0.4,2.1,1.3,2.7,2.5C51.4,33.8,51.4,33.8,50,33.7z"/>
		<path class="st69" d="M45.7,33c0.7,0.6,1,15.7,1,16.4c-0.1,3.7,0.3,9.9,0.2,13c-0.2,4.4-0.7,5-3.7,7.7c-1.1,1-1,1-0.8,2
			c-1.3,0.8-2.5,1.6-4.1,1.7c-0.9,0.4-1.4,0.1-1.4-0.9c1.6-1.9,4.1-2.5,5.6-4.4c1.8-1.6,2.6-3.4,2.5-5.9c-0.1-4.1-0.1-8.2,0-12.4
			C45,49.2,44.7,33.8,45.7,33z"/>
		<path class="st70" d="M37.1,72.6c0,0.8,0.5,1,1.2,1.1c-6.4,3.2-15.8,0.4-18.4-5.5c0.5-1.9-0.5-3.7-0.1-5.6
			c0.2-0.8-0.3-1.8,0.6-2.4C21.2,61,21,62,21.1,63c0.2,5.2,4.2,9.1,9.4,9.5C32.7,72.6,34.9,71.9,37.1,72.6z"/>
		<path class="st71" d="M50,33.7c1.3-0.1,0.4-1.1,0.6-1.6c1.5-0.3,2.2,0.8,2.8,1.8c1.7,2.7,3.3,5.3,4.2,8.4c0.1,1.2,0.5,2.5,0.5,3.7
			c0,2.1,1,1.5,2.6,1.1c0.4,0.9-0.8,2.5,0,3.4c-1.4,1.1-2.7,1.3-2.7,1.3c-1.4-0.3-1.4-1.6-1.5-2.6c-0.3-4.7-1.9-8.9-4.3-12.8
			C51.7,35.3,50.9,34.5,50,33.7z"/>
		<path class="st72" d="M60.8,24.6c3.7,5.7,5.3,11.6,1.6,18c-0.6,1-1,2-1.6,3.1c-0.9-0.9-0.7-2-0.7-3.1c0-0.6,0.1-1.2,0.2-1.8
			c1.3-3.9,1.2-7.8,0.2-11.7c-0.3-1.1-0.5-2.1-0.4-3.2C60.3,25.3,60.4,24.9,60.8,24.6z"/>
		<path class="st73" d="M60.8,42.4c0,1.1,0,2.2,0,3.2c0,0.2,0,0.4,0,0.6c-1.2,1.6-2.2,1.2-2.9-0.5c-0.4-1.1-0.5-2.2-0.9-3.3
			c-1.8-3.6-3.9-8-6.1-10.4c-0.6-0.7-1-1.4-2.1-2c0.1-0.1,0.2-0.2,0.3-0.3c1.2-0.5,2.1,0.2,2.8,1c1.8,2.1,3.8,4,5,6.6
			C57.8,39.3,59,41.1,60.8,42.4z"/>
		<path class="st74" d="M60.1,23.6c0,0.4,1,0.8,1.9,3.2c-1.1,0.2-2.5-1.8-3-2.4c-1.2-1.7-2.4-3.3-3.9-4.8c-0.9-0.9-1.5-2-2.3-3
			c-1.3-1.9-3.2-3.3-4-5.5c-0.3-0.9-0.7-1.8,0.1-2.7c2.5,3.3,5,6.6,7.4,10C57.8,20.5,58.4,21.2,60.1,23.6z"/>
		<path class="st75" d="M49,8.3c0.2,0.9,0.3,1.8,0.5,2.7c-2.4-0.3-3.3-2.4-4.7-3.9c-0.2-0.5-0.4-0.9-0.1-1.4c0.7,0,1.4,0,2.2,0
			C47.8,6.3,47.7,6.8,49,8.3z"/>
		<path class="st76" d="M56.9,42.1c0.7,0.6,1,1.9,1.2,2.7c0.3,1.9,1.5,3.2,4-1.6c0,0.5-0.4,2.9-1.5,4.2c-0.9,0.8-1.7,1.5-2.9,1.9
			c0,0,0-1.7-0.1-2.7C57.5,45.2,57.1,43.7,56.9,42.1z"/>
		<path class="st77" d="M37.1,72.6c-5.2,1-10.2,1.2-14.3-3.2c-2.6-2.8-2.5-5.9-2.4-9.2c1-3.3,2.9-4.8,5.3-7c1.6-1.1,4.6-1.7,5-1.6
			c0.6,1.4-3.7,3-4.5,3.7c-1,0.9-2.1,1.6-2.5,3c-1.9,3.6-1.7,7,1.1,10.1c2.8,3.7,9.5,4.8,15.1,1.1c0.8-0.6,3.5-5.8,4.7-5.4
			c0,2.7-1.7,4.9-2.1,5.2C40.9,70.9,39.2,72.1,37.1,72.6z"/>
		<path class="st78" d="M44.7,5.7c0.2,0.4,0.4,0.7,0.5,1.1C45,7,44.7,7.2,44.4,7.3c-3.2,0.6-3.3,0.7-3.3,4c-0.1,6.6,0,13.2,0,19.9
			c0.1,5.5,0.1,10.9,0,16.4c0,1.4,0.1,3-1.7,3.5c-0.3-0.2-0.5-0.5-0.5-0.9c0-13.2,0-26.3,0-39.5c0-1-0.2-2,0.2-2.9
			C40.4,5.4,42.5,5.5,44.7,5.7z"/>
		<path class="st79" d="M39.2,7.8c0,14.2,0,28.4,0,42.6c-0.1,0.1-0.2,0.1-0.3,0.2c-0.1-0.1-0.2-0.1-0.3-0.2c0-13.2,0-26.4,0-39.5
			C38.7,9.9,38.3,8.7,39.2,7.8z"/>
		<path class="st79" d="M30.6,51.6c1.2-1.1,2.7-0.4,4-0.6c1-0.2,2.1,0.4,3-0.5c0.2,0,0.4-0.1,0.5-0.1c0.2,0,0.4,0,0.5,0c0,0,0,0,0,0
			c0,1.9,0.7,2.7-2.7,1.8c-0.5,0-0.9,0-1.4,0C33.3,52.2,31.9,52.6,30.6,51.6z"/>
		<path class="st80" d="M30.6,51.6c2.1-0.5,4.4-0.5,5.5-0.1c0.4,0.5-0.7,1.1-1,1.7c-1.1,1.2-2.6,1.1-4.1,1.2c-2.3,0-3.9,1.4-5.7,2.6
			c-0.7,0.5-1.2,1.4-2.3,1c0.2-1.6,1.5-2.3,2.6-3.1c0.8-0.6,1.6-1,1.8-2.1C28.5,52.5,29.7,52.3,30.6,51.6z"/>
		<path class="st81" d="M42.4,69.3c0-0.4,1.6-2.2,1.6-2.6c0.2-6.9-0.6-13.2-0.2-20.6c0.2-4.7,0-9.5,0.1-14.2c0-1.2-0.1-2.5,0.8-3.6
			c2-1.1,3.5-0.7,4.3,1.6c0,0-0.2,0-0.2,0c-2.7-0.8-3.3,0.4-3.2,3c0.2,4.7,0.1,9.5,0.1,14.2c0,5.3-0.1,10.6,0,15.9
			C45.8,65.9,44.7,67.9,42.4,69.3z"/>
		<path class="st82" d="M49,29.9c-1.1-1-2.2-1.9-3.8-1.6c-0.2-0.2-0.2-0.5-0.2-0.8c0.4-0.8,1-0.8,1.8-0.7c3.1,1.2,6,2.6,8.3,5.2
			c1.4,1.5,3.1,3.2,5.5,1.6c0.3-0.2,0.5,0.4,0.7,0.7c0.1,2.1,0.2,4.3-0.5,6.4c0,0.5,0,1.1,0,1.6c-2.6,0.1-3.2-2.1-4-3.8
			c-1.2-2.7-3.3-4.7-5-7C51.2,30.7,50.4,29.8,49,29.9z"/>
		<path class="st83" d="M60.8,42.4c0-2.3,0-6.3,0-8.6c-1.2-2.5-1.1-5.4-2.5-7.8c-0.7-1.6-1.5-3.2-2.5-4.7c-0.4-0.6-1-1.3-0.4-2.1
			c2.4,1.6,3.5,4.4,5.4,6.5c0.4,3.7,1.5,7.3,1.1,11.1C61.8,38.2,61.8,41.2,60.8,42.4z"/>
		<path class="st84" d="M55.5,19.1c0.8,2.3,2.9,4,3.2,6.5c0.5,1,0.6,2.1,0.7,3.2c-2.2,0.8-2.9-0.7-3.6-2.4c0.9-3.1-1.7-4.9-2.9-7.2
			c-0.7-1.3-1.8-2.2-2.8-3.2c-0.6-0.7-6-4.1-5.5-5.3c2.4-0.5,7.4,4.5,8.7,5.7C54.4,17,54.7,18.3,55.5,19.1z"/>
		<path class="st85" d="M53.3,16.4c-1.5-0.8-2.4-2.6-4.3-2.7c-2.6-0.3-3.4-2.6-4.7-4.3c-0.2-0.5-0.3-1-0.2-1.6
			c0.1-0.4,0.3-0.8,0.6-1.1c0.2,0,0.3,0,0.5,0c1.3,1.6,2.7,3.1,4.3,4.3C50.3,13.1,52.6,14.2,53.3,16.4z"/>
		<path class="st86" d="M45.2,27.8c0,0.2,0,0.4,0,0.5c-0.7,1.1-0.6,2.2-0.6,3.4c0,10.3,0.2,20.5,0,30.8c-0.1,4.7-0.6,4.2-2.2,5.8
			c-3.9,3.5-8.3,5.3-13.6,3.8c-1.9-0.6-3.6-1.5-4.8-3.2c0.4-0.4,1-0.6,1.6-0.5c2.2,0.7,4.3,1.5,6.7,1.5c7.2-0.2,9-6.7,8.6-11.8
			c-0.1-1.2-1.1-1.8-2.3-1.9c-1.4-0.2-2.5-0.8-3.5-1.8c-0.3-0.3-0.5-0.7-0.4-1.1c0-0.5,0-1.1,0-1.6c0.4,0,0.7,0,1.1,0
			c1.5,2.8,2.6,0.6,3.7-0.4c2.2-2,3.3-4.3,3.1-7.3c-0.2-4.5-0.1-9.1,0-13.7c0-0.6,0.1-1.2,0.4-1.8C43.7,27.7,44.3,27.2,45.2,27.8z"
			/>
		<path class="st87" d="M25.8,68.8c-0.5,0-1.1,0-1.6,0c-2.9-3.3-3.1-7-1.1-10.8c2.3-1.8,4.5-3.9,7.6-4.3c0.2,1.1-0.6,1.7-1.4,2
			c-4.5,2.1-5.1,5.7-4,10C25.3,66.8,26.2,67.7,25.8,68.8z"/>
		<path class="st88" d="M43.5,29.9c0,5.1-0.1,10.2,0.1,15.3c0.1,3.4-1.7,5-4.3,6.3c-0.1-0.1-0.2-0.2-0.1-0.4c0-0.1,0.1-0.2,0.1-0.2
			c1.2-0.6,1-1.8,1-2.8c0-5.7,0-11.4,0-17.2C41.6,31.3,42.3,29.8,43.5,29.9z"/>
		<path class="st89" d="M43.5,29.9c-1.2,0.1-1.2,3.5-3.2,1.1c0-6.7,0-13.4,0-20.1c0-4,0.3-4.2,4.3-4.1c0,0.4,0,0.7,0,1.1
			c-2.1,1.4-2.6,3.4-2.5,5.9c0.1,3.1,0,6.1,0,9.2c0,1.4,0.2,2.7,1.1,3.8c0.3,0.5,0.6,1,0.4,1.7C43.6,28.9,43.6,29.4,43.5,29.9z"/>
		<path class="st90" d="M39.3,51c0,0.2,0,0.4,0,0.5c-0.1,1,0.2,2.5-1.2,2.6c-1.6,0.1-2-1.1-2.1-2.5c1-0.1,2.9,2.2,2.7-1.1
			c0.2,0,0.4,0,0.5,0C39.3,50.6,39.3,50.8,39.3,51z"/>
		<path class="st91" d="M24.7,66.1c-1.3-4.5-0.9-8.9,3.7-10.6c0.8-0.3,1.8-0.8,2.2-1.8c1.5,0.1,2.9-0.1,4.3-0.5
			c0.2,0.2,0.4,0.4,0.5,0.5c0.2,0.3,0.4,0.6,0.5,0.9c2.4,3.8,2.2,4.8-1.7,7.3c-1.3,0.8-2,2-2.7,3.3C29.8,68.7,27.4,69,24.7,66.1z"/>
		<path class="st92" d="M43.6,28.3c-0.2-0.4-0.4-0.7-0.5-1.1c0-0.6,0-1.3,0.5-1.8c2.1-0.5,4.2-1,5.9-2.7c1.2-1.3,2.6-0.4,3.9,0.3
			c1,0.9,2.3,1.7,2.7,3.1c0.8,1.2,1.5,2.6,3.2,2.7c-0.2,2.1-0.7,2.5-2.9,1.8c-3.2-1.1-6.3-2.3-9.6-3.4c-0.6,0-1.2-0.1-1.6,0.5
			C44.6,28,44.1,28.2,43.6,28.3z"/>
		<path class="st93" d="M46.8,27.3c3.4,0.2,6.6,1.5,9.7,2.7c1.4,0.5,2.4,0.8,2.7-1.1c-0.6-1-0.6-2.1-0.5-3.2
			c1.7,2.4,2.3,5.2,2.2,8.1c-1.3,2-2.6,2-4.3,0.4C53.6,31.4,50.6,28.7,46.8,27.3z"/>
		<path class="st94" d="M53.3,23.5c-1.7-0.7-3.1-1-4.6,0.8c-1.1,1.3-3.1,2-5.1,1.4c-0.5-0.2-1-0.6-1-1.1c-0.4-4.8-1-9.6,1.2-14.1
			c0.2-0.4,0.5-0.7,0.9-0.9c1.6,1.3,2.4,3.3,4.3,4.3c1.1,2.1,3.7,2.9,4.3,5.4c-0.7,0.4-1.3-0.4-2.1-0.2C51,20.8,53.6,21.5,53.3,23.5
			z"/>
		<path class="st95" d="M53.3,23.5c-0.8-1.1-1.6-2.1-2.4-3.2c-0.5-0.6-1.2-1.3-0.5-2.1c0.9-1,1.6,0.1,2.3,0.5
			c0.2,0.1,0.5,0.3,0.7,0.4c1.3,1.4,2.4,3.1,3.3,4.9c0.4,1,0.5,1.7-0.6,2.2C54.9,25.5,54,24.6,53.3,23.5z"/>
		<path class="st96" d="M44.6,9.4c-2,4.5-1.6,9.2-1.6,13.9c0,0.8,0.2,1.6,0.6,2.3c0,0.6,0.1,1.2-0.5,1.6c-1.2-0.7-1.6-1.9-1.6-3.2
			c0-4.3,0-8.6,0-12.8c0-2.1,1.1-3.3,3.2-3.4C44.6,8.4,44.6,8.9,44.6,9.4z"/>
		<path class="st97" d="M24.7,66.1c4.2,2.1,4.8,1.9,6.8-2.3c0.5-1.1,1.3-1.9,2.3-2.5c3.5-1.8,3.6-2.3,2-5.8
			c-0.2-0.5-0.3-1.2-0.4-1.8c1.2,0.8,2.1,1.7,3.8,1.7c2,0,2.7,1.4,2.7,3.3c0.2,10.5-8,14.5-16.2,10.1C25.4,67.9,25,67,24.7,66.1z"/>
	</g>
</g>
<g id="Layer_4" class="st0">
	<g class="st1">
		<path class="st98" d="M11.6,65c3.6-1.3,7.3-3,10.9-4.3c2.6-0.9,4.5-1,4.4-4.1c0-2.5-0.4,2.9-0.3-1.7c-0.1-2.3-0.1-11.1-0.2-12.9
			c0-0.2-0.5-27.3-0.5-27.3c38.2-8.6,2.4,7.9,3.5,8.4c0.3,7,0.4,32-0.3,38.9c-5.7,2.8-11.2,6-17.7,6.6c-0.5,0-0.9-0.2-1.3-0.6
			C10.1,67.3,11,65.4,11.6,65z"/>
		<path class="st99" d="M10.1,68.1c0.3,0,0.7,0,1,0c3.2,0.9,6.4,0.3,9.6-0.1c2.2-0.3,4.1-0.8,5.3-2.9c0.6-1.1,2.9-1.5,3.4-7.4
			C29.6,69.3,26.8,71,23,72.8C18.6,74.9,10.1,75,10.1,68.1z"/>
		<path class="st100" d="M29.2,41.1c-1.7,0.6-1.2,4.3-2.2,6.3c-0.5-9.8-1-29.2-1-29.2s6.4-2.2,9-2.9c8.2-2,16.3-4.2,24.5-6
			c2.3-0.5,4.6-0.8,6.6,0.9c0,1,0,2,0,2.9c0.9,6.8,0.2,13.7,0.4,20.5c-0.9,4.3-0.3,8.6-0.5,12.9c-0.1,2.1,0.3,4.5-2.8,4.9
			c-0.8-0.8-0.7-1.6-0.3-2.5c1.1-1.2,1.4-2.5,1.3-4.1c-0.3-7.8-0.6-15.6-0.8-23.4c0-1.6-0.4-4.1-2.2-3.4c-0.4-0.3-0.6-0.7-0.6-1.1
			c-0.2-1.6-1.4-1.8-2.6-1.6c-8.8,1.5-17.5,3.4-25.8,6.7c-0.6,0.2-0.8,1-1.2,1.6c-1.7,1.6-1.8,3.1-1.8,3.1
			C29.1,30.6,29.4,37.1,29.2,41.1z"/>
		<path class="st101" d="M66.2,55.3c-1.2,7.2-7.9,11.8-14.9,9.9c-3.1-0.8-4.6-2.8-3.3-6.2c6.7,0.8,11.8-4.4,18.1-5.1
			C66.6,54.4,66.4,54.6,66.2,55.3z"/>
		<path class="st102" d="M65.9,54.2c-5.7,2.4-10.6,8-17.8,4.8c0.1-0.3,0.3-0.6,0.4-0.9c4.6-2.9,9.8-4.6,14.7-7
			c2.5-1.2,1.9-3.5,2.1-5.5c0.4-3.8-1.2-7.8,0.9-11.4C66.7,40.8,67.3,47.5,65.9,54.2z"/>
		<path class="st103" d="M29,63.1c-2.7,1.3-3.5,7.2-7.4,7.5c-3.9,0.4-6.7,1.2-10.5-2.5c6.3-1.1,11.5-5.5,18-6
			C29.1,62.4,29.1,62.8,29,63.1z"/>
		<path class="st104" d="M63.1,51.1c-3.8,4.6-9.4,5.6-14.7,7c2.1-3.9,5.9-5.6,9.6-7.4c1.6-0.8,3.3-1.3,4.9-2
			C63,49.6,63.1,50.3,63.1,51.1z"/>
		<path class="st105" d="M65.9,54.2c0.1-6.7,0.2-13.4,0.3-20.1c0-7-0.1-21.6,0-28.7C66.3,5,66.8,4.8,67,5
			c0.1,12.7,0.1,33.5,0.2,46.1c-0.4,1.4-0.7,2.8-1.1,4.1C66.1,54.9,66,54.6,65.9,54.2z"/>
		<path class="st106" d="M61.2,17.1c2-0.4,2.3,0.7,2.3,3c1.3-3.3-20.2,1.8-20.4,1.9c-0.3-0.5-0.3-1.1,0-1.6
			C48.7,17,54.6,15,61.2,17.1z"/>
		<path class="st107" d="M44.8,19.6c0,0.3-1.5,2.1-1.5,2.4c0,0-5.9,1.3-8.9,2c-3.1,0.7-5.3,1-5,5.7c-1.5-2.1-0.2-4.6,0.8-6.6
			C34.3,20.6,39.9,17.1,44.8,19.6z"/>
		<path class="st108" d="M66.2,10.1c-6.9,1-13.8,2.3-20.3,3.9c-6.4,1.6-13.4,2.8-19.9,4.1c0-1.5,0-3.3,0-3.3
			c0.6-0.5,0.7-0.2,4.2-1.5c8.2-3.2,19.9-5.7,30.1-7.4c1.4-0.2,6.6-1.4,6.6-1.4C67.1,5.6,66.6,7.7,66.2,10.1z"/>
		<path class="st109" d="M27,54.9c0.6,4.4-1.5,6.5-5.7,7.6c-3.1,0.8-6.3,2.7-9.7,2.5c1.2-1.5,5.3-6.5,12.4-6.8
			C26.3,58.2,26.8,56.1,27,54.9z"/>
		<path class="st110" d="M43.1,20.1c-6.3,0.9-14.5,3.4-14.3,6.7c0.1-1.5-0.5-5.7,3.5-6.6c8.7-1.8,26.2-6.1,26.2-6.1
			c2.8-0.1,3.3,1.1,4,1.7c0.6,0.5,1.3,3.2,1,3.4C64,15.2,50.5,18,43.1,20.1z"/>
	</g>
</g>
<g id="Layer_5">
	<g>
		<path class="st111" d="M23.8,70.8c0-18.6,0-37.2,0-55.8c0.3,0,0.5,0,0.8,0c0,9.3,0.1,18.6,0.1,27.9c0,6,0,12,0,18.1
			c0,2.6,31.3,5.3,34.4,10.2c0,0,0,1.9,0,2.1c0,3.1-1.4,3.2-1.6,3.2L26,76.5C25,76.3,23.7,77.3,23.8,70.8z"/>
		<path class="st112" d="M59.1,17.5c0,18.1,0,36.1,0,54.2c-0.2,0.2-0.4,0.3-0.7,0.2c-0.1-8.3-0.1-16.6-0.2-24.9c0-1.3,0-2.7,0-4
			c0-8.5,0.1-17,0.1-25.5C58.6,17.5,58.9,17.5,59.1,17.5z"/>
		<path class="st113" d="M59.1,17.5c-0.3,0-0.5,0-0.8,0c0-0.8,0-1.6-0.1-2.4c0-2.5,0-4.9,0-7.4c0.3,0,0.5,0,0.8,0
			C59.1,10.9,59.1,14.2,59.1,17.5z"/>
		<path class="st114" d="M55,3.5c1.5,0.5,4.7-1.7,4.1,2.5c-0.3,0-0.6,0-0.8,0c0,0-0.1,0-0.1,0c-0.2-0.3-0.5-0.6-0.7-0.9
			c-0.8-0.3-1.7-0.6-2.5-0.9C55,4,55,3.8,55,3.5z"/>
		<path class="st115" d="M23.8,9.3c0,0,1.4-3.8,2.9-4c4.6-0.5,28.2-1.7,28.4-1.7c0,0,1.4,0,2.7,0.3C59.1,4.2,59.1,6,59.1,6
			s-34.5,7.2-34.5,9c-0.3,0-0.5,0-0.8,0C23.8,13.1,23.8,11.2,23.8,9.3z"/>
		<path class="st116" d="M55,3.6c0,0.2,0,0.5,0,0.7l0,0.2c-1.1,0-2.2,0.1-3.3,0.1l0-0.1c0-0.3,0-0.5,0-0.8C52.8,3.7,53.9,3.6,55,3.6
			z"/>
		<path class="st117" d="M54.3,76c0,0.2,0,0.4-0.1,0.6c-1.1,0-2.2,0-3.3,0c0-0.2,0-0.4,0-0.7C52,75.9,53.2,76,54.3,76z"/>
		<path class="st118" d="M46.8,76.6c0-0.2,0-0.4,0-0.7c0.8,0,1.6,0,2.5,0c0,0.2,0,0.4,0,0.7C48.5,76.6,47.6,76.6,46.8,76.6z"/>
		<path class="st119" d="M46.8,4.1C47.4,4,47.9,4,48.5,4c0,0.2,0,0.5,0,0.7c-0.5,0-1.1,0.1-1.6,0.1C46.8,4.5,46.8,4.3,46.8,4.1z"/>
		<path class="st120" d="M48.5,4.7c0-0.2,0-0.5,0-0.7c0.5,0,1.1-0.1,1.6-0.1c0,0.2,0,0.5,0,0.7C49.6,4.6,49,4.7,48.5,4.7z"/>
		<path class="st121" d="M50.1,4.6c0-0.2,0-0.5,0-0.7c0.5,0,1.1-0.1,1.6-0.1c0,0.3,0,0.5,0,0.8C51.2,4.6,50.7,4.6,50.1,4.6z"/>
		<path class="st122" d="M58.3,6c0.3,0,0.6,0,0.8,0c0,0.5,0,1.1,0,1.6c-0.3,0-0.5,0-0.8,0C58.3,7.1,58.3,6.6,58.3,6z"/>
		<path class="st123" d="M46.8,4.1c0,0.2,0,0.5,0,0.7c-0.5,0-1.1,0.1-1.6,0.1c0-0.2,0-0.5,0-0.7C45.7,4.1,46.3,4.1,46.8,4.1z"/>
		<path class="st124" d="M49.3,76.6c0-0.2,0-0.4,0-0.7c0.5,0,1.1,0,1.6,0c0,0.2,0,0.4,0,0.7C50.4,76.6,49.8,76.6,49.3,76.6z"/>
		<path class="st125" d="M24.7,71.7c0.1-0.3,0-0.5-0.1-0.8c0.1-3.3,0.1-6.6,0.2-9.8c0.2,0,0.4-0.1,0.7-0.1c0.3,1.1,0.5,2.2,0.8,3.3
			c0,0.3,0.1,0.5,0.1,0.8c0.5,0.3,1.1,0.5,1.6,0.8c1.9,0,3.8,0.1,5.7,0.1c-1.6,0.5-3.4,0.8-4.8,1.7c-0.8,0.6-1,2.2-1.5,3.3
			c1.3,0.2,2.5,0.5,3.8,0.7c3.6,0,7.1,0,10.7,0c2.5,0.3,4.9,0.5,7.4,0.8c0.8,0,1.6,0,2.5,0c0,0.3,4.6-1.5,6.7-1l0,2.4
			c0,2-1.2,2.1-1.9,2.1c-0.5,0-27.2-0.3-27.2-0.3l-3.3,0C25.3,75.3,24.6,75.3,24.7,71.7z"/>
		<path class="st126" d="M24.7,15c0-1.9,0-3.9,0-5.8c0-0.2,0.1-0.5,0.2-0.7l0.3,0l0.3,0c0,0.3,0,0.5,0.1,0.8c0,0.3,0,0.5,0,0.8
			c0,0.6,0,1.1,0,1.7c0,0.5,0,1.1,0,1.6c0.3,0.6,0.5,1.1,0.8,1.7c0,5.5,0,11,0,16.4c0,0,0,0,0,0c-0.3,1.5-0.6,3-0.8,4.5
			c-0.3,2.3-0.5,4.6-0.8,7C24.7,33.6,24.7,24.3,24.7,15z"/>
		<path class="st112" d="M24.7,43c0.3-2.3,0.5-4.7,0.8-7c0.2-1.5,0.6-3,0.8-4.5c0,5.4-0.1,10.9-0.1,16.3c-0.3,4.4-0.5,8.8-0.8,13.2
			c-0.2,0-0.4,0-0.7,0.1C24.8,55,24.7,49,24.7,43z"/>
		<path class="st127" d="M58.4,71.9c-1.2,1.3-2.3,2.5-3.5,3.8c-0.8-0.5-1.6-1-2.4-1.5c1.1-0.3,2.2-0.5,3.3-0.8
			c0.3-0.4,0.9-0.9,0.9-1.3c0.1-5.4,0.1-10.8,0.2-16.1c0.1-3.2,0.3-6.5,0.4-9.7c0.3,0.3,0.5,0.5,0.8,0.8
			C58.3,55.3,58.4,63.6,58.4,71.9z"/>
		<path class="st127" d="M58.3,15c0,0.8,0,1.6,0.1,2.4c0,8.5-0.1,17-0.1,25.5c-0.3,0-0.5,0-0.8,0c0-8.2,0-16.5-0.1-24.7
			c0-1.1,0.1-2.2,0.1-3.2l0.4,0L58.3,15z"/>
		<path class="st128" d="M57.5,42.9c0.3,0,0.5,0,0.8,0c0,1.3,0,2.7,0,4c-0.3-0.3-0.5-0.5-0.8-0.8C57.5,45.1,57.5,44,57.5,42.9z"/>
		<path class="st129" d="M27.9,6c0.2-0.1,0.5-0.1,0.7-0.1c1.4-0.2,2.8-0.4,4.2-0.6c1.9-0.1,3.7-0.1,5.6-0.2c1.4-0.2,2.8-0.4,4.2-0.6
			c0.6,0,1.2,0,1.7,0c1.1,0.2,2.2,0.5,3.2,0.7c0,0.3,0,0.5,0,0.8C45.4,6,43.2,6,41.1,6c-1.4,0-2.7,0.2-4.1,0.2
			c-0.8,0.3-1.6,0.3-2.5,0.5c-0.3,0-0.5,0-0.8,0c-1.1,0-2.2,0-3.3,0c-0.8,0-1.6,0-2.5,0C27.9,6.5,27.9,6.3,27.9,6z"/>
		<path class="st130" d="M47.7,5.2c-1.1-0.2-2.2-0.5-3.2-0.7c0.3-0.1,0.5-0.2,0.8-0.2c0.5,0,1.1,0,1.6,0c0.5,0,1.1,0,1.6,0
			c0.5,0,1.1,0,1.6,0c0.6,0,1.1,0,1.7,0c0,0,0,0.1,0,0.1c0,0.3,0,0.5,0,0.8C50.4,5.2,49,5.2,47.7,5.2z"/>
		<path class="st131" d="M42.7,4.5c-1.4,0.2-2.8,0.4-4.2,0.6C39.8,4.9,41.3,4.7,42.7,4.5z"/>
		<path class="st132" d="M32.8,5.3c-1.4,0.2-2.8,0.4-4.2,0.6C30,5.7,31.4,5.5,32.8,5.3z"/>
		<path class="st132" d="M27.9,6c0,0.3,0,0.5,0,0.8c0,0.3,0,0.5,0,0.8c-0.3,0-0.5,0.1-0.8,0.1c-0.3,0-0.6,0-0.8,0
			c0-0.3,0-0.6-0.1-0.9l0,0c0.3-0.2,0.6-0.5,0.9-0.7C27.4,6,27.7,6,27.9,6z"/>
		<path class="st115" d="M26.3,6.8c0,0.3,0,0.6,0.1,0.9c-0.3,0.5-0.5,1.1-0.8,1.6c0-0.3-0.1-0.5-0.1-0.8c0-0.3,0-0.6,0-0.9
			C25.7,7.3,26,7,26.3,6.8z"/>
		<path class="st115" d="M27.1,6.1c-0.3,0.2-0.6,0.5-0.9,0.7C26.5,6.6,26.8,6.3,27.1,6.1z"/>
		<path class="st115" d="M25.5,7.6c0,0.3,0,0.6,0,0.9l-0.3,0l-0.3,0C25,8.2,25.3,7.9,25.5,7.6z"/>
		<path class="st133" d="M52.6,74.1c0.8,0.5,1.6,1,2.4,1.5c-0.2,0.1-0.4,0.3-0.7,0.3c-1.1,0-2.3,0-3.4,0c-0.5,0-1.1,0-1.6,0
			c-0.8,0-1.6,0-2.5,0c-0.8-0.1-1.7-0.2-2.5-0.3c-2-0.2-4-0.4-5.9-0.6c-2.1,0-4.2,0-6.4,0.1c0,0,0.1-0.3,0.1-0.3
			c-0.3-0.2-0.6-0.5-0.9-0.7c-0.3,0-0.5,0-0.8,0c0-0.3,0-0.5,0-0.8c0.3,0,0.6,0,0.8,0c1.1,0,2.2,0,3.3,0c2.7,0.3,5.5,0.5,8.2,0.8
			c0.8,0,1.6,0,2.5,0c0.8,0,1.6,0,2.5,0c0.5,0,1.1,0,1.6,0l0,0c0.3,0,0.6,0,0.8,0c0.5,0,1.1,0,1.6,0C52,74.1,52.3,74.1,52.6,74.1z"
			/>
		<path class="st134" d="M38.9,75.6c-0.2-0.2-0.3-0.4-0.5-0.6c2,0.2,4,0.4,5.9,0.6C42.5,75.6,40.7,75.6,38.9,75.6z"/>
		<path class="st135" d="M30.4,74.1c0.3,0,0.5,0,0.8,0c0,0.2,0,0.5,0,0.7c-1,0-2.1,0-3.1,0.1c-0.1-0.2-0.2-0.4-0.2-0.6
			c0.6-0.3,1.2-0.7,1.7-1C29.9,73.6,30.1,73.8,30.4,74.1z"/>
		<path class="st134" d="M31.2,74.8c0-0.2,0-0.5,0-0.7c0.3,0.2,0.6,0.5,0.9,0.7C31.8,74.8,31.5,74.8,31.2,74.8z"/>
		<path class="st136" d="M58.3,15l-0.4,0l-0.4,0c0-1.1-0.1-2.1-0.1-3.2C57.7,9.9,58,8,58.2,6.1c0,0,0.1,0,0.1,0c0,0.5,0,1.1,0.1,1.6
			C58.3,10.1,58.3,12.6,58.3,15z"/>
		<path class="st137" d="M58.2,6.1C58,8,57.7,9.9,57.4,11.8c-0.2-0.1-0.4-0.1-0.7-0.2c0-1.9-0.1-3.7-0.1-5.6
			c0.3-0.3,0.6-0.6,0.9-0.9C57.8,5.5,58,5.8,58.2,6.1z"/>
		<path class="st138" d="M57.5,5.1c-0.3,0.3-0.6,0.6-0.9,0.9c0-0.3-0.1-1-1.6-0.9c0-0.2,0-0.5,0-0.7c0,0,0-0.2,0-0.2
			C55.9,4.2,57.1,4.5,57.5,5.1z"/>
		<path class="st129" d="M55,4.2c0,0.2,0,0.7,0,0.9c-0.3,0-0.6,0.1-0.9,0.1c-0.5,0-1,0-1.5,0c-0.3,0-0.6-0.1-0.9-0.1
			c0-0.3,0-0.6,0-0.9C52.9,4.3,55,4.2,55,4.2z"/>
		<path class="st135" d="M41.9,71.7c-3.6,0-7.1,0-10.7,0c0-2.6,0.1-4.9,3.9-3.6c0.6,0.2,1.8-1.3,2.7-2.1c2.5,0,4.9,0,7.4,0
			c0.8,0,1.6,0,2.5,0c2.4,0,4.8-0.1,7.2-0.1l0.3,0.1c-0.3,1.9-0.1,5.4-0.9,5.7c-0.3,0-0.6,0-0.8,0c0,0,0,0,0,0
			c-0.5-0.5-1.1-1.5-1.4-1.4c-1,0.2-1.8,0.9-2.7,1.4l0,0C46.8,71.7,44.4,71.7,41.9,71.7z"/>
		<path class="st139" d="M45.2,66c-2.5,0-4.9,0-7.4,0c-1.4,0-2.8,0-4.1,0c-1.9,0-3.8-0.1-5.7-0.1c-0.5-0.3-1.1-0.5-1.6-0.8
			c0-0.3-0.1-0.5-0.1-0.8c0-5.5,0-11,0-16.5c0-5.4,0.1-10.9,0.1-16.3l0,0c0.2,0,0.7-8.5,0.9-8.5c0.1,1.9,0,12.3,0,14.3
			c0,0.9,0,1.7,0,2.6c0,2.2,0,4.4-0.1,6.5c0,3.5,0,7.1-0.1,10.6c0,1,0,1.9-0.1,2.9c-0.7,3.5,0.9,4.9,4.3,5
			c6.5,0.1,13.1,0.2,19.6,0.5c2.8,0.1,3.4-1,3.4-3.6c-0.1-12.5-0.1-25.1-0.1-37.6c-0.3-1.6-0.5-3.3-0.8-4.9c0.1-0.8-1.1-6.3-1.1-6.3
			l2.4-0.3c0.3,2.8,0.1,7,0.4,9.8c0,1.7,0.1,3.3,0.1,5c0,0.3,0,0.5,0,0.8c0,0.5,0,1.1,0,1.6c0,1.1,0,2.1,0,3.2c0,1.1,0,2.3,0,3.4
			c0,1.6,0,3.2,0,4.8c-0.1,8.2-0.3,16.5-0.4,24.7c-2.4,0-4.8,0.1-7.2,0.1C46.8,66,46,66,45.2,66z"/>
		<path class="st140" d="M33.7,66c1.4,0,2.8,0,4.1,0c-0.9,0.7-2.1,2.3-2.7,2.1c-3.8-1.3-3.9,1-3.9,3.6c-1.3-0.2-2.5-0.5-3.8-0.7
			c0.5-1.1,0.6-2.7,1.5-3.3C30.2,66.7,32,66.5,33.7,66z"/>
		<path class="st128" d="M26.2,47.8c0,5.5,0,11,0,16.5c-0.3-1.1-0.5-2.2-0.8-3.3C25.7,56.6,26,52.2,26.2,47.8z"/>
		<path class="st141" d="M34.5,73.3c-1.1,0-2.2,0-3.3,0c3,0,6,0,9,0C38.3,73.3,36.4,73.3,34.5,73.3z"/>
		<path class="st134" d="M34.5,73.3c1.9,0,3.8,0,5.7,0c0.8,0,1.6,0,2.5,0c0,0.3,0,0.5,0,0.8C40,73.8,37.3,73.6,34.5,73.3z"/>
		<path class="st127" d="M41.9,71.7c2.5,0,4.9,0,7.4,0c0,0.3,0,0.5,0,0.8C46.8,72.2,44.4,71.9,41.9,71.7z"/>
		<path class="st142" d="M53.4,71.7c0.3,0,0.6,0,0.8,0c0.5,0.5,1.1,1.1,1.6,1.6c0,0,0,0.1,0,0.1c-1.1,0.3-2.2,0.5-3.3,0.8
			c-0.3,0-0.5,0-0.8,0c0-0.5,0-1.1,0-1.6C52.3,72.2,52.8,71.9,53.4,71.7z"/>
		<path class="st135" d="M53.4,71.7c-0.5,0.3-1.1,0.5-1.6,0.8c-0.8,0-1.6,0-2.5,0c0-0.3,0-0.5,0-0.8c0,0,0,0,0,0
			C50.6,71.7,52,71.7,53.4,71.7L53.4,71.7z"/>
		<path class="st127" d="M42.7,74.1c0-0.3,0-0.5,0-0.8c0.8,0.3,1.6,0.5,2.5,0.8C44.4,74.1,43.5,74.1,42.7,74.1z"/>
		<path class="st128" d="M26.3,65.1c0.5,0.3,1.1,0.5,1.6,0.8C27.4,65.6,26.9,65.3,26.3,65.1z"/>
		<path class="st134" d="M49.3,74.1c-0.5,0-1.1,0-1.6,0C48.2,74.1,48.7,74.1,49.3,74.1z"/>
		<path class="st134" d="M30.4,74.1c-0.3-0.3-0.5-0.5-0.8-0.8c0.3,0,0.5,0,0.8,0C30.4,73.6,30.4,73.9,30.4,74.1z"/>
		<path class="st127" d="M50.1,74.1c-0.3,0-0.6,0-0.8,0C49.6,74.1,49.8,74.1,50.1,74.1z"/>
		<path class="st115" d="M26.3,15c-0.3-0.6-0.5-1.1-0.8-1.7c1.1,0,2.1,0,3.2,0c2.5,0,25.4-1.6,26.2-1.6c0,0.3,0.1,0.5,0.1,0.8
			c-0.3,0-0.7,0.1-1,0.1c-4.4,0.5-8.8,1-13.2,1.5c-1,0-2,0-3.1,0.1c-3.5,0.3-7.1,0.6-10.6,0.9C26.9,15,26.6,15,26.3,15z"/>
		<path class="st112" d="M26.3,15c0.3,0,0.6,0,0.8,0c0,0.3,0.1,0.5,0.1,0.8c0,3,0,6,0,9c0,2.2-0.9,6.6-0.9,6.6
			C26.3,26,26.3,20.5,26.3,15z"/>
		<path class="st143" d="M28.7,13.3c-1.1,0-2.1,0-3.2,0c0-0.5,0-1.1,0-1.6c0-0.6,0-1.1,0-1.7c0-0.3,0-0.5,0-0.8
			c0.3-0.5,0.5-1.1,0.8-1.6c0.3,0,0.6,0,0.8,0c0.5,0.3,1.1,0.5,1.6,0.8c0,0.3,0,0.5,0,0.8c-0.5,0.8-1.1,1.6-1.6,2.5
			C27.7,12.3,28.2,12.8,28.7,13.3z"/>
		<path class="st115" d="M25.5,10.1c0,0.6,0,1.1,0,1.7C25.5,11.2,25.5,10.6,25.5,10.1z"/>
		<path class="st144" d="M55.2,36.4c0-1.1,0-2.3,0-3.4c0.2-1.1,0.4-2.1,0.7-3.2c0.3-3,0.5-6,0.8-9.1c0.3-0.8,0.5-1.7,0.8-2.5
			c0,8.2,0,16.5,0.1,24.7c0,1.1,0,2.2,0,3.3c-0.2,3.2-0.4,6.5-0.4,9.7c-0.1,5.4-0.1,10.8-0.2,16.1c0,0.4-0.6,0.9-0.9,1.3l0-0.1
			c-0.2-2.4-0.5-4.9-0.7-7.3l-0.3-0.1c0.1-8.2,0.3-16.5,0.4-24.7C55.3,39.6,57.8,38,55.2,36.4z"/>
		<path class="st145" d="M57.4,18.3c-0.3,0.8-0.5,1.7-0.8,2.5c-0.5,0.5-1,1.1-1.6,1.6c-0.3-2.8-0.4-9.8-0.4-9.8c0.3,0,0.1,0,0.4,0
			l0.4,0c0,0,0.4,0,0.4,0c0.3-0.3,0.6-0.6,0.9-0.9c0.2,0,0.5,0.1,0.7,0.2c0,1.1,0.1,2.1,0.1,3.2C57.5,16.1,57.5,17.2,57.4,18.3z"/>
		<path class="st146" d="M28.7,13.3c-0.5-0.5-1.1-1.1-1.6-1.6c0.8-0.5,1.6-1.1,2.5-1.6c0.8,0,1.6,0,2.5,0c0-0.3,0-0.5,0-0.8l0,0
			c0-0.3,0-0.5,0-0.8c0.6,0,1.3,0,1.9,0c0.2,0,0.3-0.4,0.5-0.6c-0.2-0.1-0.5-0.1-0.7-0.2c0-0.3,0-0.5,0-0.8c0.3,0,0.5,0,0.8,0
			c0.8,0,1.6,0,2.5,0l0,0c0.3,0.3,0.5,0.5,0.8,0.8c0.5,0,1.1,0,1.6,0c2.7,0.3,5.5,0.5,8.2,0.8c-1.5,0-2.9,0-4.4,0.1
			c-0.2,0-0.4,1-0.5,1.5c-0.5,0.5-1.1,1.1-1.6,1.6c0,0.3,1.8,0.6,1.8,0.9c-1.1,0-5,0.4-5,0.4s-1.1,0-1.7,0.3
			C33.7,13.3,31.2,13.3,28.7,13.3z"/>
		<path class="st146" d="M52.6,11.7c-1.1,0-2.2,0-3.3,0c-0.3-0.5-0.5-1.1-0.8-1.6c0-0.3,0-0.5,0-0.8c-0.3-1.1-0.7-1.9-1-3
			c0-0.3-20,1-20,0.7c1.4,0,22.9-1.8,24.2-1.8c0.3,0,0.6,0.1,0.9,0.1c0.5,1.1,1.1,2.1,1.6,3.2C49.7,7.5,53,10.6,52.6,11.7z"/>
		<path class="st147" d="M47.6,6c0.3,1.1,0.6,2.2,0.9,3.3c0,0,0,0,0,0c-0.3-0.3-0.5-0.5-0.8-0.8c0,0,0,0,0,0
			c-2.7-0.3-5.5-0.5-8.2-0.8c-0.5,0-1.1,0-1.6,0c-0.3-0.3-0.5-0.5-0.8-0.8c1.4-0.3,2.7-0.5,4.1-0.8C43.2,6,45.4,6,47.6,6z"/>
		<path class="st148" d="M41.1,6c-1.4,0.3-2.7,0.5-4.1,0.8l0,0c0-0.3,0-0.3,0-0.5C38.3,6.3,39.7,6,41.1,6z"/>
		<path class="st148" d="M33.7,6.8c0,0.3,0,0.5,0,0.8c-0.8,0-1.7,0-2.5,0c-0.3,0-0.5,0-0.8,0c0-0.3-4.1,0.4-4.1,0.1
			C27.4,7.7,32.6,6.8,33.7,6.8z"/>
		<path class="st132" d="M39,6.3c0,0.3-2,0.3-2,0.5c-0.8,0-1.6,0-2.5,0C35.3,6.5,38.2,6.5,39,6.3z"/>
		<path class="st115" d="M30.4,6.8c0,0.3,0,0.5,0,0.8c-0.8,0-1.6,0-2.5,0c0-0.3,0-0.5,0-0.8C28.8,6.8,29.6,6.8,30.4,6.8z"/>
		<path class="st149" d="M27.9,7.6c0.8,0,1.6,0,2.5,0c0.3,0,0.5,0,0.8,0c0,0.3,0,0.5,0,0.8c-0.8,0-1.6,0-2.5,0
			c-0.5-0.3-1.1-0.5-1.6-0.8C27.4,7.6,27.7,7.6,27.9,7.6z"/>
		<path class="st150" d="M56.7,11.7c-0.3,0.3-0.6,0.6-0.9,0.9c0-2.2-0.1-4.3-0.1-6.5L55.9,6c0.2,0,0.5,0.1,0.7,0.1
			C56.7,7.9,56.7,9.8,56.7,11.7z"/>
		<path class="st146" d="M54.2,5.2c0.3,0,0.6-0.1,0.9-0.1c0.3,0.3,0.6,0.6,0.8,0.8c0,0-0.1,0.1-0.1,0.1C55.2,5.8,54.7,5.5,54.2,5.2z
			"/>
		<path class="st120" d="M54.2,5.2c0.5,0.3,1,0.6,1.6,0.9c0,2.2,0.1,4.3,0.1,6.5l-0.4,0l-0.4,0c0-0.3-0.1-0.5-0.1-0.8
			c-0.2-1.1-0.5-2.2-0.7-3.3c-0.5-1.1-1.1-2.1-1.6-3.2C53.2,5.2,53.7,5.2,54.2,5.2z"/>
		<path class="st151" d="M55.1,65.9c0.2,2.4,0.5,4.9,0.7,7.3c-0.5-0.5-1.1-1.1-1.6-1.6C55,70.9,54.8,67.9,55.1,65.9z"/>
		<path class="st152" d="M53.4,71.6c-1.4,0-2.7,0-4.1,0c0.9-0.5,1.7-1.2,2.7-1.4C52.3,70.2,52.9,71.2,53.4,71.6z"/>
		<path class="st128" d="M45.2,66c0.8,0,1.6,0,2.5,0C46.8,66,46,66,45.2,66z"/>
		<path class="st153" d="M54.2,24.1c0,12.5,0,25.1,0.1,37.6c0,2.6-0.6,3.7-3.4,3.6c-6.5-0.3-13.1-0.4-19.6-0.5c-3.4-0.1-5-1.5-4.3-5
			c0.2-0.9,0.1-1.9,0.1-2.9c0.5-0.8,1.1-1.6,1.6-2.5l0.4,0l0.4,0c0.5,0.1,1.1,0.4,1.5,0.3c1.2-0.2,2.3-0.6,3.5-0.9
			c-0.9-0.1-1.8-0.2-2.7-0.4c-0.5-0.1-1-0.4-1.5-0.6c0,0,0,0,0,0c-0.3-0.3-0.5-0.5-0.8-0.8l0,0c0-0.3,0-0.5,0-0.8c0.5,0,1.1,0,1.6,0
			c0.8,0,1.6,0,2.4,0c0.8-0.5,1.7-1.1,2.5-1.6c0.3,0,0.5,0,0.8,0c0.3,0.3,0.5,0.6,0.8,0.8c0.3,0.3,0.5,0.5,0.8,0.8
			c-0.3,0.3-0.5,0.6-0.8,0.8c-0.3,0.5-0.6,1.1-0.9,1.6c-0.3,0.3-0.5,0.5-0.8,0.8c0.6,1.1,1.1,2.2,1.7,3.3c1.6,0,3.2,0,4.9,0
			c3.1-2.3,3.1-3.1,0-5.7c-0.3,0-0.5,0-0.8,0c0-0.3,0-0.5,0-0.8c0.8-0.6,1.6-1.1,2.4-1.7c0.3,0.3,0.6,0.5,0.8,0.8c0,0,0,0,0,0
			c0.3,0.3,0.6,0.5,0.8,0.8c0.3,0,0.5,0,0.8,0c1.5-0.1,3.7,0.5,4.5-0.3c1-1,1-3.1,1-4.7c0-1.1-0.9-2.1-1.4-3.2
			c-0.3-1.7-0.5-3.3-0.8-5c-0.3-0.5-0.5-1-0.8-1.5c4-2.1,1.6-4.8,0.8-7.4c0.3-0.5,0.6-1,0.9-1.5C52.1,26.3,53.1,25.2,54.2,24.1z
			 M30.3,57.3c0.3,0.5,0.6,0.9,0.9,1.3c0.3-0.3,0.8-0.7,0.7-1c0-0.4-0.5-0.8-0.7-1.2C30.9,56.7,30.7,57,30.3,57.3z M45.8,58
			c-0.1,0.2-0.3,0.5-0.3,0.7c0.1,0.2,0.4,0.2,0.6,0.3c0.1-0.2,0.3-0.5,0.3-0.7C46.4,58.2,46,58.1,45.8,58z"/>
		<path class="st154" d="M37.8,14.2c1,0,2,0,3.1-0.1c4.5,0,9,0,13.5,0l0,0c-0.3,1.7-0.6,3.3-0.9,5c-0.5,0-1.1,0-1.6,0
			c-0.1-0.8-0.1-1.6-0.2-2.3c-0.6,0.6-1.2,1.1-1.7,1.7c-0.3,0.4-0.4,0.9-0.6,1.4c-0.8,0-1.6,0-2.5,0c-0.3-1.7-1.1-2.2-2.5-0.8
			c-0.3,0-0.5,0-0.8,0c-0.3,0-0.5,0-0.8,0c-0.6,0-1.1,0-1.7,0c-0.8,0-1.6,0-2.5,0c-0.3-0.5-0.5-1.1-0.8-1.6
			c-0.8-0.3-1.6-0.5-2.5-0.8c0-0.3,0-0.5,0-0.8C36.1,15.3,37,14.7,37.8,14.2z M41.3,17.1c-0.2-0.1-0.4-0.3-0.6-0.3
			c-0.2,0-0.4,0.2-0.6,0.3c0.2,0.1,0.4,0.3,0.6,0.3C40.9,17.4,41.1,17.2,41.3,17.1z"/>
		<path class="st5" d="M46.8,19.9c0.8,0,1.6,0,2.5,0c0.8-0.3,1.6-0.5,2.5-0.8c0.5,0,1.1,0,1.6,0c0.3,1.6,0.5,3.3,0.8,4.9
			c-1.1,1.1-2.1,2.3-3.2,3.4l-0.2-0.2c0-1.3,0-2.7,0.1-4c-0.8-0.6-1.6-1.1-2.5-1.7c-0.5-0.3-1.1-0.5-1.6-0.8
			C46.8,20.5,46.8,20.2,46.8,19.9z"/>
		<path class="st155" d="M29.6,51.1c0,0.3,0,0.5,0,0.8c-0.3,0.8-0.5,1.6-0.8,2.5c-0.5,0.8-1.1,1.6-1.6,2.5c0-3.5,0-7.1,0.1-10.6
			c0.5,0.3,1,0.5,1.5,0.8c0.3,0.8,0.6,1.6,0.8,2.4c0,0.3,0,0.5,0,0.8C29.6,50.5,29.6,50.8,29.6,51.1z"/>
		<path class="st156" d="M28.7,47c-0.5-0.3-1-0.5-1.5-0.8c0-2.2,0-4.4,0.1-6.5c0.8,1.1,1.5,2.1,2.3,3.2c0,0,0,0,0,0
			c0.3,0.3,0.6,0.5,0.8,0.8c0,0,0,0,0,0c0,0.5,0,1.1,0,1.6c-0.3,0-0.5,0-0.8,0C29.3,46,29,46.5,28.7,47z"/>
		<path class="st157" d="M55.1,22.4c0.5-0.5,1-1.1,1.6-1.6c-0.3,3-0.5,6-0.8,9.1c-0.2,0-0.4,0-0.7,0c0-0.5,0-1.1,0-1.6
			c0.1-0.1,0.2-0.2,0.2-0.2c0-0.2-0.2-0.4-0.2-0.6C55.2,25.7,55.1,24,55.1,22.4z"/>
		<path class="st158" d="M29.6,42.9c-0.8-1.1-1.5-2.1-2.3-3.2c0-0.9,0-1.7,0-2.6c0.8-0.3,1.5-0.5,2.3-0.8c0.3,0.3,0.6,0.5,0.8,0.8
			c0,0.3,0,0.5,0,0.8c-0.3,0.5-0.6,1.1-0.8,1.6c0,0.8,0,1.6,0,2.5C29.6,42.4,29.6,42.6,29.6,42.9z"/>
		<path class="st159" d="M29.6,36.4c-0.8,0.3-1.5,0.5-2.3,0.8c-0.1-1.9-0.1-3.9-0.2-5.8c0,0,0.1,0.1,0.1,0.1
			c0.5,0.5,1.1,1.1,1.6,1.6c0.3,0.8,0.6,1.6,0.8,2.4C29.6,35.8,29.6,36.1,29.6,36.4C29.6,36.4,29.6,36.4,29.6,36.4z"/>
		<path class="st160" d="M55.2,36.4c2.6,1.6,0.1,3.2,0,4.8C55.2,39.6,55.2,38,55.2,36.4z"/>
		<path class="st157" d="M55.2,29.8c0.2,0,0.4,0,0.7,0c-0.2,1.1-0.4,2.1-0.7,3.2C55.2,31.9,55.2,30.9,55.2,29.8z"/>
		<path class="st144" d="M55.2,27.3c0.1,0.2,0.2,0.4,0.2,0.6c0,0.1-0.1,0.2-0.2,0.2C55.2,27.9,55.2,27.6,55.2,27.3z"/>
		<path class="st139" d="M37.8,14.2c-0.8,0.6-1.6,1.1-2.5,1.7c-2.7,0-5.4,0-8.1,0c0-0.3-0.1-0.5-0.1-0.8
			C30.7,14.8,34.2,14.5,37.8,14.2z"/>
		<path class="st139" d="M54.3,14.1c-4.5,0-9,0-13.5,0c4.4-0.5,8.8-1,13.2-1.5C54.1,13.1,54.2,13.6,54.3,14.1z"/>
		<path class="st161" d="M48.5,10.1c0.3,0.5,0.5,1.1,0.8,1.6c-0.8,0-1.6,0-2.5,0c-0.5,0-1.1,0-1.6,0c-1.4,0-2.7,0-4.1,0
			c0.5-0.5,1.1-1.1,1.6-1.6C44.6,10.1,46.5,10.1,48.5,10.1z"/>
		<path class="st162" d="M54.2,8.5c0.2,1.1,0.5,2.2,0.7,3.3c-0.8,0-9,0.8-9.8,0.8C45.6,11.4,49.8,6.9,54.2,8.5z"/>
		<path class="st148" d="M41.1,11.7c1.4,0,2.7,0,4.1,0c0,0.3,0,0.5,0,0.8c-1.4,0-2.7,0-4.1,0C41.1,12.3,41.1,12,41.1,11.7z"/>
		<path class="st148" d="M36.2,13.3c0.5-0.2,1.1-0.5,1.6-0.7C37.2,12.8,36.7,13.1,36.2,13.3z"/>
		<path class="st162" d="M45.2,12.5c0-0.3,0-0.5,0-0.8c0.5,0,1.1,0,1.6,0C46.3,12,45.7,12.3,45.2,12.5z"/>
		<path class="st163" d="M27.2,15.9c2.7,0,5.4,0,8.1,0c0,0.3,0,0.5,0,0.8c-0.5,0-1.1,0-1.6,0c-0.6,0.2-1.3,0.4-1.9,0.6
			c-1,0.3-2.5,0.2-2.8,0.8c-0.5,1.1-0.3,2.5-0.4,3.8c1.1-0.4,2.2-0.7,3.2-1.1c0.4-0.1,0.7-0.3,1.1-0.5c0.5-0.2,1.1-0.4,1.6-0.6
			c-0.1,0.8,0,1.8-0.5,2.3c-0.7,0.7-1.8,0.9-2.8,1.4c0,0,0,0,0,0c-0.3,0.3-0.6,0.5-0.8,0.8l0,0c-0.3,0.3-0.5,0.6-0.8,0.8
			c0,0.3,0,0.6,0,0.8c0,0.8,0,1.6,0,2.4c0,0.3,0,0.6,0,0.9c-0.4-1.1-0.7-2.3-1.2-3.4c-0.2-0.4-0.8-0.5-1.2-0.7
			C27.2,21.9,27.2,18.9,27.2,15.9z"/>
		<path class="st164" d="M27.2,24.9c0.4,0.2,1,0.4,1.2,0.7c0.5,1.1,0.8,2.2,1.2,3.4c0,0,0,0,0,0c0.3,0.3,0.5,0.5,0.8,0.8l0,0
			c0,0.5,0,1.1,0,1.6c-0.5,0.5-1.1,1.1-1.6,1.6c0,0,0,0,0,0c-0.5-0.5-1.2-1.1-1.7-1.6C27.1,29.3,27.2,27.1,27.2,24.9z"/>
		<path class="st148" d="M29.6,10.1c-0.8,0.5-1.6,1.1-2.5,1.6c0.5-0.8,1.1-1.6,1.6-2.5c0,0,0,0,0,0C29,9.6,29.3,9.8,29.6,10.1z"/>
		<path class="st148" d="M28.8,8.5c0.8,0,1.6,0,2.5,0c0.3,0,0.6,0,0.8,0c0,0.3,0,0.5,0,0.8c-1.1,0-2.2,0-3.3,0c0,0,0,0,0,0
			C28.8,9,28.8,8.7,28.8,8.5z"/>
		<path class="st148" d="M48.5,10.1c-1.9,0-3.8,0-5.7,0c0.2-0.5,0.3-1.5,0.5-1.5c1.5-0.2,2.9-0.1,4.4-0.1c0,0,0,0,0,0
			c0.3,0.3,0.5,0.5,0.8,0.8c0,0,0,0,0,0C48.5,9.5,48.5,9.8,48.5,10.1z"/>
		<path class="st165" d="M32,8.5c-0.3,0-0.6,0-0.8,0c0-0.3,0-0.5,0-0.8c0.8,0,1.7,0,2.5,0c0.2,0.1,0.5,0.1,0.7,0.2
			C34.3,8,34.2,8.4,34,8.4C33.3,8.5,32.7,8.5,32,8.5z"/>
		<path class="st150" d="M28.8,9.3c1.1,0,2.2,0,3.3,0l0,0c0,0.3,0,0.5,0,0.8c-0.8,0-1.6,0-2.5,0C29.3,9.8,29,9.6,28.8,9.3z"/>
		<path class="st148" d="M37.8,7.6c0.5,0,1.1,0,1.6,0C38.9,7.6,38.3,7.6,37.8,7.6z"/>
		<path class="st148" d="M32,10.1c0-0.3,0-0.5,0-0.8C32,9.5,32,9.8,32,10.1z"/>
		<path class="st146" d="M48.5,9.3c-0.3-0.3-0.5-0.5-0.8-0.8C47.9,8.7,48.2,9,48.5,9.3z"/>
		<path class="st166" d="M50.1,37.9c0.3,1.7,0.5,3.3,0.8,5c-0.3,0-0.5,0-0.8,0c-1.1,0-2.2,0-3.3,0c-0.5-0.8-1.1-1.7-1.6-2.5
			c0-0.3,0-0.6,0-0.8c0-0.3,0-0.5,0-0.8c0.3-0.3,0.5-0.6,0.8-0.8l0,0c0.3,0,0.5,0,0.8,0l0,0.1c0,0.3,0,0.6,0,0.9
			c0.5,1,0.9,1.9,1.4,2.9c0.3-1,0.7-1.9,1-2.9c0.3-0.3,0.6-0.6,0.8-0.8L50.1,37.9z"/>
		<path class="st167" d="M46.8,51.1c-0.3,0-0.5,0-0.8,0c-0.3-0.3-0.6-0.5-0.8-0.8c0,0,0,0,0,0c0-0.3,0-0.5,0-0.8
			c0.3-1.1,0.5-2.2,0.8-3.3c0,0,0,0,0,0c0.3,0.8,0.5,1.6,0.8,2.4c0.8-0.3,1.6-0.6,2.4-0.8c0-0.3,0-0.5,0-0.8l0.1,0
			c0.5,0.3,1.1,0.5,1.6,0.8C51.2,51,49.2,51.3,46.8,51.1z"/>
		<path class="st168" d="M50.1,29c0.8,2.6,3.2,5.3-0.8,7.4l-0.1-0.1c0-0.3,0-0.5,0-0.8c0-0.3,0-0.6,0-0.8c0-0.3,0-0.5,0-0.8
			c-0.5-0.5-1.1-1-1.6-1.5c0,0,0-0.1,0-0.1c0.5-1.1,1.1-2.2,1.6-3.3c0,0,0,0,0,0C49.6,29,49.8,29,50.1,29z"/>
		<path class="st169" d="M46.8,51.1c2.3,0.1,4.3-0.2,4.1-3.3l0,0c0-0.6,0-1.1,0-1.7l0,0c-0.3-0.3-0.6-0.5-0.8-0.8l0,0
			c0-0.8,0-1.6,0-2.4c0.3,0,0.5,0,0.8,0c0.5,1.1,1.4,2.1,1.4,3.2c0,1.6,0,3.7-1,4.7C50.5,51.6,48.4,51.1,46.8,51.1z"/>
		<path class="st170" d="M42.7,57.7c-1.6,0-3.2,0-4.9,0c0-0.5,0-1.1,0-1.6c0.3-0.3,0.6-0.6,0.8-0.8c1.1,0,2.2,0,3.3,0
			c0.3-0.8,0.5-1.6,0.8-2.4c0,0,0-0.1,0-0.1C42.7,54.4,42.7,56.1,42.7,57.7z"/>
		<path class="st167" d="M41.9,51.9c0.3,0,0.5,0,0.8,0c0,0.3,0,0.5,0,0.8c0,0,0,0.1,0,0.1c-0.5,0.3-1.1,0.5-1.6,0.8
			c-0.8,0.3-1.6,0.6-2.4,0.8c-0.3-0.6-0.6-1.1-0.9-1.7c0-0.3,0-0.5,0-0.8c0.3-0.3,0.5-0.6,0.8-0.8c0-0.3,0-0.5,0-0.8
			c0.5,0.3,1.1,0.5,1.6,0.8l0.4,0l0.4,0C41.3,51.4,41.6,51.7,41.9,51.9z"/>
		<path class="st155" d="M30.4,52.8c0.5,0.2,1,0.5,1.5,0.6c0.9,0.2,1.8,0.3,2.7,0.4c-1.2,0.3-2.3,0.7-3.5,0.9
			c-0.5,0.1-1-0.2-1.5-0.3C29.9,53.9,30.1,53.3,30.4,52.8z"/>
		<path class="st169" d="M42.7,52.8c0-0.3,0-0.5,0-0.8c3.1,2.7,3.1,3.5,0,5.7C42.7,56.1,42.7,54.4,42.7,52.8z"/>
		<path class="st171" d="M37.8,52c0,0.3,0,0.5,0,0.8c0,1.1,0,2.2,0,3.3c0,0.5,0,1.1,0,1.6c-0.6-1.1-1.1-2.2-1.7-3.3
			c0.3-0.3,0.5-0.5,0.8-0.8C37.2,53.1,37.5,52.5,37.8,52z"/>
		<path class="st172" d="M30.3,57.3c0.4-0.4,0.6-0.6,0.9-0.8c0.3,0.4,0.7,0.8,0.7,1.2c0,0.3-0.5,0.7-0.7,1
			C30.9,58.2,30.6,57.8,30.3,57.3z"/>
		<path class="st173" d="M49.3,36.4c0.3,0.5,0.5,1,0.8,1.5l0,0.1c-1.1,0-2.2,0-3.2,0l0-0.1c0-0.3,0-0.5,0-0.8c0-0.3,0-0.5,0-0.8
			c0,0,0,0,0,0C47.7,36.3,48.5,36.3,49.3,36.4L49.3,36.4z"/>
		<path class="st171" d="M30.4,52.8c-0.3,0.5-0.5,1.1-0.8,1.6c0,0-0.4,0-0.4,0l-0.4,0c0.3-0.8,0.5-1.6,0.8-2.5l0,0
			C29.9,52.2,30.1,52.5,30.4,52.8C30.4,52.8,30.4,52.8,30.4,52.8z"/>
		<path class="st174" d="M33.6,51.1c-0.8,0-1.6,0-2.4,0c0-0.3,0-0.5,0-0.8c0,0,0.1-0.1,0.1-0.1c0.3-0.3,0.5-0.5,0.8-0.8c0,0,0,0,0,0
			c0.5,0.3,1.1,0.6,1.6,0.8C33.7,50.6,33.6,50.8,33.6,51.1z"/>
		<path class="st169" d="M44.4,49.5c-0.8,0.6-1.6,1.1-2.4,1.7l0,0c0.5-0.8,1.1-1.6,1.6-2.5C43.8,48.9,44.1,49.2,44.4,49.5L44.4,49.5
			z"/>
		<path class="st169" d="M45.8,58c0.2,0.1,0.6,0.2,0.6,0.3c0.1,0.2-0.2,0.4-0.3,0.7c-0.2-0.1-0.6-0.2-0.6-0.3
			C45.5,58.5,45.7,58.2,45.8,58z"/>
		<path class="st171" d="M33.6,51.1c0-0.3,0.1-0.5,0.1-0.8c0.8-0.3,1.6-0.6,2.4-0.8l0,0C35.3,50,34.5,50.6,33.6,51.1z"/>
		<path class="st175" d="M50.1,29c-0.3,0-0.6,0-0.9-0.1c0.5-0.6,1.1-1.1,1.6-1.7l0.2,0.2C50.7,28,50.4,28.5,50.1,29z"/>
		<path class="st171" d="M31.2,50.4c0,0.3,0,0.5,0,0.8c-0.5,0-1.1,0-1.6,0c0-0.3,0-0.6,0-0.9C30.1,50.3,30.7,50.3,31.2,50.4z"/>
		<path class="st155" d="M38.6,50.3c0,0.3,0,0.5,0,0.8c-0.3-0.3-0.5-0.5-0.8-0.8c0,0,0,0,0,0C38.1,50.3,38.3,50.3,38.6,50.3
			L38.6,50.3z"/>
		<path class="st169" d="M45.2,50.3c0.3,0.3,0.6,0.5,0.8,0.8C45.7,50.9,45.5,50.6,45.2,50.3z"/>
		<path class="st169" d="M41.9,51.9c-0.3-0.3-0.6-0.5-0.8-0.8c0.3,0,0.5,0,0.8,0l0,0C41.9,51.4,41.9,51.7,41.9,51.9z"/>
		<path class="st155" d="M30.4,52.8c-0.3-0.3-0.5-0.5-0.8-0.8C29.9,52.2,30.1,52.5,30.4,52.8z"/>
		<path class="st155" d="M37,49.5c-0.3,0-0.5,0-0.8,0c0,0,0,0,0,0c0-0.3,0-0.5,0-0.8c0.3,0,0.5,0,0.8,0C37,49,37,49.2,37,49.5
			L37,49.5z"/>
		<path class="st155" d="M37,53.6c-0.3,0.3-0.5,0.5-0.8,0.8C36.4,54.1,36.7,53.9,37,53.6z"/>
		<path class="st171" d="M37.8,50.3c-0.3-0.3-0.5-0.6-0.8-0.8l0,0c0.3,0,0.5,0,0.8,0C37.8,49.8,37.8,50,37.8,50.3L37.8,50.3z"/>
		<path class="st169" d="M45.2,49.5c0,0.3,0,0.5,0,0.8c-0.3-0.3-0.6-0.5-0.8-0.8l0,0C44.6,49.5,44.9,49.5,45.2,49.5z"/>
		<path class="st163" d="M38.6,19.1c0.8,0,1.6,0,2.5,0c0.2,0.5,0.4,0.9,0.6,1.4c0.4-0.5,0.7-0.9,1.1-1.4c0.3,0,0.5,0,0.8,0
			c0.5,0.5,1.1,1.1,1.6,1.6c0,0.8,0,1.6,0,2.5c-0.1,0.1-0.3,0.2-0.3,0.2c0.1,0.2,0.2,0.4,0.3,0.6c0,0.3,0,0.6,0,0.8
			c0,0.8,0,1.7,0,2.5c-0.5,0-1.1,0-1.6,0c-0.3-1.1-0.6-2.2-0.8-3.3l0,0c-0.3-0.3-0.5-0.5-0.8-0.8c-1.9-0.7-3.3-0.3-4.1,1.6
			c0,1.1,0,2.2,0,3.3c0,0.3,0,0.6,0,0.8c-0.3,0-0.6,0-0.8,0c0-0.3,0-0.5,0-0.8c-0.3,0-0.5,0-0.8,0l0,0c-0.3,0-0.5,0-0.8,0
			c0-1.1,0-2.2,0-3.3c0.3-0.8,0.6-1.7,0.8-2.5c0-0.8,0-1.6,0-2.5c0.8,0,1.6,0,2.5,0C38.6,19.7,38.6,19.4,38.6,19.1z"/>
		<path class="st139" d="M45.2,23.2c0-0.8,0-1.6,0-2.5c-0.3-0.5-0.5-1.1-0.8-1.6c1.4-1.3,2.1-0.9,2.5,0.8c0,0.3,0,0.5,0,0.8
			c0.5,0.3,1.1,0.5,1.6,0.8c0.8,0.6,1.6,1.1,2.5,1.7c-0.5,0-1.1,0-1.6,0l0,0c-2.5-2.4-3,0.5-4.1,1.6c0-0.3,0-0.6,0-0.8
			C45.2,23.8,45.2,23.5,45.2,23.2z"/>
		<path class="st139" d="M38.6,19.9c-0.8,0-1.6,0-2.5,0c-0.3,0-0.6,0-0.8,0c-0.5-1.1-1.1-2.2-1.6-3.3c0.5,0,1.1,0,1.6,0
			c0.8,0.3,1.6,0.5,2.5,0.8C38.1,18.3,38.3,19.1,38.6,19.9z"/>
		<path class="st139" d="M51.7,19.1c-0.8,0.3-1.6,0.5-2.5,0.8c0.2-0.5,0.3-1,0.6-1.4c0.5-0.6,1.1-1.2,1.7-1.7
			C51.6,17.6,51.7,18.3,51.7,19.1z"/>
		<path class="st176" d="M44.4,19.1c0.3,0.5,0.5,1.1,0.8,1.6c-0.5-0.5-1.1-1.1-1.6-1.6C43.8,19.1,44.1,19.1,44.4,19.1z"/>
		<path class="st177" d="M42.7,19.1c-0.4,0.5-0.7,0.9-1.1,1.4c-0.2-0.5-0.4-0.9-0.6-1.4C41.6,19.1,42.2,19.1,42.7,19.1z"/>
		<path class="st139" d="M38.6,19.9c-0.3-0.8-0.5-1.6-0.8-2.5c0.3,0.5,0.5,1.1,0.8,1.6C38.6,19.4,38.6,19.7,38.6,19.9z"/>
		<path class="st178" d="M41.3,17.1c-0.2,0.1-0.4,0.3-0.6,0.3c-0.2,0-0.4-0.2-0.6-0.3c0.2-0.1,0.4-0.3,0.6-0.3
			C40.9,16.8,41.1,17,41.3,17.1z"/>
		<path class="st179" d="M49.3,23.2c0.5,0,1.1,0,1.6,0c0,1.3,0,2.7-0.1,4c-0.5,0.6-1.1,1.1-1.6,1.7l0,0c-2.1,1.4-3.2,0.2-4.1-1.6
			c0-0.8,0-1.7,0-2.5C46.3,23.7,46.8,20.9,49.3,23.2c-0.6,0.1-1.2,0.2-1.8,0.3c0.1,0.1,0.2,0.3,0.2,0.3
			C48.2,23.7,48.8,23.4,49.3,23.2z M49.1,26.6c-0.4-0.3-0.7-0.7-0.9-0.7c-0.3,0-0.7,0.2-1,0.4c0.3,0.3,0.5,0.7,0.9,0.9
			C48.3,27.2,48.7,26.8,49.1,26.6z"/>
		<path class="st180" d="M48.5,21.6c-0.5-0.3-1.1-0.5-1.6-0.8C47.4,21,47.9,21.3,48.5,21.6z"/>
		<path class="st174" d="M31.2,50.4c-0.5,0-1-0.1-1.6-0.1c0-0.3,0-0.5,0-0.8c0-0.3,0-0.6,0-0.9c0-0.8,0-1.6,0-2.4c0-0.3,0-0.5,0-0.8
			c0.3,0,0.5,0,0.8,0c0-0.5,0-1.1,0-1.6c0,0,0,0,0,0c-0.3-0.3-0.6-0.5-0.8-0.8l0,0c0-0.3,0-0.6,0-0.8c0-0.8,0-1.6,0-2.5
			c0.3-0.5,0.6-1.1,0.8-1.6l0.1,0.1c1.1,0.3,2.1,0.5,3.2,0.8c0,0.5,0,1.1,0,1.6c-0.6-0.1-1.3-0.3-1.9-0.4c0,0-0.1,0.5-0.2,0.7
			c0.7-0.1,1.4-0.2,2.1-0.3c0-0.8,0-1.7,0-2.5l0,0c0.3-0.5,0.5-1.1,0.8-1.6c0.3,0,0.5,0,0.8,0c1.4,3.2,0,6.1-0.8,9
			c-0.3,0.5-0.5,1.1-0.8,1.6c-0.9,0.2-2.8-0.6-1.6,1.6c0,0.3,0,0.5,0,0.8l0,0C31.8,49.8,31.5,50,31.2,50.4L31.2,50.4z"/>
		<path class="st181" d="M29.6,45.4c0,0.3,0,0.5,0,0.8c0,0.8,0,1.6,0,2.4c0,0.3,0,0.6,0,0.9c-0.3-0.8-0.6-1.6-0.8-2.4
			C29,46.5,29.3,46,29.6,45.4z"/>
		<path class="st181" d="M30.4,43.7c0,0.5,0,1.1,0,1.6C30.4,44.8,30.4,44.3,30.4,43.7z"/>
		<path class="st181" d="M29.6,42.9c0.3,0.3,0.6,0.5,0.8,0.8C30.1,43.5,29.9,43.2,29.6,42.9z"/>
		<path class="st174" d="M30.4,38c0-0.3,0-0.5,0-0.8c0-0.3,0-0.6,0-0.8l0-0.1c0.5,0,1.1,0.1,1.6,0.1c-0.3,0.5-0.5,1.1-0.8,1.6
			C31,38,30.7,38,30.4,38L30.4,38z"/>
		<path class="st182" d="M29.6,39.6c0,0.8,0,1.6,0,2.5C29.6,41.3,29.6,40.4,29.6,39.6z"/>
		<path class="st159" d="M30.4,36.4c0,0.3,0,0.6,0,0.8c-0.3-0.3-0.6-0.5-0.8-0.8c0,0,0,0,0,0C29.9,36.4,30.1,36.4,30.4,36.4z"/>
		<path class="st164" d="M29.6,35.5c-0.3-0.8-0.6-1.6-0.8-2.4c0,0,0,0,0,0c0.3,0,0.5,0,0.8,0C29.6,33.9,29.6,34.7,29.6,35.5
			L29.6,35.5z"/>
		<path class="st176" d="M30.4,36.4c-0.3,0-0.5,0-0.8,0c0-0.3,0-0.5,0-0.8c0,0,0.1,0,0.1,0C29.9,35.8,30.1,36,30.4,36.4L30.4,36.4z"
			/>
		<path class="st154" d="M33.7,16.7c0.5,1.1,1.1,2.2,1.6,3.3c0.3,0.8,0.5,1.6,0.8,2.5c-0.3,0.8-0.6,1.7-0.8,2.5c-0.3,0-0.5,0-0.8,0
			c0-0.3,0-0.5,0-0.8c-0.3-0.3-0.5-0.5-0.8-0.8c-0.8,0-1.6,0-2.5,0c0.9-0.4,2.1-0.7,2.8-1.4c0.5-0.4,0.3-1.5,0.5-2.3
			c-0.5,0.2-1.1,0.4-1.6,0.6c-0.4,0.1-0.7,0.3-1.1,0.5c-1.1,0.4-2.2,0.8-3.2,1.1c0.1-1.3-0.1-2.7,0.4-3.8c0.3-0.6,1.8-0.5,2.8-0.8
			C32.4,17.1,33.1,16.9,33.7,16.7z"/>
		<path class="st179" d="M34.5,24.1c0,0.3,0,0.5,0,0.8c-0.3,1.1-0.6,2.2-0.9,3.3c0-0.5,0-1.1,0-1.6c-0.3-0.3-0.6-0.6-0.8-0.8
			c-0.5,0.5-1.1,1.1-1.6,1.6c0.8,0.6,1.6,1.1,2.4,1.7c0,0.3,0,0.6,0,0.9c0,0.3,0,0.5,0,0.8c-0.8-0.3-1.7-0.5-2.5-0.8
			c-0.3,0-0.5,0-0.8,0l0,0c-0.3-0.3-0.5-0.5-0.8-0.8c0,0,0,0,0,0c0-0.3,0-0.6,0-0.9c0-0.8,0-1.6,0-2.4c0-0.3,0-0.6,0-0.8
			c0.3-0.3,0.5-0.6,0.8-0.8l0,0c0.3-0.3,0.6-0.5,0.8-0.8c0,0,0,0,0,0c0.8,0,1.6,0,2.5,0C34,23.5,34.2,23.8,34.5,24.1z"/>
		<path class="st183" d="M29.6,25.7c0,0.8,0,1.6,0,2.4C29.6,27.3,29.6,26.5,29.6,25.7z"/>
		<path class="st177" d="M31.2,23.2c-0.3,0.3-0.6,0.5-0.8,0.8C30.7,23.8,31,23.5,31.2,23.2z"/>
		<path class="st177" d="M30.4,24c-0.3,0.3-0.5,0.6-0.8,0.8C29.9,24.6,30.1,24.3,30.4,24z"/>
		<path class="st176" d="M29.6,33.1c-0.3,0-0.5,0-0.8,0c0.5-0.5,1.1-1.1,1.6-1.6c0,0,0,0,0,0C30.1,32,29.8,32.5,29.6,33.1z"/>
		<path class="st176" d="M30.4,29.8c0.3,0,0.5,0,0.8,0c-0.3,0.5-0.5,1.1-0.8,1.6c0,0,0,0,0,0C30.4,30.9,30.4,30.3,30.4,29.8z"/>
		<path class="st163" d="M29.6,29c0.3,0.3,0.5,0.5,0.8,0.8C30.1,29.5,29.9,29.2,29.6,29z"/>
		<path class="st171" d="M45.2,49.5c-0.3,0-0.5,0-0.8,0c-0.3-0.3-0.6-0.6-0.9-0.8c-0.3-0.8-0.5-1.6-0.8-2.5
			c-0.3-1.1-0.5-2.2-0.8-3.3c0.5-0.8,1.1-1.6,1.6-2.5c0.5,0,1.1,0,1.6,0c0.5,0.8,1.1,1.7,1.6,2.5c-0.3,1.1-0.5,2.2-0.8,3.2
			C45.7,47.3,45.4,48.4,45.2,49.5z"/>
		<path class="st184" d="M46,46.2c0.3-1.1,0.5-2.2,0.8-3.2c1.1,0,2.2,0,3.3,0c0,0.8,0,1.6,0,2.4c-0.3,0.3-0.6,0.6-0.8,0.9
			c-0.8,0-1.6,0-2.4,0C46.6,46.2,46.3,46.2,46,46.2C46,46.2,46,46.2,46,46.2z"/>
		<path class="st171" d="M46.8,36.4c0,0.3,0,0.5,0,0.8c-0.3,0.3-0.5,0.5-0.8,0.8l0,0c-0.3,0.3-0.5,0.6-0.8,0.8c0,0.3,0,0.5,0,0.8
			c-0.5-1.1-1.1-2.2-1.6-3.3c0.3-0.3,0.5-0.5,0.8-0.8c0.3,0,0.5,0,0.8,0l0,0c0.3,0.3,0.6,0.5,0.8,0.8C46.3,36.4,46.6,36.4,46.8,36.4
			z"/>
		<path class="st171" d="M49.2,38.9c-0.3,1-0.7,1.9-1,2.9c-0.5-1-0.9-1.9-1.4-2.9C47.6,38.9,48.4,38.9,49.2,38.9z"/>
		<path class="st171" d="M43.5,36.4c0.5,1.1,1.1,2.2,1.6,3.3c0,0.3,0,0.6,0,0.8c-0.5,0-1.1,0-1.6,0c-0.3-1.4-0.5-2.7-0.8-4.1
			C43,36.4,43.3,36.3,43.5,36.4C43.5,36.3,43.5,36.4,43.5,36.4z"/>
		<path class="st185" d="M49.2,38.9c-0.8,0-1.6,0-2.4,0c0-0.3,0-0.6,0-0.9c1.1,0,2.2,0,3.2,0C49.8,38.3,49.5,38.6,49.2,38.9z"/>
		<path class="st171" d="M46,38c0.3-0.3,0.5-0.5,0.8-0.8c0,0.3,0,0.5,0,0.8C46.5,38,46.3,38,46,38z"/>
		<path class="st171" d="M45.2,38.8c0.3-0.3,0.5-0.6,0.8-0.8C45.7,38.3,45.5,38.6,45.2,38.8z"/>
		<path class="st186" d="M46.8,46.2c0.8,0,1.6,0,2.4,0c0,0.3,0,0.5,0,0.8c0,0-0.1,0-0.1,0c-0.3,0.1-0.7,0.3-1,0.4
			c0.4,0.1,0.7,0.3,1.1,0.4c-0.8,0.3-1.6,0.6-2.4,0.8C46.8,47.8,46.8,47,46.8,46.2z"/>
		<path class="st159" d="M49.3,47c0-0.3,0-0.5,0-0.8c0.3-0.3,0.6-0.6,0.8-0.9l0,0c0.3,0.3,0.6,0.5,0.8,0.8l0,0c0,0.6,0,1.1,0,1.7
			l0,0C50.4,47.6,49.8,47.3,49.3,47z"/>
		<path class="st10" d="M46.8,46.2c0,0.8,0,1.6,0,2.5c-0.3-0.8-0.5-1.6-0.8-2.4C46.3,46.2,46.6,46.2,46.8,46.2z"/>
		<path class="st155" d="M49.3,47.8c-0.4-0.1-0.7-0.3-1.1-0.4c0.3-0.1,0.7-0.3,1-0.4C49.3,47.3,49.3,47.6,49.3,47.8z"/>
		<path class="st175" d="M45.1,27.4c0.9,1.8,2,3,4.1,1.6c-0.5,1.1-1.1,2.2-1.6,3.3c-0.3,0.6-0.6,1.1-0.9,1.7c-0.7-0.8-2-1.7-1.9-2.5
			c0.2-3.1-1.7-1.6-2.9-1.5c0.3-0.6,0.6-1.1,0.8-1.7c0.3-0.3,0.5-0.5,0.8-0.8c0,0,0,0,0,0C44.1,27.3,44.6,27.3,45.1,27.4z"/>
		<path class="st170" d="M46.8,36.4c-0.3,0-0.5,0-0.8,0c-0.3-0.3-0.6-0.5-0.8-0.8c0,0,0,0,0,0c0-0.3,0-0.5,0-0.8c0.6,0,1.1,0,1.7,0
			c0.8,0,1.6,0,2.4,0c0,0.3,0,0.6,0,0.8C48.5,35.8,47.7,36.1,46.8,36.4L46.8,36.4z"/>
		<path class="st156" d="M49.3,34.7c-0.8,0-1.6,0-2.4,0c0-0.3-0.1-0.6-0.1-0.8c0.3-0.6,0.6-1.1,0.9-1.7c0,0,0,0.1,0,0.1
			c0.5,0.5,1.1,1,1.6,1.5C49.3,34.2,49.3,34.4,49.3,34.7z"/>
		<path class="st187" d="M49.3,33.9c-0.5-0.5-1.1-1-1.6-1.5C48.2,32.9,48.7,33.4,49.3,33.9z"/>
		<path class="st188" d="M46.9,36.3c0.8-0.3,1.6-0.5,2.4-0.8c0,0.3,0,0.5,0,0.8C48.5,36.3,47.7,36.3,46.9,36.3z"/>
		<path class="st184" d="M50.9,47.9c0-0.6,0-1.1,0-1.7C50.9,46.7,50.9,47.3,50.9,47.9z"/>
		<path class="st184" d="M50.9,46.2c-0.3-0.3-0.6-0.5-0.8-0.8C50.4,45.7,50.7,45.9,50.9,46.2z"/>
		<path class="st189" d="M38.6,54.4c0.8-0.3,1.6-0.6,2.4-0.8c0.3,0.5,0.5,1.1,0.8,1.6c-1.1,0-2.2,0-3.3,0
			C38.6,55,38.6,54.7,38.6,54.4z"/>
		<path class="st190" d="M41.9,55.2c-0.3-0.5-0.5-1.1-0.8-1.6c0.5-0.3,1.1-0.5,1.6-0.8C42.4,53.6,42.2,54.4,41.9,55.2z"/>
		<path class="st164" d="M38.6,54.4c0,0.3,0,0.5,0,0.8c-0.3,0.3-0.6,0.6-0.8,0.8c0-1.1,0-2.2,0-3.3C38.1,53.3,38.4,53.9,38.6,54.4z"
			/>
		<path class="st191" d="M42.7,46.2c0.3,0.8,0.5,1.6,0.8,2.5c-0.5,0.8-1.1,1.6-1.6,2.5c-0.3,0-0.5,0-0.8,0c0,0-0.4,0-0.4,0
			s-0.4,0-0.4,0c0-0.5,0-1.1,0-1.6c0.3,0,0.5,0,0.8,0C41.6,48.4,42.2,47.3,42.7,46.2z"/>
		<path class="st192" d="M40.3,49.5c0,0.5,0,1.1,0,1.6c-0.5-0.3-1.1-0.5-1.6-0.8c0,0,0,0,0,0c0-0.3,0-0.5,0-0.8c0.3,0,0.5,0,0.8,0
			l0.4,0L40.3,49.5z"/>
		<path class="st158" d="M34.5,45.4c0.8-3,2.2-5.9,0.8-9l0,0c0.5,0.8,1.1,1.6,1.6,2.5c0.3,1.1,0.5,2.2,0.8,3.3c0,0.3,0,0.5,0,0.8
			c-0.5,0.3-1.1,0.5-1.6,0.8c0,0,0,0,0,0c0,1.6,0,3.3,0,4.9c0,0,0,0,0,0c0,0.3,0,0.5,0,0.8c-0.8,0.3-1.6,0.6-2.4,0.8
			c-0.5-0.3-1.1-0.6-1.6-0.8c0-0.3,0-0.5,0-0.8c0.5-0.3,1.1-0.5,1.6-0.8c0.3-0.3,0.5-0.5,0.8-0.8C34.5,46.5,34.5,45.9,34.5,45.4z"/>
		<path class="st193" d="M31.2,50.3c0.3-0.3,0.5-0.5,0.8-0.8C31.8,49.8,31.5,50,31.2,50.3z"/>
		<path class="st167" d="M38.6,49.5c0,0.3,0,0.5,0,0.8c-0.3,0-0.5,0-0.8,0c0-0.3,0-0.5,0-0.8c0,0,0.1,0,0.1,0
			C38.1,49.5,38.3,49.5,38.6,49.5L38.6,49.5z"/>
		<path class="st171" d="M37,48.7c-0.3,0-0.5,0-0.8,0c0,0,0,0,0,0c0-1.6,0-3.3,0-4.9c0,0,0,0,0,0c0.8,0,1.6,0,2.5,0
			c-0.3,0.6-0.5,1.1-0.8,1.7l0,0C37.5,46.5,37.2,47.6,37,48.7z"/>
		<path class="st194" d="M37,48.7c0.3-1.1,0.6-2.2,0.8-3.3c0,1.4,0,2.7,0,4.1c0,0-0.1,0-0.1,0c-0.3,0-0.5,0-0.8,0
			C37,49.2,37,49,37,48.7z"/>
		<path class="st195" d="M33.7,30.6c0-0.3,0-0.5,0-0.8c0.3-0.3,0.5-0.6,0.8-0.9c0.3,0,0.5,0,0.8,0c0.3-0.3,0.6-0.5,0.8-0.8
			c0,0,0,0,0,0l0.4,0l0.4,0c0,0.3,0,0.5,0,0.8c0.3,0.8,0.5,1.6,0.8,2.5c-0.3,1.1-0.5,2.2-0.8,3.3c-0.5,0.3-1.1,0.6-1.6,0.8
			c0,0,0,0,0,0c0-0.5,0-1.1,0-1.6c0-0.5,0-1.1,0-1.6c-0.3-0.3-0.5-0.6-0.8-0.8C34.3,31.1,34,30.9,33.7,30.6z"/>
		<path class="st196" d="M42.8,28.1c-0.3,0.6-0.6,1.1-0.8,1.7l0,0c-0.3,0-0.5,0-0.8,0c-0.6,0-1.1,0-1.7,0c-0.3,0-0.5,0-0.8,0
			c-0.3-0.3-0.5-0.5-0.8-0.8c0-0.3,0-0.6,0-0.8c0.3-0.3,0.6-0.5,0.9-0.8c0.7-0.1,1.4-0.1,2.1-0.2c-0.4-0.5-0.9-0.9-1.3-1.4
			c0.8,0,1.7,0,2.5,0C42.2,26.5,42.4,27.3,42.8,28.1L42.8,28.1z"/>
		<path class="st197" d="M41.9,25.7c-0.8,0-1.7,0-2.5,0c-0.3,0-0.5,0.1-0.8,0.1c-0.3-0.3-0.6-0.6-0.9-0.9c0.8-1.9,2.2-2.3,4.1-1.6
			c0.3,0.3,0.5,0.5,0.8,0.8c0,0,0,0,0,0c0,0.5,0,1.1,0,1.6C42.4,25.7,42.2,25.7,41.9,25.7z"/>
		<path class="st198" d="M35.3,29c-0.3,0-0.5,0-0.8,0c-0.3,0-0.6,0-0.8,0c-0.8-0.6-1.6-1.1-2.4-1.7c0.8,0.3,1.6,0.6,2.4,0.8
			c0.3-1.1,0.6-2.2,0.9-3.3c0.3,0,0.5,0,0.8,0c0,1.1,0,2.2,0,3.3C35.3,28.4,35.3,28.7,35.3,29z"/>
		<path class="st196" d="M42.7,25.7c0-0.5,0-1.1,0-1.6c0.3,1.1,0.6,2.2,0.8,3.3l0,0c-0.3,0-0.5,0-0.8,0
			C42.7,26.8,42.7,26.2,42.7,25.7z"/>
		<path class="st199" d="M37.8,29c0.3,0.3,0.5,0.5,0.8,0.8c0,0.5,0,1.1,0,1.6c-0.3,0-0.5,0-0.8,0l0,0c-0.3-0.8-0.5-1.6-0.8-2.5
			C37.3,29,37.5,29,37.8,29z"/>
		<path class="st200" d="M37.8,24.9c0.3,0.3,0.6,0.6,0.9,0.9c0,0.5,0,1,0,1.5c-0.3,0.3-0.6,0.5-0.9,0.8C37.8,27,37.8,26,37.8,24.9z"
			/>
		<path class="st139" d="M36.1,22.4c-0.3-0.8-0.5-1.6-0.8-2.5c0.3,0,0.6,0,0.8,0C36.2,20.8,36.1,21.6,36.1,22.4z"/>
		<path class="st196" d="M42.7,24.1c-0.3-0.3-0.5-0.5-0.8-0.8C42.2,23.5,42.4,23.8,42.7,24.1z"/>
		<path class="st201" d="M45.2,23.2c0,0.3,0,0.5,0,0.8c-0.1-0.2-0.2-0.4-0.3-0.6C44.9,23.4,45.1,23.3,45.2,23.2z"/>
		<path class="st199" d="M35.3,29c0-0.3,0-0.5,0-0.8c0.3,0,0.5,0,0.8,0C35.9,28.4,35.6,28.7,35.3,29z"/>
		<path class="st199" d="M37,28.2l-0.4,0l-0.4,0C36.4,28.2,36.7,28.2,37,28.2z"/>
		<path class="st202" d="M49.1,26.6c-0.5,0.3-0.9,0.7-1,0.6c-0.4-0.2-0.6-0.6-0.9-0.9c0.3-0.1,0.7-0.4,1-0.4
			C48.5,25.9,48.7,26.2,49.1,26.6z"/>
		<path class="st203" d="M49.3,23.2c-0.5,0.2-1.1,0.4-1.6,0.6c0,0-0.1-0.2-0.2-0.3C48.1,23.5,48.7,23.3,49.3,23.2L49.3,23.2z"/>
		<path class="st176" d="M35.3,33.9c0,0.5,0,1.1,0,1.6c-0.3,0.3-0.5,0.6-0.8,0.8c-0.3,0.5-0.5,1.1-0.8,1.6c-0.8,0-1.6,0-2.5,0
			c0.3-0.5,0.5-1.1,0.8-1.6c0.3-0.3,0.6-0.6,0.8-0.8c0.3-0.6,0.6-1.1,0.9-1.7C34.3,33.9,34.8,33.9,35.3,33.9z"/>
		<path class="st204" d="M33.7,40.5c-0.7,0.1-1.4,0.2-2.1,0.3c0.1-0.2,0.1-0.7,0.2-0.7C32.4,40.2,33.1,40.3,33.7,40.5L33.7,40.5z"/>
		<path class="st171" d="M33.7,47.9c-0.5,0.3-1.1,0.5-1.6,0.8c-1.2-2.3,0.8-1.4,1.6-1.6l0,0C33.7,47.3,33.7,47.6,33.7,47.9z"/>
		<path class="st205" d="M31.2,38c0.8,0,1.6,0,2.5,0c0,0,0,0,0,0c0,0.3,0,0.6,0,0.8c-1.1-0.3-2.1-0.5-3.2-0.8C30.7,38,31,38,31.2,38
			z"/>
		<path class="st176" d="M33.7,38.8c0-0.3,0-0.6,0-0.8c0,0.8,0,1.7,0,2.5l0,0C33.7,39.9,33.7,39.4,33.7,38.8z"/>
		<path class="st206" d="M29.6,48.6c0-0.8,0-1.6,0-2.4C29.6,47,29.6,47.8,29.6,48.6z"/>
		<path class="st193" d="M34.5,45.4c0,0.5,0,1.1,0,1.6c-0.3,0-0.5,0-0.8,0l0,0C34,46.5,34.2,45.9,34.5,45.4z"/>
		<path class="st195" d="M34.5,36.4c0.3-0.3,0.5-0.6,0.8-0.8l0,0c0,0.3,0,0.5,0,0.8c0,0,0,0,0,0C35.1,36.4,34.8,36.4,34.5,36.4z"/>
		<path class="st207" d="M35.3,33.9c-0.5,0-1.1,0-1.6,0c-0.6-0.5-1.1-1.1-1.7-1.6c-0.3,0.3-0.6,0.5-0.8,0.8c0,0.3,0,0.5,0,0.8
			c0,0.3,0,0.6,0,0.8c0,0,0,0,0,0c0.3,0.3,0.6,0.5,0.8,0.8c0.3,0,0.5,0,0.8,0c-0.3,0.3-0.6,0.6-0.8,0.8c-0.5,0-1.1-0.1-1.6-0.1
			c-0.2-0.2-0.5-0.5-0.7-0.7c0-0.8-0.1-1.6-0.1-2.5c0.3-0.6,0.6-1.1,0.8-1.7c0.3-0.5,0.5-1.1,0.8-1.6c0.8,0.3,1.7,0.5,2.5,0.8
			c0.3,0.3,0.5,0.6,0.8,0.8c0.3,0.3,0.5,0.6,0.8,0.8C35.3,32.8,35.3,33.3,35.3,33.9z"/>
		<path class="st139" d="M34.5,24.1c-0.3-0.3-0.5-0.5-0.8-0.8C34,23.5,34.2,23.8,34.5,24.1z"/>
		<path class="st175" d="M33.7,28.1c-0.8-0.3-1.6-0.6-2.4-0.8c0.5-0.5,1.1-1.1,1.6-1.6c0.3,0.3,0.6,0.6,0.8,0.8
			C33.7,27.1,33.7,27.6,33.7,28.1z"/>
		<path class="st207" d="M33.7,29c0.3,0,0.6,0,0.8,0c-0.3,0.3-0.5,0.6-0.8,0.9C33.7,29.5,33.7,29.3,33.7,29z"/>
		<path class="st198" d="M33.7,26.5c-0.3-0.3-0.6-0.6-0.8-0.8C33.1,26,33.4,26.3,33.7,26.5z"/>
		<path class="st166" d="M37.8,42.9c0-0.3,0-0.5,0-0.8l0-0.1c0.3-0.8,0.5-1.6,0.8-2.4c0.3,0,0.5,0,0.8,0c0.3,0.4,0.7,0.9,1,1.3
			c0.1-0.1,0.2-0.2,0.3-0.3c-0.4-0.3-0.8-0.7-1.3-1c0-0.3,0-0.5,0-0.8c0.5,0,1.1,0,1.6,0c0.3-0.8,0.6-1.6,0.9-2.4l0.4,0l0.4,0
			c0.3,1.4,0.5,2.7,0.8,4.1c-0.5,0.8-1.1,1.6-1.6,2.5c-0.3,0.8-0.5,1.6-0.8,2.5c-0.3,0-0.5,0-0.8,0c-0.3-0.5-0.5-1.1-0.8-1.6
			c-0.3-0.3-0.6-0.5-0.8-0.8C38.3,43,38.1,42.9,37.8,42.9z"/>
		<path class="st167" d="M41.1,45.4c0.3-0.8,0.5-1.6,0.8-2.5c0.3,1.1,0.5,2.2,0.8,3.3c-0.6,1.1-1.1,2.2-1.7,3.3c0-1.1,0-2.2,0-3.3
			C41.1,45.9,41.1,45.7,41.1,45.4z"/>
		<path class="st171" d="M45.2,34.7c0,0.3,0,0.5,0,0.8c-0.3,0-0.5,0-0.8,0l0,0c0-0.3,0-0.5,0-0.8l0.4,0L45.2,34.7z"/>
		<path class="st171" d="M44.4,35.6c-0.3,0.3-0.5,0.5-0.8,0.8c0,0,0,0,0,0C43.8,36.1,44.1,35.8,44.4,35.6
			C44.3,35.5,44.4,35.6,44.4,35.6z"/>
		<path class="st171" d="M45.2,35.5c0.3,0.3,0.6,0.5,0.8,0.8C45.7,36.1,45.5,35.8,45.2,35.5z"/>
		<path class="st3" d="M44.3,35.5c-0.3,0.3-0.5,0.5-0.8,0.8c-0.3,0-0.5,0-0.8,0.1l-0.4,0l-0.4,0l0,0c0-0.3,0-0.5,0-0.8
			c0.5-0.3,1.1-0.6,1.6-0.8c0.3,0,0.5,0,0.8,0l0.1,0.1C44.4,35,44.3,35.3,44.3,35.5z"/>
		<path class="st164" d="M45.2,34.7l-0.4,0l-0.4,0l-0.1-0.1c-0.3-0.8-0.5-1.6-0.8-2.4l0,0c-0.3-0.3-0.5-0.6-0.8-0.8
			c-0.3-0.3-0.6-0.5-0.8-0.8l0,0c0-0.3,0-0.5,0-0.8l0,0c1.3-0.1,3.1-1.6,2.9,1.5c-0.1,0.8,1.2,1.7,1.9,2.5c0,0.3,0.1,0.6,0.1,0.8
			C46.3,34.7,45.7,34.7,45.2,34.7z"/>
		<path class="st163" d="M42.7,27.4c0.3,0,0.5,0,0.8,0c-0.3,0.3-0.5,0.5-0.8,0.8l-0.1,0C42.7,27.9,42.7,27.6,42.7,27.4z"/>
		<path class="st208" d="M41.1,46.2c0,1.1,0,2.2,0,3.3c-0.3,0-0.5,0-0.8,0c0,0-0.4,0-0.4,0s-0.4,0-0.4,0c0-0.3,0-0.5,0-0.8
			C40,47.9,40.5,47,41.1,46.2z"/>
		<path class="st167" d="M39.4,48.7c0,0.3,0,0.5,0,0.8c-0.3,0-0.5,0-0.8,0c0,0,0,0,0,0c0-0.3,0-0.6,0-0.8
			C38.9,48.7,39.2,48.7,39.4,48.7z"/>
		<path class="st192" d="M35.3,36.4c0-0.3,0-0.5,0-0.8c0.5-0.3,1.1-0.6,1.6-0.8l0,0c0.3,0.5,0.6,1.1,0.9,1.6c0.3,0,0.5,0,0.8,0
			c0,0.5,0,1.1,0,1.6l0,0c-0.3,0.3-0.6,0.5-0.8,0.8l0,0c-0.3,0-0.5,0-0.8,0C36.4,38,35.9,37.2,35.3,36.4z"/>
		<path class="st194" d="M36.1,43.7c0,1.6,0,3.3,0,4.9C36.1,47,36.1,45.4,36.1,43.7z"/>
		<path class="st174" d="M37,38.8c0.3,0,0.5,0,0.8,0c0,0.3,0,0.5,0,0.8c0,0.8,0,1.6,0,2.4l0,0.1C37.5,41,37.2,39.9,37,38.8z"/>
		<path class="st194" d="M37.8,42.9c0.3,0,0.5,0,0.8,0c0,0.3,0,0.5,0,0.8c-0.8,0-1.6,0-2.5,0C36.7,43.5,37.2,43.2,37.8,42.9z"/>
		<path class="st174" d="M33.7,47c0.3,0,0.5,0,0.8,0c-0.3,0.3-0.5,0.5-0.8,0.8C33.7,47.6,33.7,47.3,33.7,47z"/>
		<path class="st190" d="M38.6,48.7c0,0.3,0,0.6,0,0.8c-0.3,0-0.5,0-0.8,0c0-1.4,0-2.7,0-4.1c0,0,0,0,0,0
			C38.1,46.5,38.4,47.6,38.6,48.7z"/>
		<path class="st204" d="M38.6,48.7c-0.3-1.1-0.6-2.2-0.8-3.2c0.3-0.6,0.5-1.1,0.8-1.7c0-0.3,0-0.5,0-0.8c0.3,0.3,0.6,0.5,0.8,0.8
			c0.3,0.5,0.5,1.1,0.8,1.6c0.3,0,0.5,0,0.8,0c0,0.3,0,0.6,0,0.8c-0.5,0.8-1.1,1.6-1.6,2.5C39.2,48.7,38.9,48.7,38.6,48.7z"/>
		<path class="st199" d="M37,34.7c0.3-1.1,0.5-2.2,0.8-3.3c0,0,0,0,0,0c0,1.1,0,2.2,0,3.3c0,0,0,0,0,0C37.5,34.7,37.2,34.7,37,34.7
			L37,34.7z"/>
		<path class="st176" d="M35.3,32.3c-0.3-0.3-0.5-0.6-0.8-0.8C34.8,31.7,35.1,32,35.3,32.3z"/>
		<path class="st209" d="M38.7,27.3c0-0.5,0-1,0-1.5c0.3,0,0.5-0.1,0.8-0.1c0.4,0.5,0.9,0.9,1.3,1.4C40,27.2,39.3,27.2,38.7,27.3z"
			/>
		<path class="st210" d="M39.4,29.8c0.6,0,1.1,0,1.7,0c0.3,0.3,0.5,0.5,0.8,0.8l0,0c0,0.3,0,0.5,0,0.8c-0.3,0.3-0.6,0.6-0.8,0.8
			c-0.3,0-0.5,0-0.8,0C40,31.4,39.7,30.6,39.4,29.8z"/>
		<path class="st205" d="M39.4,29.8c0.3,0.8,0.6,1.6,0.8,2.5c-0.3,0-0.5,0-0.8,0c-0.3,0-0.5,0-0.8,0c0-0.3,0-0.5,0-0.8
			c0-0.5,0-1.1,0-1.6C38.9,29.8,39.2,29.8,39.4,29.8z"/>
		<path class="st128" d="M42.7,27.4c0,0.3,0,0.5-0.1,0.8c-0.3-0.8-0.5-1.6-0.8-2.4c0.3,0,0.5,0,0.8,0C42.7,26.2,42.7,26.8,42.7,27.4
			z"/>
		<path class="st175" d="M41.9,30.6c-0.3-0.3-0.5-0.5-0.8-0.8c0.3,0,0.5,0,0.8,0C41.9,30.1,41.9,30.3,41.9,30.6z"/>
		<path class="st211" d="M38.6,31.4c0,0.3,0,0.5,0,0.8c0,0.8,0,1.6,0,2.5c-0.3,0-0.5,0-0.8,0c0-1.1,0-2.2,0-3.3
			C38.1,31.4,38.3,31.4,38.6,31.4z"/>
		<path class="st212" d="M32.9,35.5c-0.3,0-0.5,0-0.8,0c-0.3-0.3-0.6-0.5-0.8-0.8l0,0c0-0.3,0-0.6,0-0.8c0-0.3,0-0.5,0-0.8
			c0.3-0.3,0.6-0.5,0.8-0.8c0.6,0.5,1.1,1.1,1.7,1.6C33.4,34.4,33.2,35,32.9,35.5z"/>
		<path class="st176" d="M32.1,32.3c-0.3,0.3-0.6,0.5-0.8,0.8C31.5,32.8,31.8,32.5,32.1,32.3z"/>
		<path class="st176" d="M31.2,34.7c0.3,0.3,0.6,0.5,0.8,0.8C31.8,35.3,31.5,35,31.2,34.7z"/>
		<path class="st176" d="M31.2,33.9c0,0.3,0,0.6,0,0.8C31.2,34.4,31.2,34.2,31.2,33.9z"/>
		<path class="st153" d="M39.4,39.6c0.4,0.3,0.8,0.7,1.3,1c-0.1,0.1-0.2,0.2-0.3,0.3C40.1,40.5,39.8,40.1,39.4,39.6
			C39.4,39.6,39.4,39.6,39.4,39.6z"/>
		<path class="st139" d="M37.8,42.1c0-0.8,0-1.6,0-2.4c0.3,0,0.5,0,0.8,0C38.3,40.4,38.1,41.3,37.8,42.1z"/>
		<path class="st213" d="M41,38.8c-0.5,0-1.1,0-1.6,0c-0.3,0-0.5,0-0.8,0c0-0.3,0-0.5,0-0.8l0,0c0.3,0,0.5,0,0.8,0
			c0.5,0,1.1,0,1.6,0C41.1,38.3,41.1,38.5,41,38.8z"/>
		<path class="st3" d="M41,38.8c0-0.3,0-0.5,0-0.8c0.3-0.6,0.6-1.1,0.8-1.7c0,0,0,0,0,0C41.6,37.2,41.3,38,41,38.8z"/>
		<path class="st180" d="M38.6,38.8c0.3,0,0.5,0,0.8,0c0,0.3,0,0.5,0,0.8c0,0,0,0,0,0c-0.3,0-0.5,0-0.8,0c-0.3,0-0.5,0-0.8,0
			c0-0.3,0-0.5,0-0.8c0,0,0,0,0,0C38.1,38.8,38.3,38.8,38.6,38.8z"/>
		<path class="st167" d="M40.3,45.4c-0.3-0.5-0.5-1.1-0.8-1.6C39.7,44.3,40,44.8,40.3,45.4z"/>
		<path class="st163" d="M41.9,36.4c-0.3,0.6-0.6,1.1-0.8,1.7c-0.5,0-1.1,0-1.6,0c-0.3-0.5-0.5-1.1-0.8-1.6c-0.3,0-0.5,0-0.8,0
			c0-0.5,0-1.1-0.1-1.6c0,0,0,0,0,0c0.3,0,0.5,0,0.8,0c0.3,0,0.5,0,0.8,0c0.8,0.3,1.6,0.5,2.5,0.8l0,0
			C41.9,35.8,41.9,36.1,41.9,36.4z"/>
		<path class="st163" d="M43.5,34.7c-0.5,0.3-1.1,0.6-1.6,0.8c0,0,0,0,0,0c0-0.6,0-1.1,0-1.7c0.3-0.5,0.6-1.1,0.8-1.6
			c0.3,0,0.5,0,0.8,0l0,0C43.5,33.1,43.5,33.9,43.5,34.7z"/>
		<path class="st175" d="M43.5,34.7c0-0.8,0-1.6,0-2.4c0.3,0.8,0.5,1.6,0.8,2.4C44,34.7,43.8,34.7,43.5,34.7z"/>
		<path class="st175" d="M41.9,31.4c0-0.3,0-0.5,0-0.8c0.3,0.3,0.6,0.5,0.8,0.8l0,0C42.4,31.4,42.2,31.4,41.9,31.4z"/>
		<path class="st175" d="M43.5,32.3c-0.3,0-0.5,0-0.8,0c0-0.3,0-0.5,0-0.8l0,0C43,31.7,43.3,32,43.5,32.3z"/>
		<path class="st3" d="M38.6,36.4c0.3,0.5,0.5,1.1,0.8,1.6c-0.3,0-0.5,0-0.8,0C38.6,37.5,38.6,36.9,38.6,36.4z"/>
		<path class="st195" d="M37.8,34.7c0,0.5,0,1.1,0.1,1.6c-0.3-0.5-0.6-1.1-0.9-1.6C37.2,34.7,37.5,34.7,37.8,34.7z"/>
		<path class="st3" d="M38.6,38.8c-0.3,0-0.6,0-0.8,0c0.3-0.3,0.6-0.5,0.8-0.8C38.6,38.3,38.6,38.6,38.6,38.8z"/>
		<path class="st211" d="M42.7,31.4c0,0.3,0,0.5,0,0.8c-0.3,0.5-0.6,1.1-0.8,1.6c-0.3-0.5-0.6-1.1-0.9-1.6l0,0
			c0.3-0.3,0.6-0.6,0.8-0.8C42.2,31.4,42.4,31.4,42.7,31.4z"/>
		<path class="st195" d="M39.4,32.3c0.3,0,0.5,0,0.8,0c0.3,0,0.5,0,0.8,0c0,0,0,0,0,0c0,0.3,0,0.5,0,0.8c-0.5,0-1.1,0-1.6,0
			C39.4,32.8,39.4,32.5,39.4,32.3z"/>
		<path class="st199" d="M39.4,32.3c0,0.3,0,0.5,0,0.8c0,0.5,0,1.1,0,1.6l0,0c-0.3,0-0.5,0-0.8,0c0-0.8,0-1.6,0-2.5
			C38.9,32.3,39.2,32.3,39.4,32.3z"/>
		<path class="st209" d="M41.1,33.1c0-0.3,0-0.5,0-0.8c0.3,0.5,0.6,1.1,0.9,1.6c0,0.6,0,1.1,0,1.7c-0.8-0.3-1.6-0.5-2.5-0.8
			c0,0,0,0,0,0c0.3,0,0.6,0,0.8,0c0.3-0.3,0.5-0.5,0.8-0.8C41.1,33.6,41.1,33.4,41.1,33.1z"/>
		<path class="st214" d="M40.3,34.7c-0.3,0-0.6,0-0.8,0c0-0.5,0-1.1,0-1.6c0.5,0,1.1,0,1.6,0c0,0.3,0,0.5,0,0.8
			C40.8,34.2,40.5,34.4,40.3,34.7z"/>
		<path class="st167" d="M40.3,34.7c0.3-0.3,0.5-0.5,0.8-0.8C40.8,34.2,40.5,34.4,40.3,34.7z"/>
	</g>
</g>
</svg>
