<?xml version="1.0" encoding="utf-8"?>
<!-- Generator: Adobe Illustrator 19.1.0, SVG Export Plug-In . SVG Version: 6.00 Build 0)  -->
<svg version="1.1" xmlns="http://www.w3.org/2000/svg" xmlns:xlink="http://www.w3.org/1999/xlink" x="0px" y="0px"
	 viewBox="-34 311 80 80" style="enable-background:new -34 311 80 80;" xml:space="preserve">
<style type="text/css">
	.st0{display:none;}
	.st1{display:inline;}
	.st2{fill:#292929;}
	.st3{fill:#313131;}
	.st4{fill:#181819;}
	.st5{fill:#424242;}
	.st6{fill:#0F0F10;}
	.st7{fill:#211C2A;}
	.st8{fill:#2B2347;}
	.st9{fill:#322D66;}
	.st10{fill:#282828;}
	.st11{fill:#45376B;}
	.st12{fill:#5B4A81;}
	.st13{fill:#58515D;}
	.st14{fill:#372D4F;}
	.st15{fill:#0C2156;}
	.st16{fill:#0B2762;}
	.st17{fill:#0F2F74;}
	.st18{fill:#113175;}
	.st19{fill:#072F78;}
	.st20{fill:#264581;}
	.st21{fill:#1F4CA0;}
	.st22{fill:#204EA3;}
	.st23{fill:#376AC1;}
	.st24{fill:#24447E;}
	.st25{fill:#1C4FA9;}
	.st26{fill:#4569B4;}
	.st27{fill:#04225D;}
	.st28{fill:#1E4181;}
	.st29{fill:#1E458C;}
	.st30{fill:#1E3F7A;}
	.st31{fill:#2F589D;}
	.st32{fill:#63779E;}
	.st33{fill:#0C3D92;}
	.st34{fill:#0C59CF;}
	.st35{fill:#426FC7;}
	.st36{fill:#063284;}
	.st37{fill:#033C9C;}
	.st38{fill:#034BC0;}
	.st39{fill:#0546B7;}
	.st40{fill:#2A68CB;}
	.st41{fill:#3065C5;}
	.st42{fill:#607DB1;}
	.st43{fill:#387EE7;}
	.st44{fill:#0957CD;}
	.st45{fill:#186CDD;}
	.st46{fill:#155ECF;}
	.st47{fill:#4C89EF;}
	.st48{fill:#022261;}
	.st49{fill:#4269BA;}
	.st50{fill:#9AAACB;}
	.st51{fill:#D3E2F5;}
	.st52{fill:#1F6FE3;}
	.st53{fill:#3D79E2;}
	.st54{fill:#6C8FD7;}
	.st55{fill:#084DBB;}
	.st56{fill:#075CD6;}
	.st57{fill:#AAC0E7;}
	.st58{fill:#8CB7F5;}
	.st59{fill:#D6EBFD;}
	.st60{fill:#98B7ED;}
	.st61{fill:#DEF1FC;}
	.st62{fill:#C4E7FD;}
	.st63{fill:#480F08;}
	.st64{fill:#4C241A;}
	.st65{fill:#532217;}
	.st66{fill:#340D09;}
	.st67{fill:#572D1A;}
	.st68{fill:#370300;}
	.st69{fill:#5A160C;}
	.st70{fill:#56221B;}
	.st71{fill:#481E19;}
	.st72{fill:#842416;}
	.st73{fill:#813126;}
	.st74{fill:#902D13;}
	.st75{fill:#93311E;}
	.st76{fill:#672F2A;}
	.st77{fill:#9A412D;}
	.st78{fill:#98492F;}
	.st79{fill:#6B2D1F;}
	.st80{fill:#AE512F;}
	.st81{fill:#691506;}
	.st82{fill:#A83624;}
	.st83{fill:#A13518;}
	.st84{fill:#C54A1C;}
	.st85{fill:#BE3A17;}
	.st86{fill:#B23421;}
	.st87{fill:#BA4428;}
	.st88{fill:#AC412A;}
	.st89{fill:#C0522C;}
	.st90{fill:#8E240F;}
	.st91{fill:#CE3A1B;}
	.st92{fill:#CD3F17;}
	.st93{fill:#C2371E;}
	.st94{fill:#DD4A15;}
	.st95{fill:#E8622A;}
	.st96{fill:#D65221;}
	.st97{fill:#C5321A;}
	.st98{fill:#2862CD;}
	.st99{fill:#1842AA;}
	.st100{fill:#3778D0;}
	.st101{fill:#133EB3;}
	.st102{fill:#2459CC;}
	.st103{fill:#1549C2;}
	.st104{fill:#4374D7;}
	.st105{fill:#4471B2;}
	.st106{fill:#3A5994;}
	.st107{fill:#385A94;}
	.st108{fill:#5A98E2;}
	.st109{fill:#4472D6;}
	.st110{fill:#235FBF;}
	.st111{fill:#C2C2C2;}
	.st112{fill:#868686;}
	.st113{fill:#8F8F8F;}
	.st114{fill:#F8F8F8;}
	.st115{fill:#B6B6B6;}
	.st116{fill:#BFBFBF;}
	.st117{fill:#B7B7B7;}
	.st118{fill:#DDDDDD;}
	.st119{fill:#E7E7E7;}
	.st120{fill:#DBDBDB;}
	.st121{fill:#CFCFCF;}
	.st122{fill:#9E9E9E;}
	.st123{fill:#F1F1F1;}
	.st124{fill:#C6C6C6;}
	.st125{fill:#727272;}
	.st126{fill:#A1A1A1;}
	.st127{fill:#6D6D6D;}
	.st128{fill:#606060;}
	.st129{fill:#ABABAB;}
	.st130{fill:#A7A7A7;}
	.st131{fill:#ADADAD;}
	.st132{fill:#B3B3B3;}
	.st133{fill:#646464;}
	.st134{fill:#656565;}
	.st135{fill:#6B6B6B;}
	.st136{fill:#717171;}
	.st137{fill:#888888;}
	.st138{fill:#9C9C9C;}
	.st139{fill:#4D4D4D;}
	.st140{fill:#6E6E6E;}
	.st141{fill:#7E7E7E;}
	.st142{fill:#797979;}
	.st143{fill:#CDCDCD;}
	.st144{fill:#848484;}
	.st145{fill:#B1B1B1;}
	.st146{fill:#C4C4C4;}
	.st147{fill:#CBCBCB;}
	.st148{fill:#C3C3C3;}
	.st149{fill:#D6D6D6;}
	.st150{fill:#C0C0C0;}
	.st151{fill:#9D9D9D;}
	.st152{fill:#676767;}
	.st153{fill:#020202;}
	.st154{fill:#4C4C4C;}
	.st155{fill:#040404;}
	.st156{fill:#101010;}
	.st157{fill:#929292;}
	.st158{fill:#1C1C1C;}
	.st159{fill:#252525;}
	.st160{fill:#8D8D8D;}
	.st161{fill:#C8C8C8;}
	.st162{fill:#BDBDBD;}
	.st163{fill:#454545;}
	.st164{fill:#2F2F2F;}
	.st165{fill:#CECECE;}
	.st166{fill:#232323;}
	.st167{fill:#1D1D1D;}
	.st168{fill:#212121;}
	.st169{fill:#050505;}
	.st170{fill:#202020;}
	.st171{fill:#090909;}
	.st172{fill:#030303;}
	.st173{fill:#191919;}
	.st174{fill:#2C2C2C;}
	.st175{fill:#3A3A3A;}
	.st176{fill:#434343;}
	.st177{fill:#4E4E4E;}
	.st178{fill:#505050;}
	.st179{fill:#575757;}
	.st180{fill:#3D3D3D;}
	.st181{fill:#171717;}
	.st182{fill:#414141;}
	.st183{fill:#616161;}
	.st184{fill:#1F1F1F;}
	.st185{fill:#323232;}
	.st186{fill:#111111;}
	.st187{fill:#080808;}
	.st188{fill:#2B2B2B;}
	.st189{fill:#0F0F0F;}
	.st190{fill:#2E2E2E;}
	.st191{fill:#262626;}
	.st192{fill:#272727;}
	.st193{fill:#303030;}
	.st194{fill:#0E0E0E;}
	.st195{fill:#363636;}
	.st196{fill:#535353;}
	.st197{fill:#5D5D5D;}
	.st198{fill:#545454;}
	.st199{fill:#404040;}
	.st200{fill:#686868;}
	.st201{fill:#393939;}
	.st202{fill:#353535;}
	.st203{fill:#636363;}
	.st204{fill:#181818;}
	.st205{fill:#494949;}
	.st206{fill:#333333;}
	.st207{fill:#515151;}
	.st208{fill:#0B0B0B;}
	.st209{fill:#3F3F3F;}
	.st210{fill:#4F4F4F;}
	.st211{fill:#565656;}
	.st212{fill:#343434;}
	.st213{fill:#525252;}
	.st214{fill:#2A2A2A;}
	.st215{fill:#BEBDBD;}
	.st216{fill:#9E9F9F;}
	.st217{fill:#AEADAD;}
	.st218{fill:#808080;}
	.st219{fill:#949494;}
	.st220{fill:#8C8C8C;}
	.st221{fill:#853233;}
	.st222{fill:#BE4444;}
	.st223{fill:#A11412;}
	.st224{fill:#981A15;}
	.st225{fill:#B32522;}
</style>
<g id="Layer_1" class="st0">
	<g id="Layer_1_1_">
		<g class="st1">
			<path class="st2" d="M-22.1,344c3.8-20.2,23.6-27.2,40.2-22.2c0,0.5-0.1,0.9-0.3,1.3c-2.4,1.8-4.2-1.2-6.2,2.3
				c-10.1-0.9-17.8,4.9-23.5,12c-4.7,5.8-3.5,12.2-2.9,18.6c0.1,0.5,0.3,1,0.4,1.5c0.2,0.4,0.4,0.8,0.3,1.4c-1,6,3.6,8.9,7.4,11.9
				s8.2,4.9,13.3,5.2c2,0.1,4.5-0.9,5.9,1.6c0.9,3.4-1.7,2.5-3.4,3.1c-2.9,1.1-5.6-0.6-8.3,1.6c-12-2.3-20-12.2-22.7-25.9
				C-22.8,352.2-22.5,348.6-22.1,344z"/>
			<path class="st2" d="M18.2,321.8c8.2,2.8,10.6,6.8,14.2,12.5c2.7,4.4,4.2,9.8,4.2,17c0,2.6-5.7,3.5-6.4,5.3
				c-0.5,1.5,0.3,3.7-2.4,3.7c-2.7-0.7-2.2-3.1-2.2-4.9c0.2-9.1-2.6-16.8-9.2-23.2c-1.9-1.9-3.3-4.4-4.7-6.8c0.6-3.6,3.3-1.7,5-1.5
				c1.2,0.1,2.6,1.3,3.6,1.9c-0.1-1.4-4-0.4-2.4-3.5C17.9,322.1,18,322,18.2,321.8z"/>
			<path class="st3" d="M29.3,355.2c1.9-2.4,2.3-3.4,7.2-4.3c-0.4,8.9-2.7,18.3-9.6,25c-6.7,6.5-17.4,8.6-26.6,6.3
				c-1.9-2,2.1-2.2,4.3-2.3c3.3-0.2,3.5-0.6,6.6-1.9c-0.3-1.2,2.9-1.5,4.3-1.9c6.1-1.9,9-7,11.7-12.1
				C28.2,362.1,26.2,354.9,29.3,355.2z"/>
			<path class="st4" d="M29.2,358.9C26.8,368.2,22,376.8,11,378c-9.8,0.5-18.5-1.5-24.5-10.1c-2.3-3.3-4.2-6.7-4.5-10.9
				c1.2-1.3,2.9-1.2,4.4-2c3.7-2.1,5.8-1.1,7.3,3.1c0.2,0.6,0.6-0.3,0,0c-0.3,0.1-0.5,0-0.4-0.2c0.2-0.9-0.7-2,0.4-2.8
				c6.5-1,9.8,1.5,10.8,8c0.2,1.1,1,1.6,1.7,2.2c2.1,0.7,3.8-0.2,5.6-1.1c3-1.8,4.8-4.3,5.7-7.6c0.3-0.6,0.3-1.4,0.7-1.9
				c1.3-3.9,0-7-3.5-8.7c-3.9-1.9-5.2-6.4-9-8.3c-1.1-0.6-1.4-1.8-2.3-2.5c-1.1-1-3.3-1.5-2.3-3.7c0.9-2.1,2.7-2.9,4.9-2.7
				c-12.5,0-20.7,8.3-21.6,21.9c-0.2,2.4,1.6,10-1.5,11.2c-7.2-17.9,5-40,26-38c2.5,0.1,3.6,0.6,4.9,1c0,0,2.6,1.2,3.4,1.9
				C27.8,334.8,31.6,346.5,29.2,358.9z"/>
			<path class="st5" d="M9.1,323.2c2.2-4.2,12.1,0.6,13.6,1.7s4.3,2.6,2.7,3.8c-1.3,1.9-1.8,1.5-4.7-1
				C14.9,322.6,10.4,323.6,9.1,323.2z"/>
			<path class="st6" d="M-6,356c1.3,1.5,2.8,2.8,4,4.4c0.7,1,0.7,2.3-0.4,3.1c-1.2,0.9-2.2,0.2-3-0.8c-0.6-0.8-1.2-1.6-1.6-2.5
				c-1.6-3-3.1-5.8-5.1-0.3c-0.7,1.9-1.8,1.7-3,0.4c-1-1.1-1.9-2.3-2.8-3.5l0,0c-0.2-7.4,0.1-14.5,4.4-21
				c4.8-7.2,13.7-11.3,21.4-9.2c1.4,0.4,3.4,0.4,3.5,2.2c0.2,2.1-2,1.7-3.3,2.1C7,331.2,5.7,331,5,332.3c0.5,2.2,3.9,1.1,4.1,3.6
				c-0.5,1.7-2,2.3-3.3,2c-2.1-0.5-3.2,1-4.7,1.7c-1.7,1.2-3,2.8-4.2,4.5c-0.3,0.6-0.7,1.2-1,1.9c-0.5,0.7-0.5,1.6-1,2.3
				c-1.1,2.2-0.5,4.7-0.8,7C-5.9,355.6-6,355.8-6,356z"/>
			<path class="st7" d="M-1,337.9c3-2.3,6.6-1.9,10-1.9c2.2,3.6,4.9,6.5,8.7,8.7c4.9,2.8,4.9,7.5,3.4,12.3c-1.6-0.4-3.3-0.7-2.7-3.2
				c0.3-1,0.8-2.4-0.9-2.7c-1.2-0.2-1.7,1-2.2,1.7c-3.5,4.8-7.5,9.2-9.2,15.1c-1.9-0.6-3.1-1.7-3.4-3.8c-0.7-5-3.8-7.5-8.6-8l0,0
				c-0.3-0.4-0.5-0.8-0.5-1.2c0-0.5,0.3-1.1,0.7-1.2c3.4-0.6,4.3-3,4.7-5.9c0.6-0.9,1.2-1.8,2-2.6c2.2-2.3,2.9-4.2-0.9-5.6
				C-0.7,339.2-0.9,338.6-1,337.9z"/>
			<path class="st8" d="M6.1,367.9c-0.8-3.5,0.4-6.7,2.6-9.2c2.1-2.4,3.9-4.9,5.5-7.6c0.9-1.6,2-3.4,4.2-2.9
				c2.4,0.6,2.5,2.8,2.7,4.8c0.1,1.3,0.1,2.6,0.1,4c-0.3,0.4-0.6,0.7-0.9,1.1c-5.4,0.8-7.4,3.3-7.1,8.9
				C10.8,368.1,8.4,368,6.1,367.9z"/>
			<path class="st9" d="M13,367c-4.1-0.3-5.1-2-2.5-5.4c1.3-1.7,2.5-3.6,3.8-5.2c0.9-1.2,2-2.5,3.6-2.3c2.2,0.3,1.8,2.5,2.2,4
				C19,362.1,16.3,364.8,13,367z"/>
			<path class="st10" d="M4.8,372.7c3.4-2.1,6-2.1,9.8-1.8C11.3,374,8.8,374.3,4.8,372.7z"/>
			<path class="st11" d="M-6,343.7c1.4-3.3,2.8-4.6,4.9-5.7c2.6-0.3,5.1-0.1,6.4,2.5c1.3,2.6-1.6,3.5-2.7,5.2
				c-0.5,0.8-1.2,1.6-1.8,2.4c-2.1,2.7-3.5,6.3-7.8,6.3c-1-2.4-0.7-4.8-0.2-7.3C-6.7,346.4-6.3,344.3-6,343.7"/>
			<path class="st12" d="M-5.1,343c1.8-0.9,2.8-3.4,5.7-3c-0.8,3.8-2.8,6.6-5.2,9.2c-2-1-1-2.8-1.4-4.1
				C-5.7,344.4-5.4,343.7-5.1,343z"/>
			<path class="st4" d="M-7.1,347c0.2,2.4-0.5,4.9,1,7.1c0.8,0.2,0.8,0.4,0.1,0.8c0,0.3,0,0.7,0,1C-8.4,353.3-8.3,350.2-7.1,347z"/>
			<path class="st13" d="M8.2,348.4c-0.8,1.4-0.9,3.6-3.2,3.7c-1.2,0.1-1.5-1.1-1.4-2.1c0.1-1.8,1-3.2,2.8-3.5
				C7.7,346.3,8.2,347.2,8.2,348.4z"/>
			<path class="st14" d="M-6,355c-0.1-0.3-0.1-0.5-0.1-0.8c2.3-2,4.7-4.1,7-6.1C0.5,352.2-1.8,354.5-6,355z"/>
		</g>
	</g>
	<g id="Layer_2">
		<g class="st1">
			<path class="st15" d="M7.7,383.5c6.8-1.3,9.4-3.6,10.4-4c3.2-1.4,4.7-3.1,6.7-6c1-2.3,2.8-4.3,4.3-6.2c3.2-7,3.6-12.5,4.3-20.4
				c-0.3-1.3-1.2-2.3-1.4-3.6c-0.4-0.9-0.2-1.9-0.6-2.7c-0.4-1.6-2.8-2.4-2.9-4.2c0-0.4-0.2-1.4,0.1-1.7c0-0.4-7.3-11.2-22.9-14.4
				c17.3,0.1,26.7,12.9,29,20.9c0.7,1.9,1.8,6.8,1.8,10.1c0,7-1,8.8-1.8,11.7c-1.5,5.7-3.9,9.4-7.7,13.5
				C24.7,379,16.3,383.5,7.7,383.5z"/>
			<path class="st16" d="M-21.1,340.3c0.2-0.7,0.5-1.3,0.7-2c0.7,0.1,0.7,0.6,0.9,1.1c0.2,1.6-0.1,3.2-0.9,4.6
				c-0.9,1.6-1.1,3.1-0.5,4.8c0,5.6,1.6,10.7,5.2,15.1c0.3,0.3,0.4,0.7,0.4,1.1c0,0.6-0.3,1.1-0.6,1.6c-0.4,0.7-0.7,1.3,0,1.9
				s1.4,0.1,2-0.3c4.3-2.4,6.9-1.6,9.3,2.7C-4,372-3.1,373-3,374.4c0.2,1.4,0.2,2.7-1.1,3.7c1.4,1.2,2.8,2.2,4.5,2.8
				c0.4,0.2,0.8,0.5,1,1c-0.2,0.7,2.2,1.7,1.6,1.4c-5.9-1-13.4-4.9-17.3-9.4c-4.7-5.3-7.6-11.5-8.2-18.5
				C-23.3,347.9-22.7,344.5-21.1,340.3z"/>
			<path class="st17" d="M-20.1,339.3c-0.1-0.3-0.2-0.6-0.4-0.9c2.8-6.9,7.6-12,14-15.5c3.2-1.8,7.6-2.5,10.1-2.5
				c7-0.1,7.5,0.6,9.2,1c6.3,1.4,11.1,5.1,15,10.1c0.6,0.7,1.6,1.1,1.8,2.1c-0.3,0.4-0.1,1-0.7,1.2c-0.5,0.1-1.1,0-1.7,0.2
				c-3.3,1.5-5.5,0.2-7.3-2.5c-2.3-2.6-4.9-4.9-7.7-6.9C8,322.3,3.1,322-2,322.7c-1,0.2-1.9,0.7-2.9,1.1c-4.3,3.4-9,6.5-11.5,11.6
				c-0.7,1-1.7,1.7-2.4,2.7C-19.2,338.5-19.2,339.4-20.1,339.3z"/>
			<path class="st18" d="M7.3,383.6c-1.6,0-2.7-0.1-4.7-0.3c-0.8-0.4-1.8-0.3-2.4-1c0.3-0.2,0.7-0.3,1-0.5c0.8-0.5,1.7-0.2,2.6-0.1
				c3.7,0.3,6.6-0.5,7.4-4.5c-1.5,1.1-2.9,2.8-5.1,3.5c-2.5,0.8-4.2-0.7-6.1-2c-0.6,1,0.7,1.7,0.2,2.6c-2.5-0.1-3.7-2.7-6.3-3.1
				c0.8-1.1,2.8-0.5,2.5-2.5c-0.2-1.3-0.5-2.4-1.2-3.6c-1.2-2.1-2-4.4-5-4.6c-1.2-0.1-2.4,0.1-3.4,0.7c-1.1,0.7-2.1,2.2-3.5,0.7
				s0-2.6,0.9-3.7c0.3-0.3,0.6-0.3,1-0.1c0.5,0.8-0.6,1.4-0.3,2.4c1.3-0.2,2.1-1.1,3-1.8c3.5-2.2,4.3-2.1,6.5,1.3
				c0.2,0.3,0.4,0.7,0.8,0.8c1.5-3.6,1.5-3.6,6.6-1.7c1,0.4,2,0.5,3,1c0.8,0.7,2.5,0.3,2.7,2c-1.6,0.9-3.3-0.1-5,0
				c-3.4,0.2-4.3,1.5-3,4.6c1.6,4,5.6,5,9,2.4c1.8-1.3,3.2-2.9,4.5-4.7c1.4-0.5,2.7,1,4.1,0c0.4-0.4,0.8-0.7,1.3-1
				c1.1-0.8,2.4-0.8,3.7-0.6c1.7,0.3,3.1,0.6,2.3,2.9c-0.3,0.9,0.5,0.8,0.9,1.1c-0.4,2.8-2.7,3.7-4.7,4.9c-1.3,0.8-2.9,1.2-3.9,2.5
				C13.8,382.8,13.1,383,7.3,383.6z"/>
			<path class="st19" d="M-14.8,365.3c-0.3,0-0.7,0-1,0c-1.9-2.7-3.7-5.4-4.7-8.7c-0.8-2.6-1.4-5.1-1.1-7.7c0.3-0.1,0.5,0,0.7,0.1
				c1.3,2.6,1.5,5.7,3.4,8.1c1.1,1.3,2,2.7,3.5,3.6c1.2,0.7,1.8,1.8,1.5,3.2C-12.9,364.9-13.4,366-14.8,365.3z"/>
			<path class="st20" d="M0.2,381.3c-0.2-0.3-0.5-0.6-0.7-1c-0.4-0.8-1.3-1.7-0.2-2.5c0.9-0.7,1.4,0.5,1.9,1c2.3,2.1,4.6,2.1,7,0.1
				c1.2-1,2.5-2,3.8-3.1c-1,5.8-3.3,7.6-10.9,6.1C0.7,381.8,0.4,381.7,0.2,381.3z"/>
			<path class="st21" d="M-21.1,349c-0.1,0-0.3-0.1-0.4-0.1c-0.7-1.8-0.7-3.4,0.5-5.1c0.9-1.3,1-3,0.9-4.6c0.3-0.5,0.6-0.9,0.9-1.4
				c0.7,0.9,2.1,0.3,2.8,1.3c-0.6,2.9-0.2,6-1.8,8.6c-0.5,0.5-1,0.3-1.4,0c-1-0.6-1,0.2-1.1,0.8C-20.8,348.7-20.9,348.9-21.1,349z"
				/>
			<path class="st22" d="M-2.2,322.3c5.7-1.2,11.2-0.4,15.8,3.2c2.5,1.9,5.1,3.8,6.9,6.5c0.3,1.3,1.1,2.4,2,3.3
				c0.1,0.5-0.1,0.9-0.3,1.4c-0.7,2.3-0.4,2.9,2,3.5c0.4,0.1,0.8,0.2,1.1,0.4c0.1,0.2,0.1,0.4,0,0.7c-0.3,0.2-0.6,0.4-0.9,0.4
				c-1.2,0.1-2.5,0-3.6,0.8c-0.6,0.3-1.1,0.9-1.8,0.7c-0.2-0.9-0.6-1.6-1.2-2.1c-0.4-1.3-0.5-2.7-0.8-4c1.2-0.9,0.3-1.8,0-2.6
				c0.4-1-0.2-1.6-0.8-2.3c-0.9-1.2-2.3-2-2.8-3.5c-1.8-3-4.9-3.9-7.9-4.9c-1.6-0.5-3.3-0.7-5-0.7C-0.5,323-1.5,323.1-2.2,322.3z"/>
			<path class="st23" d="M-2.2,322.3c5.3-0.3,10.3,0.8,14.7,4c0.7,0.5,2.1,0.8,1.3,2.3c-1.7,0.8-3.1-0.5-4.6-0.9
				c-2.4-1.8-5.3-1.9-8.1-2.3c-0.8-0.1-1.6,0.2-2.1,0.8c-0.5,0.4-0.6,1.1-1.2,1.5c-0.9,0-1.6-0.3-2.4-0.6c-0.1-0.2-0.3-0.3-0.4-0.5
				c-0.6-1.1-2.2-2.2,0-3.3C-4.2,322.9-3.3,322.3-2.2,322.3z"/>
			<path class="st24" d="M22.4,335.4c-1.9-0.4-1.9-1.9-1.9-3.4c2.3,2.6,2.5,3.9,6.6,2c0.7-0.3,1.4,0,2,0.4c0,0.3,0,0.7,0,1
				c-0.9,1.4-1.6,2.6,0.8,3.2c0.5,0.1,0.9,0.6,1.2,1.1c0.5,0.6,1,1.3,1.5,1.9c-0.2,1.8-0.8,2.2-2.3,1.3c-1.6-1-3.2-1.5-5-1.8
				c0-0.2,0-0.3,0-0.5c-0.1-0.3,0-0.6,0.1-0.9c1.1-2.4,0.7-3.2-1.7-3.8C23.2,335.9,22.8,335.8,22.4,335.4z"/>
			<path class="st25" d="M-5.2,323.4c-1.8,1.4,0.6,2.2,0.5,3.3c-1,1.3-2.6,1.5-3.9,2.2c-2.4,1.4-3.7,3.9-5.6,5.8
				c-0.8,0.4-1.6,1.1-2.6,0.7C-14.6,329.7-9.5,326.9-5.2,323.4z"/>
			<path class="st26" d="M-16.7,335.4c0.8-0.3,1.6-0.6,2.4-1c0.2-0.2,0.4-0.2,0.6,0c0.2,0.9-0.6,1.2-1.2,1.6c-1.2,0.8,0,1.1,0.3,1.5
				c-0.3,1.1-1,1.6-2.1,1.3c-1.1,0.4-2.3,1.2-2.4-1C-18.5,336.9-17.7,336-16.7,335.4z"/>
			<path class="st27" d="M13.2,371.6c-1.7,4.8-6.8,7.7-11,6.3c-2.3-0.8-4.5-4.5-4-7c0.3-1.5,1.3-2.1,2.7-2.2
				c2.2-0.2,4.3,0.3,6.4,0.5C10.6,368.5,12.6,369.4,13.2,371.6z"/>
			<path class="st28" d="M29.7,368.7c-1.6,1.6-2.5,3.9-4.4,5.3c-0.7-0.1-1.3,0.6-2,0.4c-0.4-1.3,1.9-2.5,0.3-3.4
				c-1.5-0.8-3.4-1.1-5.1,0.1c-0.8-1.6-0.8-3.7-3.2-4.1c-0.2-0.2-0.3-0.4-0.3-0.6c0.3-0.5,0.7-0.6,1.3-0.7c0.8,0,1.4,0.3,2,0.7
				c3.2,2.2,6.4,1.8,8.8-1c0.8-0.9,1.5-2.4,2.8-1.6c1.3,0.8,0.6,2.3,0.3,3.6C30.2,367.9,29.9,368.3,29.7,368.7z"/>
			<path class="st29" d="M-14.8,365.3c1-0.1,1.5-0.7,1.9-1.5c0.3-0.5,0.7-0.9,1.4-0.6c1.6,1.2,3.5,0.3,5.1,0.2
				c2.5-0.1,4.5,0.5,6.6,1.5c0.7,0.5,1.6,0.7,1.4,1.8c-0.2,0-0.3,0-0.5-0.1c-4.2-1.6-4.2-1.6-5.7,2.7c-1.1-0.8-1.7-1.9-2.2-3.1
				c-0.8-1.7-1.9-1.8-3.3-1c-1.2,0.7-2.3,1.5-3.4,2.2c-0.8,0.5-1.6,1.6-2.5,0.7s0.1-1.7,0.8-2.4C-15,365.8-14.9,365.5-14.8,365.3z"
				/>
			<path class="st30" d="M13.2,371.6c-1.3-2.4-3.9-1.6-5.8-2.4c-1-0.5-1.9-1-2.9-1.4c0.7-0.6,2-0.8,2-2.1c0.6-0.3,1.1-0.1,1.6,0.1
				c1.8,0.6,3.4,2.1,5.4,1.1c0.5-0.2,1-0.6,1.6-0.2l0.1,0.1c0.2,0.7-0.3,1.2-0.6,1.6c-0.7,0.8-0.6,1.5-0.1,2.3
				c0.2,0.2,0.4,0.4,0.7,0.6c0.8,0.4,1.7,0.1,2.4,0.8C16,373.2,14.6,372.6,13.2,371.6z"/>
			<path class="st31" d="M6.5,365.8c1.8,3.1-1.1,1.5-1.9,1.9c-1-0.3-1.9-0.7-2.9-1c-0.5-0.5-1-1-1.5-1.4c0.4-0.6,1-0.9,1.6-1.2
				c0.9-0.2,1.8,0.1,2.7,0.4C5.2,364.8,6,365.1,6.5,365.8z"/>
			<path class="st32" d="M17.6,372.1c-1,0-2.1,0.5-2.9-0.4c0.4-0.7,1.3-0.5,1.8-1c0.3-0.4,0.5-0.9,0.2-1.3c-0.5-0.6-1-0.3-1.5,0
				c-0.5,0.5-0.3,1.4-1,1.8c-2-2,0.1-3.1,1.1-4.4c2.9,0.1,3.4,0.9,3.4,4.3C18.2,371.4,17.9,371.8,17.6,372.1z"/>
			<path class="st17" d="M13.7,367.3c-2.3,1.6-3.9-0.4-5.8-1c-0.1-1.9,1.5-2.3,2.7-3c4.6-2.8,8.2-6.4,10.6-11.2
				c1-2.1,1.7-4.2,1.6-6.5c0-1.6,0.1-3.2,1.6-4.4c0.3,0,0.6,0,1,0c1.9-0.9,3.3,0,4.7,1c0.9,0.7,2.1,1.6,2.6-0.5
				c1.4,7.1,2.6,14.2-0.5,21.2c-0.8,1.9-0.5,4.4-2.5,5.8c0.2-1,0.7-2,0.5-3.1c-0.1-0.5,0.3-1.3-0.4-1.5c-0.7-0.2-1.2,0.5-1.5,1
				c-1.2,2.2-3,3-5.5,3.3c-1.9,0.2-3.3,0.3-4.5-1.3c-0.5-0.7-1.2-1-2.1-0.9c-0.2-1.5,1.4-2.7,0.7-4.5c-1.4,1-2.7,2.2-4,3.2
				C11.3,366.1,13.3,366.5,13.7,367.3z"/>
			<path class="st17" d="M31.1,339.7c-0.5-0.2-1-0.5-1.5-0.7c-0.8-0.4-2.2,0-2.3-1.3c-0.1-1.2,1-1.7,1.8-2.3
				C29.3,337.1,31,338,31.1,339.7z"/>
			<path class="st33" d="M-11.4,363.4c-0.5,0.2-1,0.3-1.4,0.5c0-0.8,0.2-1.7-0.6-2.2c-5-2.8-6.7-7.5-7.6-12.7l0.1-0.1
				c0.8-0.1,1.1,0.5,1.5,1c2.5,3.4,5.1,6.5,8.7,8.7c0.7,0.5,1.4,1.1,1.7,2C-8.9,362.3-9.8,363.2-11.4,363.4z"/>
			<path class="st34" d="M-16.7,338.8c0.7-0.4,1.6-0.6,2-1.4c0.4-0.5,0.9-0.5,1.5-0.4c1.2,0.5,1.4,1.4,1.2,2.5
				c-0.5,2.9,0.3,5.4,1.6,8c1.6,3,2.8,6.2,2.8,9.8c-0.3,1-1,1.3-1.8,0.8c-3.8-2.4-7.1-5.2-9.3-9.2c-0.2-0.3-0.1-0.6,0-0.9
				C-17.3,345.1-17.8,341.8-16.7,338.8z"/>
			<path class="st35" d="M-18.7,348c2.2,4.3,5.8,7.1,9.6,9.8c0.4,0.3,0.7,0.2,1-0.2c1.5-1.3,2.7-0.1,3.9,0.5
				c0.1,0.2,0.1,0.5-0.1,0.7c-0.7,0.5-1.5,0.5-2.3,0.5c-1.1-0.1-1.8,0.5-2.3,1.4c-0.2,0.2-0.4,0.2-0.7,0c-4.6-3.1-8.5-7-11.5-11.6
				c0.3-0.8-1-1.8,0.2-2.3C-19.7,346.1-19.3,347.4-18.7,348z"/>
			<path class="st36" d="M24.3,341.2c-0.7,1.8-0.9,3.7-1,5.6c-0.2,3.8-2,7.1-4.4,10c-2.4,2.9-5,5.6-8.6,7.3c-1,0.5-1.9,1.2-2.5,2.2
				c-0.5-0.2-1-0.3-1.5-0.5c-0.8-0.1-1.4-0.3-1.9-1c-0.5-0.6-0.1-1,0.4-1.4s1.1-0.6,1.7-0.9c7.2-3.4,11-9.3,12.3-17
				c0.2-1.4,0.9-2.4,1.6-3.4C21.5,340.9,23,341.2,24.3,341.2z"/>
			<path class="st37" d="M20.5,342.2c-0.7,1.7-0.8,3.6-1.2,5.3c-2,7.4-5.9,13.3-13.5,16.1c-0.6,0.2-1.2,0.5-1.2,1.3
				c-1-0.2-1.9-0.3-2.9-0.5c-2.2,0-3.8-1-4.7-3c0-1.4,1-1.4,2-1.3c8,1,14-5.1,15.8-11c0.3-1.2,0.6-2.3,0.8-3.5
				c0.8-1.2,1.5-2.7,3.3-2.4C19.5,342.8,20,342.5,20.5,342.2z"/>
			<path class="st38" d="M17.1,336.8c1.2,1.2,1,2.8,1,4.3c-0.5,2-2.1,2.6-3.9,2.9c-0.9-0.1-1.6-0.5-1.8-1.3c-0.4-2.2-1-4.5,0.6-6.6
				C14.5,335.5,15.9,335.7,17.1,336.8z"/>
			<path class="st39" d="M9.4,327.2c1.5,0.5,2.9,1,4.4,1.5c1.2,1.3,2.5,2.6,3.7,3.9c0.6,0.7,1.2,1.5-0.3,1.8c-1.3,0.9-2.4,0-3.5-0.5
				c-2-1.4-3.8-3-5.3-4.9C7.4,327.9,7.4,326.9,9.4,327.2z"/>
			<path class="st40" d="M13.7,333.4c1.1,0.4,2.1,1,3.4,1c0.2,0.2,0.5,0.4,0.7,0.6c0.5,0.4,1.2,0.7,1,1.4c-0.3,0.7-1.1,0.3-1.7,0.4
				c-1.3,0-2.5-0.7-3.9-0.5c-0.9,0.6-1.7,0.2-2.4-0.3c-0.3-1.1-0.4-2.1,0.1-3.2C12,332.5,12.8,333.1,13.7,333.4z"/>
			<path class="st41" d="M14.7,343.6c1.3-0.6,2.4-1.4,3.4-2.4c1.5,0,1.2,1,1,1.9c-1.2,0.6-2,1.6-2.9,2.4c-0.5,0.6-1,1.3-1.9,1.1
				c-0.5-0.4-0.8-1-1.1-1.6C13.1,344,14.2,344.1,14.7,343.6z"/>
			<path class="st42" d="M22.4,335.4c1,0.1,2.1-0.2,3,0.4c1.8,1.1,1.7,3-0.1,4.9c-1.4,0-3,0.4-3.8-1.3
				C20.8,337.8,21.5,336.6,22.4,335.4z"/>
			<path class="st43" d="M-4.7,327.2c0.8-0.4,1.4-0.2,2,0.5c0.2,0.5,0.1,0.9,0,1.4c-0.4,1.6,0.5,2.3,1.9,2.2c3.3-0.1,6.4,1,9.7,1.2
				c0.5,0.2,1.1,0.4,1.5,0.8c0.9,0.9,0.9,1.7-0.5,2.1c-1.5,0.4-3.6-0.3-4.5,1.2c-0.8,1.3,0.3,2.9,0.3,4.5c0,2.3-0.9,4.2-1.8,6.2
				c-0.4,0.9-1.3,1.4-2.3,1.7c-1.3,0.4-2.6,0.8-4,1c-1.8,0.2-3,0.9-3.4,2.8c-0.1,0.5-0.3,1.1-0.7,1.5C-7,354.9-7.6,355-8,354
				s-0.8-2.1-1-3.2c-0.6-3.8-1.5-7.6-0.9-11.5c0.2-1.5-0.5-2.2-1.8-2.7c-0.6-1.4,0.6-1.4,1.3-1.5c1.2-0.2,2.2,0.4,2.7,1.6
				c0.5,1.3,0.3,2.7,0.1,4.1c-0.3,2.2-0.5,4.4,0.3,7c1.3-2.3,2.9-2.6,5.2-2.3c2.8,0.4,4.5-3,3.2-5.7c-0.3-0.6-0.7-1.1-1.1-1.5
				c-1.3-1.4-2.2-2.7,0.4-4.3c-2.9-0.4-5.1-1.5-7.3-2.2C-7.1,329.7-6.6,328.1-4.7,327.2z"/>
			<path class="st44" d="M13.7,333.4c-1,0.2-1.9-0.3-2.9-0.5c-0.4,0.4-0.9,0.2-1.4,0.1c-3.6-0.5-6.6-2.2-9.6-4.1
				c-1.1-0.7-2-1.4-1.5-2.8c0.5-1,1.3-1.7,2.5-1.4c2.9,0.6,6.1,0.4,8.6,2.4c-1.3,0.1-1.6,0.6-0.6,1.6
				C10.4,330.3,12.1,331.9,13.7,333.4z"/>
			<path class="st45" d="M-1.8,326.2c0.4,2.8,3.3,2.7,4.9,4c1.7,1.5,4.1,1.9,6.3,2.7c-0.2,0.2-0.3,0.2-0.5,0
				c-3.7,0.1-7.2-1.2-10.8-1.1c-2,0.1-2.2-1.3-0.7-4.2C-2.4,327.2-2.1,326.7-1.8,326.2z"/>
			<path class="st46" d="M-4.7,327.2c-1.3,1.2-1.2,3.1-2.4,4.4c0,0.4-0.1,0.7-0.3,1c-0.1,0.2-0.3,0.3-0.5,0.5c-1.9,0.8-3.8,2-6,1.4
				c-0.2,0-0.4,0-0.5,0c2.2-3.8,5.2-6.7,9.7-7.7C-4.7,326.8-4.7,327-4.7,327.2z"/>
			<path class="st47" d="M-13.8,334.4c2.1-0.7,4.2-1.3,6.2-2c0.4,0.6-0.3,1.2-0.1,1.8c0.2,0.9,0.6,1.7,1.7,1.8
				c0.8,0.1,1.4-0.3,1.6-1.1c0.3-1-0.2-1.7-1.1-2.2c-0.6-0.3-1.4-0.3-2-0.8c0.1-0.2,0.3-0.4,0.4-0.6c3,0,5.5,1.9,8.5,2
				c-0.1,0.4,0,0.7-0.1,0.7c-2.6,1.6-2.7,1.6-0.6,3.9c1.6,1.7,2,4.4,0.8,6.2c-1.3,1.9-3,2.6-5.2,1.7c-2-0.9-2,1-2.8,1.8
				c-0.3,0.3-0.2,1-0.8,1c-0.8,0-0.8-0.7-0.9-1.2c-0.6-2.2-0.4-4.4-0.2-6.7c0.1-0.8,0.3-1.6,0.3-2.4c0-3-1-3.6-3.9-2.2
				c-0.3,0.6-0.8,0.9-1.4,0.9c-0.5,0-0.9,0.1-1.4,0.1c-0.6-0.2-1.3,0.6-1.7-0.2c-0.4-0.8,0.5-1,1-1.4
				C-14.9,335.3-14.4,334.9-13.8,334.4z"/>
			<path class="st48" d="M13.7,367.3c-1.1,0.1-2-0.3-2.3-1.4c-0.3-1.2,0.9-1.5,1.6-1.8c1.5-0.6,2.2-1.8,3.1-2.9
				c0.3-0.3,0.7-0.8,1.2-0.4c0.3,0.2,0.5,0.7,0.4,1.1c-0.1,1.6-0.5,3.2-1.6,4.4c-0.3,0.1-0.7,0.3-1,0.4
				C14.6,366.9,14.2,367.1,13.7,367.3z"/>
			<path class="st49" d="M-2.7,361.5c1.1,1.5,2.8,2.1,4.3,2.9c0,1-0.8,0.9-1.4,1c-2.6-1.5-5.5-1.2-8.3-1.5c-0.9-0.1-1.6,0.5-2.5,0.8
				c-1.5,0.4-1.1-0.5-0.8-1.3c0.9-0.8,2.2-1.3,1.9-2.9c0.2,0,0.3,0,0.5,0c0.8,1.2,1.3,2.9,3.4,2.2c0.2-0.1,0.4-0.2,0.6-0.3
				c1.1-0.7,0.7-2.1,1.3-3c0.4-0.5,0.9-0.7,1.5-0.5C-1.4,359.9-3.7,360.4-2.7,361.5z"/>
			<path class="st50" d="M14.1,371.2c0.3-0.8-0.4-1.8,0.6-2.4c0.5,1,1.3,1.8,2.3,2.3c-0.6,1-1.6,0.3-2.4,0.6
				C14.4,371.5,14.3,371.4,14.1,371.2z"/>
			<path class="st51" d="M17.1,371.1c-1.9,0.3-2.6-0.6-2.3-2.3c0.7-0.6,1.6-0.9,2.3-0.2C17.9,369.3,17.6,370.3,17.1,371.1z"/>
			<path class="st48" d="M28.6,356.2c-0.8,2.5-0.2,6.1-2.3,9.2c-1.5,2.2-3.6,2.6-5.9,2.3c-1.5-0.2-1.5-1.2-1.1-2.3
				c2.3-5.7,3.9-11.5,5.2-17.5c0.1-0.6,0.1-1.5,0.8-1.6c0.9-0.1,1.1,0.8,1.3,1.5C27.4,350.2,28.9,352.5,28.6,356.2z"/>
			<path class="st52" d="M-13.3,337.3c0.3-0.6,0.8-0.9,1.4-0.9c3,0.1,3.1,0.2,2.6,3.2c-0.6,3.1,0.3,6.2,0.6,9.3
				c0.2,1.9,0,3.9,1.4,5.5c0.2-0.1,0.5-0.2,0.5-0.4c0.3-3.6,2.4-4.9,5.8-5.2c1.6-0.1,3.6-0.1,4.4-1.8c1.2-2.8,2.5-5.7,1.2-8.8
				c-0.8-2-0.5-2.8,1.6-3c0.7-0.1,1.4-0.2,2.1-0.3c0.7-0.1,1.9,0.5,2.1-0.5c0.3-1-1.3-0.7-1.7-1.4c0.2,0,0.3,0,0.5,0
				c0.5,0,1,0,1.4,0c0.6,1,0.6,1.9,0,2.9c-1.3,0.9-1.9,1.9-1.5,3.6c0.4,1.6,0.4,3.3-0.1,4.9c-0.5,1.5,0.3,1.8,1.4,1.9
				c0.7,0.8,0,1.2-0.5,1.5c-4.7,3-8.7,7-13.5,10c-0.3,0.2-0.6,0.2-0.9,0.3c-1.4,0.4-2.5-1.1-3.9-0.5c-0.4-4-1.6-7.8-3.8-11.3
				c-1.3-2.2-1.4-4.5-0.9-6.7C-12.4,338.5-12.7,337.9-13.3,337.3z"/>
			<path class="st53" d="M-4.2,358.1c4.7-3.5,9.1-7.4,14-10.6c0.4-0.2,0.7-0.6,1-1c0.5-1,1.2-1.7,2.4-1.5c1,0,1,0.7,0.9,1.4
				c-1.5,2.9-4.2,4.5-6.6,6.4c-2.6,2.1-5.5,3.8-8.3,5.7c-0.4,0.3-0.9,0.7-1.5,0.4c-0.5,0.2-1,0.3-1.5,0.5c-0.4-0.2-0.7-0.4-0.5-1
				C-4.2,358.4-4.2,358.2-4.2,358.1z"/>
			<path class="st54" d="M-4.2,358.6c0.2,0.3,0.3,0.6,0.5,1c-0.2,1.3,0.4,2.8-1.5,3.4c-0.3-0.5-0.2-1.1-0.1-1.6
				c0-0.9-0.2-1.6-1.3-1.6c-1.2,0-1.5,0.7-1.1,1.7c0.2,0.3,0.3,0.5,0.6,0.6c0.6,0.4,1.4,0.2,1.9,0.8c-2.6,1-3.6,0.5-3.9-2.4
				c-0.1-1.4,0.7-2,2-1.9C-6.1,358.6-5.1,358.6-4.2,358.6z"/>
			<path class="st55" d="M-2.2,359.1c5.6-4,11.5-7.6,16.4-12.6c0.7-0.2,1.1-1,1.9-1c-0.7,8-6.1,14-13.9,15.4c-1,0.2-2.1,0.2-3.1-0.2
				c-0.8-0.3-1.6-0.5-1.8,0.7C-3.9,360.4-2.4,359.8-2.2,359.1z"/>
			<path class="st56" d="M13.2,345.1c-0.8,0.5-1.6,1-2.4,1.5c-0.9,0-1.7,0.9-2.5,0.3c-0.9-0.8,0.2-1.6,0.4-2.4
				c0.3-1.8,0.5-3.7,0-5.4c-0.6-2.1,0-3.1,2.2-3.1c0.8,0.2,1.6,0.3,2.4,0.5c-0.9,1.9-0.4,3.9-0.4,5.9c0,1.2,0.9,1.4,1.9,1.3
				C14.2,344.1,13.7,344.6,13.2,345.1z"/>
			<path class="st57" d="M25.8,338.3c-0.1,1-0.7,1.8-1.9,1.8s-1.9-0.7-2-1.9c-0.1-1.5,0.9-1.9,2.2-1.9
				C25.3,336.3,25.8,337,25.8,338.3z"/>
			<path class="st58" d="M-7.5,332.1c1.5-0.2,3,0.1,3.7,1.6c0.4,1,0.2,2.1-0.8,2.8c-0.8,0.6-1.7,0.7-2.5,0.1
				c-0.9-0.7-1.7-1.6-1.3-2.8c0.1-0.4,0.5-0.8,0.7-1.2C-7.5,332.3-7.5,332.2-7.5,332.1z"/>
			<path class="st59" d="M-7.6,362.5c-0.2-0.2-0.3-0.3-0.5-0.5c-0.3-1-0.5-1.9,0.6-2.5c0.7-0.3,1.4-0.3,2,0.2c0.7,0.5,0.7,1.3,0.4,2
				C-5.4,362.9-6.5,362.8-7.6,362.5z"/>
			<path class="st60" d="M-7.6,362.5c0.5,0,1,0,1.4-0.1c0.8-0.2,1.1-0.8,1-1.6c-0.1-0.6-0.5-1-1.1-1.1c-0.8-0.1-1.4,0.1-1.7,0.9
				c0,0.4,0,0.9-0.1,1.4c-0.7-0.9-0.7-1.8,0.1-2.6c0.7-0.6,1.7-0.5,2.5-0.2c1,0.4,0.9,1.4,0.8,2.3c0,0.5-0.3,0.9-0.5,1.3l0,0
				C-6,362.8-6.9,363.2-7.6,362.5z"/>
			<path class="st61" d="M25.3,338.1c-0.1,0.9-0.7,1.2-1.5,1.2c-0.6,0-1.2-0.3-1.1-1c0.1-0.8,0.6-1.3,1.4-1.3
				C24.8,336.9,25.2,337.4,25.3,338.1z"/>
			<path class="st62" d="M-4.7,334.3c0,1-0.5,1.5-1.5,1.5c-0.7,0-1.3-0.3-1.3-1.1c-0.1-0.9,0.5-1.5,1.4-1.7
				C-5.2,332.9-4.8,333.5-4.7,334.3z"/>
		</g>
	</g>
	<g id="Layer_3">
		<g class="st1">
			<path class="st63" d="M11.7,315c3.4,0.5,5.3,2.8,6.7,5.6c2.6,5.1,7.1,8.9,10,13.9c4.4,7.7,5.4,15.6,1.1,23.7
				c-0.7,1.3-1.8,2.2-2.8,3.2c-1.5-0.6-0.3-1.8-0.6-2.7c0-0.5,0.1-1.1,0.1-1.6c0-0.3,0.1-0.5,0.2-0.8c0.2-0.6,0.3-1.2,0.7-1.7
				c4.1-6.4,2.8-12.6-0.6-18.7c-2.8-4.4-6.4-8.2-9.3-12.5c-0.8-1.3-1.6-2.6-2.5-3.8c-0.7-1.1-1.4-2.1-2.6-2.6
				c-1-0.4-2.1-0.1-3.1-0.3c-0.8-0.1-1.8,0.1-2.1-1.1c0.8-0.4,2.1-0.4,2.7-0.6C10.3,315,11,315,11.7,315z"/>
			<path class="st64" d="M-14.1,379.3c-0.7-0.5-1.2-6.1-0.7-8.9c0.7-3.6,6.3-8.5,10.5-8.9c0.1,0.1-3.4,2.3-3.3,2.4
				c0,0.6-0.3,1.1-0.7,1.3c-2.6,1.6-3.8,4.1-4.9,6.7c-0.6,1.7-0.3,3.5-0.2,5.2C-13.3,377.9-12.8,378.9-14.1,379.3z"/>
			<path class="st65" d="M6.9,315.7c1.7,1.1,4-0.4,5.9,1c-0.5,0.6-1.3,0.6-2,0.7c-2.2-0.1-4.3-0.2-5.2,2.4
				c-0.3,11.9,0,23.7-0.2,35.6c0,1.9,0.5,4-0.5,5.8c-0.3,0.3-0.6,0.3-0.9,0.1c-0.7-1.1-0.1-2.3-0.1-3.4c0-12.3,0-24.6,0-36.9
				c0-0.4,0-0.7-0.2-1.1C3.8,317.7,4.8,316.3,6.9,315.7z"/>
			<path class="st66" d="M3.7,319.9c0.6,0.7,0.4,1.5,0.4,2.3c0,13.1,0,26.1,0,39.2c-0.2,0.3-0.5,0.4-0.8,0.6c-1.6,0-3.5,1.1-4.6-1
				c4.8,0.5,5-0.4,4.8-5.9c-0.3-10.8,0-21.6,0-32.5C3.6,321.7,3.7,320.8,3.7,319.9z"/>
			<path class="st67" d="M-1.2,361c1.7,0,3.2,0.2,4.8,0.5c-0.3,1.5-1.6,1.1-2.5,1.2c-1.3,0.1-2.6-0.2-3.9,0.4
				c-1.2,0.6-2.4,1.1-3.8,1.1c-0.5-0.1-0.8-0.2-1.2-0.6l-0.1-0.1C-6,361.7-3.7,361.1-1.2,361z"/>
			<path class="st68" d="M16,344.7c-1.3-0.1-2.1,0.2-2.1,1.9c0.1,5,0.5,9.3,0.3,14.7c-0.2,7.3,2.1,9.4,0.3,14.1
				c-1.3,3.4-3.6,5.6-6.3,7.7c-1.3,0.4-1.2-0.4-0.8-1.1c0.6-1.2,1.7-2.1,2.7-3c2.1-2,2.3-5.1,2.3-7.1c-0.1-4.7,0-9.5-1.4-14.1
				c-0.2-4.9,0-9.8,0-14.7c0-2.5,0.7-2.9,3.4-2.7c1.2,0.4,2.1,1.3,2.7,2.5C17.4,344.8,17.4,344.8,16,344.7z"/>
			<path class="st69" d="M11.7,344c0.7,0.6,1,15.7,1,16.4c-0.1,3.7,0.3,9.9,0.2,13c-0.2,4.4-0.7,5-3.7,7.7c-1.1,1-1,1-0.8,2
				c-1.3,0.8-2.5,1.6-4.1,1.7c-0.9,0.4-1.4,0.1-1.4-0.9c1.6-1.9,4.1-2.5,5.6-4.4c1.8-1.6,2.6-3.4,2.5-5.9c-0.1-4.1-0.1-8.2,0-12.4
				C11,360.2,10.7,344.8,11.7,344z"/>
			<path class="st70" d="M3.1,383.6c0,0.8,0.5,1,1.2,1.1c-6.4,3.2-15.8,0.4-18.4-5.5c0.5-1.9-0.5-3.7-0.1-5.6
				c0.2-0.8-0.3-1.8,0.6-2.4c0.8,0.8,0.6,1.8,0.7,2.8c0.2,5.2,4.2,9.1,9.4,9.5C-1.3,383.6,0.9,382.9,3.1,383.6z"/>
			<path class="st71" d="M16,344.7c1.3-0.1,0.4-1.1,0.6-1.6c1.5-0.3,2.2,0.8,2.8,1.8c1.7,2.7,3.3,5.3,4.2,8.4
				c0.1,1.2,0.5,2.5,0.5,3.7c0,2.1,1,1.5,2.6,1.1c0.4,0.9-0.8,2.5,0,3.4c-1.4,1.1-2.7,1.3-2.7,1.3c-1.4-0.3-1.4-1.6-1.5-2.6
				c-0.3-4.7-1.9-8.9-4.3-12.8C17.7,346.3,16.9,345.5,16,344.7z"/>
			<path class="st72" d="M26.8,335.6c3.7,5.7,5.3,11.6,1.6,18c-0.6,1-1,2-1.6,3.1c-0.9-0.9-0.7-2-0.7-3.1c0-0.6,0.1-1.2,0.2-1.8
				c1.3-3.9,1.2-7.8,0.2-11.7c-0.3-1.1-0.5-2.1-0.4-3.2C26.3,336.3,26.4,335.9,26.8,335.6z"/>
			<path class="st73" d="M26.8,353.4c0,1.1,0,2.2,0,3.2c0,0.2,0,0.4,0,0.6c-1.2,1.6-2.2,1.2-2.9-0.5c-0.4-1.1-0.5-2.2-0.9-3.3
				c-1.8-3.6-3.9-8-6.1-10.4c-0.6-0.7-1-1.4-2.1-2c0.1-0.1,0.2-0.2,0.3-0.3c1.2-0.5,2.1,0.2,2.8,1c1.8,2.1,3.8,4,5,6.6
				C23.8,350.3,25,352.1,26.8,353.4z"/>
			<path class="st74" d="M26.1,334.6c0,0.4,1,0.8,1.9,3.2c-1.1,0.2-2.5-1.8-3-2.4c-1.2-1.7-2.4-3.3-3.9-4.8c-0.9-0.9-1.5-2-2.3-3
				c-1.3-1.9-3.2-3.3-4-5.5c-0.3-0.9-0.7-1.8,0.1-2.7c2.5,3.3,5,6.6,7.4,10C23.8,331.5,24.4,332.2,26.1,334.6z"/>
			<path class="st75" d="M15,319.3c0.2,0.9,0.3,1.8,0.5,2.7c-2.4-0.3-3.3-2.4-4.7-3.9c-0.2-0.5-0.4-0.9-0.1-1.4c0.7,0,1.4,0,2.2,0
				C13.8,317.3,13.7,317.8,15,319.3z"/>
			<path class="st76" d="M22.9,353.1c0.7,0.6,1,1.9,1.2,2.7c0.3,1.9,1.5,3.2,4-1.6c0,0.5-0.4,2.9-1.5,4.2c-0.9,0.8-1.7,1.5-2.9,1.9
				c0,0,0-1.7-0.1-2.7C23.5,356.2,23.1,354.7,22.9,353.1z"/>
			<path class="st77" d="M3.1,383.6c-5.2,1-10.2,1.2-14.3-3.2c-2.6-2.8-2.5-5.9-2.4-9.2c1-3.3,2.9-4.8,5.3-7c1.6-1.1,4.6-1.7,5-1.6
				c0.6,1.4-3.7,3-4.5,3.7c-1,0.9-2.1,1.6-2.5,3c-1.9,3.6-1.7,7,1.1,10.1c2.8,3.7,9.5,4.8,15.1,1.1c0.8-0.6,3.5-5.8,4.7-5.4
				c0,2.7-1.7,4.9-2.1,5.2C6.9,381.9,5.2,383.1,3.1,383.6z"/>
			<path class="st78" d="M10.7,316.7c0.2,0.4,0.4,0.7,0.5,1.1c-0.2,0.2-0.5,0.4-0.8,0.5c-3.2,0.6-3.3,0.7-3.3,4
				c-0.1,6.6,0,13.2,0,19.9c0.1,5.5,0.1,10.9,0,16.4c0,1.4,0.1,3-1.7,3.5c-0.3-0.2-0.5-0.5-0.5-0.9c0-13.2,0-26.3,0-39.5
				c0-1-0.2-2,0.2-2.9C6.4,316.4,8.5,316.5,10.7,316.7z"/>
			<path class="st79" d="M5.2,318.8c0,14.2,0,28.4,0,42.6c-0.1,0.1-0.2,0.1-0.3,0.2c-0.1-0.1-0.2-0.1-0.3-0.2c0-13.2,0-26.4,0-39.5
				C4.7,320.9,4.3,319.7,5.2,318.8z"/>
			<path class="st79" d="M-3.4,362.6c1.2-1.1,2.7-0.4,4-0.6c1-0.2,2.1,0.4,3-0.5c0.2,0,0.4-0.1,0.5-0.1c0.2,0,0.4,0,0.5,0l0,0
				c0,1.9,0.7,2.7-2.7,1.8c-0.5,0-0.9,0-1.4,0C-0.7,363.2-2.1,363.6-3.4,362.6z"/>
			<path class="st80" d="M-3.4,362.6c2.1-0.5,4.4-0.5,5.5-0.1c0.4,0.5-0.7,1.1-1,1.7c-1.1,1.2-2.6,1.1-4.1,1.2
				c-2.3,0-3.9,1.4-5.7,2.6c-0.7,0.5-1.2,1.4-2.3,1c0.2-1.6,1.5-2.3,2.6-3.1c0.8-0.6,1.6-1,1.8-2.1C-5.5,363.5-4.3,363.3-3.4,362.6z
				"/>
			<path class="st81" d="M8.4,380.3c0-0.4,1.6-2.2,1.6-2.6c0.2-6.9-0.6-13.2-0.2-20.6c0.2-4.7,0-9.5,0.1-14.2c0-1.2-0.1-2.5,0.8-3.6
				c2-1.1,3.5-0.7,4.3,1.6h-0.2c-2.7-0.8-3.3,0.4-3.2,3c0.2,4.7,0.1,9.5,0.1,14.2c0,5.3-0.1,10.6,0,15.9
				C11.8,376.9,10.7,378.9,8.4,380.3z"/>
			<path class="st82" d="M15,340.9c-1.1-1-2.2-1.9-3.8-1.6c-0.2-0.2-0.2-0.5-0.2-0.8c0.4-0.8,1-0.8,1.8-0.7c3.1,1.2,6,2.6,8.3,5.2
				c1.4,1.5,3.1,3.2,5.5,1.6c0.3-0.2,0.5,0.4,0.7,0.7c0.1,2.1,0.2,4.3-0.5,6.4c0,0.5,0,1.1,0,1.6c-2.6,0.1-3.2-2.1-4-3.8
				c-1.2-2.7-3.3-4.7-5-7C17.2,341.7,16.4,340.8,15,340.9z"/>
			<path class="st83" d="M26.8,353.4c0-2.3,0-6.3,0-8.6c-1.2-2.5-1.1-5.4-2.5-7.8c-0.7-1.6-1.5-3.2-2.5-4.7c-0.4-0.6-1-1.3-0.4-2.1
				c2.4,1.6,3.5,4.4,5.4,6.5c0.4,3.7,1.5,7.3,1.1,11.1C27.8,349.2,27.8,352.2,26.8,353.4z"/>
			<path class="st84" d="M21.5,330.1c0.8,2.3,2.9,4,3.2,6.5c0.5,1,0.6,2.1,0.7,3.2c-2.2,0.8-2.9-0.7-3.6-2.4
				c0.9-3.1-1.7-4.9-2.9-7.2c-0.7-1.3-1.8-2.2-2.8-3.2c-0.6-0.7-6-4.1-5.5-5.3c2.4-0.5,7.4,4.5,8.7,5.7
				C20.4,328,20.7,329.3,21.5,330.1z"/>
			<path class="st85" d="M19.3,327.4c-1.5-0.8-2.4-2.6-4.3-2.7c-2.6-0.3-3.4-2.6-4.7-4.3c-0.2-0.5-0.3-1-0.2-1.6
				c0.1-0.4,0.3-0.8,0.6-1.1c0.2,0,0.3,0,0.5,0c1.3,1.6,2.7,3.1,4.3,4.3C16.3,324.1,18.6,325.2,19.3,327.4z"/>
			<path class="st86" d="M11.2,338.8c0,0.2,0,0.4,0,0.5c-0.7,1.1-0.6,2.2-0.6,3.4c0,10.3,0.2,20.5,0,30.8c-0.1,4.7-0.6,4.2-2.2,5.8
				c-3.9,3.5-8.3,5.3-13.6,3.8c-1.9-0.6-3.6-1.5-4.8-3.2c0.4-0.4,1-0.6,1.6-0.5c2.2,0.7,4.3,1.5,6.7,1.5c7.2-0.2,9-6.7,8.6-11.8
				c-0.1-1.2-1.1-1.8-2.3-1.9c-1.4-0.2-2.5-0.8-3.5-1.8c-0.3-0.3-0.5-0.7-0.4-1.1c0-0.5,0-1.1,0-1.6c0.4,0,0.7,0,1.1,0
				c1.5,2.8,2.6,0.6,3.7-0.4c2.2-2,3.3-4.3,3.1-7.3c-0.2-4.5-0.1-9.1,0-13.7c0-0.6,0.1-1.2,0.4-1.8C9.7,338.7,10.3,338.2,11.2,338.8
				z"/>
			<path class="st87" d="M-8.2,379.8c-0.5,0-1.1,0-1.6,0c-2.9-3.3-3.1-7-1.1-10.8c2.3-1.8,4.5-3.9,7.6-4.3c0.2,1.1-0.6,1.7-1.4,2
				c-4.5,2.1-5.1,5.7-4,10C-8.7,377.8-7.8,378.7-8.2,379.8z"/>
			<path class="st88" d="M9.5,340.9c0,5.1-0.1,10.2,0.1,15.3c0.1,3.4-1.7,5-4.3,6.3c-0.1-0.1-0.2-0.2-0.1-0.4c0-0.1,0.1-0.2,0.1-0.2
				c1.2-0.6,1-1.8,1-2.8c0-5.7,0-11.4,0-17.2C7.6,342.3,8.3,340.8,9.5,340.9z"/>
			<path class="st89" d="M9.5,340.9c-1.2,0.1-1.2,3.5-3.2,1.1c0-6.7,0-13.4,0-20.1c0-4,0.3-4.2,4.3-4.1c0,0.4,0,0.7,0,1.1
				c-2.1,1.4-2.6,3.4-2.5,5.9c0.1,3.1,0,6.1,0,9.2c0,1.4,0.2,2.7,1.1,3.8c0.3,0.5,0.6,1,0.4,1.7C9.6,339.9,9.6,340.4,9.5,340.9z"/>
			<path class="st90" d="M5.3,362c0,0.2,0,0.4,0,0.5c-0.1,1,0.2,2.5-1.2,2.6c-1.6,0.1-2-1.1-2.1-2.5c1-0.1,2.9,2.2,2.7-1.1
				c0.2,0,0.4,0,0.5,0C5.3,361.6,5.3,361.8,5.3,362z"/>
			<path class="st91" d="M-9.3,377.1c-1.3-4.5-0.9-8.9,3.7-10.6c0.8-0.3,1.8-0.8,2.2-1.8c1.5,0.1,2.9-0.1,4.3-0.5
				c0.2,0.2,0.4,0.4,0.5,0.5c0.2,0.3,0.4,0.6,0.5,0.9c2.4,3.8,2.2,4.8-1.7,7.3c-1.3,0.8-2,2-2.7,3.3C-4.2,379.7-6.6,380-9.3,377.1z"
				/>
			<path class="st92" d="M9.6,339.3c-0.2-0.4-0.4-0.7-0.5-1.1c0-0.6,0-1.3,0.5-1.8c2.1-0.5,4.2-1,5.9-2.7c1.2-1.3,2.6-0.4,3.9,0.3
				c1,0.9,2.3,1.7,2.7,3.1c0.8,1.2,1.5,2.6,3.2,2.7c-0.2,2.1-0.7,2.5-2.9,1.8c-3.2-1.1-6.3-2.3-9.6-3.4c-0.6,0-1.2-0.1-1.6,0.5
				C10.6,339,10.1,339.2,9.6,339.3z"/>
			<path class="st93" d="M12.8,338.3c3.4,0.2,6.6,1.5,9.7,2.7c1.4,0.5,2.4,0.8,2.7-1.1c-0.6-1-0.6-2.1-0.5-3.2
				c1.7,2.4,2.3,5.2,2.2,8.1c-1.3,2-2.6,2-4.3,0.4C19.6,342.4,16.6,339.7,12.8,338.3z"/>
			<path class="st94" d="M19.3,334.5c-1.7-0.7-3.1-1-4.6,0.8c-1.1,1.3-3.1,2-5.1,1.4c-0.5-0.2-1-0.6-1-1.1c-0.4-4.8-1-9.6,1.2-14.1
				c0.2-0.4,0.5-0.7,0.9-0.9c1.6,1.3,2.4,3.3,4.3,4.3c1.1,2.1,3.7,2.9,4.3,5.4c-0.7,0.4-1.3-0.4-2.1-0.2
				C17,331.8,19.6,332.5,19.3,334.5z"/>
			<path class="st95" d="M19.3,334.5c-0.8-1.1-1.6-2.1-2.4-3.2c-0.5-0.6-1.2-1.3-0.5-2.1c0.9-1,1.6,0.1,2.3,0.5
				c0.2,0.1,0.5,0.3,0.7,0.4c1.3,1.4,2.4,3.1,3.3,4.9c0.4,1,0.5,1.7-0.6,2.2C20.9,336.5,20,335.6,19.3,334.5z"/>
			<path class="st96" d="M10.6,320.4c-2,4.5-1.6,9.2-1.6,13.9c0,0.8,0.2,1.6,0.6,2.3c0,0.6,0.1,1.2-0.5,1.6
				c-1.2-0.7-1.6-1.9-1.6-3.2c0-4.3,0-8.6,0-12.8c0-2.1,1.1-3.3,3.2-3.4C10.6,319.4,10.6,319.9,10.6,320.4z"/>
			<path class="st97" d="M-9.3,377.1c4.2,2.1,4.8,1.9,6.8-2.3c0.5-1.1,1.3-1.9,2.3-2.5c3.5-1.8,3.6-2.3,2-5.8
				c-0.2-0.5-0.3-1.2-0.4-1.8c1.2,0.8,2.1,1.7,3.8,1.7c2,0,2.7,1.4,2.7,3.3c0.2,10.5-8,14.5-16.2,10.1C-8.6,378.9-9,378-9.3,377.1z"
				/>
		</g>
	</g>
	<g id="Layer_4">
		<g class="st1">
			<path class="st98" d="M-22.4,376c3.6-1.3,7.3-3,10.9-4.3c2.6-0.9,4.5-1,4.4-4.1c0-2.5-0.4,2.9-0.3-1.7
				c-0.1-2.3-0.1-11.1-0.2-12.9c0-0.2-0.5-27.3-0.5-27.3c38.2-8.6,2.4,7.9,3.5,8.4c0.3,7,0.4,32-0.3,38.9c-5.7,2.8-11.2,6-17.7,6.6
				c-0.5,0-0.9-0.2-1.3-0.6C-23.9,378.3-23,376.4-22.4,376z"/>
			<path class="st99" d="M-23.9,379.1c0.3,0,0.7,0,1,0c3.2,0.9,6.4,0.3,9.6-0.1c2.2-0.3,4.1-0.8,5.3-2.9c0.6-1.1,2.9-1.5,3.4-7.4
				c0.2,11.6-2.6,13.3-6.4,15.1C-15.4,385.9-23.9,386-23.9,379.1z"/>
			<path class="st100" d="M-4.8,352.1c-1.7,0.6-1.2,4.3-2.2,6.3c-0.5-9.8-1-29.2-1-29.2s6.4-2.2,9-2.9c8.2-2,16.3-4.2,24.5-6
				c2.3-0.5,4.6-0.8,6.6,0.9c0,1,0,2,0,2.9c0.9,6.8,0.2,13.7,0.4,20.5c-0.9,4.3-0.3,8.6-0.5,12.9c-0.1,2.1,0.3,4.5-2.8,4.9
				c-0.8-0.8-0.7-1.6-0.3-2.5c1.1-1.2,1.4-2.5,1.3-4.1c-0.3-7.8-0.6-15.6-0.8-23.4c0-1.6-0.4-4.1-2.2-3.4c-0.4-0.3-0.6-0.7-0.6-1.1
				c-0.2-1.6-1.4-1.8-2.6-1.6c-8.8,1.5-17.5,3.4-25.8,6.7c-0.6,0.2-0.8,1-1.2,1.6c-1.7,1.6-1.8,3.1-1.8,3.1
				C-4.9,341.6-4.6,348.1-4.8,352.1z"/>
			<path class="st101" d="M32.2,366.3c-1.2,7.2-7.9,11.8-14.9,9.9c-3.1-0.8-4.6-2.8-3.3-6.2c6.7,0.8,11.8-4.4,18.1-5.1
				C32.6,365.4,32.4,365.6,32.2,366.3z"/>
			<path class="st102" d="M31.9,365.2c-5.7,2.4-10.6,8-17.8,4.8c0.1-0.3,0.3-0.6,0.4-0.9c4.6-2.9,9.8-4.6,14.7-7
				c2.5-1.2,1.9-3.5,2.1-5.5c0.4-3.8-1.2-7.8,0.9-11.4C32.7,351.8,33.3,358.5,31.9,365.2z"/>
			<path class="st103" d="M-5,374.1c-2.7,1.3-3.5,7.2-7.4,7.5c-3.9,0.4-6.7,1.2-10.5-2.5c6.3-1.1,11.5-5.5,18-6
				C-4.9,373.4-4.9,373.8-5,374.1z"/>
			<path class="st104" d="M29.1,362.1c-3.8,4.6-9.4,5.6-14.7,7c2.1-3.9,5.9-5.6,9.6-7.4c1.6-0.8,3.3-1.3,4.9-2
				C29,360.6,29.1,361.3,29.1,362.1z"/>
			<path class="st105" d="M31.9,365.2c0.1-6.7,0.2-13.4,0.3-20.1c0-7-0.1-21.6,0-28.7c0.1-0.4,0.6-0.6,0.8-0.4
				c0.1,12.7,0.1,33.5,0.2,46.1c-0.4,1.4-0.7,2.8-1.1,4.1C32.1,365.9,32,365.6,31.9,365.2z"/>
			<path class="st106" d="M27.2,328.1c2-0.4,2.3,0.7,2.3,3c1.3-3.3-20.2,1.8-20.4,1.9c-0.3-0.5-0.3-1.1,0-1.6
				C14.7,328,20.6,326,27.2,328.1z"/>
			<path class="st107" d="M10.8,330.6c0,0.3-1.5,2.1-1.5,2.4c0,0-5.9,1.3-8.9,2c-3.1,0.7-5.3,1-5,5.7c-1.5-2.1-0.2-4.6,0.8-6.6
				C0.3,331.6,5.9,328.1,10.8,330.6z"/>
			<path class="st108" d="M32.2,321.1c-6.9,1-13.8,2.3-20.3,3.9c-6.4,1.6-13.4,2.8-19.9,4.1c0-1.5,0-3.3,0-3.3
				c0.6-0.5,0.7-0.2,4.2-1.5c8.2-3.2,19.9-5.7,30.1-7.4c1.4-0.2,6.6-1.4,6.6-1.4C33.1,316.6,32.6,318.7,32.2,321.1z"/>
			<path class="st109" d="M-7,365.9c0.6,4.4-1.5,6.5-5.7,7.6c-3.1,0.8-6.3,2.7-9.7,2.5c1.2-1.5,5.3-6.5,12.4-6.8
				C-7.7,369.2-7.2,367.1-7,365.9z"/>
			<path class="st110" d="M9.1,331.1c-6.3,0.9-14.5,3.4-14.3,6.7c0.1-1.5-0.5-5.7,3.5-6.6c8.7-1.8,26.2-6.1,26.2-6.1
				c2.8-0.1,3.3,1.1,4,1.7c0.6,0.5,1.3,3.2,1,3.4C30,326.2,16.5,329,9.1,331.1z"/>
		</g>
	</g>
	<g id="Layer_5" class="st1">
		<g>
			<path class="st111" d="M-10.2,381.8c0-18.6,0-37.2,0-55.8c0.3,0,0.5,0,0.8,0c0,9.3,0.1,18.6,0.1,27.9c0,6,0,12,0,18.1
				c0,2.6,31.3,5.3,34.4,10.2c0,0,0,1.9,0,2.1c0,3.1-1.4,3.2-1.6,3.2H-8C-9,387.3-10.3,388.3-10.2,381.8z"/>
			<path class="st112" d="M25.1,328.5c0,18.1,0,36.1,0,54.2c-0.2,0.2-0.4,0.3-0.7,0.2c-0.1-8.3-0.1-16.6-0.2-24.9c0-1.3,0-2.7,0-4
				c0-8.5,0.1-17,0.1-25.5C24.6,328.5,24.9,328.5,25.1,328.5z"/>
			<path class="st113" d="M25.1,328.5c-0.3,0-0.5,0-0.8,0c0-0.8,0-1.6-0.1-2.4c0-2.5,0-4.9,0-7.4c0.3,0,0.5,0,0.8,0
				C25.1,321.9,25.1,325.2,25.1,328.5z"/>
			<path class="st114" d="M21,314.5c1.5,0.5,4.7-1.7,4.1,2.5c-0.3,0-0.6,0-0.8,0h-0.1c-0.2-0.3-0.5-0.6-0.7-0.9
				c-0.8-0.3-1.7-0.6-2.5-0.9C21,315,21,314.8,21,314.5z"/>
			<path class="st115" d="M-10.2,320.3c0,0,1.4-3.8,2.9-4c4.6-0.5,28.2-1.7,28.4-1.7c0,0,1.4,0,2.7,0.3c1.3,0.3,1.3,2.1,1.3,2.1
				s-34.5,7.2-34.5,9c-0.3,0-0.5,0-0.8,0C-10.2,324.1-10.2,322.2-10.2,320.3z"/>
			<path class="st116" d="M21,314.6c0,0.2,0,0.5,0,0.7v0.2c-1.1,0-2.2,0.1-3.3,0.1v-0.1c0-0.3,0-0.5,0-0.8
				C18.8,314.7,19.9,314.6,21,314.6z"/>
			<path class="st117" d="M20.3,387c0,0.2,0,0.4-0.1,0.6c-1.1,0-2.2,0-3.3,0c0-0.2,0-0.4,0-0.7C18,386.9,19.2,387,20.3,387z"/>
			<path class="st118" d="M12.8,387.6c0-0.2,0-0.4,0-0.7c0.8,0,1.6,0,2.5,0c0,0.2,0,0.4,0,0.7C14.5,387.6,13.6,387.6,12.8,387.6z"/>
			<path class="st119" d="M12.8,315.1c0.6-0.1,1.1-0.1,1.7-0.1c0,0.2,0,0.5,0,0.7c-0.5,0-1.1,0.1-1.6,0.1
				C12.8,315.5,12.8,315.3,12.8,315.1z"/>
			<path class="st120" d="M14.5,315.7c0-0.2,0-0.5,0-0.7c0.5,0,1.1-0.1,1.6-0.1c0,0.2,0,0.5,0,0.7C15.6,315.6,15,315.7,14.5,315.7z"
				/>
			<path class="st121" d="M16.1,315.6c0-0.2,0-0.5,0-0.7c0.5,0,1.1-0.1,1.6-0.1c0,0.3,0,0.5,0,0.8C17.2,315.6,16.7,315.6,16.1,315.6
				z"/>
			<path class="st122" d="M24.3,317c0.3,0,0.6,0,0.8,0c0,0.5,0,1.1,0,1.6c-0.3,0-0.5,0-0.8,0C24.3,318.1,24.3,317.6,24.3,317z"/>
			<path class="st123" d="M12.8,315.1c0,0.2,0,0.5,0,0.7c-0.5,0-1.1,0.1-1.6,0.1c0-0.2,0-0.5,0-0.7
				C11.7,315.1,12.3,315.1,12.8,315.1z"/>
			<path class="st124" d="M15.3,387.6c0-0.2,0-0.4,0-0.7c0.5,0,1.1,0,1.6,0c0,0.2,0,0.4,0,0.7C16.4,387.6,15.8,387.6,15.3,387.6z"/>
			<path class="st125" d="M-9.3,382.7c0.1-0.3,0-0.5-0.1-0.8c0.1-3.3,0.1-6.6,0.2-9.8c0.2,0,0.4-0.1,0.7-0.1
				c0.3,1.1,0.5,2.2,0.8,3.3c0,0.3,0.1,0.5,0.1,0.8c0.5,0.3,1.1,0.5,1.6,0.8c1.9,0,3.8,0.1,5.7,0.1c-1.6,0.5-3.4,0.8-4.8,1.7
				c-0.8,0.6-1,2.2-1.5,3.3c1.3,0.2,2.5,0.5,3.8,0.7c3.6,0,7.1,0,10.7,0c2.5,0.3,4.9,0.5,7.4,0.8c0.8,0,1.6,0,2.5,0
				c0,0.3,4.6-1.5,6.7-1v2.4c0,2-1.2,2.1-1.9,2.1c-0.5,0-27.2-0.3-27.2-0.3h-3.3C-8.7,386.3-9.4,386.3-9.3,382.7z"/>
			<path class="st126" d="M-9.3,326c0-1.9,0-3.9,0-5.8c0-0.2,0.1-0.5,0.2-0.7h0.3h0.3c0,0.3,0,0.5,0.1,0.8c0,0.3,0,0.5,0,0.8
				c0,0.6,0,1.1,0,1.7c0,0.5,0,1.1,0,1.6c0.3,0.6,0.5,1.1,0.8,1.7c0,5.5,0,11,0,16.4l0,0c-0.3,1.5-0.6,3-0.8,4.5
				c-0.3,2.3-0.5,4.6-0.8,7C-9.3,344.6-9.3,335.3-9.3,326z"/>
			<path class="st112" d="M-9.3,354c0.3-2.3,0.5-4.7,0.8-7c0.2-1.5,0.6-3,0.8-4.5c0,5.4-0.1,10.9-0.1,16.3
				c-0.3,4.4-0.5,8.8-0.8,13.2c-0.2,0-0.4,0-0.7,0.1C-9.2,366-9.3,360-9.3,354z"/>
			<path class="st127" d="M24.4,382.9c-1.2,1.3-2.3,2.5-3.5,3.8c-0.8-0.5-1.6-1-2.4-1.5c1.1-0.3,2.2-0.5,3.3-0.8
				c0.3-0.4,0.9-0.9,0.9-1.3c0.1-5.4,0.1-10.8,0.2-16.1c0.1-3.2,0.3-6.5,0.4-9.7c0.3,0.3,0.5,0.5,0.8,0.8
				C24.3,366.3,24.4,374.6,24.4,382.9z"/>
			<path class="st127" d="M24.3,326c0,0.8,0,1.6,0.1,2.4c0,8.5-0.1,17-0.1,25.5c-0.3,0-0.5,0-0.8,0c0-8.2,0-16.5-0.1-24.7
				c0-1.1,0.1-2.2,0.1-3.2h0.4H24.3z"/>
			<path class="st128" d="M23.5,353.9c0.3,0,0.5,0,0.8,0c0,1.3,0,2.7,0,4c-0.3-0.3-0.5-0.5-0.8-0.8C23.5,356.1,23.5,355,23.5,353.9z
				"/>
			<path class="st129" d="M-6.1,317c0.2-0.1,0.5-0.1,0.7-0.1c1.4-0.2,2.8-0.4,4.2-0.6c1.9-0.1,3.7-0.1,5.6-0.2
				c1.4-0.2,2.8-0.4,4.2-0.6c0.6,0,1.2,0,1.7,0c1.1,0.2,2.2,0.5,3.2,0.7c0,0.3,0,0.5,0,0.8c-2.1,0-4.3,0-6.4,0
				c-1.4,0-2.7,0.2-4.1,0.2c-0.8,0.3-1.6,0.3-2.5,0.5c-0.3,0-0.5,0-0.8,0c-1.1,0-2.2,0-3.3,0c-0.8,0-1.6,0-2.5,0
				C-6.1,317.5-6.1,317.3-6.1,317z"/>
			<path class="st130" d="M13.7,316.2c-1.1-0.2-2.2-0.5-3.2-0.7c0.3-0.1,0.5-0.2,0.8-0.2c0.5,0,1.1,0,1.6,0s1.1,0,1.6,0s1.1,0,1.6,0
				c0.6,0,1.1,0,1.7,0v0.1c0,0.3,0,0.5,0,0.8C16.4,316.2,15,316.2,13.7,316.2z"/>
			<path class="st131" d="M8.7,315.5c-1.4,0.2-2.8,0.4-4.2,0.6C5.8,315.9,7.3,315.7,8.7,315.5z"/>
			<path class="st132" d="M-1.2,316.3c-1.4,0.2-2.8,0.4-4.2,0.6C-4,316.7-2.6,316.5-1.2,316.3z"/>
			<path class="st132" d="M-6.1,317c0,0.3,0,0.5,0,0.8c0,0.3,0,0.5,0,0.8c-0.3,0-0.5,0.1-0.8,0.1s-0.6,0-0.8,0c0-0.3,0-0.6-0.1-0.9
				l0,0c0.3-0.2,0.6-0.5,0.9-0.7C-6.6,317-6.3,317-6.1,317z"/>
			<path class="st115" d="M-7.7,317.8c0,0.3,0,0.6,0.1,0.9c-0.3,0.5-0.5,1.1-0.8,1.6c0-0.3-0.1-0.5-0.1-0.8s0-0.6,0-0.9
				C-8.3,318.3-8,318-7.7,317.8z"/>
			<path class="st115" d="M-6.9,317.1c-0.3,0.2-0.6,0.5-0.9,0.7C-7.5,317.6-7.2,317.3-6.9,317.1z"/>
			<path class="st115" d="M-8.5,318.6c0,0.3,0,0.6,0,0.9h-0.3h-0.3C-9,319.2-8.7,318.9-8.5,318.6z"/>
			<path class="st133" d="M18.6,385.1c0.8,0.5,1.6,1,2.4,1.5c-0.2,0.1-0.4,0.3-0.7,0.3c-1.1,0-2.3,0-3.4,0c-0.5,0-1.1,0-1.6,0
				c-0.8,0-1.6,0-2.5,0c-0.8-0.1-1.7-0.2-2.5-0.3c-2-0.2-4-0.4-5.9-0.6c-2.1,0-4.2,0-6.4,0.1l0.1-0.3c-0.3-0.2-0.6-0.5-0.9-0.7
				c-0.3,0-0.5,0-0.8,0c0-0.3,0-0.5,0-0.8c0.3,0,0.6,0,0.8,0c1.1,0,2.2,0,3.3,0c2.7,0.3,5.5,0.5,8.2,0.8c0.8,0,1.6,0,2.5,0
				c0.8,0,1.6,0,2.5,0c0.5,0,1.1,0,1.6,0l0,0c0.3,0,0.6,0,0.8,0c0.5,0,1.1,0,1.6,0C18,385.1,18.3,385.1,18.6,385.1z"/>
			<path class="st134" d="M4.9,386.6c-0.2-0.2-0.3-0.4-0.5-0.6c2,0.2,4,0.4,5.9,0.6C8.5,386.6,6.7,386.6,4.9,386.6z"/>
			<path class="st135" d="M-3.6,385.1c0.3,0,0.5,0,0.8,0c0,0.2,0,0.5,0,0.7c-1,0-2.1,0-3.1,0.1c-0.1-0.2-0.2-0.4-0.2-0.6
				c0.6-0.3,1.2-0.7,1.7-1C-4.1,384.6-3.9,384.8-3.6,385.1z"/>
			<path class="st134" d="M-2.8,385.8c0-0.2,0-0.5,0-0.7c0.3,0.2,0.6,0.5,0.9,0.7C-2.2,385.8-2.5,385.8-2.8,385.8z"/>
			<path class="st136" d="M24.3,326h-0.4h-0.4c0-1.1-0.1-2.1-0.1-3.2c0.3-1.9,0.6-3.8,0.8-5.7h0.1c0,0.5,0,1.1,0.1,1.6
				C24.3,321.1,24.3,323.6,24.3,326z"/>
			<path class="st137" d="M24.2,317.1c-0.2,1.9-0.5,3.8-0.8,5.7c-0.2-0.1-0.4-0.1-0.7-0.2c0-1.9-0.1-3.7-0.1-5.6
				c0.3-0.3,0.6-0.6,0.9-0.9C23.8,316.5,24,316.8,24.2,317.1z"/>
			<path class="st138" d="M23.5,316.1c-0.3,0.3-0.6,0.6-0.9,0.9c0-0.3-0.1-1-1.6-0.9c0-0.2,0-0.5,0-0.7v-0.2
				C21.9,315.2,23.1,315.5,23.5,316.1z"/>
			<path class="st129" d="M21,315.2c0,0.2,0,0.7,0,0.9c-0.3,0-0.6,0.1-0.9,0.1c-0.5,0-1,0-1.5,0c-0.3,0-0.6-0.1-0.9-0.1
				c0-0.3,0-0.6,0-0.9C18.9,315.3,21,315.2,21,315.2z"/>
			<path class="st135" d="M7.9,382.7c-3.6,0-7.1,0-10.7,0c0-2.6,0.1-4.9,3.9-3.6c0.6,0.2,1.8-1.3,2.7-2.1c2.5,0,4.9,0,7.4,0
				c0.8,0,1.6,0,2.5,0c2.4,0,4.8-0.1,7.2-0.1l0.3,0.1c-0.3,1.9-0.1,5.4-0.9,5.7c-0.3,0-0.6,0-0.8,0l0,0c-0.5-0.5-1.1-1.5-1.4-1.4
				c-1,0.2-1.8,0.9-2.7,1.4l0,0C12.8,382.7,10.4,382.7,7.9,382.7z"/>
			<path class="st139" d="M11.2,377c-2.5,0-4.9,0-7.4,0c-1.4,0-2.8,0-4.1,0c-1.9,0-3.8-0.1-5.7-0.1c-0.5-0.3-1.1-0.5-1.6-0.8
				c0-0.3-0.1-0.5-0.1-0.8c0-5.5,0-11,0-16.5c0-5.4,0.1-10.9,0.1-16.3l0,0c0.2,0,0.7-8.5,0.9-8.5c0.1,1.9,0,12.3,0,14.3
				c0,0.9,0,1.7,0,2.6c0,2.2,0,4.4-0.1,6.5c0,3.5,0,7.1-0.1,10.6c0,1,0,1.9-0.1,2.9c-0.7,3.5,0.9,4.9,4.3,5
				c6.5,0.1,13.1,0.2,19.6,0.5c2.8,0.1,3.4-1,3.4-3.6c-0.1-12.5-0.1-25.1-0.1-37.6c-0.3-1.6-0.5-3.3-0.8-4.9
				c0.1-0.8-1.1-6.3-1.1-6.3l2.4-0.3c0.3,2.8,0.1,7,0.4,9.8c0,1.7,0.1,3.3,0.1,5c0,0.3,0,0.5,0,0.8c0,0.5,0,1.1,0,1.6
				c0,1.1,0,2.1,0,3.2c0,1.1,0,2.3,0,3.4c0,1.6,0,3.2,0,4.8c-0.1,8.2-0.3,16.5-0.4,24.7c-2.4,0-4.8,0.1-7.2,0.1
				C12.8,377,12,377,11.2,377z"/>
			<path class="st140" d="M-0.3,377c1.4,0,2.8,0,4.1,0c-0.9,0.7-2.1,2.3-2.7,2.1c-3.8-1.3-3.9,1-3.9,3.6c-1.3-0.2-2.5-0.5-3.8-0.7
				c0.5-1.1,0.6-2.7,1.5-3.3C-3.8,377.7-2,377.5-0.3,377z"/>
			<path class="st128" d="M-7.8,358.8c0,5.5,0,11,0,16.5c-0.3-1.1-0.5-2.2-0.8-3.3C-8.3,367.6-8,363.2-7.8,358.8z"/>
			<path class="st141" d="M0.5,384.3c-1.1,0-2.2,0-3.3,0c3,0,6,0,9,0C4.3,384.3,2.4,384.3,0.5,384.3z"/>
			<path class="st134" d="M0.5,384.3c1.9,0,3.8,0,5.7,0c0.8,0,1.6,0,2.5,0c0,0.3,0,0.5,0,0.8C6,384.8,3.3,384.6,0.5,384.3z"/>
			<path class="st127" d="M7.9,382.7c2.5,0,4.9,0,7.4,0c0,0.3,0,0.5,0,0.8C12.8,383.2,10.4,382.9,7.9,382.7z"/>
			<path class="st142" d="M19.4,382.7c0.3,0,0.6,0,0.8,0c0.5,0.5,1.1,1.1,1.6,1.6v0.1c-1.1,0.3-2.2,0.5-3.3,0.8c-0.3,0-0.5,0-0.8,0
				c0-0.5,0-1.1,0-1.6C18.3,383.2,18.8,382.9,19.4,382.7z"/>
			<path class="st135" d="M19.4,382.7c-0.5,0.3-1.1,0.5-1.6,0.8c-0.8,0-1.6,0-2.5,0c0-0.3,0-0.5,0-0.8l0,0
				C16.6,382.7,18,382.7,19.4,382.7L19.4,382.7z"/>
			<path class="st127" d="M8.7,385.1c0-0.3,0-0.5,0-0.8c0.8,0.3,1.6,0.5,2.5,0.8C10.4,385.1,9.5,385.1,8.7,385.1z"/>
			<path class="st128" d="M-7.7,376.1c0.5,0.3,1.1,0.5,1.6,0.8C-6.6,376.6-7.1,376.3-7.7,376.1z"/>
			<path class="st134" d="M15.3,385.1c-0.5,0-1.1,0-1.6,0C14.2,385.1,14.7,385.1,15.3,385.1z"/>
			<path class="st134" d="M-3.6,385.1c-0.3-0.3-0.5-0.5-0.8-0.8c0.3,0,0.5,0,0.8,0C-3.6,384.6-3.6,384.9-3.6,385.1z"/>
			<path class="st127" d="M16.1,385.1c-0.3,0-0.6,0-0.8,0C15.6,385.1,15.8,385.1,16.1,385.1z"/>
			<path class="st115" d="M-7.7,326c-0.3-0.6-0.5-1.1-0.8-1.7c1.1,0,2.1,0,3.2,0c2.5,0,25.4-1.6,26.2-1.6c0,0.3,0.1,0.5,0.1,0.8
				c-0.3,0-0.7,0.1-1,0.1c-4.4,0.5-8.8,1-13.2,1.5c-1,0-2,0-3.1,0.1c-3.5,0.3-7.1,0.6-10.6,0.9C-7.1,326-7.4,326-7.7,326z"/>
			<path class="st112" d="M-7.7,326c0.3,0,0.6,0,0.8,0c0,0.3,0.1,0.5,0.1,0.8c0,3,0,6,0,9c0,2.2-0.9,6.6-0.9,6.6
				C-7.7,337-7.7,331.5-7.7,326z"/>
			<path class="st143" d="M-5.3,324.3c-1.1,0-2.1,0-3.2,0c0-0.5,0-1.1,0-1.6c0-0.6,0-1.1,0-1.7c0-0.3,0-0.5,0-0.8
				c0.3-0.5,0.5-1.1,0.8-1.6c0.3,0,0.6,0,0.8,0c0.5,0.3,1.1,0.5,1.6,0.8c0,0.3,0,0.5,0,0.8c-0.5,0.8-1.1,1.6-1.6,2.5
				C-6.3,323.3-5.8,323.8-5.3,324.3z"/>
			<path class="st115" d="M-8.5,321.1c0,0.6,0,1.1,0,1.7C-8.5,322.2-8.5,321.6-8.5,321.1z"/>
			<path class="st144" d="M21.2,347.4c0-1.1,0-2.3,0-3.4c0.2-1.1,0.4-2.1,0.7-3.2c0.3-3,0.5-6,0.8-9.1c0.3-0.8,0.5-1.7,0.8-2.5
				c0,8.2,0,16.5,0.1,24.7c0,1.1,0,2.2,0,3.3c-0.2,3.2-0.4,6.5-0.4,9.7c-0.1,5.4-0.1,10.8-0.2,16.1c0,0.4-0.6,0.9-0.9,1.3v-0.1
				c-0.2-2.4-0.5-4.9-0.7-7.3l-0.3-0.1c0.1-8.2,0.3-16.5,0.4-24.7C21.3,350.6,23.8,349,21.2,347.4z"/>
			<path class="st145" d="M23.4,329.3c-0.3,0.8-0.5,1.7-0.8,2.5c-0.5,0.5-1,1.1-1.6,1.6c-0.3-2.8-0.4-9.8-0.4-9.8c0.3,0,0.1,0,0.4,0
				h0.4h0.4c0.3-0.3,0.6-0.6,0.9-0.9c0.2,0,0.5,0.1,0.7,0.2c0,1.1,0.1,2.1,0.1,3.2C23.5,327.1,23.5,328.2,23.4,329.3z"/>
			<path class="st146" d="M-5.3,324.3c-0.5-0.5-1.1-1.1-1.6-1.6c0.8-0.5,1.6-1.1,2.5-1.6c0.8,0,1.6,0,2.5,0c0-0.3,0-0.5,0-0.8l0,0
				c0-0.3,0-0.5,0-0.8c0.6,0,1.3,0,1.9,0c0.2,0,0.3-0.4,0.5-0.6c-0.2-0.1-0.5-0.1-0.7-0.2c0-0.3,0-0.5,0-0.8c0.3,0,0.5,0,0.8,0
				c0.8,0,1.6,0,2.5,0l0,0c0.3,0.3,0.5,0.5,0.8,0.8c0.5,0,1.1,0,1.6,0c2.7,0.3,5.5,0.5,8.2,0.8c-1.5,0-2.9,0-4.4,0.1
				c-0.2,0-0.4,1-0.5,1.5c-0.5,0.5-1.1,1.1-1.6,1.6c0,0.3,1.8,0.6,1.8,0.9c-1.1,0-5,0.4-5,0.4s-1.1,0-1.7,0.3
				C-0.3,324.3-2.8,324.3-5.3,324.3z"/>
			<path class="st146" d="M18.6,322.7c-1.1,0-2.2,0-3.3,0c-0.3-0.5-0.5-1.1-0.8-1.6c0-0.3,0-0.5,0-0.8c-0.3-1.1-0.7-1.9-1-3
				c0-0.3-20,1-20,0.7c1.4,0,22.9-1.8,24.2-1.8c0.3,0,0.6,0.1,0.9,0.1c0.5,1.1,1.1,2.1,1.6,3.2C15.7,318.5,19,321.6,18.6,322.7z"/>
			<path class="st147" d="M13.6,317c0.3,1.1,0.6,2.2,0.9,3.3l0,0c-0.3-0.3-0.5-0.5-0.8-0.8l0,0c-2.7-0.3-5.5-0.5-8.2-0.8
				c-0.5,0-1.1,0-1.6,0c-0.3-0.3-0.5-0.5-0.8-0.8c1.4-0.3,2.7-0.5,4.1-0.8C9.2,317,11.4,317,13.6,317z"/>
			<path class="st148" d="M7.1,317c-1.4,0.3-2.7,0.5-4.1,0.8l0,0c0-0.3,0-0.3,0-0.5C4.3,317.3,5.7,317,7.1,317z"/>
			<path class="st148" d="M-0.3,317.8c0,0.3,0,0.5,0,0.8c-0.8,0-1.7,0-2.5,0c-0.3,0-0.5,0-0.8,0c0-0.3-4.1,0.4-4.1,0.1
				C-6.6,318.7-1.4,317.8-0.3,317.8z"/>
			<path class="st132" d="M5,317.3c0,0.3-2,0.3-2,0.5c-0.8,0-1.6,0-2.5,0C1.3,317.5,4.2,317.5,5,317.3z"/>
			<path class="st115" d="M-3.6,317.8c0,0.3,0,0.5,0,0.8c-0.8,0-1.6,0-2.5,0c0-0.3,0-0.5,0-0.8C-5.2,317.8-4.4,317.8-3.6,317.8z"/>
			<path class="st149" d="M-6.1,318.6c0.8,0,1.6,0,2.5,0c0.3,0,0.5,0,0.8,0c0,0.3,0,0.5,0,0.8c-0.8,0-1.6,0-2.5,0
				c-0.5-0.3-1.1-0.5-1.6-0.8C-6.6,318.6-6.3,318.6-6.1,318.6z"/>
			<path class="st150" d="M22.7,322.7c-0.3,0.3-0.6,0.6-0.9,0.9c0-2.2-0.1-4.3-0.1-6.5l0.2-0.1c0.2,0,0.5,0.1,0.7,0.1
				C22.7,318.9,22.7,320.8,22.7,322.7z"/>
			<path class="st146" d="M20.2,316.2c0.3,0,0.6-0.1,0.9-0.1c0.3,0.3,0.6,0.6,0.8,0.8l-0.1,0.1C21.2,316.8,20.7,316.5,20.2,316.2z"
				/>
			<path class="st120" d="M20.2,316.2c0.5,0.3,1,0.6,1.6,0.9c0,2.2,0.1,4.3,0.1,6.5h-0.4h-0.4c0-0.3-0.1-0.5-0.1-0.8
				c-0.2-1.1-0.5-2.2-0.7-3.3c-0.5-1.1-1.1-2.1-1.6-3.2C19.2,316.2,19.7,316.2,20.2,316.2z"/>
			<path class="st151" d="M21.1,376.9c0.2,2.4,0.5,4.9,0.7,7.3c-0.5-0.5-1.1-1.1-1.6-1.6C21,381.9,20.8,378.9,21.1,376.9z"/>
			<path class="st152" d="M19.4,382.6c-1.4,0-2.7,0-4.1,0c0.9-0.5,1.7-1.2,2.7-1.4C18.3,381.2,18.9,382.2,19.4,382.6z"/>
			<path class="st128" d="M11.2,377c0.8,0,1.6,0,2.5,0C12.8,377,12,377,11.2,377z"/>
			<path class="st153" d="M20.2,335.1c0,12.5,0,25.1,0.1,37.6c0,2.6-0.6,3.7-3.4,3.6c-6.5-0.3-13.1-0.4-19.6-0.5
				c-3.4-0.1-5-1.5-4.3-5c0.2-0.9,0.1-1.9,0.1-2.9c0.5-0.8,1.1-1.6,1.6-2.5h0.4h0.4c0.5,0.1,1.1,0.4,1.5,0.3
				c1.2-0.2,2.3-0.6,3.5-0.9c-0.9-0.1-1.8-0.2-2.7-0.4c-0.5-0.1-1-0.4-1.5-0.6l0,0c-0.3-0.3-0.5-0.5-0.8-0.8l0,0c0-0.3,0-0.5,0-0.8
				c0.5,0,1.1,0,1.6,0c0.8,0,1.6,0,2.4,0c0.8-0.5,1.7-1.1,2.5-1.6c0.3,0,0.5,0,0.8,0c0.3,0.3,0.5,0.6,0.8,0.8
				c0.3,0.3,0.5,0.5,0.8,0.8c-0.3,0.3-0.5,0.6-0.8,0.8c-0.3,0.5-0.6,1.1-0.9,1.6c-0.3,0.3-0.5,0.5-0.8,0.8c0.6,1.1,1.1,2.2,1.7,3.3
				c1.6,0,3.2,0,4.9,0c3.1-2.3,3.1-3.1,0-5.7c-0.3,0-0.5,0-0.8,0c0-0.3,0-0.5,0-0.8c0.8-0.6,1.6-1.1,2.4-1.7
				c0.3,0.3,0.6,0.5,0.8,0.8l0,0c0.3,0.3,0.6,0.5,0.8,0.8c0.3,0,0.5,0,0.8,0c1.5-0.1,3.7,0.5,4.5-0.3c1-1,1-3.1,1-4.7
				c0-1.1-0.9-2.1-1.4-3.2c-0.3-1.7-0.5-3.3-0.8-5c-0.3-0.5-0.5-1-0.8-1.5c4-2.1,1.6-4.8,0.8-7.4c0.3-0.5,0.6-1,0.9-1.5
				C18.1,337.3,19.1,336.2,20.2,335.1z M-3.7,368.3c0.3,0.5,0.6,0.9,0.9,1.3c0.3-0.3,0.8-0.7,0.7-1c0-0.4-0.5-0.8-0.7-1.2
				C-3.1,367.7-3.3,368-3.7,368.3z M11.8,369c-0.1,0.2-0.3,0.5-0.3,0.7c0.1,0.2,0.4,0.2,0.6,0.3c0.1-0.2,0.3-0.5,0.3-0.7
				C12.4,369.2,12,369.1,11.8,369z"/>
			<path class="st154" d="M3.8,325.2c1,0,2,0,3.1-0.1c4.5,0,9,0,13.5,0l0,0c-0.3,1.7-0.6,3.3-0.9,5c-0.5,0-1.1,0-1.6,0
				c-0.1-0.8-0.1-1.6-0.2-2.3c-0.6,0.6-1.2,1.1-1.7,1.7c-0.3,0.4-0.4,0.9-0.6,1.4c-0.8,0-1.6,0-2.5,0c-0.3-1.7-1.1-2.2-2.5-0.8
				c-0.3,0-0.5,0-0.8,0s-0.5,0-0.8,0c-0.6,0-1.1,0-1.7,0c-0.8,0-1.6,0-2.5,0c-0.3-0.5-0.5-1.1-0.8-1.6c-0.8-0.3-1.6-0.5-2.5-0.8
				c0-0.3,0-0.5,0-0.8C2.1,326.3,3,325.7,3.8,325.2z M7.3,328.1c-0.2-0.1-0.4-0.3-0.6-0.3c-0.2,0-0.4,0.2-0.6,0.3
				c0.2,0.1,0.4,0.3,0.6,0.3C6.9,328.4,7.1,328.2,7.3,328.1z"/>
			<path class="st5" d="M12.8,330.9c0.8,0,1.6,0,2.5,0c0.8-0.3,1.6-0.5,2.5-0.8c0.5,0,1.1,0,1.6,0c0.3,1.6,0.5,3.3,0.8,4.9
				c-1.1,1.1-2.1,2.3-3.2,3.4l-0.2-0.2c0-1.3,0-2.7,0.1-4c-0.8-0.6-1.6-1.1-2.5-1.7c-0.5-0.3-1.1-0.5-1.6-0.8
				C12.8,331.5,12.8,331.2,12.8,330.9z"/>
			<path class="st155" d="M-4.4,362.1c0,0.3,0,0.5,0,0.8c-0.3,0.8-0.5,1.6-0.8,2.5c-0.5,0.8-1.1,1.6-1.6,2.5c0-3.5,0-7.1,0.1-10.6
				c0.5,0.3,1,0.5,1.5,0.8c0.3,0.8,0.6,1.6,0.8,2.4c0,0.3,0,0.5,0,0.8C-4.4,361.5-4.4,361.8-4.4,362.1z"/>
			<path class="st156" d="M-5.3,358c-0.5-0.3-1-0.5-1.5-0.8c0-2.2,0-4.4,0.1-6.5c0.8,1.1,1.5,2.1,2.3,3.2l0,0
				c0.3,0.3,0.6,0.5,0.8,0.8l0,0c0,0.5,0,1.1,0,1.6c-0.3,0-0.5,0-0.8,0C-4.7,357-5,357.5-5.3,358z"/>
			<path class="st157" d="M21.1,333.4c0.5-0.5,1-1.1,1.6-1.6c-0.3,3-0.5,6-0.8,9.1c-0.2,0-0.4,0-0.7,0c0-0.5,0-1.1,0-1.6
				c0.1-0.1,0.2-0.2,0.2-0.2c0-0.2-0.2-0.4-0.2-0.6C21.2,336.7,21.1,335,21.1,333.4z"/>
			<path class="st158" d="M-4.4,353.9c-0.8-1.1-1.5-2.1-2.3-3.2c0-0.9,0-1.7,0-2.6c0.8-0.3,1.5-0.5,2.3-0.8c0.3,0.3,0.6,0.5,0.8,0.8
				c0,0.3,0,0.5,0,0.8c-0.3,0.5-0.6,1.1-0.8,1.6c0,0.8,0,1.6,0,2.5C-4.4,353.4-4.4,353.6-4.4,353.9z"/>
			<path class="st159" d="M-4.4,347.4c-0.8,0.3-1.5,0.5-2.3,0.8c-0.1-1.9-0.1-3.9-0.2-5.8l0.1,0.1c0.5,0.5,1.1,1.1,1.6,1.6
				c0.3,0.8,0.6,1.6,0.8,2.4C-4.4,346.8-4.4,347.1-4.4,347.4L-4.4,347.4z"/>
			<path class="st160" d="M21.2,347.4c2.6,1.6,0.1,3.2,0,4.8C21.2,350.6,21.2,349,21.2,347.4z"/>
			<path class="st157" d="M21.2,340.8c0.2,0,0.4,0,0.7,0c-0.2,1.1-0.4,2.1-0.7,3.2C21.2,342.9,21.2,341.9,21.2,340.8z"/>
			<path class="st144" d="M21.2,338.3c0.1,0.2,0.2,0.4,0.2,0.6c0,0.1-0.1,0.2-0.2,0.2C21.2,338.9,21.2,338.6,21.2,338.3z"/>
			<path class="st139" d="M3.8,325.2c-0.8,0.6-1.6,1.1-2.5,1.7c-2.7,0-5.4,0-8.1,0c0-0.3-0.1-0.5-0.1-0.8
				C-3.3,325.8,0.2,325.5,3.8,325.2z"/>
			<path class="st139" d="M20.3,325.1c-4.5,0-9,0-13.5,0c4.4-0.5,8.8-1,13.2-1.5C20.1,324.1,20.2,324.6,20.3,325.1z"/>
			<path class="st161" d="M14.5,321.1c0.3,0.5,0.5,1.1,0.8,1.6c-0.8,0-1.6,0-2.5,0c-0.5,0-1.1,0-1.6,0c-1.4,0-2.7,0-4.1,0
				c0.5-0.5,1.1-1.1,1.6-1.6C10.6,321.1,12.5,321.1,14.5,321.1z"/>
			<path class="st162" d="M20.2,319.5c0.2,1.1,0.5,2.2,0.7,3.3c-0.8,0-9,0.8-9.8,0.8C11.6,322.4,15.8,317.9,20.2,319.5z"/>
			<path class="st148" d="M7.1,322.7c1.4,0,2.7,0,4.1,0c0,0.3,0,0.5,0,0.8c-1.4,0-2.7,0-4.1,0C7.1,323.3,7.1,323,7.1,322.7z"/>
			<path class="st148" d="M2.2,324.3c0.5-0.2,1.1-0.5,1.6-0.7C3.2,323.8,2.7,324.1,2.2,324.3z"/>
			<path class="st162" d="M11.2,323.5c0-0.3,0-0.5,0-0.8c0.5,0,1.1,0,1.6,0C12.3,323,11.7,323.3,11.2,323.5z"/>
			<path class="st163" d="M-6.8,326.9c2.7,0,5.4,0,8.1,0c0,0.3,0,0.5,0,0.8c-0.5,0-1.1,0-1.6,0c-0.6,0.2-1.3,0.4-1.9,0.6
				c-1,0.3-2.5,0.2-2.8,0.8c-0.5,1.1-0.3,2.5-0.4,3.8c1.1-0.4,2.2-0.7,3.2-1.1c0.4-0.1,0.7-0.3,1.1-0.5c0.5-0.2,1.1-0.4,1.6-0.6
				c-0.1,0.8,0,1.8-0.5,2.3c-0.7,0.7-1.8,0.9-2.8,1.4l0,0c-0.3,0.3-0.6,0.5-0.8,0.8l0,0c-0.3,0.3-0.5,0.6-0.8,0.8c0,0.3,0,0.6,0,0.8
				c0,0.8,0,1.6,0,2.4c0,0.3,0,0.6,0,0.9c-0.4-1.1-0.7-2.3-1.2-3.4c-0.2-0.4-0.8-0.5-1.2-0.7C-6.8,332.9-6.8,329.9-6.8,326.9z"/>
			<path class="st164" d="M-6.8,335.9c0.4,0.2,1,0.4,1.2,0.7c0.5,1.1,0.8,2.2,1.2,3.4l0,0c0.3,0.3,0.5,0.5,0.8,0.8l0,0
				c0,0.5,0,1.1,0,1.6c-0.5,0.5-1.1,1.1-1.6,1.6l0,0c-0.5-0.5-1.2-1.1-1.7-1.6C-6.9,340.3-6.8,338.1-6.8,335.9z"/>
			<path class="st148" d="M-4.4,321.1c-0.8,0.5-1.6,1.1-2.5,1.6c0.5-0.8,1.1-1.6,1.6-2.5l0,0C-5,320.6-4.7,320.8-4.4,321.1z"/>
			<path class="st148" d="M-5.2,319.5c0.8,0,1.6,0,2.5,0c0.3,0,0.6,0,0.8,0c0,0.3,0,0.5,0,0.8c-1.1,0-2.2,0-3.3,0l0,0
				C-5.2,320-5.2,319.7-5.2,319.5z"/>
			<path class="st148" d="M14.5,321.1c-1.9,0-3.8,0-5.7,0c0.2-0.5,0.3-1.5,0.5-1.5c1.5-0.2,2.9-0.1,4.4-0.1l0,0
				c0.3,0.3,0.5,0.5,0.8,0.8l0,0C14.5,320.5,14.5,320.8,14.5,321.1z"/>
			<path class="st165" d="M-2,319.5c-0.3,0-0.6,0-0.8,0c0-0.3,0-0.5,0-0.8c0.8,0,1.7,0,2.5,0c0.2,0.1,0.5,0.1,0.7,0.2
				c-0.1,0.1-0.2,0.5-0.4,0.5C-0.7,319.5-1.3,319.5-2,319.5z"/>
			<path class="st150" d="M-5.2,320.3c1.1,0,2.2,0,3.3,0l0,0c0,0.3,0,0.5,0,0.8c-0.8,0-1.6,0-2.5,0C-4.7,320.8-5,320.6-5.2,320.3z"
				/>
			<path class="st148" d="M3.8,318.6c0.5,0,1.1,0,1.6,0C4.9,318.6,4.3,318.6,3.8,318.6z"/>
			<path class="st148" d="M-2,321.1c0-0.3,0-0.5,0-0.8C-2,320.5-2,320.8-2,321.1z"/>
			<path class="st146" d="M14.5,320.3c-0.3-0.3-0.5-0.5-0.8-0.8C13.9,319.7,14.2,320,14.5,320.3z"/>
			<path class="st166" d="M16.1,348.9c0.3,1.7,0.5,3.3,0.8,5c-0.3,0-0.5,0-0.8,0c-1.1,0-2.2,0-3.3,0c-0.5-0.8-1.1-1.7-1.6-2.5
				c0-0.3,0-0.6,0-0.8c0-0.3,0-0.5,0-0.8c0.3-0.3,0.5-0.6,0.8-0.8l0,0c0.3,0,0.5,0,0.8,0v0.1c0,0.3,0,0.6,0,0.9
				c0.5,1,0.9,1.9,1.4,2.9c0.3-1,0.7-1.9,1-2.9c0.3-0.3,0.6-0.6,0.8-0.8L16.1,348.9z"/>
			<path class="st167" d="M12.8,362.1c-0.3,0-0.5,0-0.8,0c-0.3-0.3-0.6-0.5-0.8-0.8l0,0c0-0.3,0-0.5,0-0.8c0.3-1.1,0.5-2.2,0.8-3.3
				l0,0c0.3,0.8,0.5,1.6,0.8,2.4c0.8-0.3,1.6-0.6,2.4-0.8c0-0.3,0-0.5,0-0.8h0.1c0.5,0.3,1.1,0.5,1.6,0.8
				C17.2,362,15.2,362.3,12.8,362.1z"/>
			<path class="st168" d="M16.1,340c0.8,2.6,3.2,5.3-0.8,7.4l-0.1-0.1c0-0.3,0-0.5,0-0.8s0-0.6,0-0.8c0-0.3,0-0.5,0-0.8
				c-0.5-0.5-1.1-1-1.6-1.5v-0.1c0.5-1.1,1.1-2.2,1.6-3.3l0,0C15.6,340,15.8,340,16.1,340z"/>
			<path class="st169" d="M12.8,362.1c2.3,0.1,4.3-0.2,4.1-3.3l0,0c0-0.6,0-1.1,0-1.7l0,0c-0.3-0.3-0.6-0.5-0.8-0.8l0,0
				c0-0.8,0-1.6,0-2.4c0.3,0,0.5,0,0.8,0c0.5,1.1,1.4,2.1,1.4,3.2c0,1.6,0,3.7-1,4.7C16.5,362.6,14.4,362.1,12.8,362.1z"/>
			<path class="st170" d="M8.7,368.7c-1.6,0-3.2,0-4.9,0c0-0.5,0-1.1,0-1.6c0.3-0.3,0.6-0.6,0.8-0.8c1.1,0,2.2,0,3.3,0
				c0.3-0.8,0.5-1.6,0.8-2.4v-0.1C8.7,365.4,8.7,367.1,8.7,368.7z"/>
			<path class="st167" d="M7.9,362.9c0.3,0,0.5,0,0.8,0c0,0.3,0,0.5,0,0.8v0.1c-0.5,0.3-1.1,0.5-1.6,0.8c-0.8,0.3-1.6,0.6-2.4,0.8
				c-0.3-0.6-0.6-1.1-0.9-1.7c0-0.3,0-0.5,0-0.8c0.3-0.3,0.5-0.6,0.8-0.8c0-0.3,0-0.5,0-0.8c0.5,0.3,1.1,0.5,1.6,0.8h0.4H7
				C7.3,362.4,7.6,362.7,7.9,362.9z"/>
			<path class="st155" d="M-3.6,363.8c0.5,0.2,1,0.5,1.5,0.6c0.9,0.2,1.8,0.3,2.7,0.4c-1.2,0.3-2.3,0.7-3.5,0.9
				c-0.5,0.1-1-0.2-1.5-0.3C-4.1,364.9-3.9,364.3-3.6,363.8z"/>
			<path class="st169" d="M8.7,363.8c0-0.3,0-0.5,0-0.8c3.1,2.7,3.1,3.5,0,5.7C8.7,367.1,8.7,365.4,8.7,363.8z"/>
			<path class="st171" d="M3.8,363c0,0.3,0,0.5,0,0.8c0,1.1,0,2.2,0,3.3c0,0.5,0,1.1,0,1.6c-0.6-1.1-1.1-2.2-1.7-3.3
				c0.3-0.3,0.5-0.5,0.8-0.8C3.2,364.1,3.5,363.5,3.8,363z"/>
			<path class="st172" d="M-3.7,368.3c0.4-0.4,0.6-0.6,0.9-0.8c0.3,0.4,0.7,0.8,0.7,1.2c0,0.3-0.5,0.7-0.7,1
				C-3.1,369.2-3.4,368.8-3.7,368.3z"/>
			<path class="st173" d="M15.3,347.4c0.3,0.5,0.5,1,0.8,1.5v0.1c-1.1,0-2.2,0-3.2,0v-0.1c0-0.3,0-0.5,0-0.8c0-0.3,0-0.5,0-0.8l0,0
				C13.7,347.3,14.5,347.3,15.3,347.4L15.3,347.4z"/>
			<path class="st171" d="M-3.6,363.8c-0.3,0.5-0.5,1.1-0.8,1.6h-0.4h-0.4c0.3-0.8,0.5-1.6,0.8-2.5l0,0
				C-4.1,363.2-3.9,363.5-3.6,363.8L-3.6,363.8z"/>
			<path class="st174" d="M-0.4,362.1c-0.8,0-1.6,0-2.4,0c0-0.3,0-0.5,0-0.8l0.1-0.1c0.3-0.3,0.5-0.5,0.8-0.8l0,0
				c0.5,0.3,1.1,0.6,1.6,0.8C-0.3,361.6-0.4,361.8-0.4,362.1z"/>
			<path class="st169" d="M10.4,360.5c-0.8,0.6-1.6,1.1-2.4,1.7l0,0c0.5-0.8,1.1-1.6,1.6-2.5C9.8,359.9,10.1,360.2,10.4,360.5
				L10.4,360.5z"/>
			<path class="st169" d="M11.8,369c0.2,0.1,0.6,0.2,0.6,0.3c0.1,0.2-0.2,0.4-0.3,0.7c-0.2-0.1-0.6-0.2-0.6-0.3
				C11.5,369.5,11.7,369.2,11.8,369z"/>
			<path class="st171" d="M-0.4,362.1c0-0.3,0.1-0.5,0.1-0.8c0.8-0.3,1.6-0.6,2.4-0.8l0,0C1.3,361,0.5,361.6-0.4,362.1z"/>
			<path class="st175" d="M16.1,340c-0.3,0-0.6,0-0.9-0.1c0.5-0.6,1.1-1.1,1.6-1.7l0.2,0.2C16.7,339,16.4,339.5,16.1,340z"/>
			<path class="st171" d="M-2.8,361.4c0,0.3,0,0.5,0,0.8c-0.5,0-1.1,0-1.6,0c0-0.3,0-0.6,0-0.9C-3.9,361.3-3.3,361.3-2.8,361.4z"/>
			<path class="st155" d="M4.6,361.3c0,0.3,0,0.5,0,0.8c-0.3-0.3-0.5-0.5-0.8-0.8l0,0C4.1,361.3,4.3,361.3,4.6,361.3L4.6,361.3z"/>
			<path class="st169" d="M11.2,361.3c0.3,0.3,0.6,0.5,0.8,0.8C11.7,361.9,11.5,361.6,11.2,361.3z"/>
			<path class="st169" d="M7.9,362.9c-0.3-0.3-0.6-0.5-0.8-0.8c0.3,0,0.5,0,0.8,0l0,0C7.9,362.4,7.9,362.7,7.9,362.9z"/>
			<path class="st155" d="M-3.6,363.8c-0.3-0.3-0.5-0.5-0.8-0.8C-4.1,363.2-3.9,363.5-3.6,363.8z"/>
			<path class="st155" d="M3,360.5c-0.3,0-0.5,0-0.8,0l0,0c0-0.3,0-0.5,0-0.8c0.3,0,0.5,0,0.8,0C3,360,3,360.2,3,360.5L3,360.5z"/>
			<path class="st155" d="M3,364.6c-0.3,0.3-0.5,0.5-0.8,0.8C2.4,365.1,2.7,364.9,3,364.6z"/>
			<path class="st171" d="M3.8,361.3c-0.3-0.3-0.5-0.6-0.8-0.8l0,0c0.3,0,0.5,0,0.8,0C3.8,360.8,3.8,361,3.8,361.3L3.8,361.3z"/>
			<path class="st169" d="M11.2,360.5c0,0.3,0,0.5,0,0.8c-0.3-0.3-0.6-0.5-0.8-0.8l0,0C10.6,360.5,10.9,360.5,11.2,360.5z"/>
			<path class="st163" d="M4.6,330.1c0.8,0,1.6,0,2.5,0c0.2,0.5,0.4,0.9,0.6,1.4c0.4-0.5,0.7-0.9,1.1-1.4c0.3,0,0.5,0,0.8,0
				c0.5,0.5,1.1,1.1,1.6,1.6c0,0.8,0,1.6,0,2.5c-0.1,0.1-0.3,0.2-0.3,0.2c0.1,0.2,0.2,0.4,0.3,0.6c0,0.3,0,0.6,0,0.8
				c0,0.8,0,1.7,0,2.5c-0.5,0-1.1,0-1.6,0c-0.3-1.1-0.6-2.2-0.8-3.3l0,0c-0.3-0.3-0.5-0.5-0.8-0.8c-1.9-0.7-3.3-0.3-4.1,1.6
				c0,1.1,0,2.2,0,3.3c0,0.3,0,0.6,0,0.8c-0.3,0-0.6,0-0.8,0c0-0.3,0-0.5,0-0.8c-0.3,0-0.5,0-0.8,0l0,0c-0.3,0-0.5,0-0.8,0
				c0-1.1,0-2.2,0-3.3c0.3-0.8,0.6-1.7,0.8-2.5c0-0.8,0-1.6,0-2.5c0.8,0,1.6,0,2.5,0C4.6,330.7,4.6,330.4,4.6,330.1z"/>
			<path class="st139" d="M11.2,334.2c0-0.8,0-1.6,0-2.5c-0.3-0.5-0.5-1.1-0.8-1.6c1.4-1.3,2.1-0.9,2.5,0.8c0,0.3,0,0.5,0,0.8
				c0.5,0.3,1.1,0.5,1.6,0.8c0.8,0.6,1.6,1.1,2.5,1.7c-0.5,0-1.1,0-1.6,0l0,0c-2.5-2.4-3,0.5-4.1,1.6c0-0.3,0-0.6,0-0.8
				C11.2,334.8,11.2,334.5,11.2,334.2z"/>
			<path class="st139" d="M4.6,330.9c-0.8,0-1.6,0-2.5,0c-0.3,0-0.6,0-0.8,0c-0.5-1.1-1.1-2.2-1.6-3.3c0.5,0,1.1,0,1.6,0
				c0.8,0.3,1.6,0.5,2.5,0.8C4.1,329.3,4.3,330.1,4.6,330.9z"/>
			<path class="st139" d="M17.7,330.1c-0.8,0.3-1.6,0.5-2.5,0.8c0.2-0.5,0.3-1,0.6-1.4c0.5-0.6,1.1-1.2,1.7-1.7
				C17.6,328.6,17.7,329.3,17.7,330.1z"/>
			<path class="st176" d="M10.4,330.1c0.3,0.5,0.5,1.1,0.8,1.6c-0.5-0.5-1.1-1.1-1.6-1.6C9.8,330.1,10.1,330.1,10.4,330.1z"/>
			<path class="st177" d="M8.7,330.1c-0.4,0.5-0.7,0.9-1.1,1.4c-0.2-0.5-0.4-0.9-0.6-1.4C7.6,330.1,8.2,330.1,8.7,330.1z"/>
			<path class="st139" d="M4.6,330.9c-0.3-0.8-0.5-1.6-0.8-2.5c0.3,0.5,0.5,1.1,0.8,1.6C4.6,330.4,4.6,330.7,4.6,330.9z"/>
			<path class="st178" d="M7.3,328.1c-0.2,0.1-0.4,0.3-0.6,0.3c-0.2,0-0.4-0.2-0.6-0.3c0.2-0.1,0.4-0.3,0.6-0.3
				C6.9,327.8,7.1,328,7.3,328.1z"/>
			<path class="st179" d="M15.3,334.2c0.5,0,1.1,0,1.6,0c0,1.3,0,2.7-0.1,4c-0.5,0.6-1.1,1.1-1.6,1.7l0,0c-2.1,1.4-3.2,0.2-4.1-1.6
				c0-0.8,0-1.7,0-2.5C12.3,334.7,12.8,331.9,15.3,334.2c-0.6,0.1-1.2,0.2-1.8,0.3c0.1,0.1,0.2,0.3,0.2,0.3
				C14.2,334.7,14.8,334.4,15.3,334.2z M15.1,337.6c-0.4-0.3-0.7-0.7-0.9-0.7c-0.3,0-0.7,0.2-1,0.4c0.3,0.3,0.5,0.7,0.9,0.9
				C14.3,338.2,14.7,337.8,15.1,337.6z"/>
			<path class="st180" d="M14.5,332.6c-0.5-0.3-1.1-0.5-1.6-0.8C13.4,332,13.9,332.3,14.5,332.6z"/>
			<path class="st174" d="M-2.8,361.4c-0.5,0-1-0.1-1.6-0.1c0-0.3,0-0.5,0-0.8s0-0.6,0-0.9c0-0.8,0-1.6,0-2.4c0-0.3,0-0.5,0-0.8
				c0.3,0,0.5,0,0.8,0c0-0.5,0-1.1,0-1.6l0,0c-0.3-0.3-0.6-0.5-0.8-0.8l0,0c0-0.3,0-0.6,0-0.8c0-0.8,0-1.6,0-2.5
				c0.3-0.5,0.6-1.1,0.8-1.6l0.1,0.1c1.1,0.3,2.1,0.5,3.2,0.8c0,0.5,0,1.1,0,1.6c-0.6-0.1-1.3-0.3-1.9-0.4c0,0-0.1,0.5-0.2,0.7
				c0.7-0.1,1.4-0.2,2.1-0.3c0-0.8,0-1.7,0-2.5l0,0c0.3-0.5,0.5-1.1,0.8-1.6c0.3,0,0.5,0,0.8,0c1.4,3.2,0,6.1-0.8,9
				c-0.3,0.5-0.5,1.1-0.8,1.6c-0.9,0.2-2.8-0.6-1.6,1.6c0,0.3,0,0.5,0,0.8l0,0C-2.2,360.8-2.5,361-2.8,361.4L-2.8,361.4z"/>
			<path class="st181" d="M-4.4,356.4c0,0.3,0,0.5,0,0.8c0,0.8,0,1.6,0,2.4c0,0.3,0,0.6,0,0.9c-0.3-0.8-0.6-1.6-0.8-2.4
				C-5,357.5-4.7,357-4.4,356.4z"/>
			<path class="st181" d="M-3.6,354.7c0,0.5,0,1.1,0,1.6C-3.6,355.8-3.6,355.3-3.6,354.7z"/>
			<path class="st181" d="M-4.4,353.9c0.3,0.3,0.6,0.5,0.8,0.8C-3.9,354.5-4.1,354.2-4.4,353.9z"/>
			<path class="st174" d="M-3.6,349c0-0.3,0-0.5,0-0.8c0-0.3,0-0.6,0-0.8v-0.1c0.5,0,1.1,0.1,1.6,0.1c-0.3,0.5-0.5,1.1-0.8,1.6
				C-3,349-3.3,349-3.6,349L-3.6,349z"/>
			<path class="st182" d="M-4.4,350.6c0,0.8,0,1.6,0,2.5C-4.4,352.3-4.4,351.4-4.4,350.6z"/>
			<path class="st159" d="M-3.6,347.4c0,0.3,0,0.6,0,0.8c-0.3-0.3-0.6-0.5-0.8-0.8l0,0C-4.1,347.4-3.9,347.4-3.6,347.4z"/>
			<path class="st164" d="M-4.4,346.5c-0.3-0.8-0.6-1.6-0.8-2.4l0,0c0.3,0,0.5,0,0.8,0C-4.4,344.9-4.4,345.7-4.4,346.5L-4.4,346.5z"
				/>
			<path class="st176" d="M-3.6,347.4c-0.3,0-0.5,0-0.8,0c0-0.3,0-0.5,0-0.8h0.1C-4.1,346.8-3.9,347-3.6,347.4L-3.6,347.4z"/>
			<path class="st154" d="M-0.3,327.7c0.5,1.1,1.1,2.2,1.6,3.3c0.3,0.8,0.5,1.6,0.8,2.5c-0.3,0.8-0.6,1.7-0.8,2.5
				c-0.3,0-0.5,0-0.8,0c0-0.3,0-0.5,0-0.8c-0.3-0.3-0.5-0.5-0.8-0.8c-0.8,0-1.6,0-2.5,0c0.9-0.4,2.1-0.7,2.8-1.4
				c0.5-0.4,0.3-1.5,0.5-2.3c-0.5,0.2-1.1,0.4-1.6,0.6c-0.4,0.1-0.7,0.3-1.1,0.5c-1.1,0.4-2.2,0.8-3.2,1.1c0.1-1.3-0.1-2.7,0.4-3.8
				c0.3-0.6,1.8-0.5,2.8-0.8C-1.6,328.1-0.9,327.9-0.3,327.7z"/>
			<path class="st179" d="M0.5,335.1c0,0.3,0,0.5,0,0.8c-0.3,1.1-0.6,2.2-0.9,3.3c0-0.5,0-1.1,0-1.6c-0.3-0.3-0.6-0.6-0.8-0.8
				c-0.5,0.5-1.1,1.1-1.6,1.6c0.8,0.6,1.6,1.1,2.4,1.7c0,0.3,0,0.6,0,0.9s0,0.5,0,0.8c-0.8-0.3-1.7-0.5-2.5-0.8c-0.3,0-0.5,0-0.8,0
				l0,0c-0.3-0.3-0.5-0.5-0.8-0.8l0,0c0-0.3,0-0.6,0-0.9c0-0.8,0-1.6,0-2.4c0-0.3,0-0.6,0-0.8c0.3-0.3,0.5-0.6,0.8-0.8l0,0
				c0.3-0.3,0.6-0.5,0.8-0.8l0,0c0.8,0,1.6,0,2.5,0C0,334.5,0.2,334.8,0.5,335.1z"/>
			<path class="st183" d="M-4.4,336.7c0,0.8,0,1.6,0,2.4C-4.4,338.3-4.4,337.5-4.4,336.7z"/>
			<path class="st177" d="M-2.8,334.2c-0.3,0.3-0.6,0.5-0.8,0.8C-3.3,334.8-3,334.5-2.8,334.2z"/>
			<path class="st177" d="M-3.6,335c-0.3,0.3-0.5,0.6-0.8,0.8C-4.1,335.6-3.9,335.3-3.6,335z"/>
			<path class="st176" d="M-4.4,344.1c-0.3,0-0.5,0-0.8,0c0.5-0.5,1.1-1.1,1.6-1.6l0,0C-3.9,343-4.2,343.5-4.4,344.1z"/>
			<path class="st176" d="M-3.6,340.8c0.3,0,0.5,0,0.8,0c-0.3,0.5-0.5,1.1-0.8,1.6l0,0C-3.6,341.9-3.6,341.3-3.6,340.8z"/>
			<path class="st163" d="M-4.4,340c0.3,0.3,0.5,0.5,0.8,0.8C-3.9,340.5-4.1,340.2-4.4,340z"/>
			<path class="st171" d="M11.2,360.5c-0.3,0-0.5,0-0.8,0c-0.3-0.3-0.6-0.6-0.9-0.8c-0.3-0.8-0.5-1.6-0.8-2.5
				c-0.3-1.1-0.5-2.2-0.8-3.3c0.5-0.8,1.1-1.6,1.6-2.5c0.5,0,1.1,0,1.6,0c0.5,0.8,1.1,1.7,1.6,2.5c-0.3,1.1-0.5,2.2-0.8,3.2
				C11.7,358.3,11.4,359.4,11.2,360.5z"/>
			<path class="st184" d="M12,357.2c0.3-1.1,0.5-2.2,0.8-3.2c1.1,0,2.2,0,3.3,0c0,0.8,0,1.6,0,2.4c-0.3,0.3-0.6,0.6-0.8,0.9
				c-0.8,0-1.6,0-2.4,0C12.6,357.2,12.3,357.2,12,357.2L12,357.2z"/>
			<path class="st171" d="M12.8,347.4c0,0.3,0,0.5,0,0.8c-0.3,0.3-0.5,0.5-0.8,0.8l0,0c-0.3,0.3-0.5,0.6-0.8,0.8c0,0.3,0,0.5,0,0.8
				c-0.5-1.1-1.1-2.2-1.6-3.3c0.3-0.3,0.5-0.5,0.8-0.8c0.3,0,0.5,0,0.8,0l0,0c0.3,0.3,0.6,0.5,0.8,0.8
				C12.3,347.4,12.6,347.4,12.8,347.4z"/>
			<path class="st171" d="M15.2,349.9c-0.3,1-0.7,1.9-1,2.9c-0.5-1-0.9-1.9-1.4-2.9C13.6,349.9,14.4,349.9,15.2,349.9z"/>
			<path class="st171" d="M9.5,347.4c0.5,1.1,1.1,2.2,1.6,3.3c0,0.3,0,0.6,0,0.8c-0.5,0-1.1,0-1.6,0c-0.3-1.4-0.5-2.7-0.8-4.1
				C9,347.4,9.3,347.3,9.5,347.4C9.5,347.3,9.5,347.4,9.5,347.4z"/>
			<path class="st185" d="M15.2,349.9c-0.8,0-1.6,0-2.4,0c0-0.3,0-0.6,0-0.9c1.1,0,2.2,0,3.2,0C15.8,349.3,15.5,349.6,15.2,349.9z"
				/>
			<path class="st171" d="M12,349c0.3-0.3,0.5-0.5,0.8-0.8c0,0.3,0,0.5,0,0.8C12.5,349,12.3,349,12,349z"/>
			<path class="st171" d="M11.2,349.8c0.3-0.3,0.5-0.6,0.8-0.8C11.7,349.3,11.5,349.6,11.2,349.8z"/>
			<path class="st186" d="M12.8,357.2c0.8,0,1.6,0,2.4,0c0,0.3,0,0.5,0,0.8h-0.1c-0.3,0.1-0.7,0.3-1,0.4c0.4,0.1,0.7,0.3,1.1,0.4
				c-0.8,0.3-1.6,0.6-2.4,0.8C12.8,358.8,12.8,358,12.8,357.2z"/>
			<path class="st159" d="M15.3,358c0-0.3,0-0.5,0-0.8c0.3-0.3,0.6-0.6,0.8-0.9l0,0c0.3,0.3,0.6,0.5,0.8,0.8l0,0c0,0.6,0,1.1,0,1.7
				l0,0C16.4,358.6,15.8,358.3,15.3,358z"/>
			<path class="st10" d="M12.8,357.2c0,0.8,0,1.6,0,2.5c-0.3-0.8-0.5-1.6-0.8-2.4C12.3,357.2,12.6,357.2,12.8,357.2z"/>
			<path class="st155" d="M15.3,358.8c-0.4-0.1-0.7-0.3-1.1-0.4c0.3-0.1,0.7-0.3,1-0.4C15.3,358.3,15.3,358.6,15.3,358.8z"/>
			<path class="st175" d="M11.1,338.4c0.9,1.8,2,3,4.1,1.6c-0.5,1.1-1.1,2.2-1.6,3.3c-0.3,0.6-0.6,1.1-0.9,1.7
				c-0.7-0.8-2-1.7-1.9-2.5c0.2-3.1-1.7-1.6-2.9-1.5c0.3-0.6,0.6-1.1,0.8-1.7c0.3-0.3,0.5-0.5,0.8-0.8l0,0
				C10.1,338.3,10.6,338.3,11.1,338.4z"/>
			<path class="st170" d="M12.8,347.4c-0.3,0-0.5,0-0.8,0c-0.3-0.3-0.6-0.5-0.8-0.8l0,0c0-0.3,0-0.5,0-0.8c0.6,0,1.1,0,1.7,0
				c0.8,0,1.6,0,2.4,0c0,0.3,0,0.6,0,0.8C14.5,346.8,13.7,347.1,12.8,347.4L12.8,347.4z"/>
			<path class="st156" d="M15.3,345.7c-0.8,0-1.6,0-2.4,0c0-0.3-0.1-0.6-0.1-0.8c0.3-0.6,0.6-1.1,0.9-1.7v0.1c0.5,0.5,1.1,1,1.6,1.5
				C15.3,345.2,15.3,345.4,15.3,345.7z"/>
			<path class="st187" d="M15.3,344.9c-0.5-0.5-1.1-1-1.6-1.5C14.2,343.9,14.7,344.4,15.3,344.9z"/>
			<path class="st188" d="M12.9,347.3c0.8-0.3,1.6-0.5,2.4-0.8c0,0.3,0,0.5,0,0.8C14.5,347.3,13.7,347.3,12.9,347.3z"/>
			<path class="st184" d="M16.9,358.9c0-0.6,0-1.1,0-1.7C16.9,357.7,16.9,358.3,16.9,358.9z"/>
			<path class="st184" d="M16.9,357.2c-0.3-0.3-0.6-0.5-0.8-0.8C16.4,356.7,16.7,356.9,16.9,357.2z"/>
			<path class="st189" d="M4.6,365.4c0.8-0.3,1.6-0.6,2.4-0.8c0.3,0.5,0.5,1.1,0.8,1.6c-1.1,0-2.2,0-3.3,0
				C4.6,366,4.6,365.7,4.6,365.4z"/>
			<path class="st190" d="M7.9,366.2c-0.3-0.5-0.5-1.1-0.8-1.6c0.5-0.3,1.1-0.5,1.6-0.8C8.4,364.6,8.2,365.4,7.9,366.2z"/>
			<path class="st164" d="M4.6,365.4c0,0.3,0,0.5,0,0.8c-0.3,0.3-0.6,0.6-0.8,0.8c0-1.1,0-2.2,0-3.3C4.1,364.3,4.4,364.9,4.6,365.4z
				"/>
			<path class="st191" d="M8.7,357.2c0.3,0.8,0.5,1.6,0.8,2.5c-0.5,0.8-1.1,1.6-1.6,2.5c-0.3,0-0.5,0-0.8,0H6.7H6.3
				c0-0.5,0-1.1,0-1.6c0.3,0,0.5,0,0.8,0C7.6,359.4,8.2,358.3,8.7,357.2z"/>
			<path class="st192" d="M6.3,360.5c0,0.5,0,1.1,0,1.6c-0.5-0.3-1.1-0.5-1.6-0.8l0,0c0-0.3,0-0.5,0-0.8c0.3,0,0.5,0,0.8,0h0.4H6.3z
				"/>
			<path class="st158" d="M0.5,356.4c0.8-3,2.2-5.9,0.8-9l0,0c0.5,0.8,1.1,1.6,1.6,2.5c0.3,1.1,0.5,2.2,0.8,3.3c0,0.3,0,0.5,0,0.8
				c-0.5,0.3-1.1,0.5-1.6,0.8l0,0c0,1.6,0,3.3,0,4.9l0,0c0,0.3,0,0.5,0,0.8c-0.8,0.3-1.6,0.6-2.4,0.8c-0.5-0.3-1.1-0.6-1.6-0.8
				c0-0.3,0-0.5,0-0.8c0.5-0.3,1.1-0.5,1.6-0.8c0.3-0.3,0.5-0.5,0.8-0.8C0.5,357.5,0.5,356.9,0.5,356.4z"/>
			<path class="st193" d="M-2.8,361.3c0.3-0.3,0.5-0.5,0.8-0.8C-2.2,360.8-2.5,361-2.8,361.3z"/>
			<path class="st167" d="M4.6,360.5c0,0.3,0,0.5,0,0.8c-0.3,0-0.5,0-0.8,0c0-0.3,0-0.5,0-0.8h0.1C4.1,360.5,4.3,360.5,4.6,360.5
				L4.6,360.5z"/>
			<path class="st171" d="M3,359.7c-0.3,0-0.5,0-0.8,0l0,0c0-1.6,0-3.3,0-4.9l0,0c0.8,0,1.6,0,2.5,0c-0.3,0.6-0.5,1.1-0.8,1.7l0,0
				C3.5,357.5,3.2,358.6,3,359.7z"/>
			<path class="st194" d="M3,359.7c0.3-1.1,0.6-2.2,0.8-3.3c0,1.4,0,2.7,0,4.1H3.7c-0.3,0-0.5,0-0.8,0C3,360.2,3,360,3,359.7z"/>
			<path class="st195" d="M-0.3,341.6c0-0.3,0-0.5,0-0.8c0.3-0.3,0.5-0.6,0.8-0.9c0.3,0,0.5,0,0.8,0c0.3-0.3,0.6-0.5,0.8-0.8l0,0
				h0.4h0.4c0,0.3,0,0.5,0,0.8c0.3,0.8,0.5,1.6,0.8,2.5c-0.3,1.1-0.5,2.2-0.8,3.3c-0.5,0.3-1.1,0.6-1.6,0.8l0,0c0-0.5,0-1.1,0-1.6
				s0-1.1,0-1.6c-0.3-0.3-0.5-0.6-0.8-0.8C0.3,342.1,0,341.9-0.3,341.6z"/>
			<path class="st196" d="M8.8,339.1c-0.3,0.6-0.6,1.1-0.8,1.7l0,0c-0.3,0-0.5,0-0.8,0c-0.6,0-1.1,0-1.7,0c-0.3,0-0.5,0-0.8,0
				c-0.3-0.3-0.5-0.5-0.8-0.8c0-0.3,0-0.6,0-0.8c0.3-0.3,0.6-0.5,0.9-0.8c0.7-0.1,1.4-0.1,2.1-0.2c-0.4-0.5-0.9-0.9-1.3-1.4
				c0.8,0,1.7,0,2.5,0C8.2,337.5,8.4,338.3,8.8,339.1L8.8,339.1z"/>
			<path class="st197" d="M7.9,336.7c-0.8,0-1.7,0-2.5,0c-0.3,0-0.5,0.1-0.8,0.1c-0.3-0.3-0.6-0.6-0.9-0.9c0.8-1.9,2.2-2.3,4.1-1.6
				c0.3,0.3,0.5,0.5,0.8,0.8l0,0c0,0.5,0,1.1,0,1.6C8.4,336.7,8.2,336.7,7.9,336.7z"/>
			<path class="st198" d="M1.3,340c-0.3,0-0.5,0-0.8,0s-0.6,0-0.8,0c-0.8-0.6-1.6-1.1-2.4-1.7c0.8,0.3,1.6,0.6,2.4,0.8
				c0.3-1.1,0.6-2.2,0.9-3.3c0.3,0,0.5,0,0.8,0c0,1.1,0,2.2,0,3.3C1.3,339.4,1.3,339.7,1.3,340z"/>
			<path class="st196" d="M8.7,336.7c0-0.5,0-1.1,0-1.6c0.3,1.1,0.6,2.2,0.8,3.3l0,0c-0.3,0-0.5,0-0.8,0
				C8.7,337.8,8.7,337.2,8.7,336.7z"/>
			<path class="st199" d="M3.8,340c0.3,0.3,0.5,0.5,0.8,0.8c0,0.5,0,1.1,0,1.6c-0.3,0-0.5,0-0.8,0l0,0c-0.3-0.8-0.5-1.6-0.8-2.5
				C3.3,340,3.5,340,3.8,340z"/>
			<path class="st200" d="M3.8,335.9c0.3,0.3,0.6,0.6,0.9,0.9c0,0.5,0,1,0,1.5c-0.3,0.3-0.6,0.5-0.9,0.8C3.8,338,3.8,337,3.8,335.9z
				"/>
			<path class="st139" d="M2.1,333.4c-0.3-0.8-0.5-1.6-0.8-2.5c0.3,0,0.6,0,0.8,0C2.2,331.8,2.1,332.6,2.1,333.4z"/>
			<path class="st196" d="M8.7,335.1c-0.3-0.3-0.5-0.5-0.8-0.8C8.2,334.5,8.4,334.8,8.7,335.1z"/>
			<path class="st201" d="M11.2,334.2c0,0.3,0,0.5,0,0.8c-0.1-0.2-0.2-0.4-0.3-0.6C10.9,334.4,11.1,334.3,11.2,334.2z"/>
			<path class="st199" d="M1.3,340c0-0.3,0-0.5,0-0.8c0.3,0,0.5,0,0.8,0C1.9,339.4,1.6,339.7,1.3,340z"/>
			<path class="st199" d="M3,339.2H2.6H2.2C2.4,339.2,2.7,339.2,3,339.2z"/>
			<path class="st202" d="M15.1,337.6c-0.5,0.3-0.9,0.7-1,0.6c-0.4-0.2-0.6-0.6-0.9-0.9c0.3-0.1,0.7-0.4,1-0.4
				C14.5,336.9,14.7,337.2,15.1,337.6z"/>
			<path class="st203" d="M15.3,334.2c-0.5,0.2-1.1,0.4-1.6,0.6c0,0-0.1-0.2-0.2-0.3C14.1,334.5,14.7,334.3,15.3,334.2L15.3,334.2z"
				/>
			<path class="st176" d="M1.3,344.9c0,0.5,0,1.1,0,1.6c-0.3,0.3-0.5,0.6-0.8,0.8c-0.3,0.5-0.5,1.1-0.8,1.6c-0.8,0-1.6,0-2.5,0
				c0.3-0.5,0.5-1.1,0.8-1.6c0.3-0.3,0.6-0.6,0.8-0.8c0.3-0.6,0.6-1.1,0.9-1.7C0.3,344.9,0.8,344.9,1.3,344.9z"/>
			<path class="st204" d="M-0.3,351.5c-0.7,0.1-1.4,0.2-2.1,0.3c0.1-0.2,0.1-0.7,0.2-0.7C-1.6,351.2-0.9,351.3-0.3,351.5L-0.3,351.5
				z"/>
			<path class="st171" d="M-0.3,358.9c-0.5,0.3-1.1,0.5-1.6,0.8c-1.2-2.3,0.8-1.4,1.6-1.6l0,0C-0.3,358.3-0.3,358.6-0.3,358.9z"/>
			<path class="st205" d="M-2.8,349c0.8,0,1.6,0,2.5,0l0,0c0,0.3,0,0.6,0,0.8c-1.1-0.3-2.1-0.5-3.2-0.8C-3.3,349-3,349-2.8,349z"/>
			<path class="st176" d="M-0.3,349.8c0-0.3,0-0.6,0-0.8c0,0.8,0,1.7,0,2.5l0,0C-0.3,350.9-0.3,350.4-0.3,349.8z"/>
			<path class="st206" d="M-4.4,359.6c0-0.8,0-1.6,0-2.4C-4.4,358-4.4,358.8-4.4,359.6z"/>
			<path class="st193" d="M0.5,356.4c0,0.5,0,1.1,0,1.6c-0.3,0-0.5,0-0.8,0l0,0C0,357.5,0.2,356.9,0.5,356.4z"/>
			<path class="st195" d="M0.5,347.4c0.3-0.3,0.5-0.6,0.8-0.8l0,0c0,0.3,0,0.5,0,0.8l0,0C1.1,347.4,0.8,347.4,0.5,347.4z"/>
			<path class="st207" d="M1.3,344.9c-0.5,0-1.1,0-1.6,0c-0.6-0.5-1.1-1.1-1.7-1.6c-0.3,0.3-0.6,0.5-0.8,0.8c0,0.3,0,0.5,0,0.8
				c0,0.3,0,0.6,0,0.8l0,0c0.3,0.3,0.6,0.5,0.8,0.8c0.3,0,0.5,0,0.8,0c-0.3,0.3-0.6,0.6-0.8,0.8c-0.5,0-1.1-0.1-1.6-0.1
				c-0.2-0.2-0.5-0.5-0.7-0.7c0-0.8-0.1-1.6-0.1-2.5c0.3-0.6,0.6-1.1,0.8-1.7c0.3-0.5,0.5-1.1,0.8-1.6c0.8,0.3,1.7,0.5,2.5,0.8
				c0.3,0.3,0.5,0.6,0.8,0.8c0.3,0.3,0.5,0.6,0.8,0.8C1.3,343.8,1.3,344.3,1.3,344.9z"/>
			<path class="st139" d="M0.5,335.1c-0.3-0.3-0.5-0.5-0.8-0.8C0,334.5,0.2,334.8,0.5,335.1z"/>
			<path class="st175" d="M-0.3,339.1c-0.8-0.3-1.6-0.6-2.4-0.8c0.5-0.5,1.1-1.1,1.6-1.6c0.3,0.3,0.6,0.6,0.8,0.8
				C-0.3,338.1-0.3,338.6-0.3,339.1z"/>
			<path class="st207" d="M-0.3,340c0.3,0,0.6,0,0.8,0c-0.3,0.3-0.5,0.6-0.8,0.9C-0.3,340.5-0.3,340.3-0.3,340z"/>
			<path class="st198" d="M-0.3,337.5c-0.3-0.3-0.6-0.6-0.8-0.8C-0.9,337-0.6,337.3-0.3,337.5z"/>
			<path class="st166" d="M3.8,353.9c0-0.3,0-0.5,0-0.8V353c0.3-0.8,0.5-1.6,0.8-2.4c0.3,0,0.5,0,0.8,0c0.3,0.4,0.7,0.9,1,1.3
				c0.1-0.1,0.2-0.2,0.3-0.3c-0.4-0.3-0.8-0.7-1.3-1c0-0.3,0-0.5,0-0.8c0.5,0,1.1,0,1.6,0c0.3-0.8,0.6-1.6,0.9-2.4h0.4h0.4
				c0.3,1.4,0.5,2.7,0.8,4.1c-0.5,0.8-1.1,1.6-1.6,2.5c-0.3,0.8-0.5,1.6-0.8,2.5c-0.3,0-0.5,0-0.8,0c-0.3-0.5-0.5-1.1-0.8-1.6
				c-0.3-0.3-0.6-0.5-0.8-0.8C4.3,354,4.1,353.9,3.8,353.9z"/>
			<path class="st167" d="M7.1,356.4c0.3-0.8,0.5-1.6,0.8-2.5c0.3,1.1,0.5,2.2,0.8,3.3c-0.6,1.1-1.1,2.2-1.7,3.3c0-1.1,0-2.2,0-3.3
				C7.1,356.9,7.1,356.7,7.1,356.4z"/>
			<path class="st171" d="M11.2,345.7c0,0.3,0,0.5,0,0.8c-0.3,0-0.5,0-0.8,0l0,0c0-0.3,0-0.5,0-0.8h0.4H11.2z"/>
			<path class="st171" d="M10.4,346.6c-0.3,0.3-0.5,0.5-0.8,0.8l0,0C9.8,347.1,10.1,346.8,10.4,346.6
				C10.3,346.5,10.4,346.6,10.4,346.6z"/>
			<path class="st171" d="M11.2,346.5c0.3,0.3,0.6,0.5,0.8,0.8C11.7,347.1,11.5,346.8,11.2,346.5z"/>
			<path class="st3" d="M10.3,346.5c-0.3,0.3-0.5,0.5-0.8,0.8c-0.3,0-0.5,0-0.8,0.1H8.3H7.9l0,0c0-0.3,0-0.5,0-0.8
				c0.5-0.3,1.1-0.6,1.6-0.8c0.3,0,0.5,0,0.8,0l0.1,0.1C10.4,346,10.3,346.3,10.3,346.5z"/>
			<path class="st164" d="M11.2,345.7h-0.4h-0.4l-0.1-0.1c-0.3-0.8-0.5-1.6-0.8-2.4l0,0c-0.3-0.3-0.5-0.6-0.8-0.8
				c-0.3-0.3-0.6-0.5-0.8-0.8l0,0c0-0.3,0-0.5,0-0.8l0,0c1.3-0.1,3.1-1.6,2.9,1.5c-0.1,0.8,1.2,1.7,1.9,2.5c0,0.3,0.1,0.6,0.1,0.8
				C12.3,345.7,11.7,345.7,11.2,345.7z"/>
			<path class="st163" d="M8.7,338.4c0.3,0,0.5,0,0.8,0c-0.3,0.3-0.5,0.5-0.8,0.8H8.6C8.7,338.9,8.7,338.6,8.7,338.4z"/>
			<path class="st208" d="M7.1,357.2c0,1.1,0,2.2,0,3.3c-0.3,0-0.5,0-0.8,0H5.9H5.5c0-0.3,0-0.5,0-0.8C6,358.9,6.5,358,7.1,357.2z"
				/>
			<path class="st167" d="M5.4,359.7c0,0.3,0,0.5,0,0.8c-0.3,0-0.5,0-0.8,0l0,0c0-0.3,0-0.6,0-0.8C4.9,359.7,5.2,359.7,5.4,359.7z"
				/>
			<path class="st192" d="M1.3,347.4c0-0.3,0-0.5,0-0.8c0.5-0.3,1.1-0.6,1.6-0.8l0,0c0.3,0.5,0.6,1.1,0.9,1.6c0.3,0,0.5,0,0.8,0
				c0,0.5,0,1.1,0,1.6l0,0c-0.3,0.3-0.6,0.5-0.8,0.8l0,0c-0.3,0-0.5,0-0.8,0C2.4,349,1.9,348.2,1.3,347.4z"/>
			<path class="st194" d="M2.1,354.7c0,1.6,0,3.3,0,4.9C2.1,358,2.1,356.4,2.1,354.7z"/>
			<path class="st174" d="M3,349.8c0.3,0,0.5,0,0.8,0c0,0.3,0,0.5,0,0.8c0,0.8,0,1.6,0,2.4v0.1C3.5,352,3.2,350.9,3,349.8z"/>
			<path class="st194" d="M3.8,353.9c0.3,0,0.5,0,0.8,0c0,0.3,0,0.5,0,0.8c-0.8,0-1.6,0-2.5,0C2.7,354.5,3.2,354.2,3.8,353.9z"/>
			<path class="st174" d="M-0.3,358c0.3,0,0.5,0,0.8,0c-0.3,0.3-0.5,0.5-0.8,0.8C-0.3,358.6-0.3,358.3-0.3,358z"/>
			<path class="st190" d="M4.6,359.7c0,0.3,0,0.6,0,0.8c-0.3,0-0.5,0-0.8,0c0-1.4,0-2.7,0-4.1l0,0C4.1,357.5,4.4,358.6,4.6,359.7z"
				/>
			<path class="st204" d="M4.6,359.7c-0.3-1.1-0.6-2.2-0.8-3.2c0.3-0.6,0.5-1.1,0.8-1.7c0-0.3,0-0.5,0-0.8c0.3,0.3,0.6,0.5,0.8,0.8
				c0.3,0.5,0.5,1.1,0.8,1.6c0.3,0,0.5,0,0.8,0c0,0.3,0,0.6,0,0.8c-0.5,0.8-1.1,1.6-1.6,2.5C5.2,359.7,4.9,359.7,4.6,359.7z"/>
			<path class="st199" d="M3,345.7c0.3-1.1,0.5-2.2,0.8-3.3l0,0c0,1.1,0,2.2,0,3.3l0,0C3.5,345.7,3.2,345.7,3,345.7L3,345.7z"/>
			<path class="st176" d="M1.3,343.3c-0.3-0.3-0.5-0.6-0.8-0.8C0.8,342.7,1.1,343,1.3,343.3z"/>
			<path class="st209" d="M4.7,338.3c0-0.5,0-1,0-1.5c0.3,0,0.5-0.1,0.8-0.1c0.4,0.5,0.9,0.9,1.3,1.4C6,338.2,5.3,338.2,4.7,338.3z"
				/>
			<path class="st210" d="M5.4,340.8c0.6,0,1.1,0,1.7,0c0.3,0.3,0.5,0.5,0.8,0.8l0,0c0,0.3,0,0.5,0,0.8c-0.3,0.3-0.6,0.6-0.8,0.8
				c-0.3,0-0.5,0-0.8,0C6,342.4,5.7,341.6,5.4,340.8z"/>
			<path class="st205" d="M5.4,340.8c0.3,0.8,0.6,1.6,0.8,2.5c-0.3,0-0.5,0-0.8,0s-0.5,0-0.8,0c0-0.3,0-0.5,0-0.8c0-0.5,0-1.1,0-1.6
				C4.9,340.8,5.2,340.8,5.4,340.8z"/>
			<path class="st128" d="M8.7,338.4c0,0.3,0,0.5-0.1,0.8c-0.3-0.8-0.5-1.6-0.8-2.4c0.3,0,0.5,0,0.8,0
				C8.7,337.2,8.7,337.8,8.7,338.4z"/>
			<path class="st175" d="M7.9,341.6c-0.3-0.3-0.5-0.5-0.8-0.8c0.3,0,0.5,0,0.8,0C7.9,341.1,7.9,341.3,7.9,341.6z"/>
			<path class="st211" d="M4.6,342.4c0,0.3,0,0.5,0,0.8c0,0.8,0,1.6,0,2.5c-0.3,0-0.5,0-0.8,0c0-1.1,0-2.2,0-3.3
				C4.1,342.4,4.3,342.4,4.6,342.4z"/>
			<path class="st212" d="M-1.1,346.5c-0.3,0-0.5,0-0.8,0c-0.3-0.3-0.6-0.5-0.8-0.8l0,0c0-0.3,0-0.6,0-0.8c0-0.3,0-0.5,0-0.8
				c0.3-0.3,0.6-0.5,0.8-0.8c0.6,0.5,1.1,1.1,1.7,1.6C-0.6,345.4-0.8,346-1.1,346.5z"/>
			<path class="st176" d="M-1.9,343.3c-0.3,0.3-0.6,0.5-0.8,0.8C-2.5,343.8-2.2,343.5-1.9,343.3z"/>
			<path class="st176" d="M-2.8,345.7c0.3,0.3,0.6,0.5,0.8,0.8C-2.2,346.3-2.5,346-2.8,345.7z"/>
			<path class="st176" d="M-2.8,344.9c0,0.3,0,0.6,0,0.8C-2.8,345.4-2.8,345.2-2.8,344.9z"/>
			<path class="st153" d="M5.4,350.6c0.4,0.3,0.8,0.7,1.3,1c-0.1,0.1-0.2,0.2-0.3,0.3C6.1,351.5,5.8,351.1,5.4,350.6L5.4,350.6z"/>
			<path class="st139" d="M3.8,353.1c0-0.8,0-1.6,0-2.4c0.3,0,0.5,0,0.8,0C4.3,351.4,4.1,352.3,3.8,353.1z"/>
			<path class="st213" d="M7,349.8c-0.5,0-1.1,0-1.6,0c-0.3,0-0.5,0-0.8,0c0-0.3,0-0.5,0-0.8l0,0c0.3,0,0.5,0,0.8,0
				c0.5,0,1.1,0,1.6,0C7.1,349.3,7.1,349.5,7,349.8z"/>
			<path class="st3" d="M7,349.8c0-0.3,0-0.5,0-0.8c0.3-0.6,0.6-1.1,0.8-1.7l0,0C7.6,348.2,7.3,349,7,349.8z"/>
			<path class="st180" d="M4.6,349.8c0.3,0,0.5,0,0.8,0c0,0.3,0,0.5,0,0.8l0,0c-0.3,0-0.5,0-0.8,0s-0.5,0-0.8,0c0-0.3,0-0.5,0-0.8
				l0,0C4.1,349.8,4.3,349.8,4.6,349.8z"/>
			<path class="st167" d="M6.3,356.4c-0.3-0.5-0.5-1.1-0.8-1.6C5.7,355.3,6,355.8,6.3,356.4z"/>
			<path class="st163" d="M7.9,347.4c-0.3,0.6-0.6,1.1-0.8,1.7c-0.5,0-1.1,0-1.6,0c-0.3-0.5-0.5-1.1-0.8-1.6c-0.3,0-0.5,0-0.8,0
				c0-0.5,0-1.1-0.1-1.6l0,0c0.3,0,0.5,0,0.8,0s0.5,0,0.8,0c0.8,0.3,1.6,0.5,2.5,0.8l0,0C7.9,346.8,7.9,347.1,7.9,347.4z"/>
			<path class="st163" d="M9.5,345.7c-0.5,0.3-1.1,0.6-1.6,0.8l0,0c0-0.6,0-1.1,0-1.7c0.3-0.5,0.6-1.1,0.8-1.6c0.3,0,0.5,0,0.8,0
				l0,0C9.5,344.1,9.5,344.9,9.5,345.7z"/>
			<path class="st175" d="M9.5,345.7c0-0.8,0-1.6,0-2.4c0.3,0.8,0.5,1.6,0.8,2.4C10,345.7,9.8,345.7,9.5,345.7z"/>
			<path class="st175" d="M7.9,342.4c0-0.3,0-0.5,0-0.8c0.3,0.3,0.6,0.5,0.8,0.8l0,0C8.4,342.4,8.2,342.4,7.9,342.4z"/>
			<path class="st175" d="M9.5,343.3c-0.3,0-0.5,0-0.8,0c0-0.3,0-0.5,0-0.8l0,0C9,342.7,9.3,343,9.5,343.3z"/>
			<path class="st3" d="M4.6,347.4c0.3,0.5,0.5,1.1,0.8,1.6c-0.3,0-0.5,0-0.8,0C4.6,348.5,4.6,347.9,4.6,347.4z"/>
			<path class="st195" d="M3.8,345.7c0,0.5,0,1.1,0.1,1.6c-0.3-0.5-0.6-1.1-0.9-1.6C3.2,345.7,3.5,345.7,3.8,345.7z"/>
			<path class="st3" d="M4.6,349.8c-0.3,0-0.6,0-0.8,0c0.3-0.3,0.6-0.5,0.8-0.8C4.6,349.3,4.6,349.6,4.6,349.8z"/>
			<path class="st211" d="M8.7,342.4c0,0.3,0,0.5,0,0.8c-0.3,0.5-0.6,1.1-0.8,1.6c-0.3-0.5-0.6-1.1-0.9-1.6l0,0
				c0.3-0.3,0.6-0.6,0.8-0.8C8.2,342.4,8.4,342.4,8.7,342.4z"/>
			<path class="st195" d="M5.4,343.3c0.3,0,0.5,0,0.8,0s0.5,0,0.8,0l0,0c0,0.3,0,0.5,0,0.8c-0.5,0-1.1,0-1.6,0
				C5.4,343.8,5.4,343.5,5.4,343.3z"/>
			<path class="st199" d="M5.4,343.3c0,0.3,0,0.5,0,0.8c0,0.5,0,1.1,0,1.6l0,0c-0.3,0-0.5,0-0.8,0c0-0.8,0-1.6,0-2.5
				C4.9,343.3,5.2,343.3,5.4,343.3z"/>
			<path class="st209" d="M7.1,344.1c0-0.3,0-0.5,0-0.8c0.3,0.5,0.6,1.1,0.9,1.6c0,0.6,0,1.1,0,1.7c-0.8-0.3-1.6-0.5-2.5-0.8l0,0
				c0.3,0,0.6,0,0.8,0c0.3-0.3,0.5-0.5,0.8-0.8C7.1,344.6,7.1,344.4,7.1,344.1z"/>
			<path class="st214" d="M6.3,345.7c-0.3,0-0.6,0-0.8,0c0-0.5,0-1.1,0-1.6c0.5,0,1.1,0,1.6,0c0,0.3,0,0.5,0,0.8
				C6.8,345.2,6.5,345.4,6.3,345.7z"/>
			<path class="st167" d="M6.3,345.7c0.3-0.3,0.5-0.5,0.8-0.8C6.8,345.2,6.5,345.4,6.3,345.7z"/>
		</g>
	</g>
</g>
<g id="Layer_2_1_">
	<g>
		<path class="st215" d="M-21.7,373.1c0-14.8,0-26.3,0-41.1c0-4.5,1.8-6.9,8.5-7.4c2.5-0.2,5,0,7.6-0.1c1.6,0.6,3.1,1.1,4.7,1.7
			c6.6,2.3,13.1,5,16.6,11.4c3.6,6.5,9.4,10.7,14.3,16c0,6.8,0,13.6,0,20.4c-0.3-7.5-3.8-12.9-9.4-17.9c-7-6.2-12.8-13.8-19.5-20.4
			c-3.8-3.8-7.8-7.7-13.3-9.2c-3-0.8-5.6-0.3-7,2.9c-0.5,1.5-1.4,3-1.5,4.6c-0.2,3.3,0,6.6,0,10c0,1.6,0,3.2,0,4.8
			c0,1.9,0,3.8,0,5.7c-0.1,6.2,0.7,17.4,2.9,21.6C-20.9,375.2-21.5,373.3-21.7,373.1z"/>
		<path class="st216" d="M-20.8,344.1c0-3.3-0.2-6.6,0-10c0.1-1.6,1-3.1,1.5-4.6c1.2,0.5,2.5,0.8,3.5,1.5c1.7,1.3,2.6,3.9,5.6,3.1
			c0.4-0.1,1.2,0.5,1.6,1c2.3,2.8,4.6,5.5,6.6,8.4c3.7,5.2,7.3,10.6,13.7,13c0.6,0.2,1.2,0.7,1.6,1.2c3.9,4.6,7.9,9.2,11.7,14
			c1.3,1.6,4.7,2.6,1.9,5.6c0.8,0.3,1.6,0.5,2.4,0.8c-0.3,0.5-0.6,1.1-0.9,1.6c0,0.3-11-0.2-14-0.7c0.5-0.2,1-0.3,1.4-0.5
			c-0.7-0.2-1.4-0.3-2-0.5c1.7-0.3,3.4-0.4,5-0.9c0.5-0.2,1.2-1.9,1-2.1c-3.9-4.4-7.7-8.8-11.9-12.9c-3.3-3.2-7.2-5.8-10.4-9
			c-4.3-4.4-8.2-9.1-12.4-13.6c-0.7-0.8-2-1.1-3-1.7c-0.5,1-1,2-1.4,2.9C-19.8,341.8-20.3,342.9-20.8,344.1z"/>
		<path class="st121" d="M29.9,353.7c-4.8-5.3-10.7-9.5-14.3-16c-3.5-6.4-10.1-9.1-16.6-11.4c-1.6-0.6-11.1-1-12.6-1.6
			c4.5-0.3,39.9-3.1,42.9-2.1c0.1,0.2,0,0,0,0.2c-0.2,0.6-0.7,1.2-0.6,1.7c0.3,1.5,1.2,3,1.2,4.4C30,337.2,29.9,345.4,29.9,353.7z"
			/>
		<path class="st217" d="M29.3,322.8c0.9-0.1,1.7,0.2,2,0.9c-0.3,4-0.1,8.2-0.5,12.2c0,9.5,0,19,0,28.4c-0.1,1.5,0,3-0.2,4.4
			c-0.4,3.1-0.8,6.2-1.3,9.3c-0.8-0.3-1.6-0.5-2.4-0.8c2.8-3-0.7-4-1.9-5.6c-3.8-4.7-7.8-9.3-11.7-14c-0.4-0.5-1-1-1.6-1.2
			c-6.4-2.4-10-7.7-13.7-13c-2.1-2.9-4.4-5.6-6.6-8.4c-0.4-0.5-1.2-1.1-1.6-1c-3,0.8-3.9-1.8-5.6-3.1c-1-0.8-2.3-1-3.5-1.5
			c1.4-3.2,4-3.7,7-2.9c5.5,1.5,9.4,5.4,13.3,9.2c6.7,6.6,12.5,14.2,19.5,20.4c5.6,5,13.9,13,8.8,22.3c1.5-1.4-19.7-28.4,0.6-24.9
			c0-8.2,0.1-16.5,0-24.7c0-1.5-0.9-2.9-1.2-4.4C28.6,324,29.1,323.4,29.3,322.8z"/>
		<path class="st218" d="M3.8,378.1c-6.2-0.3-12.5-0.4-18.7-1.2c-2.2-0.3-6.1-1.5-6.1-3.7c0.1-6.2,0.1-12.4,0.2-18.7
			c3.5-1.3,5.8-0.3,8.2,2.7c2.4,3.1,5.7,5.5,8.6,8.2c1,0.9,1.8,1.9,2.7,3c2.6,3,5.1,6.1,7.7,9.3C5.4,377.9,4.6,378,3.8,378.1z"/>
		<path class="st219" d="M-20.8,344.1c0.5-1.1,1-2.2,1.5-3.3c0.5-1,1-2,1.4-2.9c1,0.5,2.2,0.9,3,1.7c4.2,4.5,8.1,9.3,12.4,13.6
			c3.2,3.2,7.2,5.8,10.4,9c4.2,4.1,8,8.5,11.9,12.9c0.2,0.2-0.5,1.9-1,2.1c-1.6,0.5-3.3,0.6-5,0.9c-0.5-0.5-1.1-0.9-1.4-1.5
			c-0.6-1.1-0.9-2.8-1.8-3.2c-2.5-1.1-4.4-2.3-4.5-5.4c0-0.7-0.7-1.5-1.3-1.9c-2.7-1.8-6-2.9-6.5-6.8c-5.5-1.4-8.1-6.2-11.5-10
			c-0.8-0.9-1.5-1.8-2.2-2.7c-0.5-0.7-1-2-1.4-1.9c-0.8,0.1-1.7,0.7-2.3,1.4c-0.8,0.8-1.4,1.9-2,2.9
			C-20.9,347.3-20.9,345.7-20.8,344.1z"/>
		<path class="st220" d="M-20.9,348.9c0.7-1,1.2-2,2-2.9c0.6-0.6,1.5-1.3,2.3-1.4c0.4,0,0.9,1.3,1.4,1.9c0.7,0.9,1.4,1.8,2.2,2.7
			c3.4,3.8,6,8.6,11.5,10c0.4,3.9,3.8,5,6.5,6.8c0.6,0.4,1.3,1.3,1.3,1.9c0.1,3.1,1.9,4.3,4.5,5.4c0.9,0.4,1.1,2.1,1.8,3.2
			c0.3,0.6,0.9,1,1.4,1.5c0.7,0.2,1.4,0.3,2,0.5c-0.5,0.2-1,0.3-1.4,0.5c-3.5-0.3-7.1-0.5-10.6-0.8c0.8-0.1,1.6-0.2,2.5-0.3
			c-2.6-3.2-5.2-6.3-7.7-9.3c-0.9-1-1.7-2.1-2.7-3c-2.9-2.7-6.2-5.1-8.6-8.2c-2.3-3.1-4.7-4.1-8.2-2.7
			C-20.9,352.7-20.9,350.8-20.9,348.9z"/>
		<path class="st221" d="M29.3,378c1.6-2.9,0.9-6.2,1.3-9.3c0.2-1.5,0.1-2.9,0.2-4.4c0.3,0,0.5,0,0.8,0c0,2.4-0.1,4.8,0.1,7.2
			c0.1,1,0.6,1.9,0.9,2.9c1-0.4,2-0.9,3-1.3c-0.1,1.3-0.4,1.9-1.2,2.7c-2.4,1.6-3.5,2.3-5.9,3.9C28.7,379.1,29,378.6,29.3,378z"/>
		<path class="st222" d="M31.6,364.3c-0.3,0-0.5,0-0.8,0c0-9.5,0-19,0-28.4c0.3,1.1,0.5,2.2,0.8,3.3c0,0.9,0,1.9,0,2.8
			c-0.3,3.7,1.3,3.8,3.9,2.1c0,6.5,0,12.9,0,19.4c-0.9-0.7-1.8-1.4-2.7-2.1C32.4,362.3,32,363.3,31.6,364.3z"/>
		<path class="st223" d="M31.6,339.2c-0.3-1.1-0.5-2.2-0.8-3.3c0,0,1.2-13.9-4.9-13.5c6.1-0.4,9.6,3.5,9.6,5.5l0,8.9
			C34.7,338.3,34.5,341,31.6,339.2z"/>
		<path class="st224" d="M31.6,364.3c0.4-1,0.8-2,1.3-3c0.9,0.7,1.8,1.4,2.7,2.1c0,3.2,0,6.5,0,9.7c-1,0.4-2,0.9-3,1.3
			c-0.3-1-0.8-1.9-0.9-2.9C31.5,369.1,31.6,366.7,31.6,364.3z"/>
		<path class="st225" d="M31.6,339.2c2.9,1.8,3.1-0.8,3.9-2.4c0,2.4,0,4.8,0,7.2c-2.6,1.8-4.2,1.6-3.9-2.1
			C31.6,341,31.6,340.1,31.6,339.2z"/>
	</g>
</g>
</svg>
