<?xml version="1.0" encoding="utf-8"?>
<!-- Generator: Adobe Illustrator 19.1.0, SVG Export Plug-In . SVG Version: 6.00 Build 0)  -->
<svg version="1.1" xmlns="http://www.w3.org/2000/svg" xmlns:xlink="http://www.w3.org/1999/xlink" x="0px" y="0px"
	 viewBox="0 0 80 80" style="enable-background:new 0 0 80 80;" xml:space="preserve">
<style type="text/css">
	.st0{display:none;}
	.st1{display:inline;}
	.st2{fill:#292929;}
	.st3{fill:#313131;}
	.st4{fill:#181819;}
	.st5{fill:#424242;}
	.st6{fill:#0F0F10;}
	.st7{fill:#211C2A;}
	.st8{fill:#2B2347;}
	.st9{fill:#322D66;}
	.st10{fill:#282828;}
	.st11{fill:#45376B;}
	.st12{fill:#5B4A81;}
	.st13{fill:#58515D;}
	.st14{fill:#372D4F;}
	.st15{fill:#0C2156;}
	.st16{fill:#0B2762;}
	.st17{fill:#0F2F74;}
	.st18{fill:#113175;}
	.st19{fill:#072F78;}
	.st20{fill:#264581;}
	.st21{fill:#1F4CA0;}
	.st22{fill:#204EA3;}
	.st23{fill:#376AC1;}
	.st24{fill:#24447E;}
	.st25{fill:#1C4FA9;}
	.st26{fill:#4569B4;}
	.st27{fill:#04225D;}
	.st28{fill:#1E4181;}
	.st29{fill:#1E458C;}
	.st30{fill:#1E3F7A;}
	.st31{fill:#2F589D;}
	.st32{fill:#63779E;}
	.st33{fill:#0C3D92;}
	.st34{fill:#0C59CF;}
	.st35{fill:#426FC7;}
	.st36{fill:#063284;}
	.st37{fill:#033C9C;}
	.st38{fill:#034BC0;}
	.st39{fill:#0546B7;}
	.st40{fill:#2A68CB;}
	.st41{fill:#3065C5;}
	.st42{fill:#607DB1;}
	.st43{fill:#387EE7;}
	.st44{fill:#0957CD;}
	.st45{fill:#186CDD;}
	.st46{fill:#155ECF;}
	.st47{fill:#4C89EF;}
	.st48{fill:#022261;}
	.st49{fill:#4269BA;}
	.st50{fill:#9AAACB;}
	.st51{fill:#D3E2F5;}
	.st52{fill:#1F6FE3;}
	.st53{fill:#3D79E2;}
	.st54{fill:#6C8FD7;}
	.st55{fill:#084DBB;}
	.st56{fill:#075CD6;}
	.st57{fill:#AAC0E7;}
	.st58{fill:#8CB7F5;}
	.st59{fill:#D6EBFD;}
	.st60{fill:#98B7ED;}
	.st61{fill:#DEF1FC;}
	.st62{fill:#C4E7FD;}
	.st63{fill:#480F08;}
	.st64{fill:#4C241A;}
	.st65{fill:#532217;}
	.st66{fill:#340D09;}
	.st67{fill:#572D1A;}
	.st68{fill:#370300;}
	.st69{fill:#5A160C;}
	.st70{fill:#56221B;}
	.st71{fill:#481E19;}
	.st72{fill:#842416;}
	.st73{fill:#813126;}
	.st74{fill:#902D13;}
	.st75{fill:#93311E;}
	.st76{fill:#672F2A;}
	.st77{fill:#9A412D;}
	.st78{fill:#98492F;}
	.st79{fill:#6B2D1F;}
	.st80{fill:#AE512F;}
	.st81{fill:#691506;}
	.st82{fill:#A83624;}
	.st83{fill:#A13518;}
	.st84{fill:#C54A1C;}
	.st85{fill:#BE3A17;}
	.st86{fill:#B23421;}
	.st87{fill:#BA4428;}
	.st88{fill:#AC412A;}
	.st89{fill:#C0522C;}
	.st90{fill:#8E240F;}
	.st91{fill:#CE3A1B;}
	.st92{fill:#CD3F17;}
	.st93{fill:#C2371E;}
	.st94{fill:#DD4A15;}
	.st95{fill:#E8622A;}
	.st96{fill:#D65221;}
	.st97{fill:#C5321A;}
	.st98{fill:#2862CD;}
	.st99{fill:#1842AA;}
	.st100{fill:#3778D0;}
	.st101{fill:#133EB3;}
	.st102{fill:#2459CC;}
	.st103{fill:#1549C2;}
	.st104{fill:#4374D7;}
	.st105{fill:#4471B2;}
	.st106{fill:#3A5994;}
	.st107{fill:#385A94;}
	.st108{fill:#5A98E2;}
	.st109{fill:#4472D6;}
	.st110{fill:#235FBF;}
</style>
<g id="Layer_1" class="st0">
	<g class="st1">
		<path class="st2" d="M11.9,33c3.8-20.2,23.6-27.2,40.2-22.2c0,0.5-0.1,0.9-0.3,1.3c-2.4,1.8-4.2-1.2-6.2,2.3
			c-10.1-0.9-17.8,4.9-23.5,12c-4.7,5.8-3.5,12.2-2.9,18.6c0.1,0.5,0.3,1,0.4,1.5c0.2,0.4,0.4,0.8,0.3,1.4c-1,6,3.6,8.9,7.4,11.9
			c3.8,3,8.2,4.9,13.3,5.2c2,0.1,4.5-0.9,5.9,1.6c0.9,3.4-1.7,2.5-3.4,3.1c-2.9,1.1-5.6-0.6-8.3,1.6C22.8,69,14.8,59.1,12.1,45.4
			C11.2,41.2,11.5,37.6,11.9,33z"/>
		<path class="st2" d="M52.2,10.8c8.2,2.8,10.6,6.8,14.2,12.5c2.7,4.4,4.2,9.8,4.2,17c0,2.6-5.7,3.5-6.4,5.3
			c-0.5,1.5,0.3,3.7-2.4,3.7c-2.7-0.7-2.2-3.1-2.2-4.9c0.2-9.1-2.6-16.8-9.2-23.2c-1.9-1.9-3.3-4.4-4.7-6.8c0.6-3.6,3.3-1.7,5-1.5
			c1.2,0.1,2.6,1.3,3.6,1.9c-0.1-1.4-4-0.4-2.4-3.5C51.9,11.1,52,11,52.2,10.8z"/>
		<path class="st3" d="M63.3,44.2c1.9-2.4,2.3-3.4,7.2-4.3c-0.4,8.9-2.7,18.3-9.6,25c-6.7,6.5-17.4,8.6-26.6,6.3
			c-1.9-2,2.1-2.2,4.3-2.3c3.3-0.2,3.5-0.6,6.6-1.9c-0.3-1.2,2.9-1.5,4.3-1.9c6.1-1.9,9-7,11.7-12.1C62.2,51.1,60.2,43.9,63.3,44.2z
			"/>
		<path class="st4" d="M63.2,47.9C60.8,57.2,56,65.8,45,67c-9.8,0.5-18.5-1.5-24.5-10.1c-2.3-3.3-4.2-6.7-4.5-10.9
			c1.2-1.3,2.9-1.2,4.4-2c3.7-2.1,5.8-1.1,7.3,3.1c0.2,0.6,0.6-0.3,0,0c-0.3,0.1-0.5,0-0.4-0.2c0.2-0.9-0.7-2,0.4-2.8
			c6.5-1,9.8,1.5,10.8,8c0.2,1.1,1,1.6,1.7,2.2c2.1,0.7,3.8-0.2,5.6-1.1c3-1.8,4.8-4.3,5.7-7.6c0.3-0.6,0.3-1.4,0.7-1.9
			c1.3-3.9,0-7-3.5-8.7c-3.9-1.9-5.2-6.4-9-8.3c-1.1-0.6-1.4-1.8-2.3-2.5c-1.1-1-3.3-1.5-2.3-3.7c0.9-2.1,2.7-2.9,4.9-2.7
			c-12.5,0-20.7,8.3-21.6,21.9c-0.2,2.4,1.6,10-1.5,11.2c-7.2-17.9,5-40,26-38c2.5,0.1,3.6,0.6,4.9,1c0,0,2.6,1.2,3.4,1.9
			C61.8,23.8,65.6,35.5,63.2,47.9z"/>
		<path class="st5" d="M43.1,12.2c2.2-4.2,12.1,0.6,13.6,1.7c1.5,1.1,4.3,2.6,2.7,3.8c-1.3,1.9-1.8,1.5-4.7-1
			C48.9,11.6,44.4,12.6,43.1,12.2z"/>
		<path class="st6" d="M28,45c1.3,1.5,2.8,2.8,4,4.4c0.7,1,0.7,2.3-0.4,3.1c-1.2,0.9-2.2,0.2-3-0.8c-0.6-0.8-1.2-1.6-1.6-2.5
			c-1.6-3-3.1-5.8-5.1-0.3c-0.7,1.9-1.8,1.7-3,0.4c-1-1.1-1.9-2.3-2.8-3.5l0,0c-0.2-7.4,0.1-14.5,4.4-21c4.8-7.2,13.7-11.3,21.4-9.2
			c1.4,0.4,3.4,0.4,3.5,2.2c0.2,2.1-2,1.7-3.3,2.1c-1.1,0.3-2.4,0.1-3.1,1.4c0.5,2.2,3.9,1.1,4.1,3.6c-0.5,1.7-2,2.3-3.3,2
			c-2.1-0.5-3.2,1-4.7,1.7c-1.7,1.2-3,2.8-4.2,4.5c-0.3,0.6-0.7,1.2-1,1.9c-0.5,0.7-0.5,1.6-1,2.3c-1.1,2.2-0.5,4.7-0.8,7
			C28.1,44.6,28,44.8,28,45z"/>
		<path class="st7" d="M33,26.9c3-2.3,6.6-1.9,10-1.9c2.2,3.6,4.9,6.5,8.7,8.7c4.9,2.8,4.9,7.5,3.4,12.3c-1.6-0.4-3.3-0.7-2.7-3.2
			c0.3-1,0.8-2.4-0.9-2.7c-1.2-0.2-1.7,1-2.2,1.7c-3.5,4.8-7.5,9.2-9.2,15.1c-1.9-0.6-3.1-1.7-3.4-3.8c-0.7-5-3.8-7.5-8.6-8l0,0
			c-0.3-0.4-0.5-0.8-0.5-1.2c0-0.5,0.3-1.1,0.7-1.2c3.4-0.6,4.3-3,4.7-5.9c0.6-0.9,1.2-1.8,2-2.6c2.2-2.3,2.9-4.2-0.9-5.6
			C33.3,28.2,33.1,27.6,33,26.9z"/>
		<path class="st8" d="M40.1,56.9c-0.8-3.5,0.4-6.7,2.6-9.2c2.1-2.4,3.9-4.9,5.5-7.6c0.9-1.6,2-3.4,4.2-2.9c2.4,0.6,2.5,2.8,2.7,4.8
			c0.1,1.3,0.1,2.6,0.1,4c-0.3,0.4-0.6,0.7-0.9,1.1c-5.4,0.8-7.4,3.3-7.1,8.9C44.8,57.1,42.4,57,40.1,56.9z"/>
		<path class="st9" d="M47,56c-4.1-0.3-5.1-2-2.5-5.4c1.3-1.7,2.5-3.6,3.8-5.2c0.9-1.2,2-2.5,3.6-2.3c2.2,0.3,1.8,2.5,2.2,4
			C53,51.1,50.3,53.8,47,56z"/>
		<path class="st10" d="M38.8,61.7c3.4-2.1,6-2.1,9.8-1.8C45.3,63,42.8,63.3,38.8,61.7z"/>
		<path class="st11" d="M28,32.7c1.4-3.3,2.8-4.6,4.9-5.7c2.6-0.3,5.1-0.1,6.4,2.5c1.3,2.6-1.6,3.5-2.7,5.2
			c-0.5,0.8-1.2,1.6-1.8,2.4c-2.1,2.7-3.5,6.3-7.8,6.3c-1-2.4-0.7-4.8-0.2-7.3C27.3,35.4,27.7,33.3,28,32.7"/>
		<path class="st12" d="M28.9,32c1.8-0.9,2.8-3.4,5.7-3c-0.8,3.8-2.8,6.6-5.2,9.2c-2-1-1-2.8-1.4-4.1C28.3,33.4,28.6,32.7,28.9,32z"
			/>
		<path class="st4" d="M26.9,36c0.2,2.4-0.5,4.9,1,7.1c0.8,0.2,0.8,0.4,0.1,0.8c0,0.3,0,0.7,0,1C25.6,42.3,25.7,39.2,26.9,36z"/>
		<path class="st13" d="M42.2,37.4c-0.8,1.4-0.9,3.6-3.2,3.7c-1.2,0.1-1.5-1.1-1.4-2.1c0.1-1.8,1-3.2,2.8-3.5
			C41.7,35.3,42.2,36.2,42.2,37.4z"/>
		<path class="st14" d="M28,44c-0.1-0.3-0.1-0.5-0.1-0.8c2.3-2,4.7-4.1,7-6.1C34.5,41.2,32.2,43.5,28,44z"/>
	</g>
</g>
<g id="Layer_2" class="st0">
	<g class="st1">
		<path class="st15" d="M41.7,72.5c6.8-1.3,9.4-3.6,10.4-4c3.2-1.4,4.7-3.1,6.7-6c1-2.3,2.8-4.3,4.3-6.2c3.2-7,3.6-12.5,4.3-20.4
			c-0.3-1.3-1.2-2.3-1.4-3.6c-0.4-0.9-0.2-1.9-0.6-2.7c-0.4-1.6-2.8-2.4-2.9-4.2c0-0.4-0.2-1.4,0.1-1.7c0-0.4-7.3-11.2-22.9-14.4
			c17.3,0.1,26.7,12.9,29,20.9c0.7,1.9,1.8,6.8,1.8,10.1c0,7-1,8.8-1.8,11.7c-1.5,5.7-3.9,9.4-7.7,13.5C58.7,68,50.3,72.5,41.7,72.5
			z"/>
		<path class="st16" d="M12.9,29.3c0.2-0.7,0.5-1.3,0.7-2c0.7,0.1,0.7,0.6,0.9,1.1c0.2,1.6-0.1,3.2-0.9,4.6
			c-0.9,1.6-1.1,3.1-0.5,4.8c0,5.6,1.6,10.7,5.2,15.1c0.3,0.3,0.4,0.7,0.4,1.1c0,0.6-0.3,1.1-0.6,1.6c-0.4,0.7-0.7,1.3,0,1.9
			c0.7,0.6,1.4,0.1,2-0.3c4.3-2.4,6.9-1.6,9.3,2.7c0.6,1.1,1.5,2.1,1.6,3.5c0.2,1.4,0.2,2.7-1.1,3.7c1.4,1.2,2.8,2.2,4.5,2.8
			c0.4,0.2,0.8,0.5,1,1c-0.2,0.7,2.2,1.7,1.6,1.4c-5.9-1-13.4-4.9-17.3-9.4c-4.7-5.3-7.6-11.5-8.2-18.5
			C10.7,36.9,11.3,33.5,12.9,29.3z"/>
		<path class="st17" d="M13.9,28.3c-0.1-0.3-0.2-0.6-0.4-0.9c2.8-6.9,7.6-12,14-15.5c3.2-1.8,7.6-2.5,10.1-2.5c7-0.1,7.5,0.6,9.2,1
			c6.3,1.4,11.1,5.1,15,10.1c0.6,0.7,1.6,1.1,1.8,2.1c-0.3,0.4-0.1,1-0.7,1.2c-0.5,0.1-1.1,0-1.7,0.2c-3.3,1.5-5.5,0.2-7.3-2.5
			c-2.3-2.6-4.9-4.9-7.7-6.9C42,11.3,37.1,11,32,11.7c-1,0.2-1.9,0.7-2.9,1.1c-4.3,3.4-9,6.5-11.5,11.6c-0.7,1-1.7,1.7-2.4,2.7
			C14.8,27.5,14.8,28.4,13.9,28.3z"/>
		<path class="st18" d="M41.3,72.6c-1.6,0-2.7-0.1-4.7-0.3c-0.8-0.4-1.8-0.3-2.4-1c0.3-0.2,0.7-0.3,1-0.5c0.8-0.5,1.7-0.2,2.6-0.1
			c3.7,0.3,6.6-0.5,7.4-4.5c-1.5,1.1-2.9,2.8-5.1,3.5c-2.5,0.8-4.2-0.7-6.1-2c-0.6,1,0.7,1.7,0.2,2.6c-2.5-0.1-3.7-2.7-6.3-3.1
			c0.8-1.1,2.8-0.5,2.5-2.5c-0.2-1.3-0.5-2.4-1.2-3.6c-1.2-2.1-2-4.4-5-4.6c-1.2-0.1-2.4,0.1-3.4,0.7c-1.1,0.7-2.1,2.2-3.5,0.7
			c-1.4-1.5,0-2.6,0.9-3.7c0.3-0.3,0.6-0.3,1-0.1c0.5,0.8-0.6,1.4-0.3,2.4c1.3-0.2,2.1-1.1,3-1.8c3.5-2.2,4.3-2.1,6.5,1.3
			c0.2,0.3,0.4,0.7,0.8,0.8c1.5-3.6,1.5-3.6,6.6-1.7c1,0.4,2,0.5,3,1c0.8,0.7,2.5,0.3,2.7,2c-1.6,0.9-3.3-0.1-5,0
			c-3.4,0.2-4.3,1.5-3,4.6c1.6,4,5.6,5,9,2.4c1.8-1.3,3.2-2.9,4.5-4.7c1.4-0.5,2.7,1,4.1,0c0.4-0.4,0.8-0.7,1.3-1
			c1.1-0.8,2.4-0.8,3.7-0.6c1.7,0.3,3.1,0.6,2.3,2.9c-0.3,0.9,0.5,0.8,0.9,1.1c-0.4,2.8-2.7,3.7-4.7,4.9c-1.3,0.8-2.9,1.2-3.9,2.5
			C47.8,71.8,47.1,72,41.3,72.6z"/>
		<path class="st19" d="M19.2,54.3c-0.3,0-0.7,0-1,0c-1.9-2.7-3.7-5.4-4.7-8.7c-0.8-2.6-1.4-5.1-1.1-7.7c0.3-0.1,0.5,0,0.7,0.1
			c1.3,2.6,1.5,5.7,3.4,8.1c1.1,1.3,2,2.7,3.5,3.6c1.2,0.7,1.8,1.8,1.5,3.2C21.1,53.9,20.6,55,19.2,54.3z"/>
		<path class="st20" d="M34.2,70.3c-0.2-0.3-0.5-0.6-0.7-1c-0.4-0.8-1.3-1.7-0.2-2.5c0.9-0.7,1.4,0.5,1.9,1c2.3,2.1,4.6,2.1,7,0.1
			c1.2-1,2.5-2,3.8-3.1c-1,5.8-3.3,7.6-10.9,6.1C34.7,70.8,34.4,70.7,34.2,70.3z"/>
		<path class="st21" d="M12.9,38c-0.1,0-0.3-0.1-0.4-0.1c-0.7-1.8-0.7-3.4,0.5-5.1c0.9-1.3,1-3,0.9-4.6c0.3-0.5,0.6-0.9,0.9-1.4
			c0.7,0.9,2.1,0.3,2.8,1.3c-0.6,2.9-0.2,6-1.8,8.6c-0.5,0.5-1,0.3-1.4,0c-1-0.6-1,0.2-1.1,0.8C13.2,37.7,13.1,37.9,12.9,38z"/>
		<path class="st22" d="M31.8,11.3c5.7-1.2,11.2-0.4,15.8,3.2c2.5,1.9,5.1,3.8,6.9,6.5c0.3,1.3,1.1,2.4,2,3.3
			c0.1,0.5-0.1,0.9-0.3,1.4c-0.7,2.3-0.4,2.9,2,3.5c0.4,0.1,0.8,0.2,1.1,0.4c0.1,0.2,0.1,0.4,0,0.7c-0.3,0.2-0.6,0.4-0.9,0.4
			c-1.2,0.1-2.5,0-3.6,0.8c-0.6,0.3-1.1,0.9-1.8,0.7c-0.2-0.9-0.6-1.6-1.2-2.1c-0.4-1.3-0.5-2.7-0.8-4c1.2-0.9,0.3-1.8,0-2.6
			c0.4-1-0.2-1.6-0.8-2.3c-0.9-1.2-2.3-2-2.8-3.5c-1.8-3-4.9-3.9-7.9-4.9c-1.6-0.5-3.3-0.7-5-0.7C33.5,12,32.5,12.1,31.8,11.3z"/>
		<path class="st23" d="M31.8,11.3c5.3-0.3,10.3,0.8,14.7,4c0.7,0.5,2.1,0.8,1.3,2.3c-1.7,0.8-3.1-0.5-4.6-0.9
			c-2.4-1.8-5.3-1.9-8.1-2.3c-0.8-0.1-1.6,0.2-2.1,0.8c-0.5,0.4-0.6,1.1-1.2,1.5c-0.9,0-1.6-0.3-2.4-0.6c-0.1-0.2-0.3-0.3-0.4-0.5
			c-0.6-1.1-2.2-2.2,0-3.3C29.8,11.9,30.7,11.3,31.8,11.3z"/>
		<path class="st24" d="M56.4,24.4c-1.9-0.4-1.9-1.9-1.9-3.4c2.3,2.6,2.5,3.9,6.6,2c0.7-0.3,1.4,0,2,0.4c0,0.3,0,0.7,0,1
			c-0.9,1.4-1.6,2.6,0.8,3.2c0.5,0.1,0.9,0.6,1.2,1.1c0.5,0.6,1,1.3,1.5,1.9c-0.2,1.8-0.8,2.2-2.3,1.3c-1.6-1-3.2-1.5-5-1.8
			c0-0.2,0-0.3,0-0.5c-0.1-0.3,0-0.6,0.1-0.9c1.1-2.4,0.7-3.2-1.7-3.8C57.2,24.9,56.8,24.8,56.4,24.4z"/>
		<path class="st25" d="M28.8,12.4c-1.8,1.4,0.6,2.2,0.5,3.3c-1,1.3-2.6,1.5-3.9,2.2c-2.4,1.4-3.7,3.9-5.6,5.8
			c-0.8,0.4-1.6,1.1-2.6,0.7C19.4,18.7,24.5,15.9,28.8,12.4z"/>
		<path class="st26" d="M17.3,24.4c0.8-0.3,1.6-0.6,2.4-1c0.2-0.2,0.4-0.2,0.6,0c0.2,0.9-0.6,1.2-1.2,1.6c-1.2,0.8,0,1.1,0.3,1.5
			c-0.3,1.1-1,1.6-2.1,1.3c-1.1,0.4-2.3,1.2-2.4-1C15.5,25.9,16.3,25,17.3,24.4z"/>
		<path class="st27" d="M47.2,60.6c-1.7,4.8-6.8,7.7-11,6.3c-2.3-0.8-4.5-4.5-4-7c0.3-1.5,1.3-2.1,2.7-2.2c2.2-0.2,4.3,0.3,6.4,0.5
			C44.6,57.5,46.6,58.4,47.2,60.6z"/>
		<path class="st28" d="M63.7,57.7c-1.6,1.6-2.5,3.9-4.4,5.3c-0.7-0.1-1.3,0.6-2,0.4c-0.4-1.3,1.9-2.5,0.3-3.4
			c-1.5-0.8-3.4-1.1-5.1,0.1c-0.8-1.6-0.8-3.7-3.2-4.1c-0.2-0.2-0.3-0.4-0.3-0.6c0.3-0.5,0.7-0.6,1.3-0.7c0.8,0,1.4,0.3,2,0.7
			c3.2,2.2,6.4,1.8,8.8-1c0.8-0.9,1.5-2.4,2.8-1.6c1.3,0.8,0.6,2.3,0.3,3.6C64.2,56.9,63.9,57.3,63.7,57.7z"/>
		<path class="st29" d="M19.2,54.3c1-0.1,1.5-0.7,1.9-1.5c0.3-0.5,0.7-0.9,1.4-0.6c1.6,1.2,3.5,0.3,5.1,0.2c2.5-0.1,4.5,0.5,6.6,1.5
			c0.7,0.5,1.6,0.7,1.4,1.8c-0.2,0-0.3,0-0.5-0.1c-4.2-1.6-4.2-1.6-5.7,2.7c-1.1-0.8-1.7-1.9-2.2-3.1c-0.8-1.7-1.9-1.8-3.3-1
			c-1.2,0.7-2.3,1.5-3.4,2.2c-0.8,0.5-1.6,1.6-2.5,0.7c-0.9-0.9,0.1-1.7,0.8-2.4C19,54.8,19.1,54.5,19.2,54.3z"/>
		<path class="st30" d="M47.2,60.6c-1.3-2.4-3.9-1.6-5.8-2.4c-1-0.5-1.9-1-2.9-1.4c0.7-0.6,2-0.8,2-2.1c0.6-0.3,1.1-0.1,1.6,0.1
			c1.8,0.6,3.4,2.1,5.4,1.1c0.5-0.2,1-0.6,1.6-0.2l0.1,0.1c0.2,0.7-0.3,1.2-0.6,1.6c-0.7,0.8-0.6,1.5-0.1,2.3
			c0.2,0.2,0.4,0.4,0.7,0.6c0.8,0.4,1.7,0.1,2.4,0.8C50,62.2,48.6,61.6,47.2,60.6z"/>
		<path class="st31" d="M40.5,54.8c1.8,3.1-1.1,1.5-1.9,1.9c-1-0.3-1.9-0.7-2.9-1c-0.5-0.5-1-1-1.5-1.4c0.4-0.6,1-0.9,1.6-1.2
			c0.9-0.2,1.8,0.1,2.7,0.4C39.2,53.8,40,54.1,40.5,54.8z"/>
		<path class="st32" d="M51.6,61.1c-1,0-2.1,0.5-2.9-0.4c0.4-0.7,1.3-0.5,1.8-1c0.3-0.4,0.5-0.9,0.2-1.3c-0.5-0.6-1-0.3-1.5,0
			c-0.5,0.5-0.3,1.4-1,1.8c-2-2,0.1-3.1,1.1-4.4c2.9,0.1,3.4,0.9,3.4,4.3C52.2,60.4,51.9,60.8,51.6,61.1z"/>
		<path class="st17" d="M47.7,56.3c-2.3,1.6-3.9-0.4-5.8-1c-0.1-1.9,1.5-2.3,2.7-3c4.6-2.8,8.2-6.4,10.6-11.2c1-2.1,1.7-4.2,1.6-6.5
			c0-1.6,0.1-3.2,1.6-4.4c0.3,0,0.6,0,1,0c1.9-0.9,3.3,0,4.7,1c0.9,0.7,2.1,1.6,2.6-0.5c1.4,7.1,2.6,14.2-0.5,21.2
			c-0.8,1.9-0.5,4.4-2.5,5.8c0.2-1,0.7-2,0.5-3.1c-0.1-0.5,0.3-1.3-0.4-1.5c-0.7-0.2-1.2,0.5-1.5,1c-1.2,2.2-3,3-5.5,3.3
			c-1.9,0.2-3.3,0.3-4.5-1.3c-0.5-0.7-1.2-1-2.1-0.9c-0.2-1.5,1.4-2.7,0.7-4.5c-1.4,1-2.7,2.2-4,3.2C45.3,55.1,47.3,55.5,47.7,56.3z
			"/>
		<path class="st17" d="M65.1,28.7c-0.5-0.2-1-0.5-1.5-0.7c-0.8-0.4-2.2,0-2.3-1.3c-0.1-1.2,1-1.7,1.8-2.3
			C63.3,26.1,65,27,65.1,28.7z"/>
		<path class="st33" d="M22.6,52.4c-0.5,0.2-1,0.3-1.4,0.5c0-0.8,0.2-1.7-0.6-2.2c-5-2.8-6.7-7.5-7.6-12.7c0,0,0.1-0.1,0.1-0.1
			c0.8-0.1,1.1,0.5,1.5,1c2.5,3.4,5.1,6.5,8.7,8.7c0.7,0.5,1.4,1.1,1.7,2C25.1,51.3,24.2,52.2,22.6,52.4z"/>
		<path class="st34" d="M17.3,27.8c0.7-0.4,1.6-0.6,2-1.4c0.4-0.5,0.9-0.5,1.5-0.4c1.2,0.5,1.4,1.4,1.2,2.5c-0.5,2.9,0.3,5.4,1.6,8
			c1.6,3,2.8,6.2,2.8,9.8c-0.3,1-1,1.3-1.8,0.8c-3.8-2.4-7.1-5.2-9.3-9.2c-0.2-0.3-0.1-0.6,0-0.9C16.7,34.1,16.2,30.8,17.3,27.8z"/>
		<path class="st35" d="M15.3,37c2.2,4.3,5.8,7.1,9.6,9.8c0.4,0.3,0.7,0.2,1-0.2c1.5-1.3,2.7-0.1,3.9,0.5c0.1,0.2,0.1,0.5-0.1,0.7
			c-0.7,0.5-1.5,0.5-2.3,0.5c-1.1-0.1-1.8,0.5-2.3,1.4c-0.2,0.2-0.4,0.2-0.7,0c-4.6-3.1-8.5-7-11.5-11.6c0.3-0.8-1-1.8,0.2-2.3
			C14.3,35.1,14.7,36.4,15.3,37z"/>
		<path class="st36" d="M58.3,30.2c-0.7,1.8-0.9,3.7-1,5.6c-0.2,3.8-2,7.1-4.4,10c-2.4,2.9-5,5.6-8.6,7.3c-1,0.5-1.9,1.2-2.5,2.2
			c-0.5-0.2-1-0.3-1.5-0.5c-0.8-0.1-1.4-0.3-1.9-1c-0.5-0.6-0.1-1,0.4-1.4c0.5-0.4,1.1-0.6,1.7-0.9c7.2-3.4,11-9.3,12.3-17
			c0.2-1.4,0.9-2.4,1.6-3.4C55.5,29.9,57,30.2,58.3,30.2z"/>
		<path class="st37" d="M54.5,31.2c-0.7,1.7-0.8,3.6-1.2,5.3c-2,7.4-5.9,13.3-13.5,16.1c-0.6,0.2-1.2,0.5-1.2,1.3
			c-1-0.2-1.9-0.3-2.9-0.5c-2.2,0-3.8-1-4.7-3C31,49,32,49,33,49.1c8,1,14-5.1,15.8-11c0.3-1.2,0.6-2.3,0.8-3.5
			c0.8-1.2,1.5-2.7,3.3-2.4C53.5,31.8,54,31.5,54.5,31.2z"/>
		<path class="st38" d="M51.1,25.8c1.2,1.2,1,2.8,1,4.3c-0.5,2-2.1,2.6-3.9,2.9c-0.9-0.1-1.6-0.5-1.8-1.3c-0.4-2.2-1-4.5,0.6-6.6
			C48.5,24.5,49.9,24.7,51.1,25.8z"/>
		<path class="st39" d="M43.4,16.2c1.5,0.5,2.9,1,4.4,1.5c1.2,1.3,2.5,2.6,3.7,3.9c0.6,0.7,1.2,1.5-0.3,1.8c-1.3,0.9-2.4,0-3.5-0.5
			c-2-1.4-3.8-3-5.3-4.9C41.4,16.9,41.4,15.9,43.4,16.2z"/>
		<path class="st40" d="M47.7,22.4c1.1,0.4,2.1,1,3.4,1c0.2,0.2,0.5,0.4,0.7,0.6c0.5,0.4,1.2,0.7,1,1.4c-0.3,0.7-1.1,0.3-1.7,0.4
			c-1.3,0-2.5-0.7-3.9-0.5c-0.9,0.6-1.7,0.2-2.4-0.3c-0.3-1.1-0.4-2.1,0.1-3.2C46,21.5,46.8,22.1,47.7,22.4z"/>
		<path class="st41" d="M48.7,32.6c1.3-0.6,2.4-1.4,3.4-2.4c1.5,0,1.2,1,1,1.9c-1.2,0.6-2,1.6-2.9,2.4c-0.5,0.6-1,1.3-1.9,1.1
			c-0.5-0.4-0.8-1-1.1-1.6C47.1,33,48.2,33.1,48.7,32.6z"/>
		<path class="st42" d="M56.4,24.4c1,0.1,2.1-0.2,3,0.4c1.8,1.1,1.7,3-0.1,4.9c-1.4,0-3,0.4-3.8-1.3C54.8,26.8,55.5,25.6,56.4,24.4z
			"/>
		<path class="st43" d="M29.3,16.2c0.8-0.4,1.4-0.2,2,0.5c0.2,0.5,0.1,0.9,0,1.4c-0.4,1.6,0.5,2.3,1.9,2.2c3.3-0.1,6.4,1,9.7,1.2
			c0.5,0.2,1.1,0.4,1.5,0.8c0.9,0.9,0.9,1.7-0.5,2.1c-1.5,0.4-3.6-0.3-4.5,1.2c-0.8,1.3,0.3,2.9,0.3,4.5c0,2.3-0.9,4.2-1.8,6.2
			c-0.4,0.9-1.3,1.4-2.3,1.7c-1.3,0.4-2.6,0.8-4,1c-1.8,0.2-3,0.9-3.4,2.8c-0.1,0.5-0.3,1.1-0.7,1.5C27,43.9,26.4,44,26,43
			c-0.4-1-0.8-2.1-1-3.2c-0.6-3.8-1.5-7.6-0.9-11.5c0.2-1.5-0.5-2.2-1.8-2.7c-0.6-1.4,0.6-1.4,1.3-1.5c1.2-0.2,2.2,0.4,2.7,1.6
			c0.5,1.3,0.3,2.7,0.1,4.1c-0.3,2.2-0.5,4.4,0.3,7c1.3-2.3,2.9-2.6,5.2-2.3c2.8,0.4,4.5-3,3.2-5.7c-0.3-0.6-0.7-1.1-1.1-1.5
			c-1.3-1.4-2.2-2.7,0.4-4.3c-2.9-0.4-5.1-1.5-7.3-2.2C26.9,18.7,27.4,17.1,29.3,16.2z"/>
		<path class="st44" d="M47.7,22.4c-1,0.2-1.9-0.3-2.9-0.5c-0.4,0.4-0.9,0.2-1.4,0.1c-3.6-0.5-6.6-2.2-9.6-4.1
			c-1.1-0.7-2-1.4-1.5-2.8c0.5-1,1.3-1.7,2.5-1.4c2.9,0.6,6.1,0.4,8.6,2.4c-1.3,0.1-1.6,0.6-0.6,1.6C44.4,19.3,46.1,20.9,47.7,22.4z
			"/>
		<path class="st45" d="M32.2,15.2c0.4,2.8,3.3,2.7,4.9,4c1.7,1.5,4.1,1.9,6.3,2.7c-0.2,0.2-0.3,0.2-0.5,0
			c-3.7,0.1-7.2-1.2-10.8-1.1c-2,0.1-2.2-1.3-0.7-4.2C31.6,16.2,31.9,15.7,32.2,15.2z"/>
		<path class="st46" d="M29.3,16.2c-1.3,1.2-1.2,3.1-2.4,4.4c0,0.4-0.1,0.7-0.3,1c-0.1,0.2-0.3,0.3-0.5,0.5c-1.9,0.8-3.8,2-6,1.4
			c-0.2,0-0.4,0-0.5,0c2.2-3.8,5.2-6.7,9.7-7.7C29.3,15.8,29.3,16,29.3,16.2z"/>
		<path class="st47" d="M20.2,23.4c2.1-0.7,4.2-1.3,6.2-2c0.4,0.6-0.3,1.2-0.1,1.8c0.2,0.9,0.6,1.7,1.7,1.8c0.8,0.1,1.4-0.3,1.6-1.1
			c0.3-1-0.2-1.7-1.1-2.2c-0.6-0.3-1.4-0.3-2-0.8c0.1-0.2,0.3-0.4,0.4-0.6c3,0,5.5,1.9,8.5,2c-0.1,0.4,0,0.7-0.1,0.7
			c-2.6,1.6-2.7,1.6-0.6,3.9c1.6,1.7,2,4.4,0.8,6.2c-1.3,1.9-3,2.6-5.2,1.7c-2-0.9-2,1-2.8,1.8c-0.3,0.3-0.2,1-0.8,1
			c-0.8,0-0.8-0.7-0.9-1.2c-0.6-2.2-0.4-4.4-0.2-6.7c0.1-0.8,0.3-1.6,0.3-2.4c0-3-1-3.6-3.9-2.2c-0.3,0.6-0.8,0.9-1.4,0.9
			c-0.5,0-0.9,0.1-1.4,0.1c-0.6-0.2-1.3,0.6-1.7-0.2c-0.4-0.8,0.5-1,1-1.4C19.1,24.3,19.6,23.9,20.2,23.4z"/>
		<path class="st48" d="M47.7,56.3c-1.1,0.1-2-0.3-2.3-1.4c-0.3-1.2,0.9-1.5,1.6-1.8c1.5-0.6,2.2-1.8,3.1-2.9
			c0.3-0.3,0.7-0.8,1.2-0.4c0.3,0.2,0.5,0.7,0.4,1.1c-0.1,1.6-0.5,3.2-1.6,4.4c-0.3,0.1-0.7,0.3-1,0.4
			C48.6,55.9,48.2,56.1,47.7,56.3z"/>
		<path class="st49" d="M31.3,50.5c1.1,1.5,2.8,2.1,4.3,2.9c0,1-0.8,0.9-1.4,1c-2.6-1.5-5.5-1.2-8.3-1.5c-0.9-0.1-1.6,0.5-2.5,0.8
			c-1.5,0.4-1.1-0.5-0.8-1.3c0.9-0.8,2.2-1.3,1.9-2.9c0.2,0,0.3,0,0.5,0c0.8,1.2,1.3,2.9,3.4,2.2c0.2-0.1,0.4-0.2,0.6-0.3
			c1.1-0.7,0.7-2.1,1.3-3c0.4-0.5,0.9-0.7,1.5-0.5C32.6,48.9,30.3,49.4,31.3,50.5z"/>
		<path class="st50" d="M48.1,60.2c0.3-0.8-0.4-1.8,0.6-2.4c0.5,1,1.3,1.8,2.3,2.3c-0.6,1-1.6,0.3-2.4,0.6
			C48.4,60.5,48.3,60.4,48.1,60.2z"/>
		<path class="st51" d="M51.1,60.1c-1.9,0.3-2.6-0.6-2.3-2.3c0.7-0.6,1.6-0.9,2.3-0.2C51.9,58.3,51.6,59.3,51.1,60.1z"/>
		<path class="st48" d="M62.6,45.2c-0.8,2.5-0.2,6.1-2.3,9.2c-1.5,2.2-3.6,2.6-5.9,2.3c-1.5-0.2-1.5-1.2-1.1-2.3
			c2.3-5.7,3.9-11.5,5.2-17.5c0.1-0.6,0.1-1.5,0.8-1.6c0.9-0.1,1.1,0.8,1.3,1.5C61.4,39.2,62.9,41.5,62.6,45.2z"/>
		<path class="st52" d="M20.7,26.3c0.3-0.6,0.8-0.9,1.4-0.9c3,0.1,3.1,0.2,2.6,3.2c-0.6,3.1,0.3,6.2,0.6,9.3c0.2,1.9,0,3.9,1.4,5.5
			c0.2-0.1,0.5-0.2,0.5-0.4c0.3-3.6,2.4-4.9,5.8-5.2c1.6-0.1,3.6-0.1,4.4-1.8c1.2-2.8,2.5-5.7,1.2-8.8c-0.8-2-0.5-2.8,1.6-3
			c0.7-0.1,1.4-0.2,2.1-0.3c0.7-0.1,1.9,0.5,2.1-0.5c0.3-1-1.3-0.7-1.7-1.4c0.2,0,0.3,0,0.5,0c0.5,0,1,0,1.4,0c0.6,1,0.6,1.9,0,2.9
			c-1.3,0.9-1.9,1.9-1.5,3.6c0.4,1.6,0.4,3.3-0.1,4.9c-0.5,1.5,0.3,1.8,1.4,1.9c0.7,0.8,0,1.2-0.5,1.5c-4.7,3-8.7,7-13.5,10
			c-0.3,0.2-0.6,0.2-0.9,0.3c-1.4,0.4-2.5-1.1-3.9-0.5c-0.4-4-1.6-7.8-3.8-11.3c-1.3-2.2-1.4-4.5-0.9-6.7
			C21.6,27.5,21.3,26.9,20.7,26.3z"/>
		<path class="st53" d="M29.8,47.1c4.7-3.5,9.1-7.4,14-10.6c0.4-0.2,0.7-0.6,1-1c0.5-1,1.2-1.7,2.4-1.5c1,0,1,0.7,0.9,1.4
			c-1.5,2.9-4.2,4.5-6.6,6.4c-2.6,2.1-5.5,3.8-8.3,5.7c-0.4,0.3-0.9,0.7-1.5,0.4c-0.5,0.2-1,0.3-1.5,0.5c-0.4-0.2-0.7-0.4-0.5-1
			C29.8,47.4,29.8,47.2,29.8,47.1z"/>
		<path class="st54" d="M29.8,47.6c0.2,0.3,0.3,0.6,0.5,1c-0.2,1.3,0.4,2.8-1.5,3.4c-0.3-0.5-0.2-1.1-0.1-1.6c0-0.9-0.2-1.6-1.3-1.6
			c-1.2,0-1.5,0.7-1.1,1.7c0.2,0.3,0.3,0.5,0.6,0.6c0.6,0.4,1.4,0.2,1.9,0.8c-2.6,1-3.6,0.5-3.9-2.4c-0.1-1.4,0.7-2,2-1.9
			C27.9,47.6,28.9,47.6,29.8,47.6z"/>
		<path class="st55" d="M31.8,48.1c5.6-4,11.5-7.6,16.4-12.6c0.7-0.2,1.1-1,1.9-1c-0.7,8-6.1,14-13.9,15.4c-1,0.2-2.1,0.2-3.1-0.2
			c-0.8-0.3-1.6-0.5-1.8,0.7C30.1,49.4,31.6,48.8,31.8,48.1z"/>
		<path class="st56" d="M47.2,34.1c-0.8,0.5-1.6,1-2.4,1.5c-0.9,0-1.7,0.9-2.5,0.3c-0.9-0.8,0.2-1.6,0.4-2.4c0.3-1.8,0.5-3.7,0-5.4
			c-0.6-2.1,0-3.1,2.2-3.1c0.8,0.2,1.6,0.3,2.4,0.5c-0.9,1.9-0.4,3.9-0.4,5.9c0,1.2,0.9,1.4,1.9,1.3C48.2,33.1,47.7,33.6,47.2,34.1z
			"/>
		<path class="st57" d="M59.8,27.3c-0.1,1-0.7,1.8-1.9,1.8c-1.2,0-1.9-0.7-2-1.9c-0.1-1.5,0.9-1.9,2.2-1.9
			C59.3,25.3,59.8,26,59.8,27.3z"/>
		<path class="st58" d="M26.5,21.1c1.5-0.2,3,0.1,3.7,1.6c0.4,1,0.2,2.1-0.8,2.8c-0.8,0.6-1.7,0.7-2.5,0.1c-0.9-0.7-1.7-1.6-1.3-2.8
			c0.1-0.4,0.5-0.8,0.7-1.2C26.5,21.3,26.5,21.2,26.5,21.1z"/>
		<path class="st59" d="M26.4,51.5c-0.2-0.2-0.3-0.3-0.5-0.5c-0.3-1-0.5-1.9,0.6-2.5c0.7-0.3,1.4-0.3,2,0.2c0.7,0.5,0.7,1.3,0.4,2
			C28.6,51.9,27.5,51.8,26.4,51.5z"/>
		<path class="st60" d="M26.4,51.5c0.5,0,1,0,1.4-0.1c0.8-0.2,1.1-0.8,1-1.6c-0.1-0.6-0.5-1-1.1-1.1c-0.8-0.1-1.4,0.1-1.7,0.9
			C26,50,26,50.5,25.9,51c-0.7-0.9-0.7-1.8,0.1-2.6c0.7-0.6,1.7-0.5,2.5-0.2c1,0.4,0.9,1.4,0.8,2.3c0,0.5-0.3,0.9-0.5,1.3
			c0,0,0,0,0,0C28,51.8,27.1,52.2,26.4,51.5z"/>
		<path class="st61" d="M59.3,27.1c-0.1,0.9-0.7,1.2-1.5,1.2c-0.6,0-1.2-0.3-1.1-1c0.1-0.8,0.6-1.3,1.4-1.3
			C58.8,25.9,59.2,26.4,59.3,27.1z"/>
		<path class="st62" d="M29.3,23.3c0,1-0.5,1.5-1.5,1.5c-0.7,0-1.3-0.3-1.3-1.1c-0.1-0.9,0.5-1.5,1.4-1.7
			C28.8,21.9,29.2,22.5,29.3,23.3z"/>
	</g>
</g>
<g id="Layer_3" class="st0">
	<g class="st1">
		<path class="st63" d="M45.7,4c3.4,0.5,5.3,2.8,6.7,5.6c2.6,5.1,7.1,8.9,10,13.9c4.4,7.7,5.4,15.6,1.1,23.7
			c-0.7,1.3-1.8,2.2-2.8,3.2c-1.5-0.6-0.3-1.8-0.6-2.7c0-0.5,0.1-1.1,0.1-1.6c0-0.3,0.1-0.5,0.2-0.8c0.2-0.6,0.3-1.2,0.7-1.7
			c4.1-6.4,2.8-12.6-0.6-18.7c-2.8-4.4-6.4-8.2-9.3-12.5c-0.8-1.3-1.6-2.6-2.5-3.8c-0.7-1.1-1.4-2.1-2.6-2.6c-1-0.4-2.1-0.1-3.1-0.3
			c-0.8-0.1-1.8,0.1-2.1-1.1C41.7,4.2,43,4.2,43.6,4C44.3,4,45,4,45.7,4z"/>
		<path class="st64" d="M19.9,68.3c-0.7-0.5-1.2-6.1-0.7-8.9c0.7-3.6,6.3-8.5,10.5-8.9c0.1,0.1-3.4,2.3-3.3,2.4
			c0,0.6-0.3,1.1-0.7,1.3c-2.6,1.6-3.8,4.1-4.9,6.7c-0.6,1.7-0.3,3.5-0.2,5.2C20.7,66.9,21.2,67.9,19.9,68.3z"/>
		<path class="st65" d="M40.9,4.7c1.7,1.1,4-0.4,5.9,1c-0.5,0.6-1.3,0.6-2,0.7c-2.2-0.1-4.3-0.2-5.2,2.4c-0.3,11.9,0,23.7-0.2,35.6
			c0,1.9,0.5,4-0.5,5.8c-0.3,0.3-0.6,0.3-0.9,0.1c-0.7-1.1-0.1-2.3-0.1-3.4c0-12.3,0-24.6,0-36.9c0-0.4,0-0.7-0.2-1.1
			C37.8,6.7,38.8,5.3,40.9,4.7z"/>
		<path class="st66" d="M37.7,8.9c0.6,0.7,0.4,1.5,0.4,2.3c0,13.1,0,26.1,0,39.2c-0.2,0.3-0.5,0.4-0.8,0.6c-1.6,0-3.5,1.1-4.6-1
			c4.8,0.5,5-0.4,4.8-5.9c-0.3-10.8,0-21.6,0-32.5C37.6,10.7,37.7,9.8,37.7,8.9z"/>
		<path class="st67" d="M32.8,50c1.7,0,3.2,0.2,4.8,0.5c-0.3,1.5-1.6,1.1-2.5,1.2c-1.3,0.1-2.6-0.2-3.9,0.4
			c-1.2,0.6-2.4,1.1-3.8,1.1c-0.5-0.1-0.8-0.2-1.2-0.6l-0.1-0.1C28,50.7,30.3,50.1,32.8,50z"/>
		<path class="st68" d="M50,33.7c-1.3-0.1-2.1,0.2-2.1,1.9c0.1,5,0.5,9.3,0.3,14.7c-0.2,7.3,2.1,9.4,0.3,14.1
			c-1.3,3.4-3.6,5.6-6.3,7.7c-1.3,0.4-1.2-0.4-0.8-1.1c0.6-1.2,1.7-2.1,2.7-3c2.1-2,2.3-5.1,2.3-7.1c-0.1-4.7,0-9.5-1.4-14.1
			C44.8,41.9,45,37,45,32.1c0-2.5,0.7-2.9,3.4-2.7c1.2,0.4,2.1,1.3,2.7,2.5C51.4,33.8,51.4,33.8,50,33.7z"/>
		<path class="st69" d="M45.7,33c0.7,0.6,1,15.7,1,16.4c-0.1,3.7,0.3,9.9,0.2,13c-0.2,4.4-0.7,5-3.7,7.7c-1.1,1-1,1-0.8,2
			c-1.3,0.8-2.5,1.6-4.1,1.7c-0.9,0.4-1.4,0.1-1.4-0.9c1.6-1.9,4.1-2.5,5.6-4.4c1.8-1.6,2.6-3.4,2.5-5.9c-0.1-4.1-0.1-8.2,0-12.4
			C45,49.2,44.7,33.8,45.7,33z"/>
		<path class="st70" d="M37.1,72.6c0,0.8,0.5,1,1.2,1.1c-6.4,3.2-15.8,0.4-18.4-5.5c0.5-1.9-0.5-3.7-0.1-5.6
			c0.2-0.8-0.3-1.8,0.6-2.4C21.2,61,21,62,21.1,63c0.2,5.2,4.2,9.1,9.4,9.5C32.7,72.6,34.9,71.9,37.1,72.6z"/>
		<path class="st71" d="M50,33.7c1.3-0.1,0.4-1.1,0.6-1.6c1.5-0.3,2.2,0.8,2.8,1.8c1.7,2.7,3.3,5.3,4.2,8.4c0.1,1.2,0.5,2.5,0.5,3.7
			c0,2.1,1,1.5,2.6,1.1c0.4,0.9-0.8,2.5,0,3.4c-1.4,1.1-2.7,1.3-2.7,1.3c-1.4-0.3-1.4-1.6-1.5-2.6c-0.3-4.7-1.9-8.9-4.3-12.8
			C51.7,35.3,50.9,34.5,50,33.7z"/>
		<path class="st72" d="M60.8,24.6c3.7,5.7,5.3,11.6,1.6,18c-0.6,1-1,2-1.6,3.1c-0.9-0.9-0.7-2-0.7-3.1c0-0.6,0.1-1.2,0.2-1.8
			c1.3-3.9,1.2-7.8,0.2-11.7c-0.3-1.1-0.5-2.1-0.4-3.2C60.3,25.3,60.4,24.9,60.8,24.6z"/>
		<path class="st73" d="M60.8,42.4c0,1.1,0,2.2,0,3.2c0,0.2,0,0.4,0,0.6c-1.2,1.6-2.2,1.2-2.9-0.5c-0.4-1.1-0.5-2.2-0.9-3.3
			c-1.8-3.6-3.9-8-6.1-10.4c-0.6-0.7-1-1.4-2.1-2c0.1-0.1,0.2-0.2,0.3-0.3c1.2-0.5,2.1,0.2,2.8,1c1.8,2.1,3.8,4,5,6.6
			C57.8,39.3,59,41.1,60.8,42.4z"/>
		<path class="st74" d="M60.1,23.6c0,0.4,1,0.8,1.9,3.2c-1.1,0.2-2.5-1.8-3-2.4c-1.2-1.7-2.4-3.3-3.9-4.8c-0.9-0.9-1.5-2-2.3-3
			c-1.3-1.9-3.2-3.3-4-5.5c-0.3-0.9-0.7-1.8,0.1-2.7c2.5,3.3,5,6.6,7.4,10C57.8,20.5,58.4,21.2,60.1,23.6z"/>
		<path class="st75" d="M49,8.3c0.2,0.9,0.3,1.8,0.5,2.7c-2.4-0.3-3.3-2.4-4.7-3.9c-0.2-0.5-0.4-0.9-0.1-1.4c0.7,0,1.4,0,2.2,0
			C47.8,6.3,47.7,6.8,49,8.3z"/>
		<path class="st76" d="M56.9,42.1c0.7,0.6,1,1.9,1.2,2.7c0.3,1.9,1.5,3.2,4-1.6c0,0.5-0.4,2.9-1.5,4.2c-0.9,0.8-1.7,1.5-2.9,1.9
			c0,0,0-1.7-0.1-2.7C57.5,45.2,57.1,43.7,56.9,42.1z"/>
		<path class="st77" d="M37.1,72.6c-5.2,1-10.2,1.2-14.3-3.2c-2.6-2.8-2.5-5.9-2.4-9.2c1-3.3,2.9-4.8,5.3-7c1.6-1.1,4.6-1.7,5-1.6
			c0.6,1.4-3.7,3-4.5,3.7c-1,0.9-2.1,1.6-2.5,3c-1.9,3.6-1.7,7,1.1,10.1c2.8,3.7,9.5,4.8,15.1,1.1c0.8-0.6,3.5-5.8,4.7-5.4
			c0,2.7-1.7,4.9-2.1,5.2C40.9,70.9,39.2,72.1,37.1,72.6z"/>
		<path class="st78" d="M44.7,5.7c0.2,0.4,0.4,0.7,0.5,1.1C45,7,44.7,7.2,44.4,7.3c-3.2,0.6-3.3,0.7-3.3,4c-0.1,6.6,0,13.2,0,19.9
			c0.1,5.5,0.1,10.9,0,16.4c0,1.4,0.1,3-1.7,3.5c-0.3-0.2-0.5-0.5-0.5-0.9c0-13.2,0-26.3,0-39.5c0-1-0.2-2,0.2-2.9
			C40.4,5.4,42.5,5.5,44.7,5.7z"/>
		<path class="st79" d="M39.2,7.8c0,14.2,0,28.4,0,42.6c-0.1,0.1-0.2,0.1-0.3,0.2c-0.1-0.1-0.2-0.1-0.3-0.2c0-13.2,0-26.4,0-39.5
			C38.7,9.9,38.3,8.7,39.2,7.8z"/>
		<path class="st79" d="M30.6,51.6c1.2-1.1,2.7-0.4,4-0.6c1-0.2,2.1,0.4,3-0.5c0.2,0,0.4-0.1,0.5-0.1c0.2,0,0.4,0,0.5,0c0,0,0,0,0,0
			c0,1.9,0.7,2.7-2.7,1.8c-0.5,0-0.9,0-1.4,0C33.3,52.2,31.9,52.6,30.6,51.6z"/>
		<path class="st80" d="M30.6,51.6c2.1-0.5,4.4-0.5,5.5-0.1c0.4,0.5-0.7,1.1-1,1.7c-1.1,1.2-2.6,1.1-4.1,1.2c-2.3,0-3.9,1.4-5.7,2.6
			c-0.7,0.5-1.2,1.4-2.3,1c0.2-1.6,1.5-2.3,2.6-3.1c0.8-0.6,1.6-1,1.8-2.1C28.5,52.5,29.7,52.3,30.6,51.6z"/>
		<path class="st81" d="M42.4,69.3c0-0.4,1.6-2.2,1.6-2.6c0.2-6.9-0.6-13.2-0.2-20.6c0.2-4.7,0-9.5,0.1-14.2c0-1.2-0.1-2.5,0.8-3.6
			c2-1.1,3.5-0.7,4.3,1.6c0,0-0.2,0-0.2,0c-2.7-0.8-3.3,0.4-3.2,3c0.2,4.7,0.1,9.5,0.1,14.2c0,5.3-0.1,10.6,0,15.9
			C45.8,65.9,44.7,67.9,42.4,69.3z"/>
		<path class="st82" d="M49,29.9c-1.1-1-2.2-1.9-3.8-1.6c-0.2-0.2-0.2-0.5-0.2-0.8c0.4-0.8,1-0.8,1.8-0.7c3.1,1.2,6,2.6,8.3,5.2
			c1.4,1.5,3.1,3.2,5.5,1.6c0.3-0.2,0.5,0.4,0.7,0.7c0.1,2.1,0.2,4.3-0.5,6.4c0,0.5,0,1.1,0,1.6c-2.6,0.1-3.2-2.1-4-3.8
			c-1.2-2.7-3.3-4.7-5-7C51.2,30.7,50.4,29.8,49,29.9z"/>
		<path class="st83" d="M60.8,42.4c0-2.3,0-6.3,0-8.6c-1.2-2.5-1.1-5.4-2.5-7.8c-0.7-1.6-1.5-3.2-2.5-4.7c-0.4-0.6-1-1.3-0.4-2.1
			c2.4,1.6,3.5,4.4,5.4,6.5c0.4,3.7,1.5,7.3,1.1,11.1C61.8,38.2,61.8,41.2,60.8,42.4z"/>
		<path class="st84" d="M55.5,19.1c0.8,2.3,2.9,4,3.2,6.5c0.5,1,0.6,2.1,0.7,3.2c-2.2,0.8-2.9-0.7-3.6-2.4c0.9-3.1-1.7-4.9-2.9-7.2
			c-0.7-1.3-1.8-2.2-2.8-3.2c-0.6-0.7-6-4.1-5.5-5.3c2.4-0.5,7.4,4.5,8.7,5.7C54.4,17,54.7,18.3,55.5,19.1z"/>
		<path class="st85" d="M53.3,16.4c-1.5-0.8-2.4-2.6-4.3-2.7c-2.6-0.3-3.4-2.6-4.7-4.3c-0.2-0.5-0.3-1-0.2-1.6
			c0.1-0.4,0.3-0.8,0.6-1.1c0.2,0,0.3,0,0.5,0c1.3,1.6,2.7,3.1,4.3,4.3C50.3,13.1,52.6,14.2,53.3,16.4z"/>
		<path class="st86" d="M45.2,27.8c0,0.2,0,0.4,0,0.5c-0.7,1.1-0.6,2.2-0.6,3.4c0,10.3,0.2,20.5,0,30.8c-0.1,4.7-0.6,4.2-2.2,5.8
			c-3.9,3.5-8.3,5.3-13.6,3.8c-1.9-0.6-3.6-1.5-4.8-3.2c0.4-0.4,1-0.6,1.6-0.5c2.2,0.7,4.3,1.5,6.7,1.5c7.2-0.2,9-6.7,8.6-11.8
			c-0.1-1.2-1.1-1.8-2.3-1.9c-1.4-0.2-2.5-0.8-3.5-1.8c-0.3-0.3-0.5-0.7-0.4-1.1c0-0.5,0-1.1,0-1.6c0.4,0,0.7,0,1.1,0
			c1.5,2.8,2.6,0.6,3.7-0.4c2.2-2,3.3-4.3,3.1-7.3c-0.2-4.5-0.1-9.1,0-13.7c0-0.6,0.1-1.2,0.4-1.8C43.7,27.7,44.3,27.2,45.2,27.8z"
			/>
		<path class="st87" d="M25.8,68.8c-0.5,0-1.1,0-1.6,0c-2.9-3.3-3.1-7-1.1-10.8c2.3-1.8,4.5-3.9,7.6-4.3c0.2,1.1-0.6,1.7-1.4,2
			c-4.5,2.1-5.1,5.7-4,10C25.3,66.8,26.2,67.7,25.8,68.8z"/>
		<path class="st88" d="M43.5,29.9c0,5.1-0.1,10.2,0.1,15.3c0.1,3.4-1.7,5-4.3,6.3c-0.1-0.1-0.2-0.2-0.1-0.4c0-0.1,0.1-0.2,0.1-0.2
			c1.2-0.6,1-1.8,1-2.8c0-5.7,0-11.4,0-17.2C41.6,31.3,42.3,29.8,43.5,29.9z"/>
		<path class="st89" d="M43.5,29.9c-1.2,0.1-1.2,3.5-3.2,1.1c0-6.7,0-13.4,0-20.1c0-4,0.3-4.2,4.3-4.1c0,0.4,0,0.7,0,1.1
			c-2.1,1.4-2.6,3.4-2.5,5.9c0.1,3.1,0,6.1,0,9.2c0,1.4,0.2,2.7,1.1,3.8c0.3,0.5,0.6,1,0.4,1.7C43.6,28.9,43.6,29.4,43.5,29.9z"/>
		<path class="st90" d="M39.3,51c0,0.2,0,0.4,0,0.5c-0.1,1,0.2,2.5-1.2,2.6c-1.6,0.1-2-1.1-2.1-2.5c1-0.1,2.9,2.2,2.7-1.1
			c0.2,0,0.4,0,0.5,0C39.3,50.6,39.3,50.8,39.3,51z"/>
		<path class="st91" d="M24.7,66.1c-1.3-4.5-0.9-8.9,3.7-10.6c0.8-0.3,1.8-0.8,2.2-1.8c1.5,0.1,2.9-0.1,4.3-0.5
			c0.2,0.2,0.4,0.4,0.5,0.5c0.2,0.3,0.4,0.6,0.5,0.9c2.4,3.8,2.2,4.8-1.7,7.3c-1.3,0.8-2,2-2.7,3.3C29.8,68.7,27.4,69,24.7,66.1z"/>
		<path class="st92" d="M43.6,28.3c-0.2-0.4-0.4-0.7-0.5-1.1c0-0.6,0-1.3,0.5-1.8c2.1-0.5,4.2-1,5.9-2.7c1.2-1.3,2.6-0.4,3.9,0.3
			c1,0.9,2.3,1.7,2.7,3.1c0.8,1.2,1.5,2.6,3.2,2.7c-0.2,2.1-0.7,2.5-2.9,1.8c-3.2-1.1-6.3-2.3-9.6-3.4c-0.6,0-1.2-0.1-1.6,0.5
			C44.6,28,44.1,28.2,43.6,28.3z"/>
		<path class="st93" d="M46.8,27.3c3.4,0.2,6.6,1.5,9.7,2.7c1.4,0.5,2.4,0.8,2.7-1.1c-0.6-1-0.6-2.1-0.5-3.2
			c1.7,2.4,2.3,5.2,2.2,8.1c-1.3,2-2.6,2-4.3,0.4C53.6,31.4,50.6,28.7,46.8,27.3z"/>
		<path class="st94" d="M53.3,23.5c-1.7-0.7-3.1-1-4.6,0.8c-1.1,1.3-3.1,2-5.1,1.4c-0.5-0.2-1-0.6-1-1.1c-0.4-4.8-1-9.6,1.2-14.1
			c0.2-0.4,0.5-0.7,0.9-0.9c1.6,1.3,2.4,3.3,4.3,4.3c1.1,2.1,3.7,2.9,4.3,5.4c-0.7,0.4-1.3-0.4-2.1-0.2C51,20.8,53.6,21.5,53.3,23.5
			z"/>
		<path class="st95" d="M53.3,23.5c-0.8-1.1-1.6-2.1-2.4-3.2c-0.5-0.6-1.2-1.3-0.5-2.1c0.9-1,1.6,0.1,2.3,0.5
			c0.2,0.1,0.5,0.3,0.7,0.4c1.3,1.4,2.4,3.1,3.3,4.9c0.4,1,0.5,1.7-0.6,2.2C54.9,25.5,54,24.6,53.3,23.5z"/>
		<path class="st96" d="M44.6,9.4c-2,4.5-1.6,9.2-1.6,13.9c0,0.8,0.2,1.6,0.6,2.3c0,0.6,0.1,1.2-0.5,1.6c-1.2-0.7-1.6-1.9-1.6-3.2
			c0-4.3,0-8.6,0-12.8c0-2.1,1.1-3.3,3.2-3.4C44.6,8.4,44.6,8.9,44.6,9.4z"/>
		<path class="st97" d="M24.7,66.1c4.2,2.1,4.8,1.9,6.8-2.3c0.5-1.1,1.3-1.9,2.3-2.5c3.5-1.8,3.6-2.3,2-5.8
			c-0.2-0.5-0.3-1.2-0.4-1.8c1.2,0.8,2.1,1.7,3.8,1.7c2,0,2.7,1.4,2.7,3.3c0.2,10.5-8,14.5-16.2,10.1C25.4,67.9,25,67,24.7,66.1z"/>
	</g>
</g>
<g id="Layer_4">
	<g>
		<path class="st98" d="M11.6,65c3.6-1.3,7.3-3,10.9-4.3c2.6-0.9,4.5-1,4.4-4.1c0-2.5-0.4,2.9-0.3-1.7c-0.1-2.3-0.1-11.1-0.2-12.9
			c0-0.2-0.5-27.3-0.5-27.3c38.2-8.6,2.4,7.9,3.5,8.4c0.3,7,0.4,32-0.3,38.9c-5.7,2.8-11.2,6-17.7,6.6c-0.5,0-0.9-0.2-1.3-0.6
			C10.1,67.3,11,65.4,11.6,65z"/>
		<path class="st99" d="M10.1,68.1c0.3,0,0.7,0,1,0c3.2,0.9,6.4,0.3,9.6-0.1c2.2-0.3,4.1-0.8,5.3-2.9c0.6-1.1,2.9-1.5,3.4-7.4
			C29.6,69.3,26.8,71,23,72.8C18.6,74.9,10.1,75,10.1,68.1z"/>
		<path class="st100" d="M29.2,41.1c-1.7,0.6-1.2,4.3-2.2,6.3c-0.5-9.8-1-29.2-1-29.2s6.4-2.2,9-2.9c8.2-2,16.3-4.2,24.5-6
			c2.3-0.5,4.6-0.8,6.6,0.9c0,1,0,2,0,2.9c0.9,6.8,0.2,13.7,0.4,20.5c-0.9,4.3-0.3,8.6-0.5,12.9c-0.1,2.1,0.3,4.5-2.8,4.9
			c-0.8-0.8-0.7-1.6-0.3-2.5c1.1-1.2,1.4-2.5,1.3-4.1c-0.3-7.8-0.6-15.6-0.8-23.4c0-1.6-0.4-4.1-2.2-3.4c-0.4-0.3-0.6-0.7-0.6-1.1
			c-0.2-1.6-1.4-1.8-2.6-1.6c-8.8,1.5-17.5,3.4-25.8,6.7c-0.6,0.2-0.8,1-1.2,1.6c-1.7,1.6-1.8,3.1-1.8,3.1
			C29.1,30.6,29.4,37.1,29.2,41.1z"/>
		<path class="st101" d="M66.2,55.3c-1.2,7.2-7.9,11.8-14.9,9.9c-3.1-0.8-4.6-2.8-3.3-6.2c6.7,0.8,11.8-4.4,18.1-5.1
			C66.6,54.4,66.4,54.6,66.2,55.3z"/>
		<path class="st102" d="M65.9,54.2c-5.7,2.4-10.6,8-17.8,4.8c0.1-0.3,0.3-0.6,0.4-0.9c4.6-2.9,9.8-4.6,14.7-7
			c2.5-1.2,1.9-3.5,2.1-5.5c0.4-3.8-1.2-7.8,0.9-11.4C66.7,40.8,67.3,47.5,65.9,54.2z"/>
		<path class="st103" d="M29,63.1c-2.7,1.3-3.5,7.2-7.4,7.5c-3.9,0.4-6.7,1.2-10.5-2.5c6.3-1.1,11.5-5.5,18-6
			C29.1,62.4,29.1,62.8,29,63.1z"/>
		<path class="st104" d="M63.1,51.1c-3.8,4.6-9.4,5.6-14.7,7c2.1-3.9,5.9-5.6,9.6-7.4c1.6-0.8,3.3-1.3,4.9-2
			C63,49.6,63.1,50.3,63.1,51.1z"/>
		<path class="st105" d="M65.9,54.2c0.1-6.7,0.2-13.4,0.3-20.1c0-7-0.1-21.6,0-28.7C66.3,5,66.8,4.8,67,5
			c0.1,12.7,0.1,33.5,0.2,46.1c-0.4,1.4-0.7,2.8-1.1,4.1C66.1,54.9,66,54.6,65.9,54.2z"/>
		<path class="st106" d="M61.2,17.1c2-0.4,2.3,0.7,2.3,3c1.3-3.3-20.2,1.8-20.4,1.9c-0.3-0.5-0.3-1.1,0-1.6
			C48.7,17,54.6,15,61.2,17.1z"/>
		<path class="st107" d="M44.8,19.6c0,0.3-1.5,2.1-1.5,2.4c0,0-5.9,1.3-8.9,2c-3.1,0.7-5.3,1-5,5.7c-1.5-2.1-0.2-4.6,0.8-6.6
			C34.3,20.6,39.9,17.1,44.8,19.6z"/>
		<path class="st108" d="M66.2,10.1c-6.9,1-13.8,2.3-20.3,3.9c-6.4,1.6-13.4,2.8-19.9,4.1c0-1.5,0-3.3,0-3.3
			c0.6-0.5,0.7-0.2,4.2-1.5c8.2-3.2,19.9-5.7,30.1-7.4c1.4-0.2,6.6-1.4,6.6-1.4C67.1,5.6,66.6,7.7,66.2,10.1z"/>
		<path class="st109" d="M27,54.9c0.6,4.4-1.5,6.5-5.7,7.6c-3.1,0.8-6.3,2.7-9.7,2.5c1.2-1.5,5.3-6.5,12.4-6.8
			C26.3,58.2,26.8,56.1,27,54.9z"/>
		<path class="st110" d="M43.1,20.1c-6.3,0.9-14.5,3.4-14.3,6.7c0.1-1.5-0.5-5.7,3.5-6.6c8.7-1.8,26.2-6.1,26.2-6.1
			c2.8-0.1,3.3,1.1,4,1.7c0.6,0.5,1.3,3.2,1,3.4C64,15.2,50.5,18,43.1,20.1z"/>
	</g>
</g>
</svg>
