<?xml version="1.0" encoding="utf-8"?>
<!-- Generator: Adobe Illustrator 19.1.0, SVG Export Plug-In . SVG Version: 6.00 Build 0)  -->
<svg version="1.1" id="Layer_1" xmlns="http://www.w3.org/2000/svg" xmlns:xlink="http://www.w3.org/1999/xlink" x="0px" y="0px"
	 viewBox="0 0 80 80" style="enable-background:new 0 0 80 80;" xml:space="preserve">
<style type="text/css">
	.st0{fill:#292929;}
	.st1{fill:#313131;}
	.st2{fill:#181819;}
	.st3{fill:#424242;}
	.st4{fill:#0F0F10;}
	.st5{fill:#211C2A;}
	.st6{fill:#2B2347;}
	.st7{fill:#322D66;}
	.st8{fill:#282828;}
	.st9{fill:#45376B;}
	.st10{fill:#5B4A81;}
	.st11{fill:#58515D;}
	.st12{fill:#372D4F;}
</style>
<g>
	<path class="st0" d="M11.9,33c3.8-20.2,23.6-27.2,40.2-22.2c0,0.5-0.1,0.9-0.3,1.3c-2.4,1.8-4.2-1.2-6.2,2.3
		c-10.1-0.9-17.8,4.9-23.5,12c-4.7,5.8-3.5,12.2-2.9,18.6c0.1,0.5,0.3,1,0.4,1.5c0.2,0.4,0.4,0.8,0.3,1.4c-1,6,3.6,8.9,7.4,11.9
		c3.8,3,8.2,4.9,13.3,5.2c2,0.1,4.5-0.9,5.9,1.6c0.9,3.4-1.7,2.5-3.4,3.1c-2.9,1.1-5.6-0.6-8.3,1.6C22.8,69,14.8,59.1,12.1,45.4
		C11.2,41.2,11.5,37.6,11.9,33z"/>
	<path class="st0" d="M52.2,10.8c8.2,2.8,10.6,6.8,14.2,12.5c2.7,4.4,4.2,9.8,4.2,17c0,2.6-5.7,3.5-6.4,5.3
		c-0.5,1.5,0.3,3.7-2.4,3.7c-2.7-0.7-2.2-3.1-2.2-4.9c0.2-9.1-2.6-16.8-9.2-23.2c-1.9-1.9-3.3-4.4-4.7-6.8c0.6-3.6,3.3-1.7,5-1.5
		c1.2,0.1,2.6,1.3,3.6,1.9c-0.1-1.4-4-0.4-2.4-3.5C51.9,11.1,52,11,52.2,10.8z"/>
	<path class="st1" d="M63.3,44.2c1.9-2.4,2.3-3.4,7.2-4.3c-0.4,8.9-2.7,18.3-9.6,25c-6.7,6.5-17.4,8.6-26.6,6.3
		c-1.9-2,2.1-2.2,4.3-2.3c3.3-0.2,3.5-0.6,6.6-1.9c-0.3-1.2,2.9-1.5,4.3-1.9c6.1-1.9,9-7,11.7-12.1C62.2,51.1,60.2,43.9,63.3,44.2z"
		/>
	<path class="st2" d="M63.2,47.9C60.8,57.2,56,65.8,45,67c-9.8,0.5-18.5-1.5-24.5-10.1c-2.3-3.3-4.2-6.7-4.5-10.9
		c1.2-1.3,2.9-1.2,4.4-2c3.7-2.1,5.8-1.1,7.3,3.1c0.2,0.6,0.6-0.3,0,0c-0.3,0.1-0.5,0-0.4-0.2c0.2-0.9-0.7-2,0.4-2.8
		c6.5-1,9.8,1.5,10.8,8c0.2,1.1,1,1.6,1.7,2.2c2.1,0.7,3.8-0.2,5.6-1.1c3-1.8,4.8-4.3,5.7-7.6c0.3-0.6,0.3-1.4,0.7-1.9
		c1.3-3.9,0-7-3.5-8.7c-3.9-1.9-5.2-6.4-9-8.3c-1.1-0.6-1.4-1.8-2.3-2.5c-1.1-1-3.3-1.5-2.3-3.7c0.9-2.1,2.7-2.9,4.9-2.7
		c-12.5,0-20.7,8.3-21.6,21.9c-0.2,2.4,1.6,10-1.5,11.2c-7.2-17.9,5-40,26-38c2.5,0.1,3.6,0.6,4.9,1c0,0,2.6,1.2,3.4,1.9
		C61.8,23.8,65.6,35.5,63.2,47.9z"/>
	<path class="st3" d="M43.1,12.2c2.2-4.2,12.1,0.6,13.6,1.7c1.5,1.1,4.3,2.6,2.7,3.8c-1.3,1.9-1.8,1.5-4.7-1
		C48.9,11.6,44.4,12.6,43.1,12.2z"/>
	<path class="st4" d="M28,45c1.3,1.5,2.8,2.8,4,4.4c0.7,1,0.7,2.3-0.4,3.1c-1.2,0.9-2.2,0.2-3-0.8c-0.6-0.8-1.2-1.6-1.6-2.5
		c-1.6-3-3.1-5.8-5.1-0.3c-0.7,1.9-1.8,1.7-3,0.4c-1-1.1-1.9-2.3-2.8-3.5c0,0,0,0,0,0c-0.2-7.4,0.1-14.5,4.4-21
		c4.8-7.2,13.7-11.3,21.4-9.2c1.4,0.4,3.4,0.4,3.5,2.2c0.2,2.1-2,1.7-3.3,2.1c-1.1,0.3-2.4,0.1-3.1,1.4c0.5,2.2,3.9,1.1,4.1,3.6
		c-0.5,1.7-2,2.3-3.3,2c-2.1-0.5-3.2,1-4.7,1.7c-1.7,1.2-3,2.8-4.2,4.5c-0.3,0.6-0.7,1.2-1,1.9c-0.5,0.7-0.5,1.6-1,2.3
		c-1.1,2.2-0.5,4.7-0.8,7C28.1,44.6,28,44.8,28,45z"/>
	<path class="st5" d="M33,26.9c3-2.3,6.6-1.9,10-1.9c2.2,3.6,4.9,6.5,8.7,8.7c4.9,2.8,4.9,7.5,3.4,12.3c-1.6-0.4-3.3-0.7-2.7-3.2
		c0.3-1,0.8-2.4-0.9-2.7c-1.2-0.2-1.7,1-2.2,1.7c-3.5,4.8-7.5,9.2-9.2,15.1c-1.9-0.6-3.1-1.7-3.4-3.8c-0.7-5-3.8-7.5-8.6-8
		c0,0,0,0,0,0c-0.3-0.4-0.5-0.8-0.5-1.2c0-0.5,0.3-1.1,0.7-1.2c3.4-0.6,4.3-3,4.7-5.9c0.6-0.9,1.2-1.8,2-2.6
		c2.2-2.3,2.9-4.2-0.9-5.6C33.3,28.2,33.1,27.6,33,26.9z"/>
	<path class="st6" d="M40.1,56.9c-0.8-3.5,0.4-6.7,2.6-9.2c2.1-2.4,3.9-4.9,5.5-7.6c0.9-1.6,2-3.4,4.2-2.9c2.4,0.6,2.5,2.8,2.7,4.8
		c0.1,1.3,0.1,2.6,0.1,4c-0.3,0.4-0.6,0.7-0.9,1.1c-5.4,0.8-7.4,3.3-7.1,8.9C44.8,57.1,42.4,57,40.1,56.9z"/>
	<path class="st7" d="M47,56c-4.1-0.3-5.1-2-2.5-5.4c1.3-1.7,2.5-3.6,3.8-5.2c0.9-1.2,2-2.5,3.6-2.3c2.2,0.3,1.8,2.5,2.2,4
		C53,51.1,50.3,53.8,47,56z"/>
	<path class="st8" d="M38.8,61.7c3.4-2.1,6-2.1,9.8-1.8C45.3,63,42.8,63.3,38.8,61.7z"/>
	<path class="st9" d="M28,32.7c1.4-3.3,2.8-4.6,4.9-5.7c2.6-0.3,5.1-0.1,6.4,2.5c1.3,2.6-1.6,3.5-2.7,5.2c-0.5,0.8-1.2,1.6-1.8,2.4
		c-2.1,2.7-3.5,6.3-7.8,6.3c-1-2.4-0.7-4.8-0.2-7.3C27.3,35.4,27.7,33.3,28,32.7"/>
	<path class="st10" d="M28.9,32c1.8-0.9,2.8-3.4,5.7-3c-0.8,3.8-2.8,6.6-5.2,9.2c-2-1-1-2.8-1.4-4.1C28.3,33.4,28.6,32.7,28.9,32z"
		/>
	<path class="st2" d="M26.9,36c0.2,2.4-0.5,4.9,1,7.1c0.8,0.2,0.8,0.4,0.1,0.8c0,0.3,0,0.7,0,1C25.6,42.3,25.7,39.2,26.9,36z"/>
	<path class="st11" d="M42.2,37.4c-0.8,1.4-0.9,3.6-3.2,3.7c-1.2,0.1-1.5-1.1-1.4-2.1c0.1-1.8,1-3.2,2.8-3.5
		C41.7,35.3,42.2,36.2,42.2,37.4z"/>
	<path class="st12" d="M28,44c-0.1-0.3-0.1-0.5-0.1-0.8c2.3-2,4.7-4.1,7-6.1C34.5,41.2,32.2,43.5,28,44z"/>
</g>
</svg>
