<?xml version="1.0" encoding="utf-8" ?>
<svg baseProfile="full" height="100%" version="1.1" viewBox="0,-89430,660,179520" width="100%" xmlns="http://www.w3.org/2000/svg" xmlns:ev="http://www.w3.org/2001/xml-events" xmlns:xlink="http://www.w3.org/1999/xlink"><defs /><polyline fill="none" points="330.0,89760.0 330.0,88704.0 330.0,87648.0 330.0,86592.0 330.0,85536.0 330.0,84480.0 330.0,83424.0 330.0,82368.0 330.0,81312.0 330.0,80256.0 330.0,79200.0 330.0,78144.0 330.0,77088.0 330.0,76032.0 330.0,74976.0 330.0,73920.0 330.0,72864.0 330.0,71808.0 330.0,70752.0 330.0,69696.0 330.0,68640.0 330.0,67584.0 330.0,66528.0 330.0,65472.0 330.0,64416.0 330.0,63360.0 330.0,62304.0 330.0,61248.0 330.0,60192.0 330.0,59136.0 330.0,58080.0 330.0,57024.0 330.0,55968.0 330.0,54912.0 330.0,53856.0 330.0,52800.0 330.0,51744.0 330.0,50688.0 330.0,49632.0 330.0,48576.0 330.0,47520.0 330.0,46464.0 330.0,45408.0 330.0,44352.0 330.0,43296.0 330.0,42240.0 330.0,41184.0 330.0,40128.0 330.0,39072.0 330.0,38016.0 330.0,36960.0 330.0,35904.0 330.0,34848.0 330.0,33792.0 330.0,32736.0 330.0,31680.0 330.0,30624.0 330.0,29568.0 330.0,28512.0 330.0,27456.0 330.0,26400.0 330.0,25344.0 330.0,24288.0 330.0,23232.0 330.0,22176.0 330.0,21120.0 330.0,20064.0 330.0,19008.0 330.0,17952.0 330.0,16896.0 330.0,15840.0 330.0,14784.0 330.0,13728.0 330.0,12672.0 330.0,11616.0 330.0,10560.0 330.0,9504.0 330.0,8448.0 330.0,7392.0 330.0,6336.0 330.0,5280.0 330.0,4224.0 330.0,3168.0 330.0,2112.0 330.0,1056.0 330.0,-0.0 330.0,-1056.0 330.0,-2112.0 330.0,-3168.0 330.0,-4224.0 330.0,-5280.0 330.0,-6336.0 330.0,-7392.0 330.0,-8448.0 330.0,-9504.0 330.0,-10560.0 330.0,-11616.0 330.0,-12672.0 330.0,-13728.0 330.0,-14784.0 330.0,-15840.0 330.0,-16896.0 330.0,-17952.0 330.0,-19008.0 330.0,-20064.0 330.0,-21120.0 330.0,-22176.0 330.0,-23232.0 330.0,-24288.0 330.0,-25344.0 330.0,-26400.0 330.0,-27456.0 330.0,-28512.0 330.0,-29568.0 330.0,-30624.0 330.0,-31680.0 330.0,-32736.0 330.0,-33792.0 330.0,-34848.0 330.0,-35904.0 330.0,-36960.0 330.0,-38016.0 330.0,-39072.0 330.0,-40128.0 330.0,-41184.0 330.0,-42240.0 330.0,-43296.0 330.0,-44352.0 330.0,-45408.0 330.0,-46464.0 330.0,-47520.0 330.0,-48576.0 330.0,-49632.0 330.0,-50688.0 330.0,-51744.0 330.0,-52800.0 330.0,-53856.0 330.0,-54912.0 330.0,-55968.0 330.0,-57024.0 330.0,-58080.0 330.0,-59136.0 330.0,-60192.0 330.0,-61248.0 330.0,-62304.0 330.0,-63360.0 330.0,-64416.0 330.0,-65472.0 330.0,-66528.0 330.0,-67584.0 330.0,-68640.0 330.0,-69696.0 330.0,-70752.0 330.0,-71808.0 330.0,-72864.0 330.0,-73920.0 330.0,-74976.0 330.0,-76032.0 330.0,-77088.0 330.0,-78144.0 330.0,-79200.0 330.0,-80256.0 330.0,-81312.0 330.0,-82368.0 330.0,-83424.0 330.0,-84480.0 330.0,-85536.0 330.0,-86592.0 330.0,-87648.0 330.0,-88704.0 330.0,-89760.0 330.0,-90816.0 330.0,-91872.0 330.0,-92928.0 330.0,-93984.0 330.0,-95040.0 330.0,-96096.0 330.0,-97152.0 330.0,-98208.0 330.0,-99264.0 330.0,-100320.0 330.0,-101376.0 330.0,-102432.0 330.0,-103488.0 330.0,-104544.0 330.0,-105600.0" stroke="white" stroke-width="10" /></svg>